<?xml version="1.0" standalone="no"?>
<!DOCTYPE svg PUBLIC "-//W3C//DTD SVG 20010904//EN"
 "http://www.w3.org/TR/2001/REC-SVG-20010904/DTD/svg10.dtd">
<svg version="1.0" xmlns="http://www.w3.org/2000/svg"
 width="512.000000pt" height="512.000000pt" viewBox="0 0 512.000000 512.000000"
 preserveAspectRatio="xMidYMid meet">
<metadata>
Created by potrace 1.14, written by Peter Selinger 2001-2017
</metadata>
<g transform="translate(0.000000,512.000000) scale(0.100000,-0.100000)"
fill="#000000" stroke="none">
<path d="M4580 4096 c-88 -33 -149 -72 -217 -142 -55 -57 -78 -74 -100 -74
-32 0 -102 -30 -120 -51 -10 -12 -1 -13 54 -11 65 4 66 4 59 -20 -19 -61 -19
-63 28 -101 l45 -37 35 17 c20 9 39 13 43 10 4 -4 7 -34 7 -66 1 -32 5 -57 10
-54 17 11 36 74 36 124 0 47 4 55 46 102 54 60 98 144 119 224 26 98 22 103
-45 79z"/>
<path d="M4094 3482 c-287 -277 -1030 -785 -1599 -1095 -848 -461 -1580 -653
-1764 -463 -60 62 -50 152 30 276 l40 62 -48 -34 c-80 -56 -217 -199 -243
-252 -13 -27 -25 -70 -27 -95 -9 -97 77 -198 200 -237 71 -22 264 -29 384 -15
340 42 810 199 1282 430 69 33 126 59 128 57 6 -6 -105 -103 -202 -176 -229
-172 -498 -315 -778 -414 -17 -6 -17 -8 5 -38 44 -63 185 -194 274 -254 230
-158 448 -226 724 -227 218 0 372 35 568 130 226 110 437 311 560 535 189 343
208 758 52 1120 l-41 97 97 93 c172 165 340 375 434 541 17 31 30 57 28 57 -1
-1 -48 -45 -104 -98z m-1244 -1352 l-25 -25 -25 25 -25 25 25 25 25 25 25 -25
25 -25 -25 -25z m558 -55 c12 -20 34 -41 47 -47 32 -14 31 -20 -5 -41 -16 -10
-37 -31 -47 -47 -9 -17 -20 -30 -23 -30 -3 0 -13 14 -22 30 -10 17 -31 38 -48
48 -16 9 -30 19 -30 22 0 3 14 13 30 22 17 10 38 31 48 48 9 16 19 30 22 30 3
0 15 -16 28 -35z"/>
<path d="M2382 3560 c-298 -31 -570 -160 -781 -371 -187 -187 -312 -424 -357
-679 -17 -98 -23 -337 -9 -398 8 -39 1 -40 190 15 493 143 1199 494 1850 920
88 58 162 107 165 110 9 9 -123 122 -214 184 -112 76 -202 121 -314 159 -156
52 -368 76 -530 60z m-67 -276 l25 -25 -27 -28 -27 -27 -23 27 -24 28 23 24
c13 14 24 25 25 26 1 1 14 -10 28 -25z m105 -374 l28 -30 -29 -29 -29 -29 -29
29 -30 29 27 29 c15 16 29 29 30 30 2 0 17 -13 32 -29z m-665 -10 c8 -16 31
-40 51 -54 l36 -24 -32 -17 c-17 -9 -41 -32 -52 -51 l-21 -35 -24 35 c-13 20
-37 43 -54 51 l-30 16 33 22 c18 13 42 37 53 54 11 18 21 32 22 33 1 0 9 -13
18 -30z"/>
</g>
</svg>
