<svg width="4" height="12" viewBox="0 0 4 12" fill="none" xmlns="http://www.w3.org/2000/svg">
<path fill-rule="evenodd" clip-rule="evenodd" d="M1.99996 3.33333C2.73329 3.33333 3.33329 2.73333 3.33329 2C3.33329 1.26667 2.73329 0.666667 1.99996 0.666667C1.26663 0.666667 0.666626 1.26667 0.666626 2C0.666626 2.73333 1.26663 3.33333 1.99996 3.33333ZM1.99996 4.66667C1.26663 4.66667 0.666626 5.26667 0.666626 6C0.666626 6.73333 1.26663 7.33333 1.99996 7.33333C2.73329 7.33333 3.33329 6.73333 3.33329 6C3.33329 5.26667 2.73329 4.66667 1.99996 4.66667ZM0.666626 10C0.666626 9.26667 1.26663 8.66667 1.99996 8.66667C2.73329 8.66667 3.33329 9.26667 3.33329 10C3.33329 10.7333 2.73329 11.3333 1.99996 11.3333C1.26663 11.3333 0.666626 10.7333 0.666626 10Z" fill="#B5B9C4"/>
</svg>
