<svg width="16" height="15" viewBox="0 0 16 15" fill="none" xmlns="http://www.w3.org/2000/svg">
<path fill-rule="evenodd" clip-rule="evenodd" d="M14.6338 14.6667C15.3963 14.6667 15.8783 13.8476 15.508 13.181L8.87416 1.24016C8.49316 0.554347 7.50685 0.554347 7.12585 1.24016L0.492027 13.181C0.121732 13.8476 0.6037 14.6667 1.36618 14.6667H14.6338ZM8.75751 11.5407C8.75751 11.9591 8.41833 12.2983 7.99993 12.2983C7.58153 12.2983 7.24235 11.9591 7.24235 11.5407V11.4769C7.24235 11.0585 7.58153 10.7193 7.99993 10.7193C8.41833 10.7193 8.75751 11.0585 8.75751 11.4769V11.5407ZM7.24235 8.38275C7.24235 8.80115 7.58153 9.14033 7.99993 9.14033C8.41833 9.14033 8.75751 8.80115 8.75751 8.38275V6.74001C8.75751 6.32161 8.41833 5.98243 7.99993 5.98243C7.58153 5.98243 7.24235 6.32161 7.24235 6.74001V8.38275Z" fill="#DDDFE4"/>
</svg>
