<svg width="16" height="16" viewBox="0 0 16 16" fill="none" xmlns="http://www.w3.org/2000/svg">
<path fill-rule="evenodd" clip-rule="evenodd" d="M9.88 2.66665H12.6667C13.4 2.66665 14 3.26665 14 3.99998V13.3333C14 14.0666 13.4 14.6666 12.6667 14.6666H3.33333C3.24 14.6666 3.15333 14.66 3.06667 14.6466C2.80667 14.5933 2.57333 14.46 2.39333 14.28C2.27333 14.1533 2.17333 14.0133 2.10667 13.8533C2.04 13.6933 2 13.5133 2 13.3333V3.99998C2 3.81331 2.04 3.63998 2.10667 3.48665C2.17333 3.32665 2.27333 3.17998 2.39333 3.05998C2.57333 2.87998 2.80667 2.74665 3.06667 2.69331C3.15333 2.67331 3.24 2.66665 3.33333 2.66665H6.12C6.4 1.89331 7.13333 1.33331 8 1.33331C8.86667 1.33331 9.6 1.89331 9.88 2.66665ZM4.66667 6.66665V5.33331H11.3333V6.66665H4.66667ZM11.3333 9.33331V7.99998H4.66667V9.33331H11.3333ZM9.33333 10.6666H4.66667V12H9.33333V10.6666ZM8 2.49998C8.27333 2.49998 8.5 2.72665 8.5 2.99998C8.5 3.27331 8.27333 3.49998 8 3.49998C7.72667 3.49998 7.5 3.27331 7.5 2.99998C7.5 2.72665 7.72667 2.49998 8 2.49998ZM3.33333 13.3333H12.6667V3.99998H3.33333V13.3333Z" fill="#001730"/>
</svg>
