<svg width="12" height="12" viewBox="0 0 12 12" fill="none" xmlns="http://www.w3.org/2000/svg">
<path d="M2.78508 1H9.11737C9.22041 1.0002 9.32241 1.02071 9.41752 1.06038C9.51263 1.10004 9.59898 1.15807 9.67164 1.23115C9.74472 1.30383 9.80271 1.39025 9.84226 1.48544C9.88182 1.58062 9.90215 1.68269 9.9021 1.78577V9.92211C9.90197 10.0251 9.88151 10.1271 9.84191 10.2222C9.8023 10.3173 9.74432 10.4037 9.67129 10.4764C9.59861 10.5495 9.51219 10.6075 9.417 10.647C9.32182 10.6866 9.21975 10.7069 9.11668 10.7068H9.065V10.9173C9.06491 10.9392 9.05617 10.9602 9.04069 10.9757C9.0252 10.9912 9.00423 10.9999 8.98233 11H7.35981C7.33789 11 7.31686 10.9913 7.30135 10.9758C7.28585 10.9603 7.27714 10.9393 7.27714 10.9173V10.7068H4.62462V10.9173C4.62453 10.9392 4.61579 10.9602 4.6003 10.9757C4.58482 10.9912 4.56384 10.9999 4.54194 11H2.91977C2.89784 11 2.87681 10.9913 2.86131 10.9758C2.8458 10.9603 2.83709 10.9393 2.83709 10.9173V10.7068H2.78508C2.68201 10.7068 2.57996 10.6865 2.48478 10.6469C2.38961 10.6074 2.30318 10.5494 2.23046 10.4764C2.15751 10.4037 2.0996 10.3173 2.06006 10.2222C2.02051 10.1271 2.00011 10.0251 2 9.92211V1.78508C2.00014 1.68218 2.02057 1.58033 2.06011 1.48534C2.09966 1.39035 2.15754 1.30409 2.23046 1.23149C2.30312 1.1583 2.38951 1.10017 2.48468 1.06044C2.57986 1.02072 2.68194 1.00018 2.78508 1V1ZM5.95122 5.04423C6.39881 5.0443 6.83454 5.18811 7.19425 5.45448C7.55395 5.72084 7.8186 6.09568 7.94922 6.52379H8.03982C8.08853 6.5238 8.13676 6.53342 8.18174 6.5521C8.22673 6.57078 8.26758 6.59815 8.30197 6.63264C8.37174 6.70234 8.41101 6.79687 8.41118 6.89548V7.36984C8.4111 7.41857 8.40141 7.4668 8.38268 7.51179C8.36394 7.55677 8.33651 7.59762 8.30197 7.63199C8.2676 7.66653 8.22675 7.69395 8.18177 7.71269C8.13679 7.73143 8.08855 7.74111 8.03982 7.74119H7.94922C7.83643 8.11118 7.62311 8.44257 7.33304 8.69845C7.04297 8.95432 6.68755 9.12462 6.30638 9.19036C5.92521 9.2561 5.53327 9.2147 5.17425 9.07078C4.81523 8.92685 4.50322 8.68606 4.27301 8.37523C4.0428 8.06441 3.90342 7.69576 3.87041 7.31037C3.83741 6.92499 3.91207 6.53801 4.08607 6.19256C4.26008 5.84711 4.52659 5.55677 4.85591 5.35389C5.18524 5.15102 5.56442 5.04357 5.95122 5.04354V5.04423ZM8.03982 6.77147H7.45627C7.42343 6.77165 7.39199 6.78477 7.36878 6.80799C7.34556 6.83121 7.33243 6.86265 7.33225 6.89548V7.36984C7.33243 7.40267 7.34556 7.43411 7.36878 7.45733C7.39199 7.48055 7.42343 7.49367 7.45627 7.49385H8.03982C8.07239 7.49437 8.10385 7.48199 8.12732 7.4594C8.13882 7.44792 8.14793 7.43428 8.15414 7.41926C8.16035 7.40425 8.16352 7.38815 8.16349 7.3719V6.89548C8.16335 6.86264 8.15023 6.83119 8.12698 6.80799C8.10351 6.78497 8.072 6.77199 8.03913 6.77181L8.03982 6.77147ZM4.71453 7.1318C4.71453 7.1836 4.73511 7.23328 4.77174 7.26991C4.80837 7.30654 4.85805 7.32712 4.90985 7.32712C4.96165 7.32712 5.01133 7.30654 5.04796 7.26991C5.08459 7.23328 5.10517 7.1836 5.10517 7.1318C5.10505 6.93866 5.15673 6.74902 5.25482 6.58265C5.35292 6.41627 5.49383 6.27925 5.66289 6.18585C5.68585 6.17372 5.70617 6.15713 5.72265 6.13706C5.73912 6.11698 5.75143 6.09382 5.75885 6.06893C5.76627 6.04404 5.76865 6.01793 5.76585 5.99211C5.76306 5.96628 5.75514 5.94128 5.74256 5.91856C5.72999 5.89583 5.71301 5.87585 5.69261 5.85977C5.67222 5.84368 5.64882 5.83183 5.6238 5.8249C5.59877 5.81797 5.57261 5.8161 5.54685 5.8194C5.52108 5.8227 5.49624 5.8311 5.47377 5.84412C5.24369 5.97132 5.05191 6.15786 4.91838 6.38433C4.78485 6.61079 4.71446 6.8689 4.71453 7.1318ZM8.47215 2.12922C8.53953 2.12907 8.60628 2.14227 8.66853 2.16805C8.73079 2.19383 8.78733 2.23168 8.83489 2.27941C8.88252 2.32701 8.92031 2.38353 8.94609 2.44575C8.97187 2.50796 8.98514 2.57464 8.98514 2.64198C8.98514 2.70932 8.97187 2.776 8.94609 2.83821C8.92031 2.90042 8.88252 2.95694 8.83489 3.00455C8.73865 3.10068 8.60818 3.15468 8.47215 3.15468C8.33612 3.15468 8.20565 3.10068 8.10941 3.00455C8.06174 2.95697 8.02391 2.90045 7.99811 2.83824C7.9723 2.77603 7.95902 2.70933 7.95902 2.64198C7.95902 2.57462 7.9723 2.50793 7.99811 2.44572C8.02391 2.3835 8.06174 2.32699 8.10941 2.27941C8.15694 2.23173 8.21342 2.19392 8.27561 2.16814C8.33781 2.14237 8.40448 2.12914 8.4718 2.12922H8.47215ZM7.19756 2.12922C7.26494 2.12913 7.33166 2.14235 7.39391 2.16813C7.45616 2.1939 7.51271 2.23172 7.5603 2.27941C7.65227 2.37638 7.70276 2.50542 7.70103 2.63905C7.69929 2.77269 7.64546 2.90037 7.55101 2.99492C7.45655 3.08946 7.32892 3.14341 7.19528 3.14527C7.06165 3.14714 6.93257 3.09677 6.83551 3.00489C6.78788 2.95729 6.75009 2.90077 6.72431 2.83856C6.69853 2.77635 6.68526 2.70966 6.68526 2.64232C6.68526 2.57498 6.69853 2.5083 6.72431 2.44609C6.75009 2.38388 6.78788 2.32736 6.83551 2.27975C6.88304 2.23208 6.93952 2.19426 7.00172 2.16849C7.06391 2.14271 7.13058 2.12948 7.19791 2.12956L7.19756 2.12922ZM5.96156 3.15509H5.90988C5.8224 3.15494 5.73854 3.12013 5.67667 3.05829C5.61474 2.99672 5.5798 2.91308 5.57952 2.82576V2.48128C5.57957 2.43792 5.58817 2.395 5.60484 2.35498C5.62151 2.31496 5.64592 2.27863 5.67667 2.24806C5.70723 2.21732 5.74357 2.19291 5.78359 2.17624C5.82361 2.15957 5.86653 2.15096 5.90988 2.15092H5.96156C6.00492 2.15091 6.04785 2.15948 6.08788 2.17616C6.12791 2.19283 6.16424 2.21727 6.19477 2.24806C6.22545 2.27866 6.2498 2.315 6.26641 2.35502C6.28302 2.39504 6.29157 2.43795 6.29157 2.48128V2.82576C6.29153 2.86911 6.28292 2.91203 6.26625 2.95205C6.24958 2.99207 6.22517 3.02841 6.19443 3.05898C6.13261 3.12061 6.04885 3.15518 5.96156 3.15509ZM9.3244 4.15133H2.57873V9.92211C2.5786 9.97664 2.60002 10.029 2.63833 10.0678C2.65756 10.0872 2.68042 10.1025 2.70561 10.113C2.73079 10.1234 2.7578 10.1288 2.78508 10.1288H9.11737C9.17205 10.1287 9.22444 10.1069 9.26308 10.0682C9.30152 10.0294 9.32307 9.97704 9.32302 9.92246V4.15133H9.3244ZM2.57873 3.8382H9.32406V1.78508C9.32401 1.75802 9.3186 1.73124 9.30813 1.70628C9.29766 1.68133 9.28235 1.6587 9.26308 1.63971C9.22427 1.6014 9.1719 1.57997 9.11737 1.58011H2.78508C2.75811 1.57998 2.73139 1.58517 2.70644 1.5954C2.6815 1.60563 2.65881 1.62068 2.63971 1.63971C2.62065 1.65879 2.60558 1.68147 2.59535 1.70642C2.58512 1.73137 2.57994 1.75811 2.58011 1.78508V3.8382H2.57873Z" fill="#2F95EB"/>
</svg>
