<svg width="40" height="40" viewBox="0 0 40 40" fill="none" xmlns="http://www.w3.org/2000/svg">
<path d="M31.8102 20.2344C31.7789 19.8313 31.7321 19.4079 31.6696 18.9664C31.6742 18.7519 31.6742 18.5292 31.6696 18.2985L31.6149 18.3133C31.6153 18.3084 31.6153 18.3034 31.6149 18.2985L31.5703 18.311C31.5183 17.986 31.4568 17.6524 31.386 17.3102C30.3383 12.1133 27.0391 7.68675 25.4422 7.5516C24.9375 7.51253 24.1547 7.618 22.9141 7.79847C21.8985 7.94691 20.7485 8.11566 19.9969 8.11566C19.2453 8.11566 18.0969 7.94691 17.0828 7.79847C15.8414 7.61722 15.0578 7.51097 14.5532 7.5516C12.9563 7.68675 9.65706 12.1133 8.6094 17.3102C8.54769 17.6172 8.51175 17.8946 8.46175 18.1883C8.46214 18.1933 8.46214 18.1982 8.46175 18.2032L8.40784 18.1883C8.40081 18.336 8.39769 18.475 8.393 18.6164C8.3055 19.186 8.24378 19.7219 8.20472 20.2313C6.76253 20.6289 3.51253 21.8204 3.42503 24.5211C3.393 25.4961 3.89378 26.5524 4.87894 27.568C7.06175 29.8235 12.3328 32.4579 20.0008 32.4579C27.6688 32.4579 32.9414 29.8235 35.1242 27.568C36.1078 26.5524 36.6086 25.4993 36.5782 24.5211C36.4891 21.8289 33.2578 20.6368 31.8102 20.2344ZM10.4086 17.675C11.3703 12.9094 14.0938 9.74925 14.7836 9.37738C15.1836 9.37738 16.0391 9.50082 16.8219 9.61175C17.8969 9.768 19.118 9.94769 20.0016 9.94769C20.8852 9.94769 22.111 9.76957 23.1844 9.61175C23.9657 9.49691 24.8352 9.37738 25.2211 9.37738C25.9086 9.74925 28.6321 12.911 29.5961 17.675C29.6742 18.0532 29.7328 18.4172 29.7899 18.7766C27.2117 19.4016 23.7797 20.0157 20.2063 20.0188C16.4258 20.0188 12.8352 19.3305 10.2375 18.6704C10.286 18.3438 10.3407 18.0164 10.4086 17.675ZM33.8055 26.2899C31.7188 28.4461 26.6407 30.625 20 30.625C13.3594 30.625 8.28128 28.4493 6.19534 26.293C5.5844 25.6618 5.24222 25.0383 5.25784 24.5852C5.3055 23.1149 7.75784 22.2219 8.94222 21.9352C8.96641 21.9712 8.99249 22.0059 9.02034 22.0391C9.93987 22.9211 13.4399 25.2422 19.8836 25.2422H19.9383C26.3821 25.2422 29.9789 22.918 30.9274 22.0391C30.9603 22.0035 30.9911 21.9659 31.0196 21.9266C32.186 22.2024 34.6914 23.0985 34.7414 24.5829C34.7586 25.0352 34.4164 25.6579 33.8055 26.2899Z" fill="black"/>
</svg>
