<svg width="24" height="24" viewBox="0 0 24 24" fill="none" xmlns="http://www.w3.org/2000/svg">
<path d="M13.6546 12.1541C13.3396 12.1981 13.1146 12.4622 13.1146 12.7262L13.3396 15.3228C13.3396 15.6309 13.6096 15.8509 13.8796 15.8509H13.9246C14.2396 15.8069 14.4646 15.5429 14.4646 15.2788L14.2396 12.6822C14.1946 12.3742 13.9696 12.1541 13.6546 12.1541Z" fill="#757575"/>
<path d="M16.8045 9.77737C16.4895 9.82138 16.3095 10.1294 16.3545 10.4375L16.6695 12.1099C16.7145 12.3739 16.9395 12.55 17.2095 12.55C17.2545 12.55 17.2995 12.55 17.2995 12.55C17.6145 12.506 17.7944 12.1979 17.7494 11.8898L17.4345 10.2175C17.3895 9.9094 17.1195 9.68935 16.8045 9.77737Z" fill="#757575"/>
<path d="M10.3247 12.418C10.0097 12.374 9.7397 12.638 9.7397 12.9021L9.6497 14.3104C9.6047 14.6185 9.87469 14.8825 10.1897 14.8825H10.2347C10.5047 14.8825 10.7747 14.6625 10.7747 14.3544L10.8647 12.9461C10.8647 12.682 10.6397 12.418 10.3247 12.418Z" fill="#757575"/>
<path d="M22.9693 17.4352C22.0243 13.6944 19.3244 6.96088 18.9195 5.99266C18.9645 5.37653 19.0095 3.83619 18.5145 3.22005C18.4245 3.08802 18.2445 3 18.0645 3H5.95995C5.77995 3 5.59996 3.08802 5.50996 3.22005C5.01498 3.83619 5.05998 5.37653 5.10498 5.99266C4.74499 6.91687 2.22509 13.9584 1.05513 17.5672C0.875136 18.0954 1.14513 18.7555 1.7301 19.2396C2.54007 19.8998 3.93502 20.2518 5.14998 19.8117C6.85991 20.824 8.56985 20.7359 9.51481 20.2078C9.9648 20.6479 10.6398 20.912 11.4947 21C11.6297 21 11.7647 21 11.8997 21C12.9347 21 13.8347 20.6479 14.4196 20.0318C15.4096 20.5159 17.0745 20.6479 18.8295 19.6357C19.9994 20.0758 21.2594 19.7237 22.1143 19.1076C22.7893 18.5795 23.1043 17.9633 22.9693 17.4352ZM6.31993 4.10024H17.7495C17.8395 4.40831 17.8845 4.93643 17.8395 5.55257L6.18494 5.50856C6.18494 4.93643 6.22994 4.40831 6.31993 4.10024ZM21.0794 18.4034C20.8544 18.5355 20.0444 18.8875 19.2795 18.5795L18.5595 15.0587C18.5145 14.7506 18.1995 14.5746 17.8845 14.6186C17.5695 14.6626 17.3895 14.9707 17.4345 15.2787L18.1545 18.6675C16.7145 19.4597 15.3646 19.2836 14.8246 18.9315L14.7346 18.1394C14.6896 17.8313 14.4196 17.6112 14.1046 17.6553C13.7897 17.6993 13.5647 17.9633 13.6097 18.2714L13.6997 19.1076C13.2497 19.7237 12.3047 19.8998 11.5847 19.8557C10.8648 19.8117 10.4148 19.5477 10.2348 19.2836L10.3248 18.4474C10.3698 18.1394 10.1448 17.8753 9.8298 17.8313C9.51482 17.7873 9.24483 18.0073 9.19983 18.3154L9.10983 19.1076C8.56985 19.4597 7.2199 19.6797 5.77995 18.8435L6.40993 15.3667C6.45493 15.0587 6.27494 14.7946 5.95995 14.7066C5.64496 14.6626 5.37497 14.8386 5.28497 15.1467L4.61 18.7115C3.84503 19.0196 2.90006 18.7555 2.36008 18.3154C2.09009 18.0954 2.00009 17.8753 2.04509 17.8313C3.12505 14.4866 5.37497 8.14914 5.95995 6.56479L17.8845 6.6088C18.5145 8.14914 20.9444 14.3105 21.7544 17.6553C21.8894 17.7873 21.6194 18.1394 21.0794 18.4034Z" fill="#757575"/>
<path d="M7.08486 9.64555C6.76988 9.60154 6.49989 9.77758 6.45489 10.0856L6.1399 11.89C6.0949 12.1981 6.27489 12.4622 6.58988 12.5062C6.63488 12.5062 6.63488 12.5062 6.67988 12.5062C6.94987 12.5062 7.17486 12.3301 7.21986 12.0661L7.53485 10.2617C7.62484 9.99763 7.39985 9.68956 7.08486 9.64555Z" fill="#757575"/>
</svg>
