<svg width="32" height="32" viewBox="0 0 32 32" fill="none" xmlns="http://www.w3.org/2000/svg">
<path d="M0 4C0 1.79086 1.79086 0 4 0H28C30.2091 0 32 1.79086 32 4V28C32 30.2091 30.2091 32 28 32H4C1.79086 32 0 30.2091 0 28V4Z" fill="#E9F9F8"/>
<path d="M25.136 12.7832C25.136 12.7493 25.136 12.7493 25.1023 12.7154L24.2259 10.4443C24.1585 10.241 23.9225 10.1393 23.7203 10.1732C23.6866 10.1732 19.7764 11.0884 15.9673 11.0884C12.1919 11.1562 8.3154 10.241 8.24798 10.2071C8.04573 10.1732 7.84348 10.2749 7.77606 10.4782L6.89964 12.7493C6.89964 12.7832 6.89964 12.7832 6.86593 12.8171C6.79851 13.1221 6.83222 13.4272 7.00076 13.6984C7.10189 13.8339 7.20301 13.9695 7.33785 14.0712C7.37156 14.0712 9.39408 15.3254 11.0795 17.2574C13.0346 19.5624 13.7088 20.5793 14.147 21.2911C14.2818 21.4945 14.4841 21.6639 14.7201 21.7317C14.956 21.7995 15.4616 21.8334 15.9673 21.8334C16.4729 21.8334 16.9785 21.7995 17.2145 21.7317C17.4505 21.6639 17.6864 21.4945 17.7875 21.2911C18.2258 20.6132 18.8999 19.5624 20.855 17.2574C22.5068 15.3254 24.563 14.0712 24.5967 14.0712C24.7315 13.9695 24.8664 13.8678 24.9338 13.6984C25.1697 13.4272 25.2034 13.1221 25.136 12.7832ZM9.52891 14.6136C10.5739 14.8847 11.7537 15.3593 12.5964 16.6134C13.2032 17.5286 13.574 18.4777 13.7762 19.2573C13.3043 18.6133 12.6638 17.7998 11.72 16.7151C10.9784 15.8677 10.2031 15.1559 9.52891 14.6136ZM14.956 20.9182C14.8886 20.9182 14.8549 20.8504 14.8549 20.7826C14.8549 19.9352 14.5178 17.9693 13.3043 16.1389C11.9559 14.1729 9.96713 13.8 8.65249 13.5628C8.38282 13.495 8.14686 13.4611 7.94461 13.4272C7.87719 13.3933 7.84348 13.3933 7.80977 13.3594C7.77606 13.3255 7.74235 13.2916 7.70865 13.2577C7.67494 13.1899 7.67494 13.1221 7.67494 13.0204L8.41653 11.1223C9.4952 11.3595 12.7312 12.0036 16.001 12.0036C19.2707 12.0036 22.5068 11.3595 23.5854 11.1223L24.327 13.0204C24.327 13.0882 24.327 13.1899 24.2933 13.2577C24.2596 13.2916 24.2259 13.3255 24.1922 13.3594C24.1922 13.3594 24.1922 13.3594 24.1585 13.3594C24.1248 13.3933 24.0911 13.3933 24.0574 13.3933C23.8551 13.4272 23.6529 13.495 23.4169 13.5289C22.136 13.8001 20.1809 14.1729 18.6977 16.0711C17.383 17.7659 17.1134 19.5624 17.1134 20.7148C17.1134 20.7826 17.0797 20.8504 17.0122 20.8504C16.7089 20.986 15.2931 20.986 14.956 20.9182ZM20.282 16.7151C19.2707 17.8676 18.5965 18.715 18.1246 19.359C18.2932 18.5116 18.664 17.5625 19.3718 16.6134C20.282 15.4271 21.3607 14.9186 22.3719 14.6475C21.7315 15.1898 20.9899 15.9016 20.282 16.7151Z" fill="#13ADAD"/>
</svg>
