<svg width="32" height="32" viewBox="0 0 32 32" fill="none" xmlns="http://www.w3.org/2000/svg">
<path d="M0 4C0 1.79086 1.79086 0 4 0H28C30.2091 0 32 1.79086 32 4V28C32 30.2091 30.2091 32 28 32H4C1.79086 32 0 30.2091 0 28V4Z" fill="#E9F9F8"/>
<path d="M21.3317 9.96418L20.9376 8.36393V7.84211C20.9376 7.2855 20.4719 6.83325 19.8986 6.83325H12.0883C11.5151 6.83325 11.0493 7.2855 11.0493 7.84211V8.36393L10.691 9.96418C10.082 12.5037 10.0103 15.078 10.4402 17.6524L11.6584 24.8187C11.6942 25.0274 11.8733 25.1666 12.0883 25.1666H14.8112C15.0261 25.1666 15.2411 24.9926 15.2411 24.7839L15.8143 14.6954H16.2084L16.7817 24.7839C16.7817 24.9926 16.9966 25.1666 17.2116 25.1666H19.8986C20.1136 25.1666 20.2927 25.0274 20.3286 24.8187L21.5467 17.6524C21.7258 16.5739 21.8333 15.4955 21.8333 14.4171C21.8333 12.9212 21.6542 11.4253 21.3317 9.96418ZM14.7037 18.5916L14.5962 20.7137L11.4792 18.5568L11.3001 17.548C11.1926 16.887 11.121 16.226 11.0851 15.5303L14.7037 18.5916ZM12.4466 24.3317L11.6584 19.7049L14.5245 21.6878L14.3812 24.3317H12.4466ZM11.9092 8.01605V7.84211C11.9092 7.73774 11.9808 7.66817 12.0883 7.66817H19.8986C20.0061 7.66817 20.0778 7.73774 20.0778 7.84211V8.01605H11.9092ZM20.4002 11.8427C19.2179 11.2513 18.3939 10.1381 18.2506 8.85096H20.1494L20.4719 10.1729C20.6152 10.7991 20.7227 11.4253 20.8301 12.0515L20.4002 11.8427ZM14.5962 8.85096H17.3549C17.4982 10.4512 18.5014 11.8775 20.0061 12.6081L20.9018 13.0255C20.9376 13.5126 20.9734 13.9648 20.9734 14.3475L17.2116 17.5132L17.0325 14.3475L17.9281 12.5733L17.1399 12.1906L16.2801 13.8257H15.5994L14.8112 12.1906L14.023 12.5733L14.9186 14.3475L14.7395 17.5132L11.0135 14.3475C11.0135 13.9648 11.0493 13.5126 11.0851 13.0255L11.9808 12.6081C13.4497 11.8775 14.4529 10.4512 14.5962 8.85096ZM11.1926 12.0515C11.2643 11.4253 11.4076 10.7991 11.5509 10.1729L11.8733 8.85096H13.7364C13.593 10.1381 12.769 11.2861 11.5867 11.8427L11.1926 12.0515ZM20.9376 15.4955C20.9018 16.1565 20.8301 16.8522 20.7227 17.5132L20.5435 18.5221L17.4265 20.6789L17.3191 18.5568L20.9376 15.4955ZM17.6057 24.3317L17.4624 21.6878L20.3286 19.7049L19.5404 24.3665H17.6057V24.3317Z" fill="#13ADAD"/>
</svg>
