<svg width="24" height="24" viewBox="0 0 24 24" fill="none" xmlns="http://www.w3.org/2000/svg">
<path d="M18.3981 4.75712L17.9252 2.83681V2.21063C17.9252 1.54269 17.3663 1 16.6784 1H7.30601C6.61813 1 6.05922 1.54269 6.05922 2.21063V2.83681L5.6293 4.75712C4.89842 7.80455 4.81244 10.8937 5.32835 13.9829L6.7901 22.5825C6.83309 22.833 7.04805 23 7.30601 23H10.5734C10.8314 23 11.0894 22.7913 11.0894 22.5408L11.7772 10.4345H12.2502L12.938 22.5408C12.938 22.7913 13.196 23 13.454 23H16.6784C16.9364 23 17.1513 22.833 17.1943 22.5825L18.6561 13.9829C18.871 12.6888 19 11.3947 19 10.1006C19 8.3055 18.785 6.51044 18.3981 4.75712ZM10.4445 15.1101L10.3155 17.6565L6.57513 15.0683L6.36017 13.8577C6.23119 13.0645 6.14521 12.2713 6.10222 11.4364L10.4445 15.1101ZM7.73593 21.9981L6.7901 16.4459L10.2295 18.8254L10.0575 21.9981H7.73593ZM7.09105 2.41935V2.21063C7.09105 2.08539 7.17703 2.0019 7.30601 2.0019H16.6784C16.8074 2.0019 16.8934 2.08539 16.8934 2.21063V2.41935H7.09105ZM17.2803 7.01138C15.8615 6.30171 14.8727 4.96584 14.7007 3.42125H16.9793L17.3663 5.00759C17.5383 5.75901 17.6672 6.51044 17.7962 7.26186L17.2803 7.01138ZM10.3155 3.42125H13.6259C13.7979 5.34156 15.0017 7.05313 16.8074 7.92979L17.8822 8.43074C17.9252 9.01518 17.9682 9.55787 17.9682 10.0171L13.454 13.8159L13.239 10.0171L14.3138 7.88805L13.368 7.42884L12.3361 9.39089H11.5193L10.5734 7.42884L9.62761 7.88805L10.7024 10.0171L10.4875 13.8159L6.01623 10.0171C6.01623 9.55787 6.05922 9.01518 6.10222 8.43074L7.17703 7.92979C8.93973 7.05313 10.1435 5.34156 10.3155 3.42125ZM6.23119 7.26186C6.31718 6.51044 6.48915 5.75901 6.66112 5.00759L7.04805 3.42125H9.28367C9.1117 4.96584 8.12287 6.34345 6.70411 7.01138L6.23119 7.26186ZM17.9252 11.3947C17.8822 12.1879 17.7962 13.0228 17.6672 13.8159L17.4523 15.0266L13.7119 17.6148L13.5829 15.0683L17.9252 11.3947ZM13.9269 21.9981L13.7549 18.8254L17.1943 16.4459L16.2485 22.0398H13.9269V21.9981Z" fill="#757575"/>
</svg>
