<svg width="24" height="24" viewBox="0 0 24 24" fill="none" xmlns="http://www.w3.org/2000/svg">
<path d="M20.3071 11.3104C19.7182 10.9989 18.8347 11.1374 18.3193 11.9333C18.2825 12.0025 18.2089 12.0717 18.1721 12.1409C18.2089 11.5872 18.2825 10.9297 18.3193 10.2722C18.4666 8.54194 18.6506 6.56941 18.6506 5.63506C18.6506 5.3236 18.5034 4.97755 18.2089 4.7007C17.9144 4.42386 17.5463 4.25083 17.1782 4.25083C16.9573 4.25083 16.7733 4.32004 16.5892 4.38925C16.442 3.52411 15.9634 3.03963 15.1168 3.00502C14.1597 2.93581 13.6075 3.59332 13.4603 4.28543C13.2026 4.1124 12.9449 4.04319 12.6504 4.04319C12.1719 4.04319 11.7302 4.25083 11.4357 4.63149C11.2516 4.87373 11.1412 5.15058 11.0676 5.49663C10.9203 5.42742 10.7363 5.39282 10.5522 5.39282H10.5154C9.81599 5.39282 9.04295 5.94651 8.96933 7.15771C8.71165 10.7221 8.96933 14.6325 9.11658 16.9857C9.15339 17.8163 9.22701 18.4738 9.22701 18.7852V19.858C9.22701 20.1695 9.33744 20.4463 9.59512 20.6539C9.8528 20.8616 10.1105 21 10.4418 21H17.1046C17.7672 21 18.3193 20.4809 18.3193 19.858V17.8855C18.3193 17.6432 18.4666 17.401 18.6506 17.0896C18.6874 17.0203 18.7611 16.9165 18.7979 16.8473C19.6813 15.3593 20.1231 14.5633 20.712 13.456C21.301 12.4524 20.8961 11.6218 20.3071 11.3104ZM17.3991 18.8198H13.4603C13.313 18.8198 13.2026 18.716 13.2026 18.5776V17.9893C13.2026 17.8509 13.313 17.7471 13.4603 17.7471H17.3991C17.3991 17.8163 17.3991 17.8509 17.3991 17.9201V18.8198ZM19.9022 13.0753C19.3132 14.1481 18.8715 14.9786 18.0248 16.432C17.988 16.5013 17.9144 16.5705 17.8776 16.6397C17.8408 16.7089 17.804 16.7781 17.7672 16.8473H13.4603C12.7977 16.8473 12.2823 17.3664 12.2823 17.9547V18.543C12.2823 19.1659 12.8345 19.6504 13.4603 19.6504H17.3991V19.8234C17.3991 19.9618 17.2886 20.1003 17.1046 20.1003H10.4418C10.3682 20.1003 10.2945 20.0656 10.2209 20.031C10.1841 19.9964 10.1473 19.9272 10.1473 19.8234V18.7506C10.1473 18.4046 10.1105 17.7817 10.0369 16.8819C9.88961 14.5633 9.63193 10.6529 9.88961 7.15771C9.92642 6.5002 10.2577 6.18875 10.5154 6.18875C10.7363 6.18875 10.9939 6.43099 10.9939 6.88086C10.9939 6.91547 10.9939 6.95007 10.9939 6.95007C10.9939 8.16127 11.0307 9.5455 11.0307 10.1684C11.0307 10.4106 11.2516 10.5837 11.4725 10.5837C11.7302 10.5837 11.9142 10.376 11.9142 10.1338C11.8774 9.37247 11.8774 7.26153 11.8774 5.84269C11.8774 5.53124 11.951 5.25439 12.0983 5.08136C12.2087 4.94294 12.3928 4.83912 12.5768 4.83912C12.7241 4.83912 12.8345 4.90834 12.9817 5.01215C13.1658 5.21979 13.2762 5.49663 13.2762 5.60045C13.2026 6.67323 13.129 8.16127 13.0554 10.0646C13.0554 10.3068 13.2394 10.5145 13.4971 10.5145C13.7548 10.5145 13.9388 10.3414 13.9388 10.0992C14.0861 6.60402 14.1965 5.08136 14.2701 4.42386C14.2701 4.25083 14.3806 3.76635 14.9695 3.80095C15.1904 3.80095 15.7426 3.87016 15.6321 5.46203L15.6689 6.5002C15.5953 7.88443 15.4849 9.44169 15.3744 10.1338C15.3376 10.376 15.5217 10.5837 15.7426 10.6183C16.0002 10.6529 16.2211 10.4799 16.2579 10.2722C16.3683 9.5455 16.4788 7.95364 16.5892 6.56941L16.6628 5.63506C16.6628 5.46203 16.9573 5.18518 17.215 5.18518C17.3254 5.18518 17.4727 5.25439 17.5831 5.35821C17.7304 5.46203 17.7672 5.60045 17.7672 5.66966C17.7304 6.60402 17.5831 8.54194 17.4359 10.2722C17.2518 12.2794 17.215 13.0753 17.215 13.456C17.215 13.456 17.215 13.456 17.215 13.4906C17.215 13.5252 17.215 13.5598 17.2518 13.629C17.2886 13.7328 17.3254 13.802 17.3991 13.8366C17.4359 13.8712 17.4727 13.8712 17.5095 13.9058C17.5463 13.9058 17.5831 13.9404 17.6199 13.9404C17.6199 13.9404 17.6199 13.9404 17.6567 13.9404H17.6935C17.6935 13.9404 17.6935 13.9404 17.7304 13.9404C17.7672 13.9404 17.8408 13.9404 17.8776 13.9058C17.8776 13.9058 17.8776 13.9058 17.9144 13.9058C18.0617 13.8366 18.5034 13.5944 19.2028 12.4524C19.4237 12.1063 19.7182 12.0371 19.939 12.1409C20.1231 12.2101 20.1599 12.5908 19.9022 13.0753Z" fill="#757575"/>
<path d="M8.41717 18.7507C8.67485 18.7507 8.82209 18.9583 8.78528 19.1659L8.74847 19.3389C8.71166 19.4774 8.60122 19.6158 8.41717 19.6158H4.99374C4.58882 19.6158 4.25752 19.4428 3.99984 19.1313C3.8526 18.9237 3.77898 18.6468 3.77898 18.37V17.3664C3.77898 17.055 3.74217 16.3975 3.66855 15.5669C3.5213 13.2137 2.82189 11.2758 3.04276 7.71143C3.11638 6.50022 3.88941 5.94653 4.58882 5.94653H4.62563C4.80969 5.94653 4.99374 5.98114 5.14099 6.05035C5.21461 5.70429 5.32504 5.42745 5.5091 5.18521C5.80359 4.80454 6.24532 4.59691 6.72386 4.59691C6.98154 4.59691 7.2024 4.66612 7.42327 4.76994C7.49689 4.80454 7.57051 4.76994 7.57051 4.70073C7.75457 4.07782 8.30674 3.45492 9.1902 3.59334C9.92642 3.69716 10.1473 4.00861 10.2945 4.14704C10.6258 4.49309 10.2945 4.94297 9.96323 4.87376C9.74237 4.80454 9.22701 4.25085 8.78528 4.73533C8.41717 5.1506 8.15949 6.56944 8.01225 10.0646C8.01225 10.3069 7.79138 10.4799 7.57051 10.4799C7.31284 10.4799 7.12878 10.2722 7.12878 10.03C7.2024 8.12669 7.34965 7.33076 7.42327 6.25798C7.42327 6.11956 7.34965 5.84272 7.12878 5.66969C7.01835 5.56587 6.87111 5.49666 6.72386 5.49666C6.50299 5.49666 6.35575 5.56587 6.24532 5.7389L6.20851 5.91193C5.98764 7.39997 6.09807 10.0646 6.13488 10.8259C6.13488 11.0682 5.95083 11.2758 5.69315 11.2758C5.43547 11.2758 5.25142 11.1028 5.25142 10.8605C5.21461 10.2376 5.21461 8.81881 5.21461 7.64221C5.21461 7.60761 5.21461 7.573 5.21461 7.573C5.21461 7.08852 4.95693 6.88089 4.73607 6.88089C4.44158 6.88089 4.14709 7.19234 4.11028 7.84985C3.77898 11.3104 4.47839 13.2137 4.62563 15.5323C4.69925 16.4321 4.73607 17.055 4.73607 17.401V18.4738C4.73607 18.543 4.77288 18.6122 4.80969 18.6814C4.8465 18.716 4.92012 18.7507 5.03055 18.7507H8.41717Z" fill="#757575"/>
</svg>
