<svg width="24" height="24" viewBox="0 0 24 24" fill="none" xmlns="http://www.w3.org/2000/svg">
<path d="M10.8421 11.3813C10.8421 11.04 11.1368 10.7413 11.4737 10.7413H19.7684C20.3158 10.7413 20.7789 10.3147 20.7789 9.71733C20.7789 9.46133 20.6526 9.20533 20.4842 9.03467C20.3158 8.864 20.0631 8.736 19.8105 8.736H12.1052C11.7263 8.736 11.4737 8.48 11.4737 8.096C11.4737 7.75467 11.7684 7.49867 12.1052 7.49867H19.7263C20.2737 7.49867 20.7368 7.072 20.7368 6.47467C20.7368 6.21867 20.6105 5.96267 20.4421 5.792C20.2737 5.62133 20.021 5.49333 19.7684 5.49333H5.45261C4.90524 5.49333 4.44209 5.92 4.44209 6.51733C4.44209 6.77333 4.5684 7.02933 4.73682 7.2C4.94735 7.28533 5.19998 7.41333 5.45261 7.41333C5.83156 7.41333 6.08419 7.66933 6.08419 8.05333C6.08419 8.43733 5.78946 8.69333 5.41051 8.69333C4.98946 8.69333 4.65261 8.864 4.48419 9.33333C4.39998 9.632 4.14735 9.84533 3.85261 9.84533C3.43156 9.84533 3.09472 9.41867 3.22103 8.992C3.34735 8.56533 3.51577 8.26667 3.81051 7.968H3.7684C3.55788 7.75467 3.38946 7.54133 3.26314 7.28533C2.54735 5.57867 3.85261 4 5.45261 4H19.6421C20.2737 4 20.821 4.256 21.2842 4.68267C21.7052 5.10933 21.9579 5.70667 21.9579 6.34667C21.9579 6.98667 21.7052 7.54133 21.2842 8.01067C21.3263 8.05333 21.3263 8.05333 21.3263 8.05333C21.7474 8.48 22 9.07733 22 9.71733C22 10.3573 21.7474 10.912 21.3263 11.3387V11.3813C21.7474 11.7653 22 12.4053 22 13.0027C22 13.6427 21.7474 14.1973 21.3263 14.6667C21.2842 14.7093 21.2842 14.7093 21.2842 14.7093C21.7052 15.0933 21.9579 15.7333 21.9579 16.3733C21.9579 17.0133 21.7052 17.568 21.2842 18.0373C20.8631 18.464 20.2737 18.72 19.6421 18.72H12.6105C12.2316 18.72 11.9368 18.4213 11.9368 18.0373C11.9368 17.6533 12.2316 17.3547 12.6105 17.3547H19.7684C20.021 17.3547 20.2737 17.2267 20.4421 17.056C20.6105 16.8853 20.7368 16.6293 20.7368 16.3733C20.7368 15.8187 20.3158 15.3493 19.7263 15.3493C19.3895 15.3493 19.1368 15.136 19.0947 14.8373C19.0526 14.4533 19.3473 14.112 19.7263 14.0693C19.9789 14.0693 20.2316 13.9413 20.4 13.7707C20.5684 13.6 20.6947 13.344 20.6947 13.088C20.6947 12.5333 20.2737 12.064 19.6842 12.064H11.4737C11.1368 12.0213 10.8421 11.7227 10.8421 11.3813Z" fill="#757575"/>
<path d="M6.67368 20C4.10526 20 2 17.8667 2 15.264C2 12.6613 4.10526 10.528 6.67368 10.528C9.24211 10.528 11.3474 12.6613 11.3474 15.264C11.3474 17.8667 9.28421 20 6.67368 20ZM6.67368 11.6373C4.69474 11.6373 3.09474 13.2587 3.09474 15.264C3.09474 17.2693 4.69474 18.8907 6.67368 18.8907C8.65263 18.8907 10.2526 17.2693 10.2526 15.264C10.2526 13.2587 8.65263 11.6373 6.67368 11.6373Z" fill="#757575"/>
<path d="M7.81055 16.9706C7.68424 16.9706 7.51582 16.928 7.43161 16.8L6.29476 15.648C6.16845 15.52 6.12634 15.392 6.12634 15.264V13.3866C6.12634 13.088 6.37897 12.832 6.67371 12.832C6.96845 12.832 7.22108 13.088 7.22108 13.3866V15.0506L8.1895 16.032C8.40003 16.2453 8.40003 16.6293 8.1895 16.8426C8.10529 16.8853 7.93687 16.9706 7.81055 16.9706Z" fill="#757575"/>
</svg>
