<svg width="24" height="24" viewBox="0 0 24 24" fill="none" xmlns="http://www.w3.org/2000/svg">
<path d="M21.6509 12.337C21.1252 8.4859 19.8309 4.39899 19.8309 4.35969C19.7501 4.12391 19.5074 3.96672 19.2243 4.00602C19.1838 4.00602 16.191 4.63477 11.9849 4.63477C7.7787 4.67407 4.78585 4.00602 4.74541 4.00602C4.50275 3.96672 4.21964 4.12391 4.13875 4.35969C4.13875 4.39899 2.84455 8.4859 2.31878 12.337C1.79301 16.2275 2.07612 19.4105 2.07612 19.5284C2.11656 19.7642 2.31878 19.9607 2.56144 19.9607L11.0142 20C11.2569 20 11.4995 19.8035 11.4995 19.5677L11.9444 15.7559L12.3893 19.5677C12.4297 19.8035 12.632 20 12.8746 20L21.4083 19.9607C21.6509 19.9607 21.8936 19.7642 21.8936 19.5284C21.934 19.3712 22.2171 16.2275 21.6509 12.337ZM19.1434 5.61721C18.7794 5.7351 18.1728 5.89229 17.3639 6.04948V5.30283C18.0919 5.22423 18.6581 5.10634 18.9816 5.06704C19.0625 5.22423 19.103 5.38142 19.1434 5.61721ZM13.4813 6.56034V5.61721C14.5328 5.57791 15.5439 5.49931 16.3528 5.42072V6.24596C15.5035 6.36385 14.5328 6.48175 13.4813 6.56034ZM12.4702 5.61721V6.56034C12.3084 6.56034 12.1466 6.56034 12.0253 6.56034C11.7826 6.56034 11.54 6.56034 11.2973 6.56034V5.61721C11.54 5.61721 11.7826 5.61721 12.0253 5.61721C12.1466 5.6565 12.3084 5.6565 12.4702 5.61721ZM7.17204 6.16737V5.38142C8.02136 5.46002 9.0729 5.57791 10.2458 5.61721V6.56034C9.0729 6.48175 8.02136 6.32456 7.17204 6.16737ZM6.16094 5.26353V5.97088C5.59473 5.81369 5.14985 5.6958 4.8263 5.61721C4.90718 5.42072 4.94763 5.22423 4.98807 5.06704C5.27118 5.10634 5.67562 5.18494 6.16094 5.26353ZM20.9229 18.9783L13.4004 19.0569L12.6724 13.0444C12.632 12.6907 12.3488 12.4549 11.9849 12.4549C11.6209 12.4549 11.3378 12.6907 11.2973 13.0444L10.5693 19.0569L3.04677 19.0176C3.00632 17.9958 2.92544 15.4022 3.32987 12.4549C3.32987 12.337 3.37032 12.2191 3.37032 12.1013H3.41076C3.57254 12.1013 3.69387 12.062 3.8152 11.9441C4.94763 10.6866 6.64627 8.40731 6.72716 8.32872C6.88893 8.09293 6.84849 7.81785 6.60582 7.66066C6.36316 7.50347 6.03961 7.54277 5.87784 7.77855C5.87784 7.77855 4.66452 9.38974 3.61298 10.6473C3.93653 9.11466 4.26008 7.66066 4.58363 6.56034C5.63517 6.87472 8.22358 7.50347 11.4995 7.58207V10.5687C11.4995 10.8437 11.7422 11.0402 11.9849 11.0402C12.2275 11.0402 12.4702 10.8044 12.4702 10.5687V7.58207C15.7461 7.50347 18.3345 6.87472 19.3861 6.56034C19.6692 7.66066 20.0332 9.11466 20.3163 10.608C19.3456 9.38974 18.2941 7.97504 18.2536 7.93574C18.0919 7.69996 17.7683 7.66066 17.5661 7.81785C17.3234 7.97504 17.283 8.28942 17.4448 8.4859C17.5257 8.5645 19.0625 10.6866 20.1949 11.9441C20.2758 12.062 20.4376 12.1013 20.5994 12.1013C20.5994 12.1013 20.5994 12.1013 20.6398 12.1013C20.6398 12.2191 20.6803 12.2977 20.6803 12.4156C21.0847 15.4022 21.0038 17.9958 20.9229 18.9783Z" fill="#757575"/>
</svg>
