<svg width="32" height="32" viewBox="0 0 32 32" fill="none" xmlns="http://www.w3.org/2000/svg">
<path d="M0 4C0 1.79086 1.79086 0 4 0H28C30.2091 0 32 1.79086 32 4V28C32 30.2091 30.2091 32 28 32H4C1.79086 32 0 30.2091 0 28V4Z" fill="#E9F9F8"/>
<path d="M22.9226 15.4253C22.4318 15.1658 21.6956 15.2811 21.2661 15.9444C21.2355 16.0021 21.1741 16.0598 21.1434 16.1174C21.1741 15.656 21.2355 15.1081 21.2661 14.5602C21.3889 13.1183 21.5422 11.4745 21.5422 10.6959C21.5422 10.4363 21.4195 10.148 21.1741 9.91725C20.9287 9.68655 20.622 9.54236 20.3152 9.54236C20.1311 9.54236 19.9778 9.60003 19.8244 9.65771C19.7017 8.93676 19.3029 8.53302 18.5974 8.50418C17.7998 8.44651 17.3396 8.99443 17.2169 9.57119C17.0022 9.427 16.7875 9.36933 16.5421 9.36933C16.1433 9.36933 15.7752 9.54236 15.5298 9.85958C15.3764 10.0614 15.2844 10.2921 15.223 10.5805C15.1003 10.5229 14.9469 10.494 14.7935 10.494H14.7629C14.18 10.494 13.5358 10.9554 13.4745 11.9648C13.2598 14.9351 13.4745 18.1938 13.5972 20.1548C13.6279 20.8469 13.6892 21.3948 13.6892 21.6544V22.5483C13.6892 22.8079 13.7812 23.0386 13.996 23.2116C14.2107 23.3846 14.4254 23.5 14.7015 23.5H20.2538C20.806 23.5 21.2661 23.0674 21.2661 22.5483V20.9046C21.2661 20.7027 21.3889 20.5008 21.5422 20.2413C21.5729 20.1836 21.6343 20.0971 21.6649 20.0394C22.4012 18.7994 22.7693 18.1361 23.2601 17.2133C23.7509 16.377 23.4135 15.6849 22.9226 15.4253ZM20.4993 21.6832H17.2169C17.0942 21.6832 17.0022 21.5967 17.0022 21.4813V20.9911C17.0022 20.8757 17.0942 20.7892 17.2169 20.7892H20.4993C20.4993 20.8469 20.4993 20.8757 20.4993 20.9334V21.6832ZM22.5852 16.8961C22.0944 17.7901 21.7263 18.4822 21.0207 19.6934C20.9901 19.751 20.9287 19.8087 20.898 19.8664C20.8674 19.9241 20.8367 19.9818 20.806 20.0394H17.2169C16.6648 20.0394 16.2353 20.472 16.2353 20.9622V21.4525C16.2353 21.9716 16.6954 22.3753 17.2169 22.3753H20.4993V22.5195C20.4993 22.6349 20.4072 22.7502 20.2538 22.7502H14.7015C14.6402 22.7502 14.5788 22.7214 14.5175 22.6925C14.4868 22.6637 14.4561 22.606 14.4561 22.5195V21.6255C14.4561 21.3371 14.4254 20.8181 14.3641 20.0683C14.2414 18.1361 14.0266 14.8774 14.2414 11.9648C14.2721 11.4168 14.5481 11.1573 14.7629 11.1573C14.9469 11.1573 15.1617 11.3592 15.1617 11.7341C15.1617 11.7629 15.1617 11.7917 15.1617 11.7917C15.1617 12.8011 15.1923 13.9546 15.1923 14.4737C15.1923 14.6755 15.3764 14.8197 15.5604 14.8197C15.7752 14.8197 15.9286 14.6467 15.9286 14.4448C15.8979 13.8104 15.8979 12.0513 15.8979 10.8689C15.8979 10.6094 15.9592 10.3787 16.0819 10.2345C16.174 10.1191 16.3273 10.0326 16.4807 10.0326C16.6034 10.0326 16.6954 10.0903 16.8182 10.1768C16.9715 10.3498 17.0636 10.5805 17.0636 10.667C17.0022 11.561 16.9409 12.8011 16.8795 14.3872C16.8795 14.589 17.0329 14.7621 17.2476 14.7621C17.4623 14.7621 17.6157 14.6179 17.6157 14.416C17.7384 11.5033 17.8305 10.2345 17.8918 9.68655C17.8918 9.54236 17.9838 9.13862 18.4746 9.16746C18.6587 9.16746 19.1188 9.22514 19.0268 10.5517L19.0575 11.4168C18.9961 12.5704 18.9041 13.8681 18.8121 14.4448C18.7814 14.6467 18.9348 14.8197 19.1188 14.8486C19.3336 14.8774 19.5176 14.7332 19.5483 14.5602C19.6403 13.9546 19.7324 12.628 19.8244 11.4745L19.8857 10.6959C19.8857 10.5517 20.1311 10.321 20.3459 10.321C20.4379 10.321 20.5606 10.3787 20.6526 10.4652C20.7753 10.5517 20.806 10.667 20.806 10.7247C20.7753 11.5033 20.6526 13.1183 20.5299 14.5602C20.3765 16.2328 20.3459 16.8961 20.3459 17.2133C20.3459 17.2133 20.3459 17.2133 20.3459 17.2421C20.3459 17.271 20.3459 17.2998 20.3765 17.3575C20.4072 17.444 20.4379 17.5017 20.4993 17.5305C20.5299 17.5594 20.5606 17.5594 20.5913 17.5882C20.622 17.5882 20.6526 17.617 20.6833 17.617C20.6833 17.617 20.6833 17.617 20.714 17.617H20.7447C20.7447 17.617 20.7447 17.617 20.7753 17.617C20.806 17.617 20.8674 17.617 20.898 17.5882C20.898 17.5882 20.898 17.5882 20.9287 17.5882C21.0514 17.5305 21.4195 17.3286 22.0024 16.377C22.1864 16.0886 22.4318 16.0309 22.6159 16.1174C22.7693 16.1751 22.7999 16.4923 22.5852 16.8961Z" fill="#13ADAD"/>
<path d="M13.0143 21.6255C13.229 21.6255 13.3517 21.7985 13.3211 21.9715L13.2904 22.1157C13.2597 22.2311 13.1677 22.3464 13.0143 22.3464H10.1615C9.82402 22.3464 9.54793 22.2022 9.3332 21.9427C9.2105 21.7697 9.14915 21.539 9.14915 21.3083V20.472C9.14915 20.2124 9.11847 19.6645 9.05712 18.9724C8.93442 17.0114 8.35158 15.3965 8.53563 12.4261C8.59698 11.4168 9.24118 10.9554 9.82402 10.9554H9.85469C10.0081 10.9554 10.1615 10.9842 10.2842 11.0419C10.3455 10.7535 10.4375 10.5228 10.5909 10.3209C10.8363 10.0037 11.2044 9.8307 11.6032 9.8307C11.8179 9.8307 12.002 9.88837 12.1861 9.97489C12.2474 10.0037 12.3088 9.97489 12.3088 9.91721C12.4621 9.39813 12.9223 8.87904 13.6585 8.99439C14.272 9.08091 14.4561 9.34045 14.5788 9.4558C14.8549 9.74418 14.5788 10.1191 14.3027 10.0614C14.1186 10.0037 13.6892 9.54232 13.3211 9.94605C13.0143 10.2921 12.7996 11.4745 12.6769 14.3871C12.6769 14.589 12.4928 14.7332 12.3088 14.7332C12.094 14.7332 11.9407 14.5601 11.9407 14.3583C12.002 12.7722 12.1247 12.1089 12.1861 11.2149C12.1861 11.0996 12.1247 10.8689 11.9407 10.7247C11.8486 10.6382 11.7259 10.5805 11.6032 10.5805C11.4192 10.5805 11.2965 10.6382 11.2044 10.7824L11.1738 10.9265C10.9897 12.1666 11.0817 14.3871 11.1124 15.0216C11.1124 15.2234 10.959 15.3965 10.7443 15.3965C10.5296 15.3965 10.3762 15.2523 10.3762 15.0504C10.3455 14.5313 10.3455 13.3489 10.3455 12.3685C10.3455 12.3396 10.3455 12.3108 10.3455 12.3108C10.3455 11.907 10.1308 11.734 9.94672 11.734C9.70131 11.734 9.45591 11.9936 9.42523 12.5415C9.14915 15.4253 9.73199 17.0114 9.85469 18.9435C9.91605 19.6933 9.94672 20.2124 9.94672 20.5008V21.3948C9.94672 21.4525 9.9774 21.5101 10.0081 21.5678C10.0387 21.5966 10.1001 21.6255 10.1921 21.6255H13.0143Z" fill="#13ADAD"/>
</svg>
