<svg width="32" height="32" viewBox="0 0 32 32" fill="none" xmlns="http://www.w3.org/2000/svg">
<path d="M0 4C0 1.79086 1.79086 0 4 0H28C30.2091 0 32 1.79086 32 4V28C32 30.2091 30.2091 32 28 32H4C1.79086 32 0 30.2091 0 28V4Z" fill="#E9F9F8"/>
<path d="M23.9083 17.4645C23.9083 16.9615 23.8157 16.4586 23.6922 15.9556L22.6428 12.2574C22.4267 11.5473 21.9637 10.926 21.3155 10.5118C20.7599 10.1864 20.2969 9.97929 19.7722 9.77219C19.6487 9.71302 19.5252 9.65385 19.4018 9.62426L18.5375 8.64793C18.5375 8.64793 18.5375 8.64793 18.5066 8.61834C18.4758 8.58876 18.4449 8.55917 18.414 8.55917C18.414 8.55917 18.414 8.55917 18.3832 8.55917C18.3214 8.5 18.2906 8.5 18.2288 8.5C18.2288 8.5 18.2288 8.5 18.198 8.5H15.9756H13.7532C13.6914 8.5 13.6606 8.5 13.6297 8.52959C13.5988 8.55917 13.568 8.55917 13.5371 8.58876C13.5371 8.58876 13.5371 8.58876 13.5062 8.61834L12.642 9.59467C12.5185 9.65385 12.3951 9.68343 12.2716 9.7426C11.7777 9.9497 11.253 10.1568 10.8209 10.4231C10.1727 10.8077 9.52446 11.6657 9.30839 12.3757L8.22806 16.2811C8.16633 16.5178 8.13546 16.7544 8.10459 16.9911C8.04286 18.5888 8.13546 22.7899 8.13546 22.9675C8.13546 23.0562 8.19719 23.1746 8.25893 23.2337C8.32066 23.2929 8.44413 23.3225 8.56759 23.3225L11.0369 23.0858C11.2221 23.0562 11.3765 22.9083 11.3765 22.7012L11.2839 17.642C11.2839 17.4053 11.3147 17.1391 11.4073 16.932L11.5308 16.6065V23.145C11.5308 23.3521 11.716 23.5 11.9012 23.5H16.0064H20.1117C20.3278 23.5 20.4821 23.3225 20.4821 23.145V16.5769L20.6056 16.932C20.6673 17.1391 20.6982 17.3757 20.6982 17.6124L20.6056 22.7012C20.6056 22.9083 20.7599 23.0562 20.9451 23.0858L23.4144 23.3225C23.507 23.3225 23.6305 23.2929 23.7231 23.2337C23.8157 23.1746 23.8466 23.0562 23.8466 22.9675C23.8774 22.9083 23.9392 19.2692 23.9083 17.4645ZM18.2597 9.47633L18.7227 10.0089C18.661 10.3047 18.414 11.0148 17.5189 11.6361C17.3954 11.3402 17.1794 10.926 16.7781 10.6006C17.5189 10.2751 17.9819 9.83136 18.2597 9.47633ZM13.7223 9.47633C14.0001 9.80178 14.4631 10.2456 15.2039 10.6006C14.8335 10.9556 14.5866 11.3402 14.4631 11.6361C13.568 11.0148 13.321 10.3047 13.2593 10.0089L13.7223 9.47633ZM15.6052 22.7604H12.2716V14.1805C12.2716 14.003 12.1173 13.855 11.9321 13.8254C11.7469 13.7959 11.5617 13.9142 11.4999 14.0917L10.6357 16.6953C10.5431 17.0207 10.4813 17.3462 10.5122 17.6716L10.5739 21.0444L10.0492 21.1035C9.83312 21.1331 9.67879 21.3107 9.70966 21.5178C9.74052 21.6953 9.89486 21.8432 10.0801 21.8432C10.1109 21.8432 10.1109 21.8432 10.1418 21.8432L10.5739 21.784V22.3757L8.87626 22.5533C8.84539 21.4586 8.81453 18.3225 8.87626 17.0503C8.87626 16.8728 8.90713 16.6953 8.96886 16.5178L10.0801 12.6124C10.2344 12.1095 10.7591 11.3994 11.2221 11.1331C11.6234 10.8964 12.0864 10.6893 12.5803 10.5118C12.5803 10.5118 12.5803 10.5118 12.6111 10.5118C12.7963 11.0444 13.2902 11.9615 14.5557 12.642C14.6792 12.7012 14.8026 12.7012 14.9261 12.642C15.0496 12.5828 15.1113 12.4941 15.1422 12.3757C15.1422 12.3462 15.2348 11.8432 15.6669 11.3698V22.7604H15.6052ZM16.0064 10.0976C15.2965 9.86095 14.8026 9.50592 14.5248 9.23965H16.0064H17.488C17.1794 9.5355 16.7164 9.89053 16.0064 10.0976ZM23.1058 22.5237L21.4081 22.3462V21.7544L21.8402 21.8136C21.8711 21.8136 21.8711 21.8136 21.902 21.8136C22.0872 21.8136 22.2724 21.6657 22.2724 21.4882C22.3032 21.2811 22.1489 21.1036 21.9328 21.074L21.4081 21.0148L21.4698 17.6124C21.4698 17.3166 21.439 16.9911 21.3464 16.6953L20.4821 14.0621C20.4204 13.8846 20.2352 13.7959 20.05 13.7959C19.8648 13.8254 19.7104 13.9734 19.7104 14.1509V22.7308H16.3768V11.2811C16.809 11.7544 16.9016 12.2574 16.9016 12.287C16.9324 12.4053 16.9942 12.5237 17.1176 12.5533C17.1794 12.5828 17.2411 12.5828 17.3028 12.5828C17.3646 12.5828 17.4263 12.5533 17.488 12.5237C18.7536 11.8432 19.2474 10.926 19.4326 10.3935C19.4326 10.3935 19.4635 10.3935 19.4635 10.4231C19.9574 10.6302 20.3895 10.8077 20.8834 11.1036C21.3772 11.3994 21.7476 11.8728 21.902 12.4349L22.9514 16.1331C23.0749 16.5769 23.1366 17.0207 23.1366 17.4645C23.1675 18.9142 23.1366 21.5473 23.1058 22.5237Z" fill="#13ADAD"/>
<path d="M16.9942 13.9142H16.9633C16.7472 13.9142 16.5929 14.0917 16.5929 14.2692C16.5929 14.4467 16.7781 14.6242 16.9633 14.6242H16.9942C17.2102 14.6242 17.3646 14.4467 17.3646 14.2692C17.3646 14.0917 17.1794 13.9142 16.9942 13.9142Z" fill="#13ADAD"/>
<path d="M16.9942 17.1982H16.9633C16.7472 17.1982 16.5929 17.3758 16.5929 17.5533C16.5929 17.7308 16.7781 17.9083 16.9633 17.9083H16.9942C17.2102 17.9083 17.3646 17.7308 17.3646 17.5533C17.3646 17.3758 17.1794 17.1982 16.9942 17.1982Z" fill="#13ADAD"/>
<path d="M16.9942 20.4822H16.9633C16.7472 20.4822 16.5929 20.6597 16.5929 20.8372C16.5929 21.0147 16.7781 21.1922 16.9633 21.1922H16.9942C17.2102 21.1922 17.3646 21.0147 17.3646 20.8372C17.3646 20.6597 17.1794 20.4822 16.9942 20.4822Z" fill="#13ADAD"/>
</svg>
