<svg width="32" height="32" viewBox="0 0 32 32" fill="none" xmlns="http://www.w3.org/2000/svg">
<path d="M0 4C0 1.79086 1.79086 0 4 0H28C30.2091 0 32 1.79086 32 4V28C32 30.2091 30.2091 32 28 32H4C1.79086 32 0 30.2091 0 28V4Z" fill="#E9F9F8"/>
<path d="M15.1092 11.8334H10.2847C9.98777 11.8334 9.65377 11.9829 9.4682 12.2444C7.98372 12.3939 6.83325 13.6271 6.83325 15.1219V20.1667H7.64972V20.1293C7.68683 19.1951 8.39196 18.373 9.31976 18.2235H9.35687V18.2609C9.54243 18.6346 9.91355 18.8588 10.3218 18.8588H15.1463C15.7401 18.8588 16.2226 18.373 16.2226 17.7751V12.9171C16.1855 12.3192 15.703 11.8334 15.1092 11.8334ZM10.062 12.9171C10.062 12.7676 10.1733 12.6555 10.3218 12.6555H15.1463C15.2948 12.6555 15.4061 12.7676 15.4061 12.9171V17.7751C15.4061 17.9246 15.2948 18.0367 15.1463 18.0367H10.3218C10.1733 18.0367 10.062 17.9246 10.062 17.7751V12.9171ZM9.24553 13.1413V17.364H9.20842C8.65174 17.4388 8.09506 17.7003 7.68683 18.1114L7.64972 18.1861V15.1219C7.64972 14.1503 8.28062 13.3655 9.24553 13.1413Z" fill="#13ADAD"/>
<path d="M22.7543 12.3192V11.8334H20.8245C20.2307 11.8334 19.7482 12.3192 19.7482 12.9171V12.9545H18.1895C17.5957 12.9545 17.1133 13.4402 17.1133 14.0382V16.6914C17.1133 17.2893 17.5957 17.7751 18.1895 17.7751H19.7482V17.8124C19.7482 18.4104 20.2307 18.8962 20.8245 18.8962H22.7543V18.2609H22.7914C23.6821 18.4477 24.313 19.2325 24.3501 20.1293V20.1667H25.1666V15.1219C25.1666 13.7018 24.1646 12.5434 22.7543 12.3192ZM21.9378 17.9993H20.8245C20.676 17.9993 20.5647 17.8872 20.5647 17.7377V12.8797C20.5647 12.7302 20.676 12.6181 20.8245 12.6181H21.9378V17.9993ZM24.3501 15.1219V18.1861L24.2759 18.1488C23.8677 17.7377 23.3481 17.4761 22.7543 17.4014H22.7172V13.1413H22.7543C23.6821 13.3655 24.3501 14.1503 24.3501 15.1219ZM19.7482 15.7571V16.9156H18.1895C18.0411 16.9156 17.9297 16.8035 17.9297 16.654V14.0008C17.9297 13.8513 18.0411 13.7392 18.1895 13.7392H19.7482V14.8976H18.672V15.7198H19.7482V15.7571Z" fill="#13ADAD"/>
</svg>
