<svg width="32" height="32" viewBox="0 0 32 32" fill="none" xmlns="http://www.w3.org/2000/svg">
<path d="M0 4C0 1.79086 1.79086 0 4 0H28C30.2091 0 32 1.79086 32 4V28C32 30.2091 30.2091 32 28 32H4C1.79086 32 0 30.2091 0 28V4Z" fill="#E9F9F8"/>
<path d="M24.0424 16.2808C23.6043 13.0715 22.5258 9.66574 22.5258 9.633C22.4583 9.43651 22.2561 9.30552 22.0202 9.33827C21.9865 9.33827 19.4925 9.86223 15.9873 9.86223C12.4822 9.89498 9.98817 9.33827 9.95447 9.33827C9.75225 9.30552 9.51633 9.43651 9.44892 9.633C9.44892 9.66574 8.37042 13.0715 7.93228 16.2808C7.49413 19.5228 7.73006 22.1754 7.73006 22.2736C7.76376 22.4701 7.93228 22.6338 8.13449 22.6338L15.1785 22.6666C15.3807 22.6666 15.5829 22.5028 15.5829 22.3064L15.9536 19.1298L16.3244 22.3064C16.3581 22.5028 16.5266 22.6666 16.7288 22.6666L23.8402 22.6338C24.0424 22.6338 24.2446 22.4701 24.2446 22.2736C24.2783 22.1426 24.5142 19.5228 24.0424 16.2808ZM21.9528 10.6809C21.6495 10.7792 21.1439 10.9102 20.4699 11.0411V10.4189C21.0765 10.3534 21.5484 10.2552 21.818 10.2225C21.8854 10.3534 21.9191 10.4844 21.9528 10.6809ZM17.2344 11.4669V10.6809C18.1106 10.6482 18.9532 10.5827 19.6273 10.5172V11.2049C18.9195 11.3031 18.1106 11.4014 17.2344 11.4669ZM16.3918 10.6809V11.4669C16.257 11.4669 16.1221 11.4669 16.021 11.4669C15.8188 11.4669 15.6166 11.4669 15.4144 11.4669V10.6809C15.6166 10.6809 15.8188 10.6809 16.021 10.6809C16.1221 10.7137 16.257 10.7137 16.3918 10.6809ZM11.9767 11.1394V10.4844C12.6844 10.5499 13.5607 10.6482 14.5381 10.6809V11.4669C13.5607 11.4014 12.6844 11.2704 11.9767 11.1394ZM11.1341 10.3862V10.9757C10.6622 10.8447 10.2915 10.7464 10.0219 10.6809C10.0893 10.5172 10.123 10.3534 10.1567 10.2225C10.3926 10.2552 10.7296 10.3207 11.1341 10.3862ZM23.4357 21.8151L17.1669 21.8806L16.5603 16.8702C16.5266 16.5755 16.2907 16.379 15.9873 16.379C15.684 16.379 15.4481 16.5755 15.4144 16.8702L14.8077 21.8806L8.53893 21.8479C8.50523 20.9965 8.43782 18.8351 8.77486 16.379C8.77486 16.2808 8.80856 16.1825 8.80856 16.0843H8.84226C8.97707 16.0843 9.07818 16.0515 9.17929 15.9533C10.123 14.9054 11.5385 13.006 11.6059 12.9405C11.7407 12.744 11.707 12.5148 11.5048 12.3838C11.3026 12.2528 11.033 12.2856 10.8982 12.482C10.8982 12.482 9.88706 13.8247 9.01078 14.8726C9.2804 13.5955 9.55003 12.3838 9.81965 11.4669C10.6959 11.7288 12.8529 12.2528 15.5829 12.3183V14.8071C15.5829 15.0364 15.7851 15.2001 15.9873 15.2001C16.1896 15.2001 16.3918 15.0036 16.3918 14.8071V12.3183C19.1217 12.2528 21.2787 11.7288 22.155 11.4669C22.3909 12.3838 22.6943 13.5955 22.9302 14.8399C22.1213 13.8247 21.245 12.6458 21.2113 12.613C21.0765 12.4166 20.8069 12.3838 20.6384 12.5148C20.4362 12.6458 20.4025 12.9078 20.5373 13.0715C20.6047 13.137 21.8854 14.9054 22.8291 15.9533C22.8965 16.0515 23.0313 16.0843 23.1661 16.0843C23.1661 16.0843 23.1661 16.0843 23.1998 16.0843C23.1998 16.1825 23.2335 16.248 23.2335 16.3463C23.5706 18.8351 23.5031 20.9965 23.4357 21.8151Z" fill="#13ADAD"/>
</svg>
