<svg width="32" height="32" viewBox="0 0 32 32" fill="none" xmlns="http://www.w3.org/2000/svg">
<path d="M0 4C0 1.79086 1.79086 0 4 0H28C30.2091 0 32 1.79086 32 4V28C32 30.2091 30.2091 32 28 32H4C1.79086 32 0 30.2091 0 28V4Z" fill="#E9F9F8"/>
<path d="M24.3318 20.7004C24.363 18.6081 23.8958 16.4862 23.3663 14.8654C23.0548 13.834 22.7122 13.0088 22.4941 12.5079C22.0892 11.5648 21.2794 11.0933 20.5319 10.7102L19.1614 10.1798C19.1925 9.97348 19.2237 9.73772 19.1925 9.53143C19.068 8.94204 17.7598 8.5 15.9844 8.5C14.209 8.5 12.9008 8.94204 12.7762 9.53143C12.7451 9.70825 12.7762 9.94401 12.8074 10.1503L11.4058 10.7102C10.6894 11.0639 9.87955 11.5354 9.47463 12.4784C9.2566 12.9794 8.91399 13.834 8.60251 14.836C8.10416 16.4862 7.63695 18.5786 7.6681 20.7004C7.6681 20.9361 7.73039 21.1719 7.82384 21.3782C7.82384 21.3782 7.82384 21.3782 7.82384 21.4077V21.9086C7.82384 22.2033 8.07301 22.4391 8.38448 22.4391H10.3779C10.6894 22.4391 10.9386 22.2033 10.9386 21.9086V21.7024C11.1877 21.4077 11.3123 21.0246 11.2812 20.6415C11.2812 20.4057 11.3123 19.9931 11.3435 19.4921V21.9971C11.3435 22.5864 11.8107 23.5 12.4025 23.5H15.9844H19.5663C20.1581 23.5 20.6253 22.5864 20.6253 21.9971V19.4921C20.6876 19.9931 20.7188 20.3762 20.6876 20.6415C20.6876 21.0246 20.8122 21.3782 21.0302 21.7024V21.9086C21.0302 22.2033 21.2794 22.4391 21.5909 22.4391H23.5843C23.8958 22.4391 24.1449 22.2033 24.1449 21.9086V21.4077C24.1449 21.4077 24.1449 21.4077 24.1449 21.3782C24.2695 21.1719 24.3318 20.9361 24.3318 20.7004ZM9.16316 15.8084C9.53693 16.1916 10.0976 16.6631 10.9386 16.9872C10.814 17.6945 10.6894 18.4607 10.6271 19.109C9.44349 18.8438 8.85169 18.1365 8.69596 17.8713C8.82054 17.164 8.97628 16.4568 9.16316 15.8084ZM12.1533 17.665C12.6828 17.9597 13.4615 18.1071 14.3959 18.1071C14.8008 18.1071 15.2057 18.0776 15.6418 18.0187V20.4057C13.8352 20.6709 12.4025 20.3173 12.1844 19.8163V17.665H12.1533ZM15.9844 10.887C15.8287 10.7397 15.6729 10.5629 15.486 10.4155C15.3614 10.3271 15.2369 10.2387 15.1123 10.1798C15.3303 10.1208 15.6418 10.0914 16.0155 10.0914C16.3582 10.0914 16.6696 10.1208 16.8877 10.1798C16.7631 10.2387 16.6073 10.3271 16.4516 10.445C16.2647 10.5629 16.109 10.7397 15.9844 10.887ZM16.3893 18.0187C16.8254 18.0776 17.2303 18.1071 17.6352 18.1071C18.5385 18.1071 19.3171 17.9597 19.8778 17.665V19.8163C19.6597 20.3173 18.227 20.6709 16.4204 20.4057V18.0187H16.3893ZM21.0614 16.9872C21.9023 16.6631 22.4941 16.1916 22.8368 15.8084C23.0236 16.4568 23.1794 17.1346 23.304 17.8713C23.1171 18.1365 22.5564 18.8143 21.3728 19.109C21.2794 18.4607 21.186 17.724 21.0614 16.9872ZM22.5876 14.9244C22.4318 15.1896 21.9335 15.8379 20.9368 16.2505C20.8433 15.7495 20.7499 15.278 20.6253 14.8949C20.563 14.7181 20.4073 14.6002 20.1893 14.6297C20.0024 14.6591 19.8466 14.8065 19.8466 14.9833V16.6925C19.6286 17.1935 18.1958 17.5472 16.3893 17.2819V14.8654C16.6073 14.8654 16.8565 14.8949 17.0745 14.8949C19.2237 14.8949 20.9056 14.276 21.9023 13.1267C22.0892 13.5688 22.3384 14.1876 22.5876 14.9244ZM21.5286 12.331C20.6565 13.5982 18.8188 14.2466 16.3893 14.0992V11.8595C17.7598 11.8595 18.5385 11.5354 18.9122 10.8281L20.1893 11.3291C20.8433 11.6532 21.2483 11.9774 21.5286 12.331ZM15.9844 9.23674C17.5729 9.23674 18.2893 9.59037 18.4139 9.70825C18.4139 9.82613 18.3827 10.0914 18.3204 10.2682C18.1958 10.6513 17.9467 11.0344 16.7631 11.1228C16.8254 11.0639 16.8565 11.0344 16.9188 10.9754C17.0745 10.8576 17.2926 10.7692 17.4794 10.6807C17.7286 10.5923 18.009 10.4745 18.009 10.1503C18.009 9.35462 16.327 9.32515 15.9844 9.32515C15.6418 9.32515 13.991 9.38409 13.991 10.1798C13.991 10.4745 14.2713 10.5923 14.4893 10.6807C14.6451 10.7397 14.8319 10.8281 14.9877 10.9754C15.05 11.0344 15.1123 11.0639 15.1434 11.1228C14.0221 11.0344 13.7729 10.6513 13.6484 10.2682C13.5861 10.0914 13.5549 9.8556 13.5549 9.70825C13.7106 9.59037 14.3959 9.23674 15.9844 9.23674ZM11.7795 11.3585L13.0877 10.8576C13.4926 11.5648 14.2713 11.8595 15.6106 11.889V14.0992C13.1811 14.2466 11.3435 13.6277 10.4713 12.331C10.7517 11.9774 11.1566 11.6827 11.7795 11.3585ZM10.0976 13.0972C11.0943 14.2466 12.7762 14.8654 14.9254 14.8654C15.1434 14.8654 15.3614 14.8654 15.6106 14.836V17.2525C13.8041 17.5177 12.3713 17.164 12.1533 16.6631V14.9833C12.1533 14.8065 11.9976 14.6297 11.8107 14.6297C11.6238 14.6002 11.4369 14.7181 11.3746 14.8949C11.2812 15.278 11.1877 15.7495 11.0631 16.2505C10.0664 15.8379 9.56808 15.1896 9.41234 14.9244C9.66152 14.1876 9.91069 13.5688 10.0976 13.0972ZM10.2533 21.3193C10.191 21.3782 10.1599 21.4666 10.1599 21.555V21.6729H8.60251V21.4371C8.63366 21.3487 8.63366 21.2308 8.57137 21.1424C8.47793 20.9951 8.44678 20.8477 8.44678 20.6709C8.44678 20.0521 8.47793 19.4332 8.54022 18.8438C8.94513 19.2269 9.59922 19.6395 10.5336 19.8458C10.5025 20.1699 10.5025 20.4646 10.5025 20.6415C10.5025 20.9067 10.4402 21.1424 10.2533 21.3193ZM12.1533 22.0265V20.8183C12.6828 21.113 13.4615 21.2603 14.3959 21.2603C14.8008 21.2603 15.2057 21.2308 15.6418 21.1719V22.8222H12.4648C12.3402 22.6749 12.1533 22.3212 12.1533 22.0265ZM19.5352 22.7927H16.3893V21.1424C16.8254 21.2014 17.2303 21.2308 17.6352 21.2308C18.5385 21.2308 19.3171 21.0835 19.8778 20.7888V21.9971C19.8466 22.3212 19.6597 22.6749 19.5352 22.7927ZM23.4286 21.1424C23.3663 21.2308 23.3663 21.3487 23.3974 21.4371V21.6729H21.84V21.555C21.84 21.4666 21.8089 21.3782 21.7466 21.3193C21.5909 21.1424 21.4974 20.9067 21.4974 20.6709C21.4974 20.4646 21.4974 20.1994 21.4663 19.8752C22.4007 19.669 23.0548 19.2564 23.4597 18.8733C23.522 19.4627 23.5531 20.0815 23.5531 20.7004C23.5531 20.8477 23.4908 20.9951 23.4286 21.1424Z" fill="#13ADAD"/>
</svg>
