<svg width="24" height="24" viewBox="0 0 24 24" fill="none" xmlns="http://www.w3.org/2000/svg">
<path d="M21.9475 17.1765L21.759 15.7176C21.6836 14.5412 20.892 12.3294 18.3663 12.0471L17.7631 12C15.5391 11.7647 14.5966 11.6706 14.0689 10.8235L13.9935 10.7294C13.3527 9.74118 12.2595 8.04706 11.694 5.17647C11.6186 4.70588 11.3548 4.37647 11.0155 4.14118C10.6762 3.95294 10.2993 3.95294 9.95998 4.14118C9.39454 4.47059 8.6783 4.61176 7.32123 4.61176C6.00186 4.61176 4.64478 4.42353 3.89085 4.28235C3.55159 4.18824 3.21232 4.28235 2.94844 4.56471C2.64687 4.84706 2.49609 5.22353 2.45839 5.64706C2.42069 6.21176 2.383 6.96471 2.3453 7.71765C2.3076 8.84706 2.26991 10.1647 2.15682 11.0588C1.85525 13.2706 2.08142 15.5294 2.08142 15.8588V18.5412C2.08142 19.2471 2.53378 19.8588 3.09923 19.9059C3.3631 19.9059 3.74007 19.9529 4.19243 19.9529C4.53169 19.9529 4.94635 19.9529 5.43641 19.9529C7.39662 19.9529 8.41443 19.8118 8.45213 19.8118C8.6783 19.7647 8.86679 19.5294 8.86679 19.2471V18.8706C8.90448 18.8706 8.90448 18.8706 8.94218 18.9176C9.50763 19.1529 10.2993 19.4824 11.2794 19.6706C11.694 19.7647 13.2396 20 15.1621 20C16.3684 20 17.7255 19.9059 19.0448 19.5765C20.7412 19.1529 21.6459 18.6353 21.9098 17.8824C22.0228 17.6471 22.0228 17.3647 21.9475 17.1765ZM3.09923 11.2941C3.25001 10.3059 3.28771 8.98824 3.32541 7.81176C3.3631 7.05882 3.3631 6.35294 3.4008 5.78824C3.4008 5.64706 3.47619 5.55294 3.51389 5.50588C3.55159 5.45882 3.62698 5.41176 3.74007 5.41176C4.53169 5.6 5.96416 5.74118 7.35893 5.74118C8.82909 5.74118 9.65841 5.6 10.3746 5.17647C10.4877 5.12941 10.6008 5.12941 10.6385 5.17647C10.6762 5.22353 10.7516 5.27059 10.7893 5.41176C10.8647 5.78824 10.9401 6.11765 11.0155 6.4C10.7139 6.58824 10.1108 6.87059 9.58302 6.96471C9.31914 7.01176 9.16836 7.34118 9.20605 7.62353C9.24375 7.90588 9.43223 8.09412 9.65841 8.09412C9.69611 8.09412 9.69611 8.09412 9.7338 8.09412C10.3746 7.95294 10.9778 7.67059 11.3548 7.43529C11.4678 7.76471 11.5809 8.09412 11.694 8.37647C11.3548 8.56471 10.9024 8.75294 10.45 8.84706C10.1862 8.89412 10.0354 9.22353 10.0731 9.50588C10.1108 9.78824 10.2993 9.97647 10.5254 9.97647C10.5631 9.97647 10.5631 9.97647 10.6008 9.97647C11.1663 9.83529 11.7694 9.6 12.1464 9.36471C12.2972 9.69412 12.4479 9.92941 12.5987 10.2118C12.2595 10.4 11.8071 10.5882 11.3548 10.6824C11.0909 10.7294 10.9401 11.0588 10.9778 11.3412C11.0155 11.6235 11.204 11.8118 11.4301 11.8118C11.4678 11.8118 11.4678 11.8118 11.5055 11.8118C12.1841 11.6706 12.8249 11.3412 13.2019 11.1529C13.2019 11.2 13.2396 11.2 13.2396 11.2471L13.315 11.3412C14.1443 12.6118 15.3883 12.7529 17.6878 12.9412L18.2532 12.9882C20.1003 13.1765 20.5904 14.5882 20.7412 15.2471C20.5527 15.3412 20.2134 15.4824 19.7234 15.6706C17.4239 16.6588 14.5966 16.8 11.3924 16.0941C11.0532 16 10.7139 15.9529 10.3746 15.8588C8.716 15.4353 6.71809 14.9647 2.98614 15.1529C2.94844 14.6353 2.87305 12.9412 3.09923 11.2941ZM19.9495 18.1647C19.8741 18.0235 19.7234 17.8824 19.5726 17.8824C19.3087 17.8824 19.1202 18.1176 19.1202 18.4C19.0448 18.4 19.0071 18.4471 18.9317 18.4471C18.5171 18.5412 18.1024 18.6353 17.6878 18.6824C17.6124 18.4471 17.4616 18.3059 17.2354 18.3059C17.0092 18.3059 16.8207 18.4941 16.783 18.7765C16.1799 18.8235 15.5768 18.8706 15.049 18.8235C15.0113 18.5882 14.8228 18.3529 14.5966 18.3529C14.3705 18.3529 14.2197 18.5412 14.1443 18.7765C13.3527 18.7294 12.6364 18.6353 12.1464 18.5882C12.1087 18.3059 11.9202 18.0706 11.694 18.0706C11.5055 18.0706 11.3548 18.2118 11.2794 18.4C10.4877 18.2118 9.8092 17.9294 9.31914 17.7412C9.09297 17.6471 8.90448 17.5529 8.716 17.5059C8.6783 17.5059 8.60291 17.4588 8.56521 17.4588C8.45213 17.4588 8.30134 17.5059 8.22595 17.6C8.07516 17.7412 7.99977 17.9294 7.99977 18.1647V18.6353C7.73589 18.6824 7.35893 18.6824 6.90657 18.7294C6.83118 18.4941 6.68039 18.3059 6.45421 18.3059C6.22803 18.3059 6.03955 18.4941 6.00186 18.7765C5.85107 18.7765 5.66259 18.7765 5.5118 18.7765C5.21023 18.7765 4.98405 18.7765 4.72018 18.7765C4.68248 18.5412 4.494 18.3529 4.26782 18.3529C4.04164 18.3529 3.89085 18.5412 3.81546 18.7765C3.58928 18.7765 3.4008 18.7294 3.21232 18.7294C3.13693 18.7294 3.06153 18.6353 3.06153 18.5412V16.5176C6.6427 16.3294 8.52752 16.8 10.2239 17.2235C10.5631 17.3176 10.9024 17.4118 11.2417 17.4588C12.6364 17.7412 13.9558 17.9294 15.1998 17.9294C16.9715 17.9294 18.5925 17.6 20.0249 16.9882C20.4019 16.8 20.7035 16.7059 20.892 16.6118L21.005 17.3647V17.4118C20.9673 17.6 20.7412 17.8353 19.9495 18.1647Z" fill="#757575"/>
</svg>
