<svg width="24" height="24" viewBox="0 0 24 24" fill="none" xmlns="http://www.w3.org/2000/svg">
<path d="M21.9932 2.58296C21.9932 2.44843 21.9485 2.26906 21.8591 2.17937C21.725 2.04484 21.5908 2 21.4567 2C19.4005 2 16.8972 2 14.7962 2H14.5727C14.2597 2 14.0362 2.26906 14.0362 2.53812C14.0362 4.64574 13.768 9.66816 13.7233 10.6547C13.4551 10.9686 12.8293 11.7309 12.6058 11.9552C12.2482 12.3587 11.8011 12.852 11.3094 13.3453C10.4601 14.1973 9.56606 15.139 8.89553 16.0359C7.82269 17.4709 7.37567 18.5919 7.59918 19.5785C7.73328 20.3408 8.2697 20.9238 9.11904 21.417C9.87897 21.8655 10.5942 22 11.3094 22C12.8293 22 14.1703 21.1928 15.2432 20.3857C16.1372 19.713 16.9866 18.9507 17.8806 18.1435C18.5511 17.5157 19.2664 16.8879 20.0263 16.3049C20.1604 16.1704 20.2945 16.0807 20.4286 15.9462C21.9038 14.5561 22.0379 13.1211 21.9932 11.9103C21.9932 11.4619 21.9485 11.0135 21.8591 10.6099V10.4753C21.725 9.0852 21.9038 5.31839 21.9932 3.30045V2.58296ZM20.8309 3.21076C20.7415 5.27354 20.518 9.0852 20.6968 10.565V10.6996C20.7415 11.148 20.7862 11.5516 20.7862 11.9552C20.8309 13.1211 20.6521 14.1525 19.5793 15.139C19.4899 15.2287 19.3558 15.3184 19.2664 15.4081C18.5064 15.991 17.7912 16.6637 17.076 17.2915C16.1819 18.0987 15.3773 18.861 14.528 19.4439C12.5164 20.9238 11.0412 21.2377 9.61076 20.3857C9.07434 20.0717 8.76142 19.713 8.67202 19.3094C8.53791 18.6816 8.89553 17.7848 9.74486 16.7085C10.4154 15.8565 11.2647 14.9596 12.0694 14.1076C12.5611 13.6144 13.0081 13.1659 13.4104 12.7175C13.7233 12.4036 14.6174 11.2825 14.6621 11.2377C14.7515 11.148 14.7962 11.0135 14.7962 10.9238C14.7962 10.8789 14.975 7.5157 15.0644 4.86996H16.4054C16.7183 4.86996 16.9419 4.6009 16.9419 4.33184C16.9419 4.06278 16.6736 3.79372 16.4054 3.79372H15.1091C15.1091 3.56951 15.1091 3.34529 15.1091 3.16592C16.9419 3.16592 18.9981 3.16592 20.8309 3.16592V3.21076Z" fill="#757575"/>
<path d="M6.97329 20.6996C5.94514 21.0583 5.00641 21.0135 4.11237 20.4753C3.57595 20.1614 3.26304 19.8027 3.17363 19.3991C3.03953 18.7713 3.39714 17.8744 4.24648 16.7982C4.917 15.9462 5.76634 15.0493 6.57097 14.1973C7.06269 13.704 7.50971 13.2556 7.91202 12.8072C8.22494 12.4933 9.11897 11.3722 9.16368 11.3274C9.25308 11.2377 9.29778 11.1031 9.29778 11.0135C9.29778 10.9686 9.47659 7.60538 9.56599 4.95964H11.0859C11.3988 4.95964 11.6223 4.69058 11.6223 4.42152C11.6223 4.15247 11.3541 3.88341 11.0859 3.88341H9.61069C9.61069 3.65919 9.61069 3.43498 9.61069 3.25561H13.0974C13.4103 3.25561 13.6339 2.98655 13.6339 2.71749C13.6339 2.44843 13.3656 2 13.0527 2H9.02957C8.71666 2 8.49315 2.26906 8.49315 2.53812C8.49315 4.64574 8.22494 9.66816 8.18024 10.6547C7.91202 10.9686 7.2862 11.7309 7.06269 11.9552C6.70508 12.3587 6.25806 12.852 5.76634 13.3453C4.917 14.1973 4.02297 15.139 3.35244 16.0359C2.2796 17.4709 1.83258 18.5919 2.05609 19.5785C2.19019 20.3408 2.72661 20.9238 3.57595 21.417C4.29118 21.8206 5.00641 22 5.76634 22C6.30276 22 6.83918 21.9103 7.3756 21.6861C7.68852 21.5964 7.82262 21.2825 7.73322 20.9686C7.59911 20.7444 7.2862 20.6099 6.97329 20.6996Z" fill="#757575"/>
</svg>
