<svg width="32" height="32" viewBox="0 0 32 32" fill="none" xmlns="http://www.w3.org/2000/svg">
<path d="M0 4C0 1.79086 1.79086 0 4 0H28C30.2091 0 32 1.79086 32 4V28C32 30.2091 30.2091 32 28 32H4C1.79086 32 0 30.2091 0 28V4Z" fill="#E9F9F8"/>
<path d="M24.3007 19.7218L24.184 19.3425L21.762 11.2885C21.5285 10.5298 20.9157 9.94618 20.157 9.74191L18.5812 9.33337H18.552C18.5229 9.33337 18.4937 9.33337 18.4645 9.33337C18.4353 9.33337 18.4061 9.33337 18.4061 9.33337H18.377C18.377 9.33337 17.4723 9.68355 16.0133 9.68355C14.5542 9.68355 13.6496 9.33337 13.6496 9.33337C13.6204 9.33337 13.6204 9.33337 13.5913 9.33337C13.5621 9.33337 13.5621 9.33337 13.5329 9.33337C13.5037 9.33337 13.4745 9.33337 13.4454 9.33337H13.4162L11.8404 9.74191C11.0817 9.97536 10.4981 10.559 10.2354 11.2885L7.8134 19.3425L7.69667 19.7218C7.57995 20.1304 7.8134 20.5681 8.22193 20.714L9.62263 21.1517C10.0312 21.2976 10.4689 21.1225 10.644 20.714L10.7899 20.393C10.7899 20.3638 10.7899 20.3638 10.8191 20.3347L11.782 17.1247L11.6945 21.356V21.3852L11.7528 21.9688C11.8112 22.3773 12.1322 22.6691 12.5407 22.6691H19.4567C19.8652 22.6691 20.2154 22.3773 20.2445 21.9688L20.3029 21.3852V21.356L20.2154 17.1247L21.1783 20.3347C21.1783 20.3638 21.1783 20.3638 21.2075 20.393L21.3534 20.714C21.5285 21.0934 21.9954 21.2976 22.3748 21.1517L23.8046 20.6848C24.2132 20.5681 24.4174 20.1304 24.3007 19.7218ZM17.7642 10.2672C17.3556 10.6173 16.6553 10.7924 16.0133 10.7924C15.3713 10.7924 14.671 10.6173 14.2624 10.2672C14.7001 10.3547 15.2838 10.4423 16.0133 10.4423C16.7428 10.4423 17.3264 10.3547 17.7642 10.2672ZM23.5712 20.0137L22.1413 20.4806C22.1121 20.5097 22.0538 20.4806 22.0246 20.4222L21.8787 20.1304L20.157 14.4109C20.0986 14.2358 19.9236 14.1191 19.7485 14.1483C19.5734 14.1774 19.4275 14.3233 19.4275 14.5276L19.5442 21.035H18.8439C18.6396 21.035 18.4937 21.2101 18.4937 21.3852C18.4937 21.5603 18.6688 21.7353 18.8439 21.7353H19.515L19.4858 21.9104C19.4858 21.9396 19.4567 21.9688 19.4275 21.9688H12.5407C12.5116 21.9688 12.4824 21.9396 12.4824 21.9104L12.4532 21.7353H13.1244C13.3286 21.7353 13.4745 21.5603 13.4745 21.3852C13.4745 21.2101 13.2994 21.035 13.1244 21.035H12.424L12.5407 14.5276C12.5407 14.3525 12.424 14.1774 12.2197 14.1483C12.0447 14.1191 11.8696 14.2358 11.8112 14.4109L10.1187 20.1304L9.9728 20.4222C9.94362 20.4514 9.91444 20.4806 9.85607 20.4514L8.45538 20.0137C8.4262 19.9845 8.39702 19.9553 8.39702 19.8969L10.9358 11.4928C11.1109 10.9675 11.5194 10.559 12.0155 10.4131L13.2411 10.0921C13.6204 11.0551 14.846 11.4928 15.9841 11.4928C17.1222 11.4928 18.3478 11.0551 18.7271 10.0921L19.9236 10.4131C20.4488 10.559 20.8574 10.9675 21.0324 11.4928L23.5128 19.5468L23.6296 19.9261C23.6296 19.9553 23.6004 20.0137 23.5712 20.0137Z" fill="#13ADAD"/>
</svg>
