<svg width="32" height="32" viewBox="0 0 32 32" fill="none" xmlns="http://www.w3.org/2000/svg">
<path d="M0 4C0 1.79086 1.79086 0 4 0H28C30.2091 0 32 1.79086 32 4V28C32 30.2091 30.2091 32 28 32H4C1.79086 32 0 30.2091 0 28V4Z" fill="#E9F9F8"/>
<path d="M23.5725 8.1093C23.3914 7.9673 23.174 7.93179 22.9928 7.9673C22.9204 7.9673 22.7392 8.0028 22.5218 8.0738C21.9059 7.29277 18.8262 7.82529 18.0653 8.1093C17.4131 8.35781 17.232 8.67732 17.232 8.92583C16.6523 8.96133 16.0725 8.96133 15.4566 8.96133C12.703 8.96133 10.5653 8.57082 9.15226 7.78979C8.9711 7.68329 8.71747 7.64778 8.46385 7.71879C8.24646 7.78979 8.0653 7.9673 7.9566 8.1803C7.77544 8.60632 7.66675 9.70685 7.66675 10.3104C7.66675 11.1624 7.73921 12.6535 8.31892 13.1505L8.35515 13.186C8.42762 13.257 10.3479 14.5705 15.2392 14.7125C14.1523 16.7716 13.3189 19.3632 14.5146 23.1973C14.6233 23.5523 14.8769 23.8008 15.2754 24.0138C15.7827 24.2623 16.4711 24.3333 17.1595 24.3333C18.3914 24.3333 19.6957 24.0848 20.2754 23.8718C20.5653 23.7653 20.7102 23.5523 20.7827 23.4103C20.9276 23.0908 20.7827 22.7713 20.7465 22.6293C19.3696 18.8307 20.4566 16.3456 21.5436 14.18C22.3769 14.038 23.2102 13.7185 23.2465 13.7185C23.9711 13.5055 24.3334 12.4404 24.3334 10.5589C24.2972 9.35184 24.0073 8.46431 23.5725 8.1093ZM8.89863 12.4759C8.78994 12.3339 8.60878 11.7659 8.57255 10.6299C8.9711 10.9139 9.62327 11.1979 10.4928 11.3399C10.5291 11.3399 10.5291 11.3399 10.5653 11.3399C10.7827 11.3399 10.9638 11.1979 11.0001 10.9494C11.0725 10.7009 10.8914 10.4879 10.6378 10.4524C9.29718 10.2394 8.68124 9.60035 8.64501 9.56485L8.60878 9.52935C8.64501 9.13883 8.71747 8.74832 8.7537 8.60632C10.3479 9.42284 12.5218 9.84886 15.4566 9.84886C16.1088 9.84886 16.7247 9.81336 17.3769 9.77786C17.4494 10.9139 16.8334 11.9789 16.0725 13.257C15.9639 13.4345 15.8552 13.612 15.7465 13.825C11.0725 13.7895 9.15226 12.6179 8.89863 12.4759ZM19.4421 21.4932C19.0073 21.2447 18.4276 21.1027 17.8841 21.5997C17.6667 21.7773 17.2682 21.7773 17.0508 21.6353C16.3986 21.1737 15.6378 21.1737 15.0943 21.6708C15.0943 21.6708 15.0581 21.7063 15.0581 21.7418C15.0218 21.5287 14.9856 21.3157 14.9494 21.1027C15.1305 21.1737 15.3117 21.1737 15.4566 21.0317C15.674 20.8542 15.9639 20.8542 16.2537 21.0672C16.5073 21.2447 16.8334 21.3512 17.1595 21.3512C17.5218 21.3512 17.9204 21.2447 18.2102 20.9607C18.2827 20.8897 18.3914 20.7832 18.8986 21.1027C19.0436 21.1737 19.2247 21.1737 19.3334 21.1027C19.4059 21.2092 19.4059 21.3512 19.4421 21.4932ZM15.674 23.1618C15.5291 23.0908 15.4204 22.9843 15.3841 22.8778C15.3117 22.7003 15.2754 22.5228 15.2392 22.3808C15.3841 22.4518 15.6015 22.4163 15.7465 22.3098C15.9639 22.1323 16.2537 22.1323 16.5436 22.3453C16.7972 22.5228 17.1233 22.6293 17.4494 22.6293C17.8117 22.6293 18.2102 22.5228 18.5001 22.2388C18.5725 22.1678 18.6812 22.0613 19.1885 22.3808C19.3334 22.4873 19.5508 22.4518 19.6957 22.3808C19.7682 22.5583 19.8044 22.7358 19.8769 22.9133C19.8769 22.9133 19.8769 22.9488 19.9131 22.9843C19.9131 22.9843 19.9131 23.0198 19.9494 23.0198C19.0073 23.3393 16.616 23.6233 15.674 23.1618ZM19.2247 20.2152C18.7537 19.9667 18.174 19.7537 17.5943 20.2862C17.3769 20.4637 16.9783 20.4637 16.761 20.3217C16.1088 19.8602 15.3479 19.8602 14.8407 20.3217C14.587 17.4106 15.7465 15.458 16.7972 13.683C17.703 12.1564 18.5725 10.7009 18.1015 8.99683C18.645 8.64182 21.145 8.35781 21.7247 8.57082C22.3769 10.2749 21.6523 11.6594 20.7827 13.4345C19.9856 15.245 18.9349 17.3396 19.2247 20.2152ZM22.9204 12.8665C22.9204 12.8665 22.5218 13.0085 22.0146 13.1505C22.6667 11.8014 23.174 10.4524 22.8117 8.92583C22.9204 8.89033 22.9928 8.89033 23.0653 8.89033C23.174 9.06783 23.3914 9.60035 23.3914 10.5589C23.3914 12.1209 23.0653 12.7955 22.9204 12.8665Z" fill="#13ADAD"/>
</svg>
