<svg width="32" height="32" viewBox="0 0 32 32" fill="none" xmlns="http://www.w3.org/2000/svg">
<path d="M0 4C0 1.79086 1.79086 0 4 0H28C30.2091 0 32 1.79086 32 4V28C32 30.2091 30.2091 32 28 32H4C1.79086 32 0 30.2091 0 28V4Z" fill="#E9F9F8"/>
<path d="M24.2583 13.5323L22.2211 9.8871C21.657 8.98387 20.5287 8.5 19.7765 8.5H18.5542C18.4915 8.5 18.4602 8.5 18.4289 8.53226C18.4289 8.53226 17.4886 8.8871 16.0469 8.8871C14.6053 8.8871 13.665 8.53226 13.665 8.53226C13.5397 8.5 13.5083 8.5 13.4457 8.5H12.2234C11.4712 8.5 10.3429 8.98387 9.74742 9.91935L7.7416 13.4677C7.67892 13.5968 7.64758 13.7581 7.67892 13.9194C7.67892 13.9516 7.67892 13.9839 7.71026 14.0161C7.77294 14.3387 7.92965 15.1452 8.74451 15.629C9.68474 16.2097 10.5936 15.9194 10.8444 15.8226C10.907 15.7903 10.9697 15.7581 11.0324 15.7258V23.1129C11.0324 23.3387 11.2204 23.5 11.4085 23.5H15.9843H20.56C20.7794 23.5 20.9361 23.3065 20.9361 23.1129V15.6935C20.9675 15.7258 21.0302 15.7581 21.0615 15.7903C21.3122 15.8871 22.2211 16.2097 23.1613 15.6935C24.0075 15.2097 24.1642 14.4677 24.2583 14.1129C24.2583 14.0806 24.2896 14.0484 24.2896 14.0161C24.3523 13.8548 24.3523 13.6935 24.2583 13.5323ZM17.9587 9.5C17.614 10.371 17.0499 10.6935 15.9843 10.6935C14.9187 10.6935 14.3545 10.371 14.0098 9.5C14.4799 9.59677 15.1381 9.69355 15.9843 9.69355C16.8305 9.69355 17.4886 9.59677 17.9587 9.5ZM23.5374 13.9194C23.4747 14.2097 23.3494 14.6613 22.8479 14.9839C22.2838 15.3065 21.751 15.1774 21.5003 15.0806L20.9675 13.4032C20.9048 13.2097 20.7167 13.1129 20.5287 13.1452C20.3407 13.1774 20.1839 13.3387 20.1839 13.5323V22.7258H15.9843H11.8159V13.5323C11.8159 13.3387 11.6906 13.1774 11.5025 13.1452C11.3145 13.1129 11.1264 13.2419 11.0637 13.4032L10.4996 15.1129C10.2489 15.1774 9.71608 15.3065 9.15194 14.9516C8.65049 14.629 8.55647 14.1452 8.49379 13.8548C8.49379 13.8226 8.49379 13.8226 8.49379 13.7903L10.4369 10.3387C10.8444 9.69355 11.6592 9.30645 12.2234 9.30645H13.1636C13.571 10.8226 14.4486 11.4677 16.0156 11.5C17.5827 11.5 18.4289 10.8226 18.8676 9.30645H19.8079C20.372 9.30645 21.1869 9.69355 21.5943 10.3065L23.6001 13.8548C23.5374 13.8548 23.5374 13.8871 23.5374 13.9194Z" fill="#13ADAD"/>
</svg>
