<svg width="32" height="32" viewBox="0 0 32 32" fill="none" xmlns="http://www.w3.org/2000/svg">
<path d="M0 4C0 1.79086 1.79086 0 4 0H28C30.2091 0 32 1.79086 32 4V28C32 30.2091 30.2091 32 28 32H4C1.79086 32 0 30.2091 0 28V4Z" fill="#E9F9F8"/>
<path d="M23.439 16.8033C23.4064 16.636 23.3737 16.4686 23.3083 16.2678C22.8509 14.2933 22.3609 12.3187 21.7728 11.5155C21.25 10.7792 20.4659 10.3776 20.0412 10.1768C20.1392 9.64131 20.0412 9.17277 19.7798 8.77117C19.061 7.80062 17.3947 7.66675 15.9899 7.66675C14.585 7.66675 12.9187 7.80062 12.2326 8.77117C11.9712 9.17277 11.8732 9.64131 11.9712 10.1768C11.5465 10.3776 10.7624 10.7792 10.2396 11.5155C9.65153 12.2852 9.16145 14.2933 8.70405 16.2344C8.67137 16.4352 8.60603 16.636 8.57336 16.7698C8.24664 18.1085 9.09611 21.4552 9.4555 22.3254C9.58619 22.8943 9.88023 23.1955 10.3376 23.2625C10.4357 23.2625 10.5663 23.2959 10.6644 23.2959C11.0564 23.2959 11.4485 23.229 11.7425 23.1286C11.7425 23.1621 11.7425 23.1955 11.7425 23.229C11.7425 23.2625 11.7425 23.2959 11.7752 23.3294C11.8732 23.6306 12.1346 24.3334 12.9841 24.3334H16.0225H19.061C19.8778 24.3334 20.1392 23.6306 20.2699 23.3294C20.2699 23.2959 20.3025 23.2625 20.3025 23.229C20.3025 23.1955 20.3025 23.1621 20.3025 23.1286C20.5966 23.1955 20.9886 23.2959 21.3807 23.2959C21.4787 23.2959 21.6094 23.2959 21.7074 23.2625C22.3609 23.1621 22.5242 22.5597 22.5896 22.3254C22.8836 21.4552 23.7331 18.1085 23.439 16.8033ZM12.9187 9.23971C13.4415 8.50343 15.3691 8.50343 15.9899 8.50343C16.6106 8.50343 18.5383 8.50343 19.061 9.23971C19.257 9.50744 19.257 9.84212 19.1264 10.3107C18.865 11.1473 18.0809 11.8501 16.774 12.4191C16.8393 12.3522 16.9047 12.2852 17.0027 12.1848L17.1334 12.0844C17.6235 11.7163 18.2769 11.2812 18.4076 10.6788C18.5056 10.2103 18.3749 9.87558 18.2442 9.67478C17.8195 9.10584 16.9373 9.07237 15.9899 9.07237C15.0424 9.07237 14.1602 9.10584 13.7355 9.67478C13.6048 9.84212 13.4415 10.1768 13.5721 10.6788C13.7028 11.2812 14.3236 11.7163 14.8463 12.0844L14.977 12.1848C15.075 12.2518 15.1404 12.3522 15.2057 12.4191C13.8989 11.8501 13.1147 11.1473 12.8534 10.3107C12.7227 9.84212 12.7227 9.50744 12.9187 9.23971ZM15.9899 12.1514C15.8918 11.9171 15.6958 11.7163 15.4344 11.5155L15.3038 11.4151C14.977 11.1808 14.4216 10.7792 14.3563 10.478C14.3236 10.2772 14.3563 10.2103 14.3889 10.2103C14.6176 9.94252 15.5978 9.94252 15.9899 9.94252C16.3819 9.94252 17.3947 9.94252 17.5908 10.2103C17.5908 10.2437 17.6561 10.3107 17.6235 10.478C17.5581 10.7792 17.0027 11.1473 16.676 11.4151L16.5453 11.5155C16.2839 11.7163 16.1205 11.9506 15.9899 12.1514ZM12.5593 23.1286C12.2653 18.9787 12.3633 14.8287 12.396 14.7953C12.396 14.561 12.2326 14.3602 12.0039 14.3602C11.7752 14.3267 11.5792 14.5275 11.5792 14.7618C11.5792 14.7953 11.4812 18.4097 11.7099 22.2919C11.3831 22.3923 10.8604 22.4927 10.4683 22.4593C10.403 22.4593 10.3376 22.4593 10.2723 22.1246C10.2723 22.0911 10.2723 22.0911 10.2396 22.0576C9.9129 21.2879 9.12878 18.075 9.39015 16.9706C9.42283 16.8033 9.4555 16.636 9.52084 16.4017C9.81489 15.0965 10.3703 12.6868 10.9257 11.9506C11.3178 11.4151 11.9059 11.0804 12.2653 10.9131C12.7227 11.8836 13.7355 12.6868 15.2384 13.2892C15.3364 13.3227 15.4018 13.3562 15.4998 13.3562C15.5325 13.3562 15.5651 13.3562 15.5978 13.3562V23.5302H12.9514C12.788 23.5637 12.69 23.5302 12.5593 23.1286ZM21.7728 22.0576C21.7728 22.0911 21.7728 22.0911 21.7401 22.1246C21.6748 22.4258 21.6094 22.4593 21.5441 22.4593C21.1193 22.5262 20.5966 22.3923 20.3025 22.2919C20.5312 18.4097 20.4332 14.7953 20.4332 14.7618C20.4332 14.5275 20.2372 14.3602 20.0412 14.3602C19.8125 14.3602 19.6491 14.561 19.6491 14.7953C19.6491 14.8287 19.7798 18.9787 19.4857 23.1286C19.3224 23.5302 19.2244 23.5302 19.061 23.5302H16.4146V13.3896C16.4473 13.3896 16.4799 13.3896 16.5126 13.3896C16.6106 13.3896 16.676 13.3562 16.774 13.3227C18.3096 12.7203 19.2897 11.9171 19.7798 10.9465C20.1392 11.1139 20.7273 11.4485 21.1193 11.984C21.6748 12.7203 22.2302 15.1299 22.5242 16.4352C22.5569 16.636 22.6222 16.8368 22.6549 16.9706C22.8836 18.075 22.0995 21.2879 21.7728 22.0576Z" fill="#13ADAD"/>
<path d="M13.9643 20.3508C13.7682 20.2504 13.5068 20.3173 13.4088 20.5182L12.6901 21.8903C12.592 22.0911 12.6574 22.3588 12.8534 22.4592C12.9188 22.4927 12.9841 22.4927 13.0494 22.4927C13.1801 22.4927 13.3435 22.4258 13.4088 22.2584L14.1276 20.8863C14.2583 20.719 14.1603 20.4512 13.9643 20.3508Z" fill="#13ADAD"/>
<path d="M18.5709 20.5182C18.4729 20.3173 18.2115 20.2504 18.0155 20.3508C17.8195 20.4512 17.7541 20.719 17.8522 20.9198L18.5709 22.2919C18.6363 22.4258 18.7996 22.5262 18.9303 22.5262C18.9957 22.5262 19.061 22.5262 19.1264 22.4927C19.3224 22.3923 19.3877 22.1246 19.2897 21.9238L18.5709 20.5182Z" fill="#13ADAD"/>
</svg>
