<svg width="32" height="32" viewBox="0 0 32 32" fill="none" xmlns="http://www.w3.org/2000/svg">
<path d="M0 4C0 1.79086 1.79086 0 4 0H28C30.2091 0 32 1.79086 32 4V28C32 30.2091 30.2091 32 28 32H4C1.79086 32 0 30.2091 0 28V4Z" fill="#E9F9F8"/>
<path d="M15.0353 15.4845C15.0353 15.2 15.2809 14.9512 15.5616 14.9512H22.4739C22.93 14.9512 23.316 14.5956 23.316 14.0978C23.316 13.8845 23.2107 13.6712 23.0704 13.5289C22.93 13.3867 22.7195 13.28 22.509 13.28H16.0879C15.7721 13.28 15.5616 13.0667 15.5616 12.7467C15.5616 12.4623 15.8072 12.2489 16.0879 12.2489H22.4388C22.8949 12.2489 23.2809 11.8934 23.2809 11.3956C23.2809 11.1823 23.1756 10.9689 23.0353 10.8267C22.8949 10.6845 22.6844 10.5778 22.4739 10.5778H10.5441C10.0879 10.5778 9.70196 10.9334 9.70196 11.4312C9.70196 11.6445 9.80723 11.8578 9.94758 12C10.123 12.0712 10.3335 12.1778 10.5441 12.1778C10.8599 12.1778 11.0704 12.3912 11.0704 12.7112C11.0704 13.0312 10.8248 13.2445 10.509 13.2445C10.1581 13.2445 9.8774 13.3867 9.73705 13.7778C9.66688 14.0267 9.45635 14.2045 9.21074 14.2045C8.85986 14.2045 8.57916 13.8489 8.68442 13.4934C8.78968 13.1378 8.93003 12.8889 9.17565 12.64H9.14056C8.96512 12.4623 8.82477 12.2845 8.71951 12.0712C8.12302 10.6489 9.21073 9.33337 10.5441 9.33337H22.3686C22.8949 9.33337 23.3511 9.54671 23.7371 9.90226C24.0879 10.2578 24.2985 10.7556 24.2985 11.2889C24.2985 11.8223 24.0879 12.2845 23.7371 12.6756C23.7721 12.7112 23.7721 12.7112 23.7721 12.7112C24.123 13.0667 24.3335 13.5645 24.3335 14.0978C24.3335 14.6312 24.123 15.0934 23.7721 15.4489V15.4845C24.123 15.8045 24.3335 16.3378 24.3335 16.8356C24.3335 17.3689 24.123 17.8312 23.7721 18.2223C23.7371 18.2578 23.7371 18.2578 23.7371 18.2578C24.0879 18.5778 24.2985 19.1112 24.2985 19.6445C24.2985 20.1778 24.0879 20.64 23.7371 21.0312C23.3862 21.3867 22.8949 21.6 22.3686 21.6H16.509C16.1932 21.6 15.9476 21.3512 15.9476 21.0312C15.9476 20.7112 16.1932 20.4623 16.509 20.4623H22.4739C22.6844 20.4623 22.8949 20.3556 23.0353 20.2134C23.1756 20.0712 23.2809 19.8578 23.2809 19.6445C23.2809 19.1823 22.93 18.7912 22.4388 18.7912C22.1581 18.7912 21.9476 18.6134 21.9125 18.3645C21.8774 18.0445 22.123 17.76 22.4388 17.7245C22.6493 17.7245 22.8599 17.6178 23.0002 17.4756C23.1406 17.3334 23.2458 17.12 23.2458 16.9067C23.2458 16.4445 22.8949 16.0534 22.4037 16.0534H15.5616C15.2809 16.0178 15.0353 15.7689 15.0353 15.4845Z" fill="#13ADAD"/>
<path d="M11.5615 22.6668C9.42113 22.6668 7.66675 20.889 7.66675 18.7201C7.66675 16.5512 9.42113 14.7734 11.5615 14.7734C13.7018 14.7734 15.4562 16.5512 15.4562 18.7201C15.4562 20.889 13.7369 22.6668 11.5615 22.6668ZM11.5615 15.6979C9.91236 15.6979 8.57903 17.049 8.57903 18.7201C8.57903 20.3912 9.91236 21.7423 11.5615 21.7423C13.2106 21.7423 14.5439 20.3912 14.5439 18.7201C14.5439 17.049 13.2106 15.6979 11.5615 15.6979Z" fill="#13ADAD"/>
<path d="M12.509 20.1422C12.4037 20.1422 12.2634 20.1067 12.1932 20L11.2458 19.04C11.1406 18.9334 11.1055 18.8267 11.1055 18.72V17.1556C11.1055 16.9067 11.316 16.6934 11.5616 16.6934C11.8072 16.6934 12.0177 16.9067 12.0177 17.1556V18.5422L12.8248 19.36C13.0002 19.5378 13.0002 19.8578 12.8248 20.0356C12.7546 20.0711 12.6142 20.1422 12.509 20.1422Z" fill="#13ADAD"/>
</svg>
