<svg width="28" height="28" viewBox="0 0 28 28" fill="none" xmlns="http://www.w3.org/2000/svg">
<path d="M24.4967 19.6592C24.4498 18.8385 24.2898 16.0996 24.2325 15.2742L23.8743 10.1396C23.7909 8.94098 23.7005 7.58104 23.6135 6.27962C23.6182 6.09973 23.5583 5.92336 23.4429 5.77725C23.3274 5.63114 23.1627 5.52326 22.9737 5.46998C22.3009 5.22172 21.6229 4.95289 20.9657 4.69198L20.6667 4.57496L19.7939 4.23181C19.6775 4.18595 19.667 4.17647 19.6636 4.09582C19.6649 3.85985 19.6138 3.62607 19.5134 3.40847C19.4131 3.19087 19.2655 2.99394 19.0794 2.82946C18.8934 2.66498 18.6728 2.53635 18.4308 2.45125C18.1888 2.36615 17.9305 2.32635 17.6712 2.33423C15.126 2.33423 12.6294 2.33423 10.2319 2.33423C9.72042 2.32614 9.22604 2.50197 8.85624 2.82353C8.48643 3.14508 8.27108 3.58638 8.25695 4.05154C8.25695 4.17014 8.22914 4.19702 8.10744 4.24288L6.55318 4.85011C5.98989 5.07307 5.40574 5.30236 4.83028 5.52217C4.68462 5.56678 4.55798 5.65179 4.46818 5.76525C4.37837 5.8787 4.3299 6.01489 4.32958 6.1547C4.11052 9.38059 3.67589 16.672 3.50203 19.6576C3.49283 19.7959 3.51494 19.9345 3.56697 20.0648C3.619 20.1951 3.69985 20.3143 3.80454 20.415C3.90887 20.5172 4.03494 20.5991 4.1751 20.6556C4.31526 20.7122 4.4666 20.7422 4.61992 20.7439L7.31292 20.7819L7.32683 21.1725V24.9471C7.32683 25.5053 7.50069 25.6666 8.1283 25.6666H19.7922C20.425 25.6666 20.5902 25.5195 20.5902 24.9471V21.1519L20.6006 20.8056L23.3823 20.7598C23.5349 20.7576 23.6854 20.7275 23.8249 20.6712C23.9644 20.615 24.09 20.5337 24.1942 20.4323C24.2984 20.3309 24.379 20.2114 24.4313 20.081C24.4836 19.9506 24.5064 19.812 24.4985 19.6734L24.4967 19.6592ZM17.5199 14.1008C17.5146 13.8476 17.438 13.5999 17.2974 13.3813C16.8628 12.7124 16.4281 12.0672 15.9552 11.3778L15.5502 10.7816L16.7897 9.74429L17.1374 9.45016C17.3374 9.29203 17.5443 9.11651 17.7425 8.94572C17.8241 8.88666 17.8901 8.81165 17.9355 8.72624C17.981 8.64084 18.0047 8.54723 18.005 8.45235C17.9896 8.35758 17.9502 8.26737 17.8898 8.18887C17.8295 8.11037 17.7499 8.04574 17.6573 8.00009L17.5564 7.93684L17.3826 7.82457H18.3944C18.9334 7.82457 19.1211 7.67434 19.1976 7.19204C19.2741 6.70974 19.3506 6.2306 19.4306 5.72774L19.5053 5.27548L19.561 5.29446L20.4198 5.63286C21.0266 5.87164 21.6716 6.12623 22.3027 6.36659C22.4209 6.41245 22.4452 6.44249 22.4522 6.56268C22.6156 9.01056 22.8294 12.0578 23.0346 15.0053C23.1406 16.5234 23.2415 17.9877 23.3319 19.2749C23.3357 19.328 23.3275 19.3812 23.3077 19.4313C23.2879 19.4814 23.2569 19.5272 23.2168 19.5659C23.1767 19.6047 23.1282 19.6354 23.0744 19.6564C23.0207 19.6773 22.9627 19.688 22.9042 19.6876H20.618L20.6024 11.3288C20.5942 11.1935 20.5294 11.0662 20.4213 10.973C20.3131 10.8799 20.1698 10.828 20.0208 10.828C19.8719 10.828 19.7286 10.8799 19.6204 10.973C19.5122 11.0662 19.4474 11.1935 19.4393 11.3288V24.5723H17.5269V22.194C17.5286 18.4637 17.5286 17.8944 17.5199 14.1008ZM7.91272 10.8101C7.76022 10.8109 7.6142 10.8663 7.5062 10.9642C7.3982 11.0622 7.33689 11.1948 7.33553 11.3335L7.30597 19.6971H5.01978C4.96135 19.6972 4.90352 19.6864 4.84986 19.6654C4.79619 19.6444 4.74783 19.6136 4.70776 19.5749C4.66768 19.5362 4.63675 19.4905 4.61685 19.4405C4.59696 19.3906 4.58854 19.3374 4.5921 19.2844C4.64078 18.5617 4.69815 17.722 4.75378 16.876C4.83376 15.6916 4.91373 14.5041 4.97632 13.5901L5.24058 9.74113C5.31186 8.71011 5.38488 7.65853 5.45094 6.62118C5.44348 6.55828 5.46141 6.49505 5.50139 6.44327C5.54137 6.39149 5.60067 6.35468 5.66826 6.33971C6.39497 6.06772 7.11821 5.78309 7.81884 5.50794L8.40299 5.27864L8.62726 6.64649L8.6603 6.85048C8.68464 6.99279 8.71072 7.13986 8.72984 7.28534C8.73433 7.36307 8.75616 7.43917 8.794 7.50899C8.83184 7.57881 8.8849 7.6409 8.94994 7.69149C9.01499 7.74208 9.09067 7.7801 9.17239 7.80325C9.2541 7.8264 9.34013 7.83419 9.42526 7.82615C9.77297 7.82615 10.1363 7.82615 10.5084 7.8388L10.2858 7.97479C10.1259 8.07283 9.91205 8.22938 9.89467 8.44919C9.87728 8.66899 10.0685 8.85559 10.2024 8.9726L11.628 10.1586C13.0519 11.3477 14.6548 12.6729 16.1934 13.9648C16.2814 14.0411 16.3374 14.1429 16.3516 14.2526C16.3638 18.0826 16.3638 18.8385 16.3638 22.4676V24.5786H8.49166V11.3351C8.4912 11.1957 8.43 11.0622 8.32148 10.9638C8.21296 10.8654 8.06597 10.8101 7.91272 10.8101ZM10.1363 4.63347C10.2291 4.87705 10.3516 5.11042 10.5014 5.32925C10.7639 5.72774 11.023 6.11991 11.3011 6.51998L11.4576 6.74927H9.82512L9.74689 6.27488C9.65475 5.69611 9.56086 5.09837 9.46872 4.51012L9.45307 4.41841C9.42653 4.29878 9.4166 4.17659 9.42352 4.0547C9.43058 3.96506 9.45728 3.8776 9.50207 3.79748C9.54686 3.71737 9.60882 3.64622 9.6843 3.58821C9.8426 3.47906 10.0351 3.41868 10.2337 3.41585C10.0334 3.796 9.99865 4.23097 10.1363 4.63347ZM12.3217 8.03488L14.281 10.9176L11.4368 8.56146L12.3217 8.03488ZM16.4942 8.55988L14.9295 9.85814C14.8374 9.72531 14.7556 9.60039 14.6722 9.47546C14.6722 9.4644 14.6722 9.43751 14.6583 9.43751C14.9156 9.04535 15.1798 8.66267 15.4528 8.25627L15.6041 8.03488L16.4942 8.55988ZM18.4848 4.38994C18.3527 5.16637 18.2258 5.9254 18.1197 6.67179C18.1185 6.70405 18.1103 6.73577 18.0954 6.76508C18.0612 6.77499 18.025 6.77822 17.9893 6.77457C17.7268 6.77457 17.4678 6.77457 17.1983 6.77457H16.4594L17.1131 5.80206L17.5251 5.1806C17.7174 4.92208 17.8331 4.62283 17.8611 4.31177C17.8891 4.0007 17.8285 3.68832 17.6851 3.40478C17.9103 3.40082 18.1282 3.47748 18.2918 3.61826C18.3887 3.7239 18.4567 3.8489 18.4902 3.98302C18.5238 4.11715 18.5219 4.25659 18.4848 4.38994ZM14.5818 3.39688H15.771C15.9367 3.38971 16.1015 3.42286 16.2485 3.4929C16.3955 3.56294 16.5193 3.66734 16.6072 3.79537C16.6784 3.91886 16.7114 4.05759 16.7029 4.19681C16.6943 4.33603 16.6444 4.47053 16.5585 4.58603C15.9257 5.53482 15.2685 6.50575 14.6339 7.4324L13.9629 8.42072C13.9522 8.41142 13.9423 8.40138 13.9333 8.39068L13.1475 7.22683C12.5859 6.39664 12.007 5.5364 11.4298 4.69672C11.1864 4.34092 11.1551 4.06419 11.3272 3.79379C11.4993 3.52338 11.7688 3.39371 12.2052 3.39371H12.2243C12.9076 3.39371 13.5995 3.39371 14.2706 3.39371L14.5818 3.39688Z" fill="#51B8B8"/>
<path d="M12.659 15.0923C12.659 15.0203 12.6746 14.949 12.7049 14.8826C12.7352 14.8161 12.7797 14.7557 12.8358 14.7049C12.8918 14.654 12.9583 14.6138 13.0315 14.5864C13.1047 14.559 13.1831 14.545 13.2622 14.5452H14.4653C14.5471 14.5412 14.629 14.5524 14.7059 14.5781C14.7828 14.6038 14.8532 14.6435 14.9127 14.6948C14.9721 14.7461 15.0195 14.8079 15.0519 14.8763C15.0843 14.9448 15.101 15.0186 15.101 15.0931C15.101 15.1676 15.0843 15.2414 15.0519 15.3099C15.0195 15.3783 14.9721 15.4401 14.9127 15.4914C14.8532 15.5426 14.7828 15.5824 14.7059 15.6081C14.629 15.6338 14.5471 15.645 14.4653 15.641H13.2622C13.1022 15.641 12.9488 15.5832 12.8356 15.4803C12.7225 15.3774 12.659 15.2378 12.659 15.0923Z" fill="#51B8B8"/>
<path d="M12.659 17.284C12.659 17.212 12.6746 17.1408 12.7049 17.0743C12.7352 17.0078 12.7797 16.9474 12.8358 16.8966C12.8918 16.8457 12.9583 16.8055 13.0315 16.7781C13.1047 16.7507 13.1831 16.7367 13.2622 16.7369H14.4653C14.6248 16.7369 14.7778 16.7945 14.8907 16.8971C15.0035 16.9997 15.0668 17.1389 15.0668 17.284C15.0668 17.4291 15.0035 17.5683 14.8907 17.6709C14.7778 17.7735 14.6248 17.8312 14.4653 17.8312H13.2622C13.1831 17.8314 13.1047 17.8174 13.0315 17.79C12.9583 17.7626 12.8918 17.7223 12.8358 17.6715C12.7797 17.6206 12.7352 17.5602 12.7049 17.4938C12.6746 17.4273 12.659 17.356 12.659 17.284Z" fill="#51B8B8"/>
<path d="M12.659 19.4757C12.659 19.3302 12.7225 19.1906 12.8356 19.0877C12.9488 18.9848 13.1022 18.927 13.2622 18.927H14.4653C14.5471 18.923 14.629 18.9342 14.7059 18.9599C14.7828 18.9857 14.8532 19.0254 14.9127 19.0767C14.9721 19.1279 15.0195 19.1897 15.0519 19.2582C15.0843 19.3266 15.101 19.4004 15.101 19.4749C15.101 19.5495 15.0843 19.6232 15.0519 19.6917C15.0195 19.7602 14.9721 19.8219 14.9127 19.8732C14.8532 19.9245 14.7828 19.9642 14.7059 19.9899C14.629 20.0157 14.5471 20.0269 14.4653 20.0229H13.2622C13.1831 20.0231 13.1047 20.0091 13.0315 19.9817C12.9583 19.9543 12.8918 19.914 12.8358 19.8632C12.7797 19.8123 12.7352 19.752 12.7049 19.6855C12.6746 19.619 12.659 19.5477 12.659 19.4757Z" fill="#51B8B8"/>
</svg>
