<svg width="32" height="32" viewBox="0 0 32 32" fill="none" xmlns="http://www.w3.org/2000/svg">
<path d="M0 4C0 1.79086 1.79086 0 4 0H28C30.2091 0 32 1.79086 32 4V28C32 30.2091 30.2091 32 28 32H4C1.79086 32 0 30.2091 0 28V4Z" fill="#E9F9F8"/>
<path d="M24.1053 14.6233L23.2256 13.7436C23.193 13.711 23.1604 13.6784 23.1604 13.6132C23.1604 13.5806 23.193 13.5155 23.2256 13.4829L23.6166 13.0919C24.0727 12.6357 24.0727 11.8863 23.6166 11.4301L20.4885 8.30204C20.0323 7.84587 19.2503 7.84587 18.8267 8.30204L18.4357 8.69305C18.3706 8.75822 18.2402 8.75822 18.1751 8.69305L17.2953 7.81328C17.0998 7.61778 16.7739 7.61778 16.5784 7.81328L7.81338 16.6435C7.61787 16.839 7.61787 17.1649 7.81338 17.3604L8.69314 18.2401C8.72572 18.2727 8.75831 18.3053 8.75831 18.3705C8.75831 18.4031 8.72572 18.4682 8.69314 18.5008L8.30213 18.8918C8.04146 19.1199 7.94371 19.4132 7.94371 19.739C7.94371 20.0648 8.07405 20.3581 8.30213 20.5862L11.4302 23.7142C11.8864 24.1704 12.6684 24.1704 13.092 23.7142L13.483 23.3232C13.5481 23.2581 13.6785 23.2581 13.7436 23.3232L14.6234 24.203C14.7212 24.3007 14.8515 24.3333 14.9818 24.3333C15.1122 24.3333 15.2425 24.2682 15.3403 24.1704L24.1705 15.3402C24.2682 15.2424 24.3334 15.1121 24.3334 14.9817C24.3334 14.8514 24.2031 14.7211 24.1053 14.6233ZM8.9864 19.6087L9.3774 19.2177C9.60549 18.9896 9.73583 18.6963 9.73583 18.3705C9.73583 18.0446 9.60549 17.7514 9.3774 17.5233L8.85606 17.0019L16.9695 8.88855L17.4908 9.4099C17.7189 9.63798 18.0121 9.73573 18.338 9.73573C18.6638 9.73573 18.9571 9.6054 19.1852 9.4099L19.5762 9.01889C19.6413 8.95372 19.7717 8.95372 19.8368 9.01889L22.9649 12.1469C23.0301 12.2121 23.0301 12.3424 22.9649 12.4076L22.5739 12.7986C22.3458 13.0267 22.2155 13.32 22.2155 13.6458C22.2155 13.9716 22.3458 14.2649 22.5739 14.493L23.0952 15.0143L14.9493 23.0951L14.4279 22.5738C14.1998 22.3457 13.9066 22.2154 13.5807 22.2154C13.2549 22.2154 12.9616 22.3457 12.7335 22.5738L12.3425 22.9648C12.2774 23.03 12.147 23.03 12.0819 22.9648L8.95381 19.8367C8.92123 19.7716 8.92123 19.6738 8.9864 19.6087Z" fill="#13ADAD"/>
<path d="M11.8863 20.7491C11.9841 20.8469 12.1144 20.8795 12.2447 20.8795C12.3751 20.8795 12.5054 20.8143 12.6032 20.7166C12.7987 20.5211 12.7987 20.2278 12.6032 20.0323L13.1245 19.511H13.5807C13.8739 19.511 14.0694 19.2829 14.0694 19.0222V18.566L14.5908 18.0447C14.7863 18.2076 15.1121 18.2076 15.275 18.0447C15.3728 17.9469 15.438 17.8166 15.438 17.6863C15.438 17.5559 15.4054 17.4256 15.3076 17.3604L15.829 16.8391C16.3503 16.9368 16.8065 16.5132 16.8065 15.9919C16.8065 15.9593 16.8065 15.9267 16.8065 15.8616L17.3278 15.3402C17.5233 15.5031 17.8492 15.5031 18.0121 15.3402C18.2076 15.1447 18.2076 14.8515 18.0121 14.6559L18.5334 14.1346H18.9896C19.2829 14.1346 19.4784 13.9065 19.4784 13.6458V13.1897L19.9997 12.6683C20.1952 12.8313 20.521 12.8313 20.684 12.6683C20.8795 12.4728 20.8795 12.147 20.684 11.9515L20.0323 11.2346C19.8368 11.0391 19.5109 11.0391 19.3154 11.2346C19.1199 11.4301 19.1199 11.7234 19.3154 11.9189L18.7941 12.4402H18.3379C18.0447 12.4402 17.8492 12.6683 17.8492 12.929V13.3852L17.3278 13.9065C17.1323 13.711 16.8391 13.7436 16.6436 13.9065C16.5458 14.0043 16.4806 14.1346 16.4806 14.2649C16.4806 14.3953 16.5132 14.5256 16.611 14.5908L16.0896 15.1121C16.0571 15.1121 15.9919 15.1121 15.9593 15.1121C15.5031 15.1121 15.1121 15.5031 15.1121 15.9593C15.1121 15.9919 15.1121 16.0245 15.1121 16.0896L14.5908 16.611C14.3953 16.4155 14.102 16.4481 13.9065 16.611C13.8088 16.7087 13.7436 16.8391 13.7436 16.9694C13.7436 17.0997 13.7762 17.2301 13.8739 17.2952L13.3526 17.8166H12.8964C12.6032 17.8166 12.4077 18.0447 12.4077 18.3053V18.7615L11.8863 19.348C11.6908 19.1525 11.3976 19.1851 11.202 19.348C11.0065 19.5435 11.0065 19.8694 11.202 20.0649L11.8863 20.7491Z" fill="#13ADAD"/>
</svg>
