<svg width="24" height="24" viewBox="0 0 24 24" fill="none" xmlns="http://www.w3.org/2000/svg">
<path d="M21.087 2.53115C20.8696 2.36075 20.6087 2.31815 20.3913 2.36075C20.3043 2.36075 20.087 2.40335 19.8261 2.48855C19.087 1.55132 15.3913 2.19034 14.4783 2.53115C13.6957 2.82936 13.4783 3.21278 13.4783 3.51099C12.7826 3.55359 12.087 3.55359 11.3478 3.55359C8.04348 3.55359 5.47826 3.08497 3.78261 2.14774C3.56522 2.01994 3.26087 1.97734 2.95652 2.06254C2.69565 2.14774 2.47826 2.36075 2.34783 2.61636C2.13043 3.12757 2 4.44822 2 5.17244C2 6.19488 2.08696 7.98414 2.78261 8.58055L2.82609 8.62316C2.91304 8.70836 5.21739 10.2846 11.087 10.455C9.78261 12.9259 8.78261 16.0358 10.2174 20.6368C10.3478 21.0628 10.6522 21.361 11.1304 21.6166C11.7391 21.9148 12.5652 22 13.3913 22C14.8696 22 16.4348 21.7018 17.1304 21.4462C17.4783 21.3184 17.6522 21.0628 17.7391 20.8924C17.913 20.509 17.7391 20.1255 17.6957 19.9551C16.0435 15.3968 17.3478 12.4147 18.6522 9.816C19.6522 9.64559 20.6522 9.26218 20.6957 9.26218C21.5652 9.00657 22 7.72853 22 5.47065C21.9565 4.0222 21.6087 2.95717 21.087 2.53115ZM3.47826 7.77113C3.34783 7.60072 3.13043 6.9191 3.08696 5.55585C3.56522 5.89667 4.34783 6.23748 5.3913 6.40788C5.43478 6.40788 5.43478 6.40788 5.47826 6.40788C5.73913 6.40788 5.95652 6.23748 6 5.93927C6.08696 5.64106 5.86957 5.38545 5.56522 5.34285C3.95652 5.08724 3.21739 4.32041 3.17391 4.27781L3.13043 4.23521C3.17391 3.7666 3.26087 3.29798 3.30435 3.12757C5.21739 4.10741 7.82609 4.61862 11.3478 4.61862C12.1304 4.61862 12.8696 4.57602 13.6522 4.53342C13.7391 5.89667 13 7.17471 12.087 8.70836C11.9565 8.92137 11.8261 9.13437 11.6957 9.38998C6.08696 9.34738 3.78261 7.94153 3.47826 7.77113ZM16.1304 18.5919C15.6087 18.2937 14.913 18.1233 14.2609 18.7197C14 18.9327 13.5217 18.9327 13.2609 18.7623C12.4783 18.2085 11.5652 18.2085 10.913 18.8049C10.913 18.8049 10.8696 18.8475 10.8696 18.8901C10.8261 18.6345 10.7826 18.3789 10.7391 18.1233C10.9565 18.2085 11.1739 18.2085 11.3478 18.0381C11.6087 17.8251 11.9565 17.8251 12.3043 18.0807C12.6087 18.2937 13 18.4215 13.3913 18.4215C13.8261 18.4215 14.3043 18.2937 14.6522 17.9529C14.7391 17.8677 14.8696 17.7399 15.4783 18.1233C15.6522 18.2085 15.8696 18.2085 16 18.1233C16.087 18.2511 16.087 18.4215 16.1304 18.5919ZM11.6087 20.5942C11.4348 20.509 11.3043 20.3811 11.2609 20.2533C11.1739 20.0403 11.1304 19.8273 11.087 19.6569C11.2609 19.7421 11.5217 19.6995 11.6957 19.5717C11.9565 19.3587 12.3043 19.3587 12.6522 19.6143C12.9565 19.8273 13.3478 19.9551 13.7391 19.9551C14.1739 19.9551 14.6522 19.8273 15 19.4865C15.087 19.4013 15.2174 19.2735 15.8261 19.6569C16 19.7847 16.2609 19.7421 16.4348 19.6569C16.5217 19.8699 16.5652 20.0829 16.6522 20.2959C16.6522 20.2959 16.6522 20.3385 16.6957 20.3811C16.6957 20.3811 16.6957 20.4237 16.7391 20.4237C15.6087 20.8072 12.7391 21.148 11.6087 20.5942ZM15.8696 17.0582C15.3043 16.76 14.6087 16.5044 13.913 17.1434C13.6522 17.3564 13.1739 17.3564 12.913 17.186C12.1304 16.6322 11.2174 16.6322 10.6087 17.186C10.3043 13.6927 11.6957 11.3496 12.9565 9.21958C14.0435 7.38772 15.087 5.64106 14.5217 3.59619C15.1739 3.17018 18.1739 2.82936 18.8696 3.08497C19.6522 5.12984 18.7826 6.7913 17.7391 8.92137C16.7826 11.094 15.5217 13.6075 15.8696 17.0582ZM20.3043 8.23974C20.3043 8.23974 19.8261 8.41015 19.2174 8.58055C20 6.9617 20.6087 5.34285 20.1739 3.51099C20.3043 3.46839 20.3913 3.46839 20.4783 3.46839C20.6087 3.68139 20.8696 4.32041 20.8696 5.47065C20.8696 7.34511 20.4783 8.15454 20.3043 8.23974Z" fill="#757575"/>
</svg>
