<svg width="24" height="24" viewBox="0 0 24 24" fill="none" xmlns="http://www.w3.org/2000/svg">
<path d="M22.9632 8.1397C22.9632 8.09903 22.9632 8.09903 22.9227 8.05835L21.871 5.33311C21.7901 5.08906 21.507 4.96703 21.2643 5.00771C21.2238 5.00771 16.5316 6.10594 11.9607 6.10594C7.43023 6.18729 2.77843 5.08906 2.69753 5.04838C2.45483 5.00771 2.21213 5.12973 2.13123 5.37379L1.07952 8.09903C1.07952 8.1397 1.07952 8.1397 1.03906 8.18038C0.958164 8.54646 0.998614 8.91253 1.20087 9.23794C1.32222 9.40064 1.44357 9.56334 1.60537 9.68536C1.64582 9.68536 4.07285 11.1903 6.09537 13.5088C8.44149 16.2748 9.2505 17.495 9.77636 18.3492C9.93816 18.5932 10.1809 18.7966 10.464 18.878C10.7472 18.9593 11.3539 19 11.9607 19C12.5674 19 13.1742 18.9593 13.4573 18.878C13.7405 18.7966 14.0237 18.5932 14.145 18.3492C14.6709 17.5357 15.4799 16.2748 17.826 13.5088C19.8081 11.1903 22.2755 9.68536 22.316 9.68536C22.4778 9.56334 22.6396 9.44131 22.7205 9.23794C23.0036 8.91253 23.0441 8.54646 22.9632 8.1397ZM4.23465 10.3362C5.48861 10.6616 6.90438 11.231 7.91564 12.736C8.64374 13.8342 9.0887 14.9731 9.3314 15.9087C8.7651 15.1358 7.99654 14.1596 6.86393 12.858C5.97402 11.8412 5.04366 10.987 4.23465 10.3362ZM10.7472 17.9018C10.6663 17.9018 10.6258 17.8204 10.6258 17.7391C10.6258 16.7222 10.2213 14.363 8.7651 12.1666C7.14708 9.80739 4.7605 9.35996 3.18294 9.07523C2.85933 8.99388 2.57618 8.95321 2.33348 8.91253C2.25258 8.87186 2.21213 8.87186 2.17168 8.83118C2.13123 8.79051 2.09078 8.74983 2.05033 8.70916C2.00987 8.62781 2.00987 8.54646 2.00987 8.42443L2.89978 6.14662C4.1942 6.43134 8.07744 7.20417 12.0011 7.20417C15.9248 7.20417 19.8081 6.43134 21.1025 6.14662L21.9924 8.42443C21.9924 8.50578 21.9924 8.62781 21.9519 8.70916C21.9115 8.74983 21.871 8.79051 21.8306 8.83118C21.8306 8.83118 21.8306 8.83118 21.7901 8.83118C21.7497 8.87186 21.7092 8.87186 21.6688 8.87186C21.4261 8.91253 21.1834 8.99388 20.9002 9.03456C19.3631 9.35996 17.017 9.80739 15.2372 12.0852C13.6596 14.119 13.336 16.2748 13.336 17.6577C13.336 17.7391 13.2955 17.8204 13.2146 17.8204C12.8506 17.9831 11.1517 17.9831 10.7472 17.9018ZM17.1383 12.858C15.9248 14.241 15.1158 15.2579 14.5495 16.0307C14.7518 15.0138 15.1967 13.8749 16.0462 12.736C17.1383 11.3124 18.4327 10.7022 19.6463 10.3768C18.8777 11.0276 17.9878 11.8818 17.1383 12.858Z" fill="#757575"/>
</svg>
