<svg width="32" height="32" viewBox="0 0 32 32" fill="none" xmlns="http://www.w3.org/2000/svg">
<path d="M0 4C0 1.79086 1.79086 0 4 0H28C30.2091 0 32 1.79086 32 4V28C32 30.2091 30.2091 32 28 32H4C1.79086 32 0 30.2091 0 28V4Z" fill="#E9F9F8"/>
<path d="M24.3275 8.15255C24.3275 8.04044 24.2902 7.89096 24.2157 7.81622C24.104 7.70412 23.9922 7.66675 23.8805 7.66675C22.1669 7.66675 20.0808 7.66675 18.33 7.66675H18.1437C17.883 7.66675 17.6967 7.89096 17.6967 8.11518C17.6967 9.87153 17.4732 14.0569 17.436 14.879C17.2125 15.1406 16.6909 15.7759 16.5047 15.9627C16.2067 16.299 15.8341 16.7101 15.4244 17.1212C14.7166 17.8312 13.9716 18.6159 13.4128 19.3633C12.5188 20.5591 12.1462 21.4934 12.3325 22.3155C12.4443 22.9508 12.8913 23.4366 13.5991 23.8476C14.2323 24.2213 14.8284 24.3334 15.4244 24.3334C16.6909 24.3334 17.8085 23.6608 18.7025 22.9881C19.4475 22.4276 20.1553 21.7923 20.9004 21.1197C21.4591 20.5965 22.0552 20.0733 22.6884 19.5875C22.8002 19.4754 22.9119 19.4007 23.0237 19.2886C24.253 18.1301 24.3647 16.9343 24.3275 15.9253C24.3275 15.5517 24.2902 15.178 24.2157 14.8416V14.7295C24.104 13.5711 24.253 10.4321 24.3275 8.75046V8.15255ZM23.359 8.67572C23.2845 10.3947 23.0982 13.5711 23.2472 14.8043V14.9164C23.2845 15.2901 23.3217 15.6264 23.3217 15.9627C23.359 16.9343 23.2099 17.7938 22.3159 18.6159C22.2414 18.6907 22.1297 18.7654 22.0552 18.8401C21.4219 19.3259 20.8259 19.8865 20.2298 20.4096C19.4848 21.0823 18.8143 21.7176 18.1065 22.2034C16.4302 23.4366 15.2009 23.6981 14.0088 22.9881C13.5618 22.7265 13.301 22.4276 13.2265 22.0913C13.1148 21.5681 13.4128 20.8207 14.1206 19.9238C14.6794 19.2138 15.3871 18.4665 16.0577 17.7564C16.4674 17.3454 16.8399 16.9717 17.1752 16.598C17.436 16.3364 18.181 15.4022 18.2182 15.3648C18.2927 15.2901 18.33 15.178 18.33 15.1032C18.33 15.0659 18.479 12.2632 18.5535 10.0584H19.6711C19.9318 10.0584 20.1181 9.83416 20.1181 9.60995C20.1181 9.38573 19.8946 9.16152 19.6711 9.16152H18.5908C18.5908 8.97467 18.5908 8.78782 18.5908 8.63835C20.1181 8.63835 21.8316 8.63835 23.359 8.63835V8.67572Z" fill="#13ADAD"/>
<path d="M11.811 23.2497C10.9542 23.5487 10.172 23.5113 9.42693 23.0629C8.97992 22.8013 8.71916 22.5023 8.64465 22.166C8.5329 21.6428 8.83091 20.8954 9.53869 19.9986C10.0975 19.2886 10.8052 18.5412 11.4758 17.8312C11.8855 17.4201 12.258 17.0464 12.5933 16.6727C12.8541 16.4111 13.5991 15.4769 13.6364 15.4395C13.7109 15.3648 13.7481 15.2527 13.7481 15.178C13.7481 15.1406 13.8971 12.3379 13.9716 10.1331H15.2382C15.4989 10.1331 15.6852 9.9089 15.6852 9.68469C15.6852 9.46047 15.4617 9.23625 15.2382 9.23625H14.0089C14.0089 9.04941 14.0089 8.86256 14.0089 8.71309H16.9145C17.1752 8.71309 17.3615 8.48887 17.3615 8.26466C17.3615 8.04044 17.138 7.66675 16.8772 7.66675H13.5246C13.2638 7.66675 13.0776 7.89096 13.0776 8.11518C13.0776 9.87153 12.8541 14.0569 12.8168 14.879C12.5933 15.1406 12.0718 15.7759 11.8855 15.9627C11.5875 16.299 11.215 16.7101 10.8052 17.1212C10.0975 17.8312 9.35243 18.6159 8.79366 19.3633C7.89962 20.5591 7.52711 21.4934 7.71336 22.3155C7.82512 22.9508 8.27214 23.4366 8.97992 23.8476C9.57594 24.1839 10.172 24.3334 10.8052 24.3334C11.2523 24.3334 11.6993 24.2587 12.1463 24.0718C12.4071 23.9971 12.5188 23.7355 12.4443 23.4739C12.3326 23.2871 12.0718 23.175 11.811 23.2497Z" fill="#13ADAD"/>
</svg>
