<svg width="24" height="24" viewBox="0 0 24 24" fill="none" xmlns="http://www.w3.org/2000/svg">
<path d="M21.4899 13.7574C21.4899 13.1538 21.3788 12.5503 21.2306 11.9467L19.9713 7.50888C19.712 6.6568 19.1564 5.91124 18.3786 5.4142C17.7118 5.02367 17.1562 4.77515 16.5266 4.52663C16.3784 4.45562 16.2302 4.38462 16.0821 4.34911L15.045 3.17751C15.045 3.17751 15.045 3.17751 15.0079 3.14201C14.9709 3.10651 14.9338 3.07101 14.8968 3.07101C14.8968 3.07101 14.8968 3.07101 14.8598 3.07101C14.7857 3 14.7486 3 14.6746 3C14.6746 3 14.6746 3 14.6375 3H11.9706H9.30377C9.22969 3 9.19265 3 9.15561 3.0355C9.11857 3.07101 9.08153 3.07101 9.04449 3.10651C9.04449 3.10651 9.04449 3.10651 9.00745 3.14201L7.97033 4.31361C7.82217 4.38462 7.67401 4.42012 7.52585 4.49112C6.93322 4.73964 6.30354 4.98817 5.78498 5.30769C5.00714 5.76923 4.2293 6.79882 3.97002 7.65089L2.67362 12.3373C2.59954 12.6213 2.5625 12.9053 2.52546 13.1893C2.45139 15.1065 2.5625 20.1479 2.5625 20.3609C2.5625 20.4675 2.63658 20.6095 2.71066 20.6805C2.78474 20.7515 2.9329 20.787 3.08106 20.787L6.04426 20.503C6.2665 20.4675 6.4517 20.2899 6.4517 20.0414L6.34058 13.9704C6.34058 13.6864 6.37762 13.3669 6.48874 13.1183L6.6369 12.7278V20.574C6.6369 20.8225 6.85914 21 7.08138 21H12.0077H16.934C17.1933 21 17.3785 20.787 17.3785 20.574V12.6923L17.5266 13.1183C17.6007 13.3669 17.6378 13.6509 17.6378 13.9349L17.5266 20.0414C17.5266 20.2899 17.7118 20.4675 17.9341 20.503L20.8973 20.787C21.0084 20.787 21.1565 20.7515 21.2677 20.6805C21.3788 20.6095 21.4158 20.4675 21.4158 20.3609C21.4529 20.2899 21.5269 15.9231 21.4899 13.7574ZM14.7116 4.1716L15.2672 4.81065C15.1931 5.16568 14.8968 6.01775 13.8226 6.76331C13.6745 6.40828 13.4152 5.91124 12.9337 5.52071C13.8226 5.13018 14.3782 4.59763 14.7116 4.1716ZM9.26673 4.1716C9.60009 4.56213 10.1557 5.09467 11.0446 5.52071C10.6002 5.94675 10.3038 6.40828 10.1557 6.76331C9.08153 6.01775 8.78521 5.16568 8.71113 4.81065L9.26673 4.1716ZM11.5262 20.1124H7.52585V9.81657C7.52585 9.60355 7.34065 9.42604 7.11841 9.39053C6.89618 9.35503 6.67394 9.49704 6.59986 9.71006L5.56274 12.8343C5.45162 13.2249 5.37754 13.6154 5.41458 14.0059L5.48866 18.0533L4.85898 18.1243C4.5997 18.1598 4.4145 18.3728 4.45154 18.6213C4.48858 18.8343 4.67378 19.0118 4.89602 19.0118C4.93306 19.0118 4.93306 19.0118 4.9701 19.0118L5.48866 18.9408V19.6509L3.45146 19.8639C3.41442 18.5503 3.37738 14.787 3.45146 13.2604C3.45146 13.0473 3.4885 12.8343 3.56258 12.6213L4.89602 7.93491C5.08122 7.33136 5.7109 6.47929 6.2665 6.15976C6.74802 5.87574 7.30361 5.62722 7.89625 5.4142C7.89625 5.4142 7.89625 5.4142 7.93329 5.4142C8.15553 6.05325 8.74817 7.15385 10.2668 7.97041C10.415 8.04142 10.5631 8.04142 10.7113 7.97041C10.8594 7.89941 10.9335 7.7929 10.9706 7.65089C10.9706 7.61538 11.0817 7.01183 11.6002 6.44379V20.1124H11.5262ZM12.0077 4.91716C11.1558 4.63314 10.5631 4.2071 10.2298 3.88757H12.0077H13.7856C13.4152 4.2426 12.8596 4.66864 12.0077 4.91716ZM20.5269 19.8284L18.4897 19.6154V18.9053L19.0082 18.9763C19.0453 18.9763 19.0453 18.9763 19.0823 18.9763C19.3045 18.9763 19.5268 18.7988 19.5268 18.5858C19.5638 18.3373 19.3786 18.1243 19.1194 18.0888L18.4897 18.0178L18.5638 13.9349C18.5638 13.5799 18.5267 13.1893 18.4156 12.8343L17.3785 9.67456C17.3044 9.46154 17.0822 9.35503 16.8599 9.35503C16.6377 9.39053 16.4525 9.56805 16.4525 9.78106V20.0769H12.4522V6.33728C12.9707 6.90533 13.0818 7.50888 13.0818 7.54438C13.1189 7.68639 13.193 7.8284 13.3411 7.86391C13.4152 7.89941 13.4893 7.89941 13.5634 7.89941C13.6374 7.89941 13.7115 7.86391 13.7856 7.8284C15.3042 7.01183 15.8969 5.91124 16.1191 5.27219C16.1191 5.27219 16.1562 5.27219 16.1562 5.30769C16.7488 5.55621 17.2674 5.76923 17.86 6.12426C18.4526 6.47929 18.8971 7.04734 19.0823 7.72189L20.3417 12.1598C20.4898 12.6923 20.5639 13.2249 20.5639 13.7574C20.6009 15.497 20.5639 18.6568 20.5269 19.8284Z" fill="#757575"/>
<path d="M13.1929 9.49701H13.1559C12.8966 9.49701 12.7114 9.71003 12.7114 9.92305C12.7114 10.1361 12.9337 10.3491 13.1559 10.3491H13.1929C13.4522 10.3491 13.6374 10.1361 13.6374 9.92305C13.6374 9.71003 13.4152 9.49701 13.1929 9.49701Z" fill="#757575"/>
<path d="M13.1929 13.4379H13.1559C12.8966 13.4379 12.7114 13.6509 12.7114 13.8639C12.7114 14.0769 12.9337 14.2899 13.1559 14.2899H13.1929C13.4522 14.2899 13.6374 14.0769 13.6374 13.8639C13.6374 13.6509 13.4152 13.4379 13.1929 13.4379Z" fill="#757575"/>
<path d="M13.1929 17.3787H13.1559C12.8966 17.3787 12.7114 17.5917 12.7114 17.8047C12.7114 18.0177 12.9337 18.2307 13.1559 18.2307H13.1929C13.4522 18.2307 13.6374 18.0177 13.6374 17.8047C13.6374 17.5917 13.4152 17.3787 13.1929 17.3787Z" fill="#757575"/>
</svg>
