<svg width="24" height="24" viewBox="0 0 24 24" fill="none" xmlns="http://www.w3.org/2000/svg">
<path d="M21.7263 10.348L20.6706 9.29228C20.6315 9.25318 20.5924 9.21408 20.5924 9.13588C20.5924 9.09677 20.6315 9.01857 20.6706 8.97947L21.1398 8.51026C21.6872 7.96285 21.6872 7.06354 21.1398 6.51613L17.3861 2.76246C16.8387 2.21505 15.9003 2.21505 15.392 2.76246L14.9228 3.23167C14.8446 3.30987 14.6882 3.30987 14.61 3.23167L13.5543 2.17595C13.3196 1.94135 12.9286 1.94135 12.694 2.17595L2.17595 12.7722C1.94135 13.0068 1.94135 13.3979 2.17595 13.6325L3.23167 14.6882C3.27077 14.7273 3.30987 14.7664 3.30987 14.8446C3.30987 14.8837 3.27077 14.9619 3.23167 15.001L2.76246 15.4702C2.44966 15.7439 2.33236 16.0958 2.33236 16.4868C2.33236 16.8778 2.48876 17.2297 2.76246 17.5034L6.51613 21.2571C7.06354 21.8045 8.00196 21.8045 8.51026 21.2571L8.97947 20.7879C9.05767 20.7097 9.21408 20.7097 9.29228 20.7879L10.348 21.8436C10.4653 21.9609 10.6217 22 10.7781 22C10.9345 22 11.0909 21.9218 11.2082 21.8045L21.8045 11.2082C21.9218 11.0909 22 10.9345 22 10.7781C22 10.6217 21.8436 10.4653 21.7263 10.348ZM3.58358 16.3304L4.05279 15.8612C4.32649 15.5875 4.48289 15.2356 4.48289 14.8446C4.48289 14.4536 4.32649 14.1017 4.05279 13.828L3.42717 13.2023L13.1632 3.46628L13.7889 4.09189C14.0626 4.36559 14.4145 4.48289 14.8055 4.48289C15.1965 4.48289 15.5484 4.32649 15.8221 4.09189L16.2913 3.62268C16.3695 3.54448 16.5259 3.54448 16.6041 3.62268L20.3578 7.37634C20.436 7.45455 20.436 7.61095 20.3578 7.68915L19.8886 8.15836C19.6149 8.43206 19.4585 8.78397 19.4585 9.17498C19.4585 9.56598 19.6149 9.91789 19.8886 10.1916L20.5142 10.8172L10.739 20.5142L10.1134 19.8886C9.83969 19.6149 9.48778 19.4585 9.09677 19.4585C8.70577 19.4585 8.35386 19.6149 8.08016 19.8886L7.61095 20.3578C7.53275 20.436 7.37634 20.436 7.29814 20.3578L3.54448 16.6041C3.50538 16.5259 3.50538 16.4086 3.58358 16.3304Z" fill="#757575"/>
<path d="M7.0636 17.6989C7.1809 17.8162 7.3373 17.8553 7.4937 17.8553C7.65011 17.8553 7.80651 17.7771 7.92381 17.6598C8.15842 17.4252 8.15842 17.0733 7.92381 16.8387L8.54942 16.2131H9.09683C9.44874 16.2131 9.68334 15.9394 9.68334 15.6266V15.0792L10.309 14.4536C10.5436 14.6491 10.9346 14.6491 11.1301 14.4536C11.2474 14.3363 11.3256 14.1799 11.3256 14.0235C11.3256 13.8671 11.2865 13.7107 11.1692 13.6325L11.7948 13.0069C12.4204 13.1242 12.9678 12.6159 12.9678 11.9902C12.9678 11.9511 12.9678 11.912 12.9678 11.8338L13.5934 11.2082C13.828 11.4037 14.219 11.4037 14.4145 11.2082C14.6491 10.9736 14.6491 10.6217 14.4145 10.3871L15.0401 9.7615H15.5875C15.9395 9.7615 16.1741 9.4878 16.1741 9.17499V8.62758L16.7997 8.00197C17.0343 8.19748 17.4253 8.19748 17.6208 8.00197C17.8554 7.76737 17.8554 7.37636 17.6208 7.14176L16.8388 6.28154C16.6042 6.04694 16.2132 6.04694 15.9786 6.28154C15.7439 6.51615 15.7439 6.86805 15.9786 7.10266L15.3529 7.72827H14.8055C14.4536 7.72827 14.219 8.00197 14.219 8.31478V8.86219L13.5934 9.4878C13.3588 9.2532 13.0069 9.2923 12.7723 9.4878C12.655 9.6051 12.5768 9.76151 12.5768 9.91791C12.5768 10.0743 12.6159 10.2307 12.7332 10.3089L12.1076 10.9345C12.0685 10.9345 11.9903 10.9345 11.9512 10.9345C11.4038 10.9345 10.9346 11.4037 10.9346 11.9511C10.9346 11.9902 10.9346 12.0293 10.9346 12.1075L10.309 12.7332C10.0743 12.4986 9.72244 12.5377 9.48784 12.7332C9.37054 12.8505 9.29234 13.0069 9.29234 13.1633C9.29234 13.3197 9.33144 13.4761 9.44874 13.5543L8.82313 14.1799H8.27572C7.92381 14.1799 7.68921 14.4536 7.68921 14.7664V15.3138L7.0636 16.0176C6.82899 15.783 6.47709 15.8221 6.24248 16.0176C6.00788 16.2522 6.00788 16.6432 6.24248 16.8778L7.0636 17.6989Z" fill="#757575"/>
</svg>
