<svg width="24" height="24" viewBox="0 0 24 24" fill="none" xmlns="http://www.w3.org/2000/svg">
<path d="M20.9268 12.9639C20.8876 12.7631 20.8484 12.5623 20.77 12.3213C20.2211 9.95181 19.633 7.58233 18.9273 6.61847C18.3 5.73494 17.3591 5.25301 16.8494 5.01205C16.967 4.36948 16.8494 3.80723 16.5357 3.3253C15.6732 2.16064 13.6737 2 11.9878 2C10.302 2 8.30245 2.16064 7.47912 3.3253C7.16547 3.80723 7.04785 4.36948 7.16547 5.01205C6.65579 5.25301 5.71484 5.73494 5.08755 6.61847C4.38183 7.54217 3.79374 9.95181 3.24486 12.2811C3.20565 12.5221 3.12724 12.7631 3.08803 12.9237C2.69597 14.5301 3.71533 18.5462 4.1466 19.5904C4.30342 20.2731 4.65628 20.6345 5.20516 20.7149C5.32278 20.7149 5.47961 20.755 5.59723 20.755C6.0677 20.755 6.53817 20.6747 6.89103 20.5542C6.89103 20.5944 6.89103 20.6345 6.89103 20.6747C6.89103 20.7149 6.89103 20.755 6.93024 20.7952C7.04785 21.1566 7.3615 22 8.38086 22H12.027H15.6732C16.6534 22 16.967 21.1566 17.1238 20.7952C17.1238 20.755 17.163 20.7149 17.163 20.6747C17.163 20.6345 17.163 20.5944 17.163 20.5542C17.5159 20.6345 17.9864 20.755 18.4569 20.755C18.5745 20.755 18.7313 20.755 18.8489 20.7149C19.633 20.5944 19.8291 19.8715 19.9075 19.5904C20.2603 18.5462 21.2797 14.5301 20.9268 12.9639ZM8.30245 3.88755C8.92975 3.00402 11.2429 3.00402 11.9878 3.00402C12.7327 3.00402 15.0459 3.00402 15.6732 3.88755C15.9085 4.20884 15.9085 4.61044 15.7516 5.17269C15.438 6.17671 14.497 7.02008 12.9288 7.70281C13.0072 7.62249 13.0856 7.54217 13.2032 7.42169L13.36 7.30121C13.9481 6.85944 14.7323 6.33735 14.8891 5.61446C15.0067 5.05221 14.8499 4.6506 14.6931 4.40964C14.1834 3.72691 13.1248 3.68675 11.9878 3.68675C10.8509 3.68675 9.79229 3.72691 9.28261 4.40964C9.12578 4.61044 8.92975 5.01205 9.08658 5.61446C9.2434 6.33735 9.98832 6.85944 10.6156 7.30121L10.7724 7.42169C10.8901 7.50201 10.9685 7.62249 11.0469 7.70281C9.47864 7.02008 8.53769 6.17671 8.22404 5.17269C8.06722 4.61044 8.06722 4.20884 8.30245 3.88755ZM11.9878 7.38153C11.8702 7.1004 11.635 6.85944 11.3213 6.61847L11.1645 6.49799C10.7724 6.21687 10.1059 5.73494 10.0275 5.37349C9.98832 5.13253 10.0275 5.05221 10.0667 5.05221C10.3412 4.73092 11.5174 4.73092 11.9878 4.73092C12.4583 4.73092 13.6737 4.73092 13.9089 5.05221C13.9089 5.09237 13.9873 5.17269 13.9481 5.37349C13.8697 5.73494 13.2032 6.17671 12.8112 6.49799L12.6543 6.61847C12.3407 6.85944 12.1447 7.14056 11.9878 7.38153ZM7.87118 20.5542C7.51833 15.5743 7.63595 10.5944 7.67515 10.5542C7.67515 10.2731 7.47912 10.0321 7.20468 10.0321C6.93024 9.99197 6.695 10.2329 6.695 10.5141C6.695 10.5542 6.57738 14.8916 6.85182 19.5502C6.45976 19.6707 5.83246 19.7912 5.36199 19.751C5.28358 19.751 5.20516 19.751 5.12675 19.3494C5.12675 19.3092 5.12675 19.3092 5.08755 19.2691C4.69548 18.3454 3.75454 14.49 4.06819 13.1647C4.10739 12.9639 4.1466 12.7631 4.22501 12.4819C4.57787 10.9157 5.24437 8.0241 5.91088 7.14056C6.38135 6.49799 7.08706 6.09639 7.51833 5.89558C8.06722 7.06024 9.28261 8.0241 11.0861 8.74699C11.2037 8.78715 11.2821 8.82731 11.3997 8.82731C11.4389 8.82731 11.4782 8.82731 11.5174 8.82731V21.0361H8.34166C8.14563 21.0763 8.02801 21.0361 7.87118 20.5542ZM18.9273 19.2691C18.9273 19.3092 18.9273 19.3092 18.8881 19.3494C18.8097 19.7108 18.7313 19.751 18.6529 19.751C18.1432 19.8313 17.5159 19.6707 17.163 19.5502C17.4375 14.8916 17.3199 10.5542 17.3199 10.5141C17.3199 10.2329 17.0846 10.0321 16.8494 10.0321C16.575 10.0321 16.3789 10.2731 16.3789 10.5542C16.3789 10.5944 16.5357 15.5743 16.1829 20.5542C15.9869 21.0361 15.8692 21.0361 15.6732 21.0361H12.4975V8.86747C12.5367 8.86747 12.5759 8.86747 12.6151 8.86747C12.7327 8.86747 12.8112 8.82731 12.9288 8.78715C14.7715 8.06426 15.9477 7.1004 16.5357 5.93574C16.967 6.13655 17.6727 6.53815 18.1432 7.18072C18.8097 8.06426 19.4762 10.9558 19.8291 12.5221C19.8683 12.7631 19.9467 13.004 19.9859 13.1647C20.2603 14.49 19.3194 18.3454 18.9273 19.2691Z" fill="#757575"/>
<path d="M9.55708 17.2209C9.32184 17.1004 9.00819 17.1807 8.89057 17.4217L8.02804 19.0683C7.91042 19.3092 7.98883 19.6305 8.22407 19.751C8.30248 19.7912 8.38089 19.7912 8.4593 19.7912C8.61613 19.7912 8.81216 19.7108 8.89057 19.51L9.75311 17.8635C9.90993 17.6626 9.79232 17.3414 9.55708 17.2209Z" fill="#757575"/>
<path d="M15.0852 17.4217C14.9675 17.1807 14.6539 17.1004 14.4186 17.2209C14.1834 17.3414 14.105 17.6626 14.2226 17.9036L15.0852 19.5502C15.1636 19.7108 15.3596 19.8313 15.5164 19.8313C15.5948 19.8313 15.6732 19.8313 15.7517 19.7912C15.9869 19.6707 16.0653 19.3494 15.9477 19.1084L15.0852 17.4217Z" fill="#757575"/>
</svg>
