<svg width="24" height="24" viewBox="0 0 24 24" fill="none" xmlns="http://www.w3.org/2000/svg">
<path d="M21.272 15.5185V14.3704C21.272 10.5185 18.7433 7.07407 15.2184 5.74074C15.41 5.51852 15.5249 5.22222 15.4866 4.92593C15.4483 4.51852 15.1418 4.18519 14.7586 4.07407C14.8736 3.7037 14.7969 3.2963 14.4904 3C14.1073 2.62963 13.4943 2.59259 13.0728 2.88889C12.9579 2.37037 12.5364 2 12 2C11.5019 2 11.0805 2.33333 10.9272 2.77778C10.7739 2.7037 10.6207 2.66667 10.4291 2.66667C10.1226 2.66667 9.85441 2.77778 9.62452 2.96296C9.31801 3.25926 9.20306 3.66667 9.31801 4.03704C9.20306 4.07407 9.12644 4.11111 9.01149 4.18519C8.78161 4.37037 8.62835 4.59259 8.59004 4.88889C8.55172 5.18519 8.62835 5.48148 8.81992 5.7037C5.29502 7 2.72797 10.4815 2.72797 14.3704V15.5185C2 16 2 17 2 17.5926C2 18.4444 2 20 3.91571 20H20.0843C22 20 22 18.4444 22 17.5926C22 17 22 16 21.272 15.5185ZM9.62452 4.92593C9.66284 4.92593 9.70115 4.88889 9.73946 4.88889L10.2375 4.96296C10.4291 5 10.6207 4.88889 10.7356 4.7037C10.8123 4.51852 10.8123 4.33333 10.659 4.18519L10.3142 3.81481C10.2375 3.74074 10.2759 3.66667 10.3142 3.59259C10.3525 3.55556 10.3908 3.55556 10.4291 3.55556C10.4674 3.55556 10.5057 3.55556 10.5441 3.59259L11.0421 4.11111C11.1954 4.25926 11.387 4.2963 11.5785 4.22222C11.7701 4.14815 11.8851 4 11.8851 3.77778V3.03704C11.8851 2.96296 11.9617 2.88889 12.0383 2.88889C12.1149 2.88889 12.1916 2.96296 12.1916 3.03704V3.88889C12.1916 4.07407 12.3065 4.25926 12.4981 4.33333C12.6897 4.40741 12.8812 4.37037 13.0345 4.22222L13.6858 3.59259C13.7625 3.51852 13.8391 3.51852 13.9157 3.59259C13.8774 3.7037 13.8774 3.77778 13.8008 3.85185L13.4559 4.18519C13.3027 4.33333 13.2644 4.55556 13.3793 4.7037C13.4559 4.88889 13.6858 5 13.8774 4.96296L14.3755 4.88889C14.4521 4.88889 14.5287 4.92593 14.5287 5C14.5287 5.07407 14.4904 5.14815 14.4138 5.14815L13.2261 5.33333C13.0345 5.37037 12.8812 5.48148 12.8429 5.62963C12.8046 5.77778 12.8046 5.96296 12.9579 6.11111L13.3027 6.48148C13.341 6.51852 13.341 6.55556 13.341 6.59259C13.341 6.62963 13.341 6.66667 13.3027 6.7037C13.2261 6.77778 13.1494 6.77778 13.0728 6.7037L12.9579 6.59259C12.8046 6.44444 12.613 6.40741 12.4215 6.48148C12.2299 6.55556 12.1149 6.7037 12.1149 6.92593V7C12.1149 7.07407 12.0383 7.14815 11.9617 7.14815C11.8851 7.14815 11.8084 7.07407 11.8084 7V6.88889C11.8084 6.7037 11.6935 6.51852 11.5019 6.44444C11.4253 6.40741 11.387 6.40741 11.3103 6.40741C11.1954 6.40741 11.0805 6.44444 10.9655 6.55556L10.7739 6.74074C10.6973 6.81482 10.6207 6.81482 10.5441 6.74074C10.4674 6.66667 10.4674 6.59259 10.5441 6.51852L10.9272 6.14815C11.0421 6.03704 11.1188 5.85185 11.0421 5.66667C10.9655 5.51852 10.8506 5.37037 10.659 5.37037L9.62452 5.22222C9.54789 5.22222 9.47126 5.14815 9.50958 5.07407C9.58621 4.96296 9.62452 4.92593 9.62452 4.92593ZM3.68582 14.3704C3.68582 10.7407 6.17625 7.44444 9.62452 6.44444C9.58621 6.77778 9.66284 7.11111 9.93103 7.37037C10.2375 7.66667 10.6973 7.74074 11.0805 7.62963C11.272 7.88889 11.6169 8.07407 11.9617 8.07407C12.3065 8.07407 12.6513 7.88889 12.8429 7.66667C13.2261 7.77778 13.6475 7.66667 13.9157 7.40741C14.1839 7.14815 14.2989 6.77778 14.2605 6.44444C17.7471 7.40741 20.2759 10.7407 20.2759 14.4074V15.2593C20.1992 15.2593 20.1226 15.2593 20.046 15.2593H3.91571C3.83908 15.2593 3.76245 15.2593 3.68582 15.2593V14.3704ZM20.0843 19.0741H19.6245V17C19.6245 16.7407 19.3946 16.5556 19.1648 16.5556C18.9349 16.5556 18.705 16.7778 18.705 17V19.0741H16.8659V17C16.8659 16.7407 16.636 16.5556 16.4061 16.5556C16.1762 16.5556 15.9464 16.7778 15.9464 17V19.0741H14.1073V17C14.1073 16.7407 13.8774 16.5556 13.6475 16.5556C13.4176 16.5556 13.1877 16.7778 13.1877 17V19.0741H11.3487V17C11.3487 16.7407 11.1188 16.5556 10.8889 16.5556C10.659 16.5556 10.4291 16.7778 10.4291 17V19.0741H8.59004V17C8.59004 16.7407 8.36015 16.5556 8.13027 16.5556C7.90038 16.5556 7.6705 16.7778 7.6705 17V19.0741H5.60153V17C5.60153 16.7407 5.37165 16.5556 5.14176 16.5556C4.91188 16.5556 4.68199 16.7778 4.68199 17V19.0741H3.91571C3.18774 19.0741 2.95785 18.8889 2.95785 17.5926C2.95785 16.7037 3.0728 16.3333 3.37931 16.1852C3.37931 16.1852 3.37931 16.1852 3.41762 16.1852C3.53257 16.1481 3.72414 16.1111 3.91571 16.1111H20.0843C20.2759 16.1111 20.4291 16.1111 20.5824 16.1852C20.5824 16.1852 20.5824 16.1852 20.6207 16.1852C20.9272 16.3333 21.0421 16.6667 21.0421 17.5926C21.0421 18.8519 20.8123 19.0741 20.0843 19.0741Z" fill="#757575"/>
</svg>
