<svg width="32" height="32" viewBox="0 0 32 32" fill="none" xmlns="http://www.w3.org/2000/svg">
<path d="M0 4C0 1.79086 1.79086 0 4 0H28C30.2091 0 32 1.79086 32 4V28C32 30.2091 30.2091 32 28 32H4C1.79086 32 0 30.2091 0 28V4Z" fill="#E9F9F8"/>
<path d="M21.5924 7.25714C21.5924 7.00987 21.3447 6.83325 21.0971 6.83325H10.7368C10.4478 6.83325 10.2414 7.00987 10.2002 7.25714C10.1589 7.89298 9.33337 22.5879 9.33337 24.1422C9.33337 24.7074 9.86996 25.1666 10.5304 25.1666H14.0388C14.658 25.1666 15.1946 24.778 15.2359 24.2128C15.3597 23.0471 15.4835 21.3869 15.7312 18.5963C15.7724 18.0311 15.8137 17.3952 15.8963 16.7241C15.9375 17.3952 15.9788 17.9957 16.0614 18.5609C16.2678 21.3516 16.4329 23.0471 16.5567 24.2128C16.598 24.7427 17.1346 25.1666 17.7537 25.1666H21.4685C22.129 25.1666 22.6655 24.7074 22.6655 24.1422C22.7068 22.7645 21.6336 7.89298 21.5924 7.25714ZM20.6017 8.10493H18.5379V7.71636H20.6017C20.6017 7.82233 20.6017 7.96363 20.6017 8.10493ZM14.1214 8.10493V7.71636H17.506V8.10493H14.1214ZM13.0895 7.71636V8.10493H11.1908C11.1908 7.96363 11.1908 7.82233 11.2321 7.71636H13.0895ZM21.4685 24.2835H17.7537C17.6711 24.2835 17.5886 24.2128 17.5886 24.1422C17.4648 23.0118 17.3409 21.3162 17.0933 18.5256C16.9694 17.148 16.8456 15.4524 16.6805 13.4036C16.6392 13.0503 16.309 12.8031 15.8963 12.8031C15.4835 12.8031 15.1533 13.0503 15.112 13.4036C14.9469 15.4524 14.8231 17.148 14.6993 18.5256C14.4929 21.3162 14.3691 23.0118 14.2452 24.1422C14.2452 24.2128 14.1627 24.2835 14.0801 24.2835H10.5304C10.4478 24.2835 10.3653 24.2128 10.3653 24.1422C10.3653 23.1531 10.6955 16.7594 10.9844 12.1319C11.067 12.1319 11.1908 12.0966 11.2733 12.0259C12.0989 11.4254 13.172 10.1184 13.2133 10.0831C13.3784 9.87115 13.3372 9.62387 13.0895 9.48258C12.8418 9.34128 12.5116 9.3766 12.3465 9.58855C12.3465 9.58855 11.6448 10.4363 11.0257 11.0015C11.067 10.2244 11.1082 9.55323 11.1495 8.98804H15.3184V11.4607C15.3184 11.708 15.5661 11.8846 15.8137 11.8846C16.0614 11.8846 16.309 11.6727 16.309 11.4607V8.98804H20.643C20.6843 9.58855 20.7256 10.295 20.8081 11.0722C20.1477 10.4717 19.4047 9.58855 19.4047 9.58855C19.2396 9.3766 18.9094 9.34128 18.703 9.48258C18.4554 9.62387 18.4141 9.90647 18.5792 10.0831C18.6205 10.1537 19.7349 11.4607 20.5605 12.0259C20.643 12.1319 20.7668 12.1319 20.8907 12.1319C20.8907 12.1319 20.8907 12.1319 20.932 12.1319C21.2622 16.7947 21.6749 23.2591 21.6749 24.1069C21.6336 24.2128 21.5511 24.2835 21.4685 24.2835Z" fill="#13ADAD"/>
</svg>
