<svg width="24" height="24" viewBox="0 0 24 24" fill="none" xmlns="http://www.w3.org/2000/svg">
<path d="M20.9497 11.7166C20.8267 11.5493 20.7037 11.4239 20.5398 11.3402C20.7447 10.3784 21.6056 6.74032 21.6466 4.18947C21.6466 3.72948 21.4006 3.26949 20.9497 3.10222C20.5398 2.93495 20.0478 3.01859 19.7199 3.35312C17.9571 5.19308 16.7273 9.50026 16.1944 11.9257C16.1944 11.9675 16.1944 11.9675 16.1944 12.0093C14.4316 12.8875 13.3658 14.0583 12.8739 14.8947C12.7919 14.9783 12.5049 15.1456 12.054 15.1456C11.603 15.1456 11.3161 14.9365 11.2341 14.8947C10.7422 14.0583 9.67631 12.9293 7.91356 12.0093C7.91356 11.9675 7.91356 11.9675 7.91356 11.9257C7.29865 9.54208 6.06882 5.2349 4.30607 3.35312C3.97812 3.01859 3.48619 2.89313 3.07625 3.10222C2.6663 3.26949 2.37935 3.72948 2.37935 4.18947C2.42034 6.74032 3.28122 10.3784 3.48619 11.3402C3.36321 11.4657 3.19923 11.5911 3.07625 11.7166C2.54332 12.3438 1.72344 13.7656 2.09239 16.4837C2.42034 18.8255 3.44519 19.9546 4.26508 20.4564C4.87999 20.8327 5.5359 21 6.27379 21C6.72473 21 7.21666 20.9164 7.70859 20.7491C9.18438 20.2473 10.2092 18.8255 10.8241 17.6128C11.0701 17.7801 11.4801 17.9473 12.013 17.9473C12.5459 17.9473 12.9148 17.7801 13.2018 17.6128C13.8167 18.8255 14.8826 20.2473 16.3174 20.7491C16.8093 20.9164 17.3012 21 17.7522 21C18.4491 21 19.146 20.7909 19.7199 20.4564C20.5398 19.9546 21.5646 18.8255 21.8926 16.4837C22.3025 13.7656 21.4416 12.3438 20.9497 11.7166ZM20.4578 4.10583C20.4578 4.10583 20.4988 4.06402 20.5808 4.06402C20.6627 4.10583 20.6627 4.14765 20.6217 4.14765C20.5808 6.4476 19.8429 9.79298 19.5559 10.922C19.5149 10.922 19.5149 10.922 19.4739 10.922C18.695 11.0475 17.9571 11.2566 17.3012 11.5075C18.2031 7.95302 19.3509 5.2349 20.4578 4.10583ZM3.44519 4.06402C3.52718 4.0222 3.52718 4.06402 3.56818 4.10583C4.67502 5.27672 5.78186 7.95302 6.68373 11.5493C6.02783 11.2984 5.33093 11.0893 4.51104 10.9639C4.47005 10.9639 4.47005 10.9639 4.42905 10.9639C4.18309 9.8348 3.44519 6.4476 3.4042 4.18947C3.4042 4.14765 3.4042 4.10583 3.44519 4.06402ZM7.38063 19.7873C6.43777 20.1218 5.5359 20.0382 4.839 19.5782C3.93712 18.9928 3.36321 17.9055 3.15823 16.3583C2.83028 13.9747 3.56818 12.8038 3.89613 12.4275C4.14209 12.1347 4.38806 12.0093 4.47005 12.0093C8.81543 12.8038 10.4142 15.3547 10.5372 15.7728C10.4142 16.3165 9.22537 19.16 7.38063 19.7873ZM12.013 16.9019C11.644 16.9019 11.3571 16.7346 11.2751 16.6928C11.3571 16.4837 11.3981 16.3165 11.4391 16.1492C11.603 16.191 11.808 16.2328 12.013 16.2328C12.2179 16.2328 12.4229 16.191 12.5869 16.1492C12.6279 16.3165 12.6689 16.4837 12.7509 16.6928C12.6279 16.7765 12.3819 16.9019 12.013 16.9019ZM20.9087 16.3165C20.7037 17.8637 20.1298 18.9928 19.2279 19.5364C18.4901 19.9964 17.5882 20.08 16.6863 19.7455C14.8416 19.1182 13.6527 16.2747 13.5708 15.731C13.6937 15.3129 15.2925 12.762 19.6379 11.9675C19.7199 11.9675 19.9658 12.0929 20.2118 12.3856C20.4988 12.8038 21.2367 13.9747 20.9087 16.3165Z" fill="#757575"/>
</svg>
