<svg width="32" height="32" viewBox="0 0 32 32" fill="none" xmlns="http://www.w3.org/2000/svg">
<path d="M0 4C0 1.79086 1.79086 0 4 0H28C30.2091 0 32 1.79086 32 4V28C32 30.2091 30.2091 32 28 32H4C1.79086 32 0 30.2091 0 28V4Z" fill="#E9F9F8"/>
<path d="M24.2895 20.3136L24.1324 19.098C24.0696 18.1176 23.4099 16.2744 21.3052 16.0391L20.8026 15.9999C18.9492 15.8038 18.1638 15.7254 17.724 15.0195L17.6612 14.9411C17.1272 14.1176 16.2162 12.7058 15.745 10.3136C15.6821 9.92149 15.4623 9.64698 15.1795 9.4509C14.8968 9.29404 14.5827 9.29404 14.2999 9.4509C13.8287 9.72541 13.2319 9.84306 12.101 9.84306C11.0015 9.84306 9.87061 9.68619 9.24234 9.56855C8.95961 9.49011 8.67689 9.56855 8.457 9.80384C8.20569 10.0391 8.08003 10.3529 8.04862 10.7058C8.0172 11.1764 7.98579 11.8038 7.95438 12.4313C7.92296 13.3725 7.89155 14.4705 7.79731 15.2156C7.546 17.0587 7.73448 18.9411 7.73448 19.2156V21.4509C7.73448 22.0391 8.11144 22.5489 8.58265 22.5882C8.80255 22.5882 9.11668 22.6274 9.49365 22.6274C9.77637 22.6274 10.1219 22.6274 10.5303 22.6274C12.1638 22.6274 13.012 22.5097 13.0434 22.5097C13.2319 22.4705 13.3889 22.2744 13.3889 22.0391V21.7254C13.4204 21.7254 13.4204 21.7254 13.4518 21.7646C13.923 21.9607 14.5827 22.2352 15.3994 22.3921C15.745 22.4705 17.0329 22.6666 18.635 22.6666C19.6403 22.6666 20.7712 22.5882 21.8707 22.3136C23.2843 21.9607 24.0382 21.5293 24.2581 20.9019C24.3523 20.7058 24.3523 20.4705 24.2895 20.3136ZM8.58265 15.4117C8.7083 14.5882 8.73972 13.4901 8.77113 12.5097C8.80255 11.8823 8.80255 11.294 8.83396 10.8234C8.83396 10.7058 8.89679 10.6274 8.9282 10.5882C8.95961 10.5489 9.02244 10.5097 9.11668 10.5097C9.77637 10.6666 10.9701 10.7842 12.1324 10.7842C13.3575 10.7842 14.0486 10.6666 14.6455 10.3136C14.7397 10.2744 14.834 10.2744 14.8654 10.3136C14.8968 10.3529 14.9596 10.3921 14.991 10.5097C15.0539 10.8234 15.1167 11.098 15.1795 11.3333C14.9282 11.4901 14.4256 11.7254 13.9858 11.8038C13.7659 11.8431 13.6403 12.1176 13.6717 12.3529C13.7031 12.5882 13.8602 12.745 14.0486 12.745C14.08 12.745 14.08 12.745 14.1115 12.745C14.6455 12.6274 15.1481 12.3921 15.4623 12.196C15.5565 12.4705 15.6507 12.745 15.745 12.9803C15.4623 13.1372 15.0853 13.294 14.7083 13.3725C14.4884 13.4117 14.3628 13.6862 14.3942 13.9215C14.4256 14.1568 14.5827 14.3136 14.7712 14.3136C14.8026 14.3136 14.8026 14.3136 14.834 14.3136C15.3052 14.196 15.8078 13.9999 16.1219 13.8038C16.2476 14.0783 16.3733 14.2744 16.4989 14.5097C16.2162 14.6666 15.8392 14.8234 15.4623 14.9019C15.2424 14.9411 15.1167 15.2156 15.1481 15.4509C15.1795 15.6862 15.3366 15.8431 15.5251 15.8431C15.5565 15.8431 15.5565 15.8431 15.5879 15.8431C16.1534 15.7254 16.6874 15.4509 17.0015 15.294C17.0015 15.3333 17.0329 15.3333 17.0329 15.3725L17.0958 15.4509C17.7869 16.5097 18.8235 16.6274 20.7398 16.7842L21.211 16.8234C22.7502 16.9803 23.1586 18.1568 23.2843 18.7058C23.1272 18.7842 22.8445 18.9019 22.4361 19.0587C20.5199 19.8823 18.1638 19.9999 15.4937 19.4117C15.2109 19.3333 14.9282 19.294 14.6455 19.2156C13.2633 18.8627 11.5984 18.4705 8.48841 18.6274C8.45699 18.196 8.39417 16.7842 8.58265 15.4117ZM22.6246 21.1372C22.5618 21.0195 22.4361 20.9019 22.3104 20.9019C22.0905 20.9019 21.9335 21.098 21.9335 21.3333C21.8707 21.3333 21.8392 21.3725 21.7764 21.3725C21.4309 21.4509 21.0853 21.5293 20.7398 21.5685C20.6769 21.3725 20.5513 21.2548 20.3628 21.2548C20.1743 21.2548 20.0172 21.4117 19.9858 21.647C19.4832 21.6862 18.9806 21.7254 18.5408 21.6862C18.5094 21.4901 18.3523 21.294 18.1638 21.294C17.9754 21.294 17.8497 21.4509 17.7869 21.647C17.1272 21.6078 16.5303 21.5293 16.1219 21.4901C16.0905 21.2548 15.9335 21.0587 15.745 21.0587C15.5879 21.0587 15.4623 21.1764 15.3994 21.3333C14.7397 21.1764 14.1743 20.9411 13.7659 20.7842C13.5774 20.7058 13.4204 20.6274 13.2633 20.5882C13.2319 20.5882 13.1691 20.5489 13.1376 20.5489C13.0434 20.5489 12.9177 20.5882 12.8549 20.6666C12.7293 20.7842 12.6664 20.9411 12.6664 21.1372V21.5293C12.4465 21.5685 12.1324 21.5685 11.7554 21.6078C11.6926 21.4117 11.567 21.2548 11.3785 21.2548C11.19 21.2548 11.0329 21.4117 11.0015 21.647C10.8759 21.647 10.7188 21.647 10.5931 21.647C10.3418 21.647 10.1533 21.647 9.93344 21.647C9.90203 21.4509 9.74496 21.294 9.55647 21.294C9.36799 21.294 9.24234 21.4509 9.17951 21.647C8.99103 21.647 8.83396 21.6078 8.67689 21.6078C8.61406 21.6078 8.55124 21.5293 8.55124 21.4509V19.7646C11.5355 19.6078 13.1062 19.9999 14.5198 20.3529C14.8026 20.4313 15.0853 20.5097 15.368 20.5489C16.5303 20.7842 17.6298 20.9411 18.6665 20.9411C20.1429 20.9411 21.4937 20.6666 22.6874 20.1568C23.0015 19.9999 23.2529 19.9215 23.4099 19.8431L23.5042 20.4705V20.5097C23.4727 20.6666 23.2843 20.8627 22.6246 21.1372Z" fill="#13ADAD"/>
</svg>
