<svg width="32" height="32" viewBox="0 0 32 32" fill="none" xmlns="http://www.w3.org/2000/svg">
<path d="M0 4C0 1.79086 1.79086 0 4 0H28C30.2091 0 32 1.79086 32 4V28C32 30.2091 30.2091 32 28 32H4C1.79086 32 0 30.2091 0 28V4Z" fill="#E9F9F8"/>
<path d="M23.4914 22.4009C23.5238 18.4758 22.3881 15.1847 21.8689 14.2186C21.2199 13.0712 19.7922 12.6183 19.0134 12.4372L19.2081 11.9541C19.5975 10.9577 19.5002 9.87073 18.8512 8.96494C18.2996 8.14972 17.2287 7.66663 16.0281 7.66663C14.8275 7.66663 13.7567 8.14972 13.2051 8.96494C12.5561 9.90093 12.4263 10.9577 12.8481 11.9541L13.0428 12.4372C12.2641 12.6183 10.8039 13.0712 10.1873 14.2186C9.63571 15.1847 8.53245 18.4456 8.5649 22.3707L8.5 22.8236C8.5 22.9142 8.53245 23.035 8.59735 23.0954C8.66224 23.1558 8.79204 23.2161 8.88939 23.2161H11.323C11.5502 23.2161 11.7124 23.035 11.7124 22.8538V22.3707C11.7124 22.0084 11.7773 21.2536 11.8422 20.4082V22.5519C11.8422 22.8538 12.0045 23.0954 12.2641 23.2765V23.971C12.2641 24.1823 12.4588 24.3333 12.6535 24.3333H16.4824H19.273C19.5002 24.3333 19.6624 24.1521 19.6624 23.971V23.2765C19.922 23.0954 20.0842 22.8538 20.0842 22.5519V20.4082C20.1816 21.2536 20.214 22.0084 20.214 22.3707V22.8538C20.214 23.0652 20.4087 23.2161 20.6034 23.2161H23.102C23.1993 23.2161 23.3291 23.186 23.394 23.0954C23.4589 23.035 23.5238 22.9142 23.4914 22.8236V22.4009ZM21.0902 22.4613V22.3707C21.0902 21.6159 20.7332 17.0869 20.0842 16C19.9869 15.849 19.7922 15.7886 19.63 15.8188C19.4677 15.849 19.3379 16 19.3379 16.1811V22.5217C19.3379 22.6123 19.2081 22.7029 18.981 22.7029C18.7538 22.7029 18.5916 22.884 18.5916 23.0652C18.5916 23.2463 18.7538 23.3973 18.9485 23.4275V23.5181H16.5798H13.1077V23.4275C13.3024 23.3973 13.4647 23.2463 13.4647 23.0652C13.4647 22.8538 13.27 22.7029 13.0753 22.7029C12.8481 22.7029 12.7184 22.5821 12.7184 22.5217V16.1811C12.7184 16 12.5886 15.849 12.4263 15.8188C12.2641 15.7886 12.0694 15.849 11.972 16C11.323 17.0869 10.9661 21.5857 10.9661 22.3707V22.4613H9.31122V22.4009C9.31122 18.5966 10.3496 15.4867 10.8688 14.5809C11.5502 13.3731 13.5945 13.1316 13.6269 13.1316C13.7567 13.1316 13.8541 13.041 13.919 12.9504C13.9839 12.8599 13.9839 12.7391 13.9514 12.6183L13.5945 11.7125C13.27 10.9275 13.3673 10.1123 13.8865 9.38764C14.2759 8.81397 15.1196 8.45165 16.0281 8.45165C16.9367 8.45165 17.7804 8.81397 18.1698 9.38764C18.6565 10.1123 18.7863 10.9275 18.4618 11.7125L18.1049 12.6183C18.0724 12.7391 18.0724 12.8599 18.1373 12.9504C18.2022 13.041 18.2996 13.1014 18.4293 13.1316C18.4618 13.1316 20.5061 13.4033 21.1875 14.5809C21.7067 15.4867 22.745 18.5966 22.745 22.4009V22.4311H21.0902V22.4613Z" fill="#13ADAD"/>
<path d="M17.6829 12.8599C18.2995 11.8333 18.5266 10.6091 18.0399 9.88449C17.6829 9.31081 17.0015 8.72339 16.1254 8.72339H15.9956H15.9632H15.8334C14.9572 8.72339 14.3407 9.31081 13.9838 9.88449C13.497 10.6091 13.6593 11.8333 14.2758 12.8599C14.3732 13.041 14.503 13.192 14.6003 13.343C14.6003 13.5845 14.6652 14.6413 14.3407 15.5169C14.2758 15.7282 14.3732 15.9396 14.6003 16C14.6328 16 14.6977 16.0302 14.7301 16.0302C14.8923 16.0302 15.0546 15.9396 15.1195 15.7886C15.3466 15.1847 15.4115 14.5507 15.444 14.0676C15.6387 14.1582 15.8009 14.2186 15.9956 14.2186C16.1903 14.2186 16.3525 14.1582 16.5472 14.0676C16.5797 14.5507 16.6446 15.1847 16.8717 15.7886C16.9366 15.9396 17.0989 16.0302 17.2611 16.0302C17.2936 16.0302 17.3585 16.0302 17.3909 16C17.618 15.9396 17.7154 15.7282 17.6505 15.5169C17.326 14.6413 17.3585 13.6147 17.3909 13.343C17.4883 13.192 17.5856 13.041 17.6829 12.8599ZM15.9956 13.4033C15.7685 13.4033 15.3791 13.1316 15.0221 12.4975C14.503 11.5917 14.438 10.6997 14.7301 10.277C14.9248 9.91468 15.2817 9.47822 15.8658 9.47822H15.9956H16.0281H16.1578C16.7419 9.47822 17.1638 9.91468 17.3909 10.277C17.6505 10.6695 17.5531 11.6219 17.034 12.5277C16.6121 13.1316 16.2227 13.4033 15.9956 13.4033Z" fill="#13ADAD"/>
</svg>
