<svg width="24" height="24" viewBox="0 0 24 24" fill="none" xmlns="http://www.w3.org/2000/svg">
<path d="M21.9982 17.6405C22.0356 15.1297 21.475 12.5835 20.8396 10.6385C20.4658 9.40079 20.0546 8.41061 19.793 7.80943C19.3071 6.6778 18.3353 6.11198 17.4383 5.65226L15.7937 5.01572C15.8311 4.76817 15.8685 4.48527 15.8311 4.23772C15.6816 3.53045 14.1118 3 11.9813 3C9.85085 3 8.28103 3.53045 8.13153 4.23772C8.09415 4.4499 8.13153 4.73281 8.1689 4.98035L6.48696 5.65226C5.6273 6.07662 4.65551 6.64244 4.16961 7.77407C3.90797 8.37525 3.49683 9.40079 3.12307 10.6031C2.52504 12.5835 1.96439 15.0943 2.00177 17.6405C2.00177 17.9234 2.07652 18.2063 2.18865 18.4538C2.18865 18.4538 2.18865 18.4538 2.18865 18.4892V19.0904C2.18865 19.444 2.48766 19.7269 2.86143 19.7269H5.25353C5.6273 19.7269 5.92631 19.444 5.92631 19.0904V18.8428C6.22532 18.4892 6.37483 18.0295 6.33745 17.5697C6.33745 17.2868 6.37483 16.7917 6.4122 16.1906V19.1965C6.4122 19.9037 6.97285 21 7.68301 21H11.9813H16.2796C16.9898 21 17.5504 19.9037 17.5504 19.1965V16.1906C17.6252 16.7917 17.6625 17.2515 17.6252 17.5697C17.6252 18.0295 17.7747 18.4538 18.0363 18.8428V19.0904C18.0363 19.444 18.3353 19.7269 18.7091 19.7269H21.1012C21.475 19.7269 21.774 19.444 21.774 19.0904V18.4892C21.774 18.4892 21.774 18.4892 21.774 18.4538C21.9235 18.2063 21.9982 17.9234 21.9982 17.6405ZM3.79584 11.7701C4.24436 12.2299 4.91714 12.7957 5.92631 13.1847C5.7768 14.0334 5.6273 14.9528 5.55254 15.7308C4.13223 15.4126 3.42208 14.5639 3.2352 14.2456C3.3847 13.3969 3.57159 12.5481 3.79584 11.7701ZM7.38399 13.998C8.0194 14.3517 8.95381 14.5285 10.0751 14.5285C10.561 14.5285 11.0469 14.4931 11.5702 14.4224V17.2868C9.40233 17.6051 7.68301 17.1807 7.42137 16.5796V13.998H7.38399ZM11.9813 5.86444C11.7944 5.68762 11.6075 5.47544 11.3833 5.29862C11.2338 5.19253 11.0843 5.08644 10.9348 5.01572C11.1964 4.94499 11.5702 4.90963 12.0187 4.90963C12.4298 4.90963 12.8036 4.94499 13.0652 5.01572C12.9157 5.08644 12.7288 5.19253 12.542 5.33399C12.3177 5.47544 12.1308 5.68762 11.9813 5.86444ZM12.4672 14.4224C12.9905 14.4931 13.4764 14.5285 13.9623 14.5285C15.0462 14.5285 15.9806 14.3517 16.6534 13.998V16.5796C16.3917 17.1807 14.6724 17.6051 12.5046 17.2868V14.4224H12.4672ZM18.0737 13.1847C19.0829 12.7957 19.793 12.2299 20.2042 11.7701C20.4284 12.5481 20.6153 13.3615 20.7648 14.2456C20.5405 14.5639 19.8678 15.3772 18.4475 15.7308C18.3353 14.9528 18.2232 14.0688 18.0737 13.1847ZM19.9051 10.7092C19.7183 11.0275 19.1202 11.8055 17.9242 12.3006C17.8121 11.6994 17.6999 11.1336 17.5504 10.6739C17.4757 10.4617 17.2888 10.3202 17.0271 10.3556C16.8029 10.391 16.616 10.5678 16.616 10.78V12.831C16.3544 13.4322 14.635 13.8566 12.4672 13.5383V10.6385C12.7288 10.6385 13.0279 10.6739 13.2895 10.6739C15.8685 10.6739 17.8868 9.93124 19.0829 8.55206C19.3071 9.08251 19.6061 9.82515 19.9051 10.7092ZM18.6343 7.59725C17.5878 9.11788 15.3826 9.89587 12.4672 9.71906V7.03143C14.1118 7.03143 15.0462 6.64244 15.4947 5.79371L17.0271 6.39489C17.8121 6.78389 18.298 7.17289 18.6343 7.59725ZM11.9813 3.88409C13.8875 3.88409 14.7472 4.30845 14.8967 4.4499C14.8967 4.59136 14.8593 4.90963 14.7846 5.12181C14.635 5.58153 14.336 6.04126 12.9157 6.14735C12.9905 6.07662 13.0279 6.04126 13.1026 5.97053C13.2895 5.82908 13.5511 5.72299 13.7754 5.6169C14.0744 5.51081 14.4108 5.36935 14.4108 4.98035C14.4108 4.02554 12.3925 3.99018 11.9813 3.99018C11.5702 3.99018 9.58921 4.0609 9.58921 5.01572C9.58921 5.36935 9.9256 5.51081 10.1872 5.6169C10.3741 5.68762 10.5984 5.79371 10.7853 5.97053C10.86 6.04126 10.9348 6.07662 10.9721 6.14735C9.62659 6.04126 9.32758 5.58153 9.17807 5.12181C9.10332 4.90963 9.06594 4.62672 9.06594 4.4499C9.25282 4.30845 10.0751 3.88409 11.9813 3.88409ZM6.93548 6.43026L8.50529 5.82908C8.99119 6.6778 9.9256 7.03143 11.5328 7.0668V9.71906C8.61742 9.89587 6.4122 9.15324 5.36566 7.59725C5.70205 7.17289 6.18794 6.81925 6.93548 6.43026ZM4.91714 8.5167C6.11319 9.89587 8.13153 10.6385 10.7105 10.6385C10.9721 10.6385 11.2338 10.6385 11.5328 10.6031V13.5029C9.36495 13.8212 7.64563 13.3969 7.38399 12.7957V10.78C7.38399 10.5678 7.19711 10.3556 6.97285 10.3556C6.74859 10.3202 6.52433 10.4617 6.44958 10.6739C6.33745 11.1336 6.22532 11.6994 6.07581 12.3006C4.87976 11.8055 4.28174 11.0275 4.09486 10.7092C4.39387 9.82515 4.69288 9.08251 4.91714 8.5167ZM5.10402 18.3831C5.02927 18.4538 4.99189 18.5599 4.99189 18.666V18.8075H3.12307V18.5246C3.16044 18.4185 3.16044 18.277 3.08569 18.1709C2.97356 17.9941 2.93618 17.8173 2.93618 17.6051C2.93618 16.8625 2.97356 16.1198 3.04831 15.4126C3.53421 15.8723 4.31912 16.3674 5.44041 16.6149C5.40304 17.0039 5.40304 17.3576 5.40304 17.5697C5.40304 17.888 5.32828 18.1709 5.10402 18.3831ZM7.38399 19.2318V17.7819C8.0194 18.1356 8.95381 18.3124 10.0751 18.3124C10.561 18.3124 11.0469 18.277 11.5702 18.2063V20.1866H7.75776C7.60825 20.0098 7.38399 19.5855 7.38399 19.2318ZM16.2422 20.1513H12.4672V18.1709C12.9905 18.2417 13.4764 18.277 13.9623 18.277C15.0462 18.277 15.9806 18.1002 16.6534 17.7466V19.1965C16.616 19.5855 16.3917 20.0098 16.2422 20.1513ZM20.9143 18.1709C20.8396 18.277 20.8396 18.4185 20.8769 18.5246V18.8075H19.0081V18.666C19.0081 18.5599 18.9707 18.4538 18.896 18.3831C18.7091 18.1709 18.597 17.888 18.597 17.6051C18.597 17.3576 18.597 17.0393 18.5596 16.6503C19.6809 16.4027 20.4658 15.9077 20.9517 15.4479C21.0264 16.1552 21.0638 16.8978 21.0638 17.6405C21.0638 17.8173 20.9891 17.9941 20.9143 18.1709Z" fill="#757575"/>
</svg>
