<svg width="32" height="32" viewBox="0 0 32 32" fill="none" xmlns="http://www.w3.org/2000/svg">
<path d="M0 4C0 1.79086 1.79086 0 4 0H28C30.2091 0 32 1.79086 32 4V28C32 30.2091 30.2091 32 28 32H4C1.79086 32 0 30.2091 0 28V4Z" fill="#E9F9F8"/>
<path d="M17.3789 16.1284C17.1164 16.1651 16.929 16.3851 16.929 16.6052L17.1164 18.769C17.1164 19.0257 17.3414 19.2091 17.5664 19.2091H17.6039C17.8664 19.1724 18.0539 18.9524 18.0539 18.7323L17.8664 16.5685C17.8289 16.3118 17.6414 16.1284 17.3789 16.1284Z" fill="#13ADAD"/>
<path d="M20.0039 14.1479C19.7414 14.1846 19.5914 14.4413 19.6289 14.698L19.8914 16.0917C19.9289 16.3117 20.1164 16.4584 20.3413 16.4584C20.3788 16.4584 20.4163 16.4584 20.4163 16.4584C20.6788 16.4217 20.8288 16.165 20.7913 15.9083L20.5288 14.5146C20.4913 14.2579 20.2663 14.0745 20.0039 14.1479Z" fill="#13ADAD"/>
<path d="M14.6039 16.3483C14.3414 16.3116 14.1165 16.5316 14.1165 16.7517L14.0415 17.9253C14.004 18.182 14.2289 18.4021 14.4914 18.4021H14.5289C14.7539 18.4021 14.9789 18.2187 14.9789 17.962L15.0539 16.7884C15.0539 16.5683 14.8664 16.3483 14.6039 16.3483Z" fill="#13ADAD"/>
<path d="M25.1411 20.5293C24.3537 17.412 22.1037 11.8007 21.7663 10.9939C21.8038 10.4804 21.8413 9.19682 21.4288 8.68337C21.3538 8.57335 21.2038 8.5 21.0538 8.5H10.9667C10.8167 8.5 10.6667 8.57335 10.5917 8.68337C10.1792 9.19682 10.2167 10.4804 10.2542 10.9939C9.9542 11.7641 7.85428 17.632 6.87932 20.6394C6.72932 21.0795 6.95431 21.6296 7.44179 22.033C8.11677 22.5831 9.27923 22.8765 10.2917 22.5098C11.7166 23.3533 13.1416 23.28 13.9291 22.8399C14.304 23.2066 14.8665 23.4267 15.579 23.5C15.6915 23.5 15.804 23.5 15.9165 23.5C16.7789 23.5 17.5289 23.2066 18.0164 22.6932C18.8414 23.0966 20.2288 23.2066 21.6913 22.3631C22.6662 22.7298 23.7162 22.4364 24.4287 21.923C24.9911 21.4829 25.2536 20.9694 25.1411 20.5293ZM11.2667 9.41687H20.7913C20.8663 9.67359 20.9038 10.1137 20.8663 10.6271L11.1542 10.5905C11.1542 10.1137 11.1917 9.67359 11.2667 9.41687ZM23.5662 21.3362C23.3787 21.4462 22.7037 21.7396 22.0662 21.4829L21.4663 18.5489C21.4288 18.2922 21.1663 18.1455 20.9038 18.1822C20.6413 18.2188 20.4913 18.4755 20.5288 18.7323L21.1288 21.5562C19.9288 22.2164 18.8039 22.0697 18.3539 21.7763L18.2789 21.1161C18.2414 20.8594 18.0164 20.676 17.7539 20.7127C17.4914 20.7494 17.3039 20.9694 17.3414 21.2262L17.4164 21.923C17.0414 22.4364 16.254 22.5831 15.654 22.5465C15.054 22.5098 14.679 22.2897 14.529 22.0697L14.604 21.3729C14.6415 21.1161 14.454 20.8961 14.1915 20.8594C13.9291 20.8227 13.7041 21.0061 13.6666 21.2628L13.5916 21.923C13.1416 22.2164 12.0166 22.3998 10.8167 21.7029L11.3416 18.8056C11.3791 18.5489 11.2292 18.3289 10.9667 18.2555C10.7042 18.2188 10.4792 18.3655 10.4042 18.6222L9.84171 21.5929C9.20423 21.8496 8.41676 21.6296 7.96678 21.2628C7.74178 21.0795 7.66679 20.8961 7.70428 20.8594C8.60425 18.0721 10.4792 12.791 10.9667 11.4707L20.9038 11.5073C21.4288 12.791 23.4537 17.9254 24.1287 20.7127C24.2412 20.8227 24.0162 21.1161 23.5662 21.3362Z" fill="#13ADAD"/>
<path d="M11.9041 14.038C11.6416 14.0014 11.4167 14.1481 11.3792 14.4048L11.1167 15.9085C11.0792 16.1652 11.2292 16.3852 11.4917 16.4219C11.5291 16.4219 11.5291 16.4219 11.5666 16.4219C11.7916 16.4219 11.9791 16.2752 12.0166 16.0552L12.2791 14.5515C12.3541 14.3314 12.1666 14.0747 11.9041 14.038Z" fill="#13ADAD"/>
</svg>
