<svg width="24" height="24" viewBox="0 0 24 24" fill="none" xmlns="http://www.w3.org/2000/svg">
<path d="M18.7108 1.50867C18.7108 1.21195 18.4136 1 18.1164 1H5.68406C5.33735 1 5.08969 1.21195 5.04016 1.50867C4.99063 2.27168 4 19.9056 4 21.7707C4 22.4489 4.64391 23 5.43641 23H9.64657C10.3895 23 11.0334 22.5337 11.083 21.8555C11.2316 20.4566 11.3802 18.4644 11.6774 15.1156C11.7269 14.4374 11.7764 13.6744 11.8755 12.869C11.925 13.6744 11.9745 14.395 12.0736 15.0732C12.3213 18.422 12.5194 20.4566 12.668 21.8555C12.7175 22.4913 13.3614 23 14.1044 23H18.5622C19.3547 23 19.9986 22.4489 19.9986 21.7707C20.0481 20.1175 18.7603 2.27168 18.7108 1.50867ZM17.522 2.52601H15.0455V2.05973H17.522C17.522 2.1869 17.522 2.35645 17.522 2.52601ZM9.74563 2.52601V2.05973H13.8072V2.52601H9.74563ZM8.50735 2.05973V2.52601H6.22891C6.22891 2.35645 6.22891 2.1869 6.27844 2.05973H8.50735ZM18.5622 21.9403H14.1044C14.0053 21.9403 13.9063 21.8555 13.9063 21.7707C13.7577 20.4143 13.6091 18.3796 13.3119 15.0308C13.1633 13.3776 13.0147 11.343 12.8166 8.88439C12.767 8.4605 12.3708 8.16378 11.8755 8.16378C11.3802 8.16378 10.9839 8.4605 10.9344 8.88439C10.7363 11.343 10.5877 13.3776 10.4391 15.0308C10.1914 18.3796 10.0428 20.4143 9.89422 21.7707C9.89422 21.8555 9.79516 21.9403 9.6961 21.9403H5.43641C5.33735 21.9403 5.23828 21.8555 5.23828 21.7707C5.23828 20.5838 5.63453 12.9114 5.98125 7.35838C6.08031 7.35838 6.22891 7.31599 6.32797 7.23121C7.3186 6.5106 8.60641 4.9422 8.65594 4.89981C8.85407 4.64547 8.80454 4.34875 8.50735 4.17919C8.21016 4.00963 7.81391 4.05202 7.61578 4.30636C7.61578 4.30636 6.77375 5.3237 6.03078 6.00193C6.08031 5.06936 6.12985 4.26397 6.17938 3.58574H11.182V6.55299C11.182 6.84971 11.4792 7.06166 11.7764 7.06166C12.0736 7.06166 12.3708 6.80732 12.3708 6.55299V3.58574H17.5716C17.6211 4.30636 17.6706 5.15414 17.7697 6.08671C16.9772 5.36609 16.0856 4.30636 16.0856 4.30636C15.8875 4.05202 15.4913 4.00963 15.2436 4.17919C14.9464 4.34875 14.8969 4.68786 15.095 4.89981C15.1445 4.98459 16.4819 6.55299 17.4725 7.23121C17.5716 7.35838 17.7202 7.35838 17.8688 7.35838C17.8688 7.35838 17.8688 7.35838 17.9183 7.35838C18.3145 12.9538 18.8099 20.711 18.8099 21.7283C18.7603 21.8555 18.6613 21.9403 18.5622 21.9403Z" fill="#757575"/>
</svg>
