<svg width="24" height="24" viewBox="0 0 24 24" fill="none" xmlns="http://www.w3.org/2000/svg">
<path d="M10.9312 7H5.1417C4.78543 7 4.38462 7.17937 4.16194 7.49327C2.38057 7.67265 1 9.15247 1 10.9462V17H1.97976V16.9552C2.02429 15.8341 2.87045 14.8475 3.98381 14.6682H4.02834V14.713C4.25101 15.1614 4.69636 15.4305 5.18623 15.4305H10.9757C11.6883 15.4305 12.2672 14.8475 12.2672 14.13V8.30045C12.2227 7.58296 11.6437 7 10.9312 7ZM4.87449 8.30045C4.87449 8.12108 5.0081 7.98655 5.18623 7.98655H10.9757C11.1538 7.98655 11.2874 8.12108 11.2874 8.30045V14.13C11.2874 14.3094 11.1538 14.4439 10.9757 14.4439H5.18623C5.0081 14.4439 4.87449 14.3094 4.87449 14.13V8.30045ZM3.89474 8.56951V13.6368H3.8502C3.18219 13.7265 2.51417 14.0404 2.02429 14.5336L1.97976 14.6233V10.9462C1.97976 9.78027 2.73684 8.83857 3.89474 8.56951Z" fill="#757575"/>
<path d="M20.1054 7.58296V7H17.7896C17.0771 7 16.4981 7.58296 16.4981 8.30045V8.34529H14.6277C13.9151 8.34529 13.3362 8.92825 13.3362 9.64574V12.8296C13.3362 13.5471 13.9151 14.13 14.6277 14.13H16.4981V14.1749C16.4981 14.8924 17.0771 15.4753 17.7896 15.4753H20.1054V14.713H20.1499C21.2188 14.9372 21.9759 15.8789 22.0204 16.9552V17H23.0001V10.9462C23.0001 9.24215 21.7977 7.85202 20.1054 7.58296ZM19.1257 14.3991H17.7896C17.6115 14.3991 17.4779 14.2646 17.4779 14.0852V8.25561C17.4779 8.07623 17.6115 7.9417 17.7896 7.9417H19.1257V14.3991ZM22.0204 10.9462V14.6233L21.9313 14.5785C21.4414 14.0852 20.818 13.7713 20.1054 13.6816H20.0609V8.56951H20.1054C21.2188 8.83857 22.0204 9.78027 22.0204 10.9462ZM16.4981 11.7085V13.0987H14.6277C14.4495 13.0987 14.3159 12.9641 14.3159 12.7848V9.6009C14.3159 9.42152 14.4495 9.287 14.6277 9.287H16.4981V10.6771H15.2066V11.6637H16.4981V11.7085Z" fill="#757575"/>
</svg>
