<svg width="32" height="32" viewBox="0 0 32 32" fill="none" xmlns="http://www.w3.org/2000/svg">
<path d="M0 4C0 1.79086 1.79086 0 4 0H28C30.2091 0 32 1.79086 32 4V28C32 30.2091 30.2091 32 28 32H4C1.79086 32 0 30.2091 0 28V4Z" fill="#E9F9F8"/>
<path d="M23.458 15.7638C23.3556 15.6244 23.2531 15.5199 23.1164 15.4502C23.2872 14.6487 24.0046 11.6169 24.0388 9.49122C24.0388 9.1079 23.8338 8.72457 23.458 8.58518C23.1164 8.44579 22.7065 8.51549 22.4332 8.79427C20.9642 10.3276 19.9394 13.9169 19.4953 15.938C19.4953 15.9729 19.4953 15.9729 19.4953 16.0077C18.0263 16.7395 17.1381 17.7153 16.7282 18.4122C16.6598 18.4819 16.4207 18.6213 16.0449 18.6213C15.6692 18.6213 15.43 18.4471 15.3617 18.4122C14.9518 17.7153 14.0635 16.7744 12.5946 16.0077C12.5946 15.9729 12.5946 15.9729 12.5946 15.938C12.0822 13.9517 11.0573 10.3624 9.58835 8.79427C9.31506 8.51549 8.90512 8.41094 8.5635 8.58518C8.22188 8.72457 7.98275 9.1079 7.98275 9.49122C8.01691 11.6169 8.73431 14.6487 8.90512 15.4502C8.80263 15.5547 8.66598 15.6593 8.5635 15.7638C8.11939 16.2865 7.43616 17.4713 7.74361 19.7364C8.01691 21.6879 8.87095 22.6288 9.55419 23.047C10.0666 23.3606 10.6132 23.5 11.2281 23.5C11.6039 23.5 12.0138 23.4303 12.4238 23.2909C13.6536 22.8727 14.5077 21.6879 15.0201 20.6773C15.2251 20.8167 15.5667 20.9561 16.0108 20.9561C16.4549 20.9561 16.7623 20.8167 17.0015 20.6773C17.5139 21.6879 18.4021 22.8727 19.5978 23.2909C20.0077 23.4303 20.4176 23.5 20.7934 23.5C21.3742 23.5 21.9549 23.3258 22.4332 23.047C23.1164 22.6288 23.9705 21.6879 24.2438 19.7364C24.5854 17.4713 23.868 16.2865 23.458 15.7638ZM23.0481 9.42153C23.0481 9.42153 23.0823 9.38668 23.1506 9.38668C23.2189 9.42153 23.2189 9.45638 23.1848 9.45638C23.1506 11.373 22.5357 14.1608 22.2965 15.1017C22.2624 15.1017 22.2624 15.1017 22.2282 15.1017C21.5791 15.2062 20.9642 15.3805 20.4176 15.5896C21.1692 12.6275 22.1257 10.3624 23.0481 9.42153ZM8.87095 9.38668C8.93928 9.35183 8.93928 9.38668 8.97344 9.42153C9.89581 10.3973 10.8182 12.6275 11.5697 15.6244C11.0231 15.4153 10.4424 15.2411 9.75916 15.1366C9.725 15.1366 9.725 15.1366 9.69084 15.1366C9.48587 14.1957 8.87095 11.373 8.83679 9.49122C8.83679 9.45638 8.83679 9.42153 8.87095 9.38668ZM12.1505 22.4894C11.3648 22.7682 10.6132 22.6985 10.0325 22.3152C9.2809 21.8273 8.80263 20.9213 8.63182 19.6319C8.35853 17.6456 8.97344 16.6699 9.24673 16.3562C9.4517 16.1123 9.65668 16.0077 9.725 16.0077C13.3462 16.6699 14.6785 18.7956 14.7809 19.144C14.6785 19.5971 13.6878 21.9667 12.1505 22.4894ZM16.0108 20.0849C15.7033 20.0849 15.4642 19.9455 15.3959 19.9107C15.4642 19.7364 15.4983 19.5971 15.5325 19.4577C15.6692 19.4925 15.84 19.5274 16.0108 19.5274C16.1816 19.5274 16.3524 19.4925 16.489 19.4577C16.5232 19.5971 16.5574 19.7364 16.6257 19.9107C16.5232 19.9804 16.3182 20.0849 16.0108 20.0849ZM23.4239 19.5971C23.2531 20.8864 22.7748 21.8273 22.0233 22.2803C21.4083 22.6637 20.6568 22.7334 19.9052 22.4546C18.3679 21.9319 17.3772 19.5622 17.3089 19.1092C17.4114 18.7607 18.7437 16.635 22.3649 15.9729C22.4332 15.9729 22.6382 16.0774 22.8431 16.3214C23.0823 16.6699 23.6972 17.6456 23.4239 19.5971Z" fill="#13ADAD"/>
</svg>
