<svg width="24" height="24" viewBox="0 0 24 24" fill="none" xmlns="http://www.w3.org/2000/svg">
<path d="M20.9896 19.6812C21.0286 14.971 19.6657 11.0217 19.0427 9.86232C18.2639 8.48551 16.5506 7.94203 15.6161 7.72464L15.8497 7.14493C16.317 5.94928 16.2002 4.64493 15.4214 3.55797C14.7595 2.57971 13.4745 2 12.0338 2C10.593 2 9.30806 2.57971 8.6461 3.55797C7.86733 4.68116 7.71157 5.94928 8.21777 7.14493L8.45141 7.72464C7.51688 7.94203 5.76464 8.48551 5.02481 9.86232C4.36285 11.0217 3.03894 14.9348 3.07788 19.6449L3 20.1884C3 20.2971 3.03894 20.442 3.11682 20.5145C3.19469 20.587 3.35045 20.6594 3.46726 20.6594H6.38766C6.66023 20.6594 6.85492 20.442 6.85492 20.2246V19.6449C6.85492 19.2101 6.9328 18.3043 7.01068 17.2899V19.8623C7.01068 20.2246 7.20537 20.5145 7.51688 20.7319V21.5652C7.51688 21.8188 7.75051 22 7.98414 22H12.5789H15.9276C16.2002 22 16.3949 21.7826 16.3949 21.5652V20.7319C16.7064 20.5145 16.9011 20.2246 16.9011 19.8623V17.2899C17.0179 18.3043 17.0568 19.2101 17.0568 19.6449V20.2246C17.0568 20.4783 17.2905 20.6594 17.5241 20.6594H20.5224C20.6392 20.6594 20.795 20.6232 20.8728 20.5145C20.9507 20.442 21.0286 20.2971 20.9896 20.1884V19.6812ZM18.1082 19.7536V19.6449C18.1082 18.7391 17.6799 13.3043 16.9011 12C16.7843 11.8188 16.5506 11.7464 16.3559 11.7826C16.1613 11.8188 16.0055 12 16.0055 12.2174V19.8261C16.0055 19.9348 15.8497 20.0435 15.5772 20.0435C15.3046 20.0435 15.1099 20.2609 15.1099 20.4783C15.1099 20.6957 15.3046 20.8768 15.5382 20.913V21.0217H12.6957H8.52928V20.913C8.76292 20.8768 8.95761 20.6957 8.95761 20.4783C8.95761 20.2246 8.72398 20.0435 8.49035 20.0435C8.21778 20.0435 8.06202 19.8986 8.06202 19.8261V12.2174C8.06202 12 7.90627 11.8188 7.71157 11.7826C7.51688 11.7464 7.28325 11.8188 7.16643 12C6.38766 13.3043 5.95934 18.7029 5.95934 19.6449V19.7536H3.97347V19.6812C3.97347 15.1159 5.2195 11.3841 5.84252 10.2971C6.66023 8.84783 9.11336 8.55797 9.1523 8.55797C9.30806 8.55797 9.42487 8.44928 9.50275 8.34058C9.58063 8.23188 9.58063 8.08696 9.54169 7.94203L9.11336 6.85507C8.72398 5.91304 8.84079 4.93478 9.46381 4.06522C9.93107 3.37681 10.9435 2.94203 12.0338 2.94203C13.124 2.94203 14.1364 3.37681 14.6037 4.06522C15.1878 4.93478 15.3435 5.91304 14.9542 6.85507L14.5258 7.94203C14.4869 8.08696 14.4869 8.23188 14.5648 8.34058C14.6426 8.44928 14.7595 8.52174 14.9152 8.55797C14.9542 8.55797 17.4073 8.88406 18.225 10.2971C18.848 11.3841 20.0941 15.1159 20.0941 19.6812V19.7174H18.1082V19.7536Z" fill="#757575"/>
<path d="M14.0196 8.23189C14.7594 7.00001 15.032 5.53101 14.4479 4.66144C14.0196 3.97304 13.2019 3.26813 12.1505 3.26813H11.9948H11.9558H11.8001C10.7487 3.26813 10.0089 3.97304 9.58056 4.66144C8.99648 5.53101 9.19119 7.00001 9.93103 8.23189C10.0478 8.44929 10.2036 8.63045 10.3204 8.8116C10.3204 9.10146 10.3983 10.3696 10.0089 11.4203C9.93103 11.6739 10.0478 11.9275 10.3204 12C10.3594 12 10.4372 12.0362 10.4762 12.0362C10.6709 12.0362 10.8656 11.9275 10.9434 11.7464C11.216 11.0217 11.2939 10.2609 11.3328 9.68117C11.5664 9.78987 11.7611 9.86233 11.9948 9.86233C12.2284 9.86233 12.4231 9.78987 12.6567 9.68117C12.6957 10.2609 12.7735 11.0217 13.0461 11.7464C13.124 11.9275 13.3187 12.0362 13.5134 12.0362C13.5523 12.0362 13.6302 12.0362 13.6691 12C13.9417 11.9275 14.0585 11.6739 13.9806 11.4203C13.5913 10.3696 13.6302 9.13769 13.6691 8.8116C13.7859 8.63045 13.9028 8.44929 14.0196 8.23189ZM11.9948 8.88407C11.7222 8.88407 11.2549 8.55798 10.8266 7.79711C10.2036 6.71016 10.1257 5.6397 10.4761 5.13246C10.7098 4.69768 11.1381 4.17392 11.839 4.17392H11.9948H12.0337H12.1895C12.8904 4.17392 13.3966 4.69768 13.6691 5.13246C13.9806 5.60347 13.8638 6.74639 13.2408 7.83334C12.7346 8.55798 12.2673 8.88407 11.9948 8.88407Z" fill="#757575"/>
</svg>
