<svg width="24" height="24" viewBox="0 0 24 24" fill="none" xmlns="http://www.w3.org/2000/svg">
<path d="M21.9609 16.4662L21.8208 16.0109L18.9144 6.34616C18.6343 5.43571 17.8989 4.73536 16.9885 4.49024L15.0975 4H15.0625C15.0275 4 14.9925 4 14.9574 4C14.9224 4 14.8874 4 14.8874 4H14.8524C14.8524 4 13.7669 4.42021 12.016 4.42021C10.2651 4.42021 9.17959 4 9.17959 4C9.14457 4 9.14457 4 9.10956 4C9.07454 4 9.07454 4 9.03952 4C9.0045 4 8.96949 4 8.93447 4H8.89945L7.00852 4.49024C6.09807 4.77038 5.39772 5.47073 5.08256 6.34616L2.17613 16.0109L2.03606 16.4662C1.89599 16.9564 2.17613 17.4817 2.66637 17.6568L4.3472 18.182C4.83744 18.3571 5.3627 18.147 5.57281 17.6568L5.74789 17.2716C5.74789 17.2365 5.74789 17.2365 5.78291 17.2015L6.93848 13.3496L6.83343 18.4271V18.4622L6.90346 19.1625C6.9735 19.6527 7.35869 20.0029 7.84893 20.0029H16.148C16.6383 20.0029 17.0585 19.6527 17.0935 19.1625L17.1635 18.4622V18.4271L17.0585 13.3496L18.2141 17.2015C18.2141 17.2365 18.2141 17.2365 18.2491 17.2716L18.4242 17.6568C18.6343 18.112 19.1945 18.3571 19.6498 18.182L21.3656 17.6217C21.8559 17.4817 22.101 16.9564 21.9609 16.4662ZM14.117 5.12055C13.6268 5.54076 12.7864 5.75087 12.016 5.75087C11.2456 5.75087 10.4052 5.54076 9.91495 5.12055C10.4402 5.22561 11.1406 5.33066 12.016 5.33066C12.8914 5.33066 13.5918 5.22561 14.117 5.12055ZM21.0855 16.8163L19.3696 17.3766C19.3346 17.4116 19.2646 17.3766 19.2296 17.3066L19.0545 16.9564L16.9885 10.093C16.9184 9.88291 16.7083 9.74284 16.4982 9.77786C16.2881 9.81288 16.113 9.98796 16.113 10.2331L16.2531 18.0419H15.4127C15.1676 18.0419 14.9925 18.252 14.9925 18.4622C14.9925 18.6723 15.2026 18.8824 15.4127 18.8824H16.2181L16.1831 19.0925C16.1831 19.1275 16.148 19.1625 16.113 19.1625H7.84893C7.81392 19.1625 7.7789 19.1275 7.7789 19.0925L7.74388 18.8824H8.54928C8.7944 18.8824 8.96949 18.6723 8.96949 18.4622C8.96949 18.252 8.75938 18.0419 8.54928 18.0419H7.70886L7.84893 10.2331C7.84893 10.023 7.70886 9.81288 7.46374 9.77786C7.25364 9.74284 7.04353 9.88291 6.9735 10.093L4.94249 16.9564L4.76741 17.3066C4.73239 17.3416 4.69737 17.3766 4.62734 17.3416L2.94651 16.8163C2.91149 16.7813 2.87647 16.7463 2.87647 16.6763L5.92298 6.59128C6.13308 5.96097 6.62333 5.47073 7.21862 5.29564L8.68935 4.91045C9.14457 6.06602 10.6153 6.59128 11.981 6.59128C13.3467 6.59128 14.8174 6.06602 15.2726 4.91045L16.7083 5.29564C17.3386 5.47073 17.8289 5.96097 18.039 6.59128L21.0154 16.2561L21.1555 16.7113C21.1555 16.7463 21.1205 16.8163 21.0855 16.8163Z" fill="#757575"/>
</svg>
