<svg width="24" height="24" viewBox="0 0 24 24" fill="none" xmlns="http://www.w3.org/2000/svg">
<path d="M21.91 9.03871L19.4654 4.66452C18.7884 3.58065 17.4345 3 16.5319 3H15.0651C14.9899 3 14.9523 3 14.9147 3.03871C14.9147 3.03871 13.7864 3.46452 12.0564 3.46452C10.3264 3.46452 9.19809 3.03871 9.19809 3.03871C9.04766 3 9.01005 3 8.93483 3H7.46807C6.56546 3 5.21153 3.58065 4.49695 4.70323L2.08997 8.96129C2.01475 9.11613 1.97715 9.30968 2.01475 9.50323C2.01475 9.54193 2.01475 9.58065 2.05236 9.61935C2.12758 10.0065 2.31563 10.9742 3.29346 11.5548C4.42174 12.2516 5.5124 11.9032 5.81327 11.7871C5.88849 11.7484 5.96371 11.7097 6.03893 11.671V20.5355C6.03893 20.8064 6.26458 21 6.49024 21H11.9812H17.4721C17.7354 21 17.9234 20.7677 17.9234 20.5355V11.6323C17.961 11.671 18.0362 11.7097 18.0738 11.7484C18.3747 11.8645 19.4654 12.2516 20.5937 11.6323C21.6091 11.0516 21.7971 10.1613 21.91 9.73548C21.91 9.69677 21.9476 9.65806 21.9476 9.61935C22.0228 9.42581 22.0228 9.23226 21.91 9.03871ZM14.3505 4.2C13.9368 5.24516 13.2599 5.63226 11.9812 5.63226C10.7025 5.63226 10.0255 5.24516 9.61179 4.2C10.1759 4.31613 10.9657 4.43226 11.9812 4.43226C12.9966 4.43226 13.7864 4.31613 14.3505 4.2ZM21.045 9.50323C20.9697 9.85161 20.8193 10.3935 20.2176 10.7806C19.5406 11.1677 18.9012 11.0129 18.6004 10.8968L17.961 8.88387C17.8858 8.65161 17.6601 8.53548 17.4345 8.57419C17.2088 8.6129 17.0208 8.80645 17.0208 9.03871V20.071H11.9812H6.97916V9.03871C6.97916 8.80645 6.82872 8.6129 6.60306 8.57419C6.37741 8.53548 6.15176 8.69032 6.07654 8.88387L5.39957 10.9355C5.0987 11.0129 4.45935 11.1677 3.78238 10.7419C3.18064 10.3548 3.06781 9.77419 2.99259 9.42581C2.99259 9.3871 2.99259 9.3871 2.99259 9.34839L5.32436 5.20645C5.81327 4.43226 6.79111 3.96774 7.46807 3.96774H8.59635C9.08527 5.7871 10.1383 6.56129 12.0188 6.6C13.8992 6.6 14.9147 5.7871 15.4412 3.96774H16.5695C17.2464 3.96774 18.2243 4.43226 18.7132 5.16774L21.1202 9.42581C21.045 9.42581 21.045 9.46452 21.045 9.50323Z" fill="#757575"/>
</svg>
