<svg width="20" height="16" viewBox="0 0 20 16" fill="none" xmlns="http://www.w3.org/2000/svg">
<path d="M20.0001 10.1588C20.0001 10.5651 19.8462 10.9715 19.6154 11.2762C19.3847 11.581 19.077 11.7842 18.7693 11.7842C18.3078 11.7842 18.0001 11.6572 18.0001 12.2667C18.0001 12.8762 18.3078 12.7492 18.7693 12.7492C19.4616 12.7492 20.0001 13.4603 20.0001 14.3746C20.0001 14.781 19.8462 15.1873 19.6154 15.4921C19.3847 15.7969 19.077 16 18.7693 16H1.23083C0.538522 16 6.10352e-05 15.2889 6.10352e-05 14.3746C6.10352e-05 13.9683 0.153907 13.5619 0.384676 13.2572C0.615446 12.9524 0.923138 12.7492 1.23083 12.7492H10.6154C11.077 12.7492 11.3847 12.8762 11.3847 12.2667C11.3847 11.6572 11.077 11.7842 10.6154 11.7842H1.23083C0.538522 11.7842 6.10352e-05 11.073 6.10352e-05 10.1588C6.10352e-05 9.75241 0.153907 9.34606 0.384676 9.0413C0.615446 8.73654 0.923138 8.53336 1.23083 8.53336H18.7693C19.4616 8.53336 20.0001 9.24447 20.0001 10.1588Z" fill="white"/>
<path d="M1.23083 7.4667C0.923138 7.4667 0.615446 7.26352 0.384676 6.95876C0.153907 6.654 6.10352e-05 6.24765 6.10352e-05 5.8413C6.10352e-05 4.92701 0.538522 4.2159 1.23083 4.2159C1.69237 4.2159 2.00006 4.34289 2.00006 3.73336C2.00006 3.12384 1.69237 3.25082 1.23083 3.25082C0.923138 3.25082 0.615446 3.04765 0.384676 2.74289C0.153907 2.43813 6.10352e-05 2.03178 6.10352e-05 1.62543C6.10352e-05 0.711142 0.538522 3.05176e-05 1.23083 3.05176e-05H18.7693C19.077 3.05176e-05 19.3847 0.203205 19.6154 0.507967C19.8462 0.812729 20.0001 1.21908 20.0001 1.62543C20.0001 2.53971 19.4616 3.25082 18.7693 3.25082H9.38468C8.92314 3.25082 8.61545 3.12384 8.61545 3.73336C8.61545 4.34289 8.92314 4.2159 9.38468 4.2159H18.7693C19.077 4.2159 19.3847 4.41908 19.6154 4.72384C19.8462 5.0286 20.0001 5.43495 20.0001 5.8413C20.0001 6.75559 19.4616 7.4667 18.7693 7.4667H1.23083Z" fill="white"/>
</svg>
