<svg width="14" height="15" viewBox="0 0 14 15" fill="none" xmlns="http://www.w3.org/2000/svg">
<path d="M7.35781 11.7076C7.36098 11.8339 7.39268 11.9552 7.41328 12.0764C7.47825 12.4571 7.62404 12.8091 7.75082 13.1662C7.7841 13.2622 7.7841 13.2588 7.68585 13.2672C7.23579 13.3026 6.78573 13.343 6.33568 13.3313C5.7636 13.3161 5.1931 13.2774 4.62419 13.2032C4.02517 13.1241 3.43091 13.0213 2.85091 12.8445C2.48801 12.735 2.13145 12.6036 1.82402 12.3594C1.7844 12.3274 1.75587 12.2937 1.73686 12.2449C1.49598 11.6251 1.31532 10.9901 1.22817 10.3265C1.08554 9.24513 1.18379 8.19413 1.60216 7.18523C1.82085 6.65804 2.18533 6.27907 2.64489 5.99274C3.15675 5.67273 3.71774 5.49082 4.29616 5.36955C5.06157 5.20786 5.83808 5.15396 6.61617 5.16912C7.68268 5.18765 8.73175 5.34092 9.73963 5.73673C10.57 6.06348 11.3148 6.53172 11.9313 7.21386C12.3227 7.64673 12.6206 8.14191 12.7569 8.73142C12.9217 9.44556 12.8171 10.1243 12.4732 10.756C12.0264 11.5745 11.3719 12.1253 10.5098 12.3796C10.12 12.4942 9.71903 12.4992 9.31651 12.4622C8.80465 12.4167 8.31815 12.2735 7.85858 12.0259C7.70962 11.9451 7.57016 11.8507 7.43546 11.7463C7.41328 11.7312 7.39743 11.7059 7.35781 11.7076ZM6.41016 6.18475C6.26753 6.18307 6.12491 6.19149 5.98229 6.19486C5.42289 6.2117 4.86824 6.27234 4.32151 6.40203C3.88255 6.50646 3.45785 6.65131 3.07276 6.90732C2.8208 7.07575 2.61003 7.28629 2.48484 7.58104C2.18691 8.28676 2.08708 9.02786 2.13779 9.79422C2.17899 10.4073 2.31844 10.9968 2.51812 11.5728C2.53713 11.6284 2.56724 11.6604 2.61637 11.684C2.80178 11.7733 2.99511 11.839 3.19003 11.8929C3.70982 12.0394 4.23911 12.1303 4.77316 12.1977C5.3072 12.2668 5.84442 12.3055 6.38163 12.3122C6.47672 12.3139 6.4783 12.3122 6.45928 12.2162C6.39273 11.8726 6.3436 11.5274 6.31508 11.1787C6.25803 10.505 6.27863 9.83632 6.41333 9.17271C6.51633 8.66068 6.74295 8.24129 7.17874 7.97348C7.52579 7.75958 7.90454 7.65178 8.30071 7.63999C8.81257 7.62315 9.29749 7.75621 9.75706 7.99706C10.0803 8.16718 10.3672 8.38614 10.5843 8.69942C10.963 9.2485 10.7633 9.93064 10.158 10.1547C9.9187 10.2439 9.67307 10.2591 9.42586 10.2086C9.13744 10.1513 8.86962 10.0199 8.59388 9.91885C8.50197 9.88517 8.46869 9.82116 8.49405 9.74032C8.51623 9.66789 8.57962 9.63589 8.66995 9.66115C8.77137 9.6881 8.87279 9.72011 8.9758 9.74706C9.20717 9.81106 9.43853 9.8818 9.68258 9.87169C9.8981 9.86159 10.093 9.7959 10.2372 9.61231C10.3624 9.4523 10.3719 9.27545 10.2642 9.10028C10.1881 8.97564 10.0851 8.87964 9.96941 8.79879C9.72853 8.62868 9.45913 8.53604 9.18181 8.46025C8.79673 8.35245 8.41164 8.33392 8.02656 8.45351C7.68268 8.55962 7.4418 8.78026 7.36415 9.16765C7.32929 9.34451 7.34038 9.52304 7.35464 9.70326C7.38634 10.1024 7.53213 10.4444 7.79361 10.729C8.06776 11.0271 8.40689 11.2073 8.77929 11.3236C9.26263 11.4751 9.75706 11.5223 10.2467 11.3926C10.86 11.2309 11.318 10.8267 11.6334 10.2507C11.9487 9.67463 11.9519 9.08512 11.646 8.49899C11.4448 8.1116 11.1564 7.80505 10.8362 7.53051C10.3212 7.09259 9.73804 6.79279 9.11208 6.58225C8.23574 6.28918 7.32929 6.18812 6.41016 6.18475Z" fill="#51B8B8"/>
<path d="M3.70301 3.82685C3.75423 3.79973 3.81555 3.79973 3.86677 3.82685L4.51246 4.1687C4.64739 4.24014 4.8027 4.11661 4.76346 3.96906L4.60953 3.39026C4.5913 3.32169 4.61628 3.24889 4.67277 3.20595L5.16701 2.83038C5.2953 2.73289 5.2348 2.52849 5.07411 2.51653L4.37731 2.46467C4.31501 2.46004 4.2599 2.42254 4.23272 2.36629L3.94246 1.76554C3.87877 1.63372 3.69101 1.63372 3.62732 1.76554L3.33706 2.36629C3.30988 2.42254 3.25477 2.46004 3.19247 2.46467L2.49567 2.51653C2.33498 2.52849 2.27448 2.73289 2.40277 2.83038L2.89701 3.20595C2.9535 3.24889 2.97848 3.32169 2.96025 3.39026L2.80632 3.96906C2.76708 4.11661 2.92239 4.24014 3.05732 4.1687L3.70301 3.82685Z" fill="#51B8B8"/>
<path d="M7.20301 3.82685C7.25423 3.79973 7.31555 3.79973 7.36677 3.82685L8.01246 4.1687C8.14739 4.24014 8.3027 4.11661 8.26346 3.96906L8.10953 3.39026C8.0913 3.32169 8.11628 3.24889 8.17277 3.20595L8.66701 2.83038C8.7953 2.73289 8.7348 2.52849 8.57411 2.51653L7.87731 2.46467C7.81501 2.46004 7.7599 2.42254 7.73272 2.36629L7.44246 1.76554C7.37877 1.63372 7.19101 1.63372 7.12732 1.76554L6.83706 2.36629C6.80988 2.42254 6.75477 2.46004 6.69247 2.46467L5.99567 2.51653C5.83498 2.52849 5.77448 2.73289 5.90277 2.83038L6.39701 3.20595C6.4535 3.24889 6.47848 3.32169 6.46025 3.39026L6.30632 3.96906C6.26708 4.11661 6.42239 4.24014 6.55732 4.1687L7.20301 3.82685Z" fill="#51B8B8"/>
<path d="M10.703 3.82685C10.7542 3.79973 10.8156 3.79973 10.8668 3.82685L11.5125 4.1687C11.6474 4.24014 11.8027 4.11661 11.7635 3.96906L11.6095 3.39026C11.5913 3.32169 11.6163 3.24889 11.6728 3.20595L12.167 2.83038C12.2953 2.73289 12.2348 2.52849 12.0741 2.51653L11.3773 2.46467C11.315 2.46004 11.2599 2.42254 11.2327 2.36629L10.9425 1.76554C10.8788 1.63372 10.691 1.63372 10.6273 1.76554L10.3371 2.36629C10.3099 2.42254 10.2548 2.46004 10.1925 2.46467L9.49567 2.51653C9.33498 2.52849 9.27448 2.73289 9.40277 2.83038L9.89701 3.20595C9.9535 3.24889 9.97848 3.32169 9.96025 3.39026L9.80632 3.96906C9.76708 4.11661 9.92239 4.24014 10.0573 4.1687L10.703 3.82685Z" fill="#51B8B8"/>
</svg>
