<svg width="20" height="11" viewBox="0 0 20 11" fill="none" xmlns="http://www.w3.org/2000/svg">
<path fill-rule="evenodd" clip-rule="evenodd" d="M9 8.07019H5C3.35 8.07019 2 6.72019 2 5.07019C2 3.42019 3.35 2.07019 5 2.07019H9V0.0701904H5C2.24 0.0701904 0 2.31019 0 5.07019C0 7.83019 2.24 10.0702 5 10.0702H9V8.07019ZM15 0.0701904H11V2.07019H15C16.65 2.07019 18 3.42019 18 5.07019C18 6.72019 16.65 8.07019 15 8.07019H11V10.0702H15C17.76 10.0702 20 7.83019 20 5.07019C20 2.31019 17.76 0.0701904 15 0.0701904ZM14 4.07019H6V6.07019H14V4.07019Z" fill="white"/>
</svg>
