<svg width="16" height="16" viewBox="0 0 16 16" fill="none" xmlns="http://www.w3.org/2000/svg">
<path fill-rule="evenodd" clip-rule="evenodd" d="M8.00001 1.33331C4.33334 1.33331 1.33334 4.33331 1.33334 7.99998C1.33334 11.6666 4.33334 14.6666 8.00001 14.6666C11.6667 14.6666 14.6667 11.6666 14.6667 7.99998C14.6667 4.33331 11.6667 1.33331 8.00001 1.33331ZM2.66668 7.99998C2.66668 5.06665 5.06668 2.66665 8.00001 2.66665C9.20001 2.66665 10.3333 3.06665 11.2667 3.79998L3.80001 11.2666C3.06668 10.3333 2.66668 9.19998 2.66668 7.99998ZM4.73334 12.2C5.66668 12.9333 6.80001 13.3333 8.00001 13.3333C10.9333 13.3333 13.3333 10.9333 13.3333 7.99998C13.3333 6.79998 12.9333 5.66665 12.2 4.73331L4.73334 12.2Z" fill="#F95557"/>
</svg>
