<svg width="16" height="16" viewBox="0 0 16 16" fill="none" xmlns="http://www.w3.org/2000/svg">
<path d="M4.79577 4.26155C5.82478 4.25942 6.66166 3.44305 6.65948 2.4429C6.6598 2.08269 6.55051 1.73048 6.34545 1.43087C6.14038 1.13125 5.84875 0.897698 5.50749 0.759771C5.16622 0.621844 4.79066 0.585746 4.42834 0.656045C4.06603 0.726345 3.73325 0.899881 3.47213 1.15469C3.21101 1.40949 3.0333 1.73411 2.96148 2.08745C2.88967 2.44079 2.92699 2.80696 3.06871 3.13961C3.21043 3.47225 3.45018 3.75642 3.75762 3.95614C4.06506 4.15586 4.42635 4.26215 4.79577 4.26155Z" fill="#848790"/>
<path d="M15.4983 7.90704C15.4983 6.04822 15.4907 2.61726 15.4874 1.22821C15.4866 1.03528 15.4076 0.850486 15.2676 0.71418C15.1275 0.577875 14.9379 0.501132 14.74 0.500711L8.52261 0.5C8.3244 0.5 8.1343 0.576778 7.99414 0.713444C7.85398 0.850109 7.77524 1.03547 7.77524 1.22874V4.86836C7.77523 4.96503 7.79494 5.06073 7.83323 5.14989C7.87151 5.23906 7.92761 5.31991 7.99825 5.38773C8.06889 5.45555 8.15266 5.50899 8.24469 5.54493C8.33672 5.58088 8.43516 5.59862 8.53428 5.59711C8.73141 5.59379 8.91928 5.51493 9.05723 5.37758C9.19519 5.24024 9.27215 5.05546 9.27144 4.86321L9.25577 2.43063C9.25526 2.3673 9.26762 2.30449 9.29213 2.24584C9.31664 2.18718 9.35281 2.13383 9.39856 2.08888C9.44431 2.04392 9.49874 2.00823 9.55871 1.98388C9.61867 1.95953 9.68298 1.947 9.74794 1.947H9.74976L13.4522 1.96033C13.5814 1.96129 13.7051 2.01152 13.7969 2.10027C13.8886 2.18903 13.9411 2.30926 13.9431 2.43525C13.9587 3.7637 13.995 7.04766 13.995 8.84907C13.995 10.4434 13.9939 13.3303 13.9934 14.5813C13.9934 14.7745 14.0721 14.9599 14.2123 15.0966C14.3524 15.2332 14.5425 15.31 14.7408 15.31H14.7504C14.9486 15.31 15.1387 15.2332 15.2789 15.0966C15.419 14.9599 15.4978 14.7745 15.4978 14.5813C15.4994 13.199 15.4983 9.78169 15.4983 7.90704Z" fill="#848790"/>
<path d="M4.13735 11.2118C4.03184 11.109 3.88881 11.0513 3.73969 11.0513C3.59057 11.0513 3.44754 11.109 3.34203 11.2118L0.742806 13.7462C0.587333 13.8979 0.5 14.1036 0.5 14.3181C0.5 14.5326 0.587333 14.7383 0.742806 14.89C0.898517 15.0414 1.10943 15.1264 1.32931 15.1264C1.5492 15.1264 1.76011 15.0414 1.91582 14.89L4.51504 12.3556C4.62043 12.2527 4.67962 12.1132 4.67962 11.9678C4.67962 11.8224 4.62043 11.683 4.51504 11.5801L4.13735 11.2118Z" fill="#848790"/>
<path d="M5.74146 9.75397C5.70418 9.71783 5.67463 9.67484 5.65451 9.62749C5.63439 9.58014 5.62411 9.52936 5.62425 9.47811V5.89109C5.62425 5.74982 5.56676 5.61433 5.4644 5.51436C5.36204 5.41438 5.22318 5.3581 5.0783 5.35786H4.23322C4.16185 5.3577 4.09114 5.37126 4.02514 5.39776C3.95914 5.42426 3.89915 5.46319 3.8486 5.51232L1.6845 7.60684C1.6334 7.6565 1.59285 7.71551 1.56517 7.78047C1.53749 7.84543 1.52321 7.91508 1.52317 7.98543L1.52518 9.49322C1.52541 9.56374 1.53999 9.63352 1.56807 9.69851C1.59615 9.7635 1.63717 9.82241 1.68876 9.87184C1.74035 9.92127 1.80148 9.96023 1.86861 9.98646C1.93575 10.0127 2.00756 10.0257 2.07987 10.0247L2.63968 10.0161C2.7844 10.0137 2.92223 9.95543 3.02296 9.85407C3.12369 9.75272 3.1791 9.61656 3.17706 9.47544L3.16521 8.73497C3.16424 8.6837 3.17369 8.63276 3.19303 8.58507C3.21236 8.53739 3.2412 8.49391 3.27786 8.45716L3.96544 7.76556V10.0097C3.96519 10.1048 3.98427 10.1991 4.0216 10.2869C4.05893 10.3748 4.11376 10.4546 4.18291 10.5216L6.28413 12.5707C6.32142 12.6068 6.35099 12.6498 6.37111 12.6971C6.39123 12.7445 6.4015 12.7952 6.40134 12.8465V14.9675C6.40134 15.1089 6.45895 15.2446 6.56151 15.3446C6.66406 15.4446 6.80316 15.5007 6.9482 15.5007H7.51492C7.65996 15.5007 7.79906 15.4446 7.90161 15.3446C8.00417 15.2446 8.06178 15.1089 8.06178 14.9675V12.2354C8.06199 12.1655 8.04797 12.0962 8.02053 12.0316C7.99309 11.967 7.95277 11.9083 7.90192 11.859L5.74146 9.75397Z" fill="#848790"/>
<path d="M8.78256 8.49341L6.73767 6.4995C6.70563 6.46829 6.66481 6.44705 6.62039 6.43848C6.57596 6.42991 6.52993 6.43439 6.48811 6.45135C6.4463 6.46831 6.41059 6.49698 6.38551 6.53375C6.36042 6.57051 6.34709 6.61371 6.34721 6.65787L6.35231 8.17845C6.35286 8.29095 6.37699 8.40215 6.42323 8.50522C6.46946 8.60828 6.53683 8.70105 6.62118 8.7778L7.61209 9.67699C7.77371 9.82469 7.98845 9.90443 8.20988 9.89899C8.43131 9.89354 8.64165 9.80334 8.79542 9.64789C8.9492 9.49244 9.03405 9.28422 9.03164 9.06826C9.02924 8.85229 8.93976 8.64556 8.78256 8.49341Z" fill="#848790"/>
<path d="M12.2569 7.05548C12.0862 7.05598 11.9194 7.1057 11.7776 7.1984C11.6357 7.2911 11.5252 7.42263 11.4598 7.57645C11.3944 7.73027 11.3772 7.8995 11.4102 8.06285C11.4432 8.2262 11.5251 8.37638 11.6454 8.4945C11.7658 8.61261 11.9193 8.69338 12.0866 8.72665C12.2539 8.75991 12.4275 8.74419 12.5857 8.68145C12.7439 8.61872 12.8795 8.51177 12.9755 8.37407C13.0715 8.23637 13.1235 8.07406 13.1252 7.90757C13.1267 7.79571 13.1054 7.68467 13.0624 7.58095C13.0194 7.47724 12.9556 7.38294 12.8747 7.30358C12.7939 7.22421 12.6976 7.16139 12.5915 7.11879C12.4854 7.07619 12.3717 7.05466 12.2569 7.05548Z" fill="#848790"/>
</svg>
