<svg width="24" height="22" viewBox="0 0 24 22" fill="none" xmlns="http://www.w3.org/2000/svg">
<path d="M4.17275 2.84874C4.83946 2.85859 5.50617 2.83397 6.16787 2.73058C6.96992 2.60749 7.7018 2.29732 8.37853 1.86897C8.95501 1.50956 9.51645 1.12553 10.0879 0.76119C10.6143 0.426394 11.1657 0.140832 11.7973 0.037439C12.6495 -0.105342 13.3563 0.165449 13.9478 0.76119C14.4942 1.3077 14.8301 1.97237 15.0907 2.67642C15.9329 4.93138 16.2086 7.25033 15.8427 9.6333C15.577 11.391 14.9955 13.0354 13.8576 14.4435C13.0154 15.4824 11.9577 16.2012 10.5992 16.4277C9.41619 16.6246 8.29331 16.3982 7.21054 15.9403C5.48612 15.2116 4.10258 14.0447 2.94461 12.6169C1.48587 10.8199 0.508366 8.79631 0.0822747 6.53151C-0.0330207 5.921 -0.0380336 5.31048 0.137416 4.7049C0.453225 3.62665 1.27533 3.13923 2.32803 2.95214C2.9396 2.84382 3.55618 2.84382 4.17275 2.84874ZM9.18059 13.3259C10.2182 13.2816 11.2108 12.9123 11.9778 12.0507C12.474 11.4944 12.7046 10.8297 12.7096 10.0912C12.7096 10.0026 12.7197 9.89917 12.6044 9.8647C12.4991 9.83516 12.464 9.93363 12.4139 9.99271C12.2735 10.1601 12.1181 10.3029 11.9477 10.4358C11.1256 11.071 10.2634 11.6421 9.19061 11.7947C8.3284 11.9178 7.46619 11.9424 6.609 11.7405C6.54383 11.7258 6.47365 11.6962 6.42352 11.7602C6.36337 11.8341 6.4135 11.8981 6.4536 11.9621C6.49871 12.031 6.54383 12.1 6.59396 12.164C7.23059 12.9419 8.06773 13.3111 9.18059 13.3259ZM11.3562 4.7049C11.2359 4.71967 11.0855 4.72951 10.9401 4.74921C10.1882 4.85752 9.56156 5.36957 9.42622 5.99485C9.25578 6.75799 9.78714 7.33896 10.5391 7.16663C11.3211 6.98939 11.9477 6.54135 12.4139 5.91115C12.6946 5.53204 12.5392 5.06923 12.1131 4.86245C11.8825 4.74921 11.6369 4.72459 11.3562 4.7049ZM5.43098 8.5846C5.88213 8.55998 6.33329 8.53536 6.73933 8.30396C7.12532 8.08733 7.24563 7.7673 7.12532 7.34388C6.99499 6.89092 6.69923 6.61521 6.24807 6.48227C5.48612 6.26072 4.45347 6.62013 4.00232 7.2651C3.66145 7.7476 3.85193 8.27934 4.41838 8.44674C4.75424 8.54521 5.09512 8.5649 5.43098 8.5846Z" fill="white"/>
<path d="M9.69182 17.4516C10.0527 17.4516 10.4287 17.4368 10.7896 17.3581C10.925 17.3285 10.935 17.4418 10.9751 17.5156C11.3561 18.2394 11.8122 18.909 12.3988 19.4899C13.9227 20.9916 15.6471 21.2328 17.5369 20.1989C19.0909 19.3521 20.2188 18.0867 21.101 16.5999C22.1136 14.8963 22.6701 13.0549 22.8004 11.0856C22.8255 10.6671 22.8004 10.2535 22.6651 9.84976C22.4846 9.30326 22.0936 9.03247 21.5221 8.97338C20.9005 8.90938 20.294 9.01277 19.6824 9.1014C18.8503 9.21956 18.0131 9.30326 17.166 9.27372C16.9705 9.26879 16.8802 9.21464 16.9053 9.00293C16.9404 8.74198 16.9454 8.48104 16.9604 8.22009C16.9655 8.12162 16.9855 8.06747 17.1058 8.08224C18.0683 8.18071 19.0157 8.00346 19.9631 7.88037C20.6048 7.79667 21.2514 7.7179 21.9031 7.85083C23.016 8.07731 23.6726 8.74198 23.8982 9.84976C24.0937 10.8148 23.9784 11.7748 23.798 12.7251C23.3167 15.2705 22.234 17.5255 20.4343 19.4309C19.517 20.4008 18.4593 21.1935 17.181 21.6513C15.1257 22.3849 13.3161 21.9418 11.7421 20.4992C10.8448 19.677 10.2031 18.6776 9.69683 17.5895C9.6868 17.5501 9.66174 17.5107 9.69182 17.4516Z" fill="white"/>
<path d="M15.0606 15.778C16.5645 15.7829 17.7074 16.6938 17.9781 18.1019C17.9881 18.1413 17.9981 18.1807 17.9981 18.225C17.9981 18.2939 18.0382 18.3825 17.943 18.4219C17.8678 18.4514 17.8277 18.3776 17.7776 18.3382C16.2336 17.1123 14.5343 16.8267 12.6745 17.5357C12.6093 17.5603 12.5391 17.6391 12.474 17.5701C12.4088 17.4963 12.474 17.4175 12.5091 17.3437C12.9301 16.3984 13.9427 15.778 15.0606 15.778Z" fill="white"/>
<path d="M19.5823 13.8672C18.9958 13.8278 18.3893 13.6801 17.8479 13.3256C17.5421 13.1238 17.2764 12.8776 17.3366 12.4689C17.3917 12.0849 17.7927 11.691 18.1988 11.6024C19.3066 11.371 20.2741 12.3163 20.4395 13.0302C20.5498 13.5176 20.1989 13.877 19.5823 13.8672Z" fill="white"/>
</svg>
