<svg width="20" height="20" viewBox="0 0 20 20" fill="none" xmlns="http://www.w3.org/2000/svg">
<g clip-path="url(#clip0_3393_1858)">
<g clip-path="url(#clip1_3393_1858)">
<path fill-rule="evenodd" clip-rule="evenodd" d="M11.6828 1.25C11.2224 1.25 10.7741 1.41948 10.4006 1.63718C10.1795 1.76605 9.97284 1.91861 9.79186 2.08007C9.61171 1.91956 9.40561 1.7676 9.18522 1.63906C8.81149 1.42109 8.36146 1.25008 7.90058 1.25008C6.64388 1.25008 5.625 2.28344 5.625 3.55818C5.625 4.7188 6.34536 5.70429 7.13155 6.49152C7.66482 7.0255 8.29521 7.52856 8.83344 7.95808L8.83355 7.95817C9.08358 8.1577 9.31372 8.34136 9.50499 8.50487L9.79174 8.75L10.0785 8.50487C10.2709 8.34038 10.5031 8.15543 10.7554 7.95441L10.7555 7.95438L10.7556 7.9543C11.2925 7.52659 11.9207 7.02616 12.4516 6.49532C13.2383 5.70873 13.9583 4.72331 13.9583 3.55825C13.9583 2.28358 12.9396 1.25 11.6828 1.25ZM3.81907 13.1271L2.19807 15.7456C2.01638 16.0391 1.63117 16.1298 1.33768 15.9481C1.04419 15.7664 0.953549 15.3812 1.13524 15.0877L2.76024 12.4627L2.76814 12.4502C3.80965 10.8533 5.56043 9.79167 7.54165 9.79167H11.6667C12.0118 9.79167 12.2917 10.0715 12.2917 10.4167C12.2917 11.1189 12.0575 11.7687 11.6633 12.2917H12.9166C13.5058 12.2917 14.0607 12.0147 14.4148 11.544C15.2232 10.4438 16.5364 9.79167 17.9166 9.79167C18.1387 9.79167 18.344 9.90947 18.4561 10.1011C18.5682 10.2928 18.5702 10.5296 18.4614 10.7231L16.7766 13.7182C15.7878 15.5497 13.8238 16.6667 11.7916 16.6667C8.978 16.6667 6.22355 17.5049 3.88832 19.0617C3.60111 19.2532 3.21307 19.1756 3.0216 18.8884C2.83013 18.6011 2.90774 18.2131 3.19494 18.0216C5.73472 16.3285 8.73027 15.4167 11.7916 15.4167C13.3825 15.4167 14.9167 14.5357 15.6788 13.1204L15.6843 13.1102L15.6844 13.1103L16.7135 11.2807C16.1993 11.4932 15.7483 11.8394 15.4206 12.2863L14.9166 11.9167L15.4166 12.2917C14.8265 13.0786 13.9002 13.5417 12.9166 13.5417H9.16665H9.16663H7.91665C7.57147 13.5417 7.29165 13.2618 7.29165 12.9167C7.29165 12.5715 7.57147 12.2917 7.91665 12.2917H9.16663H9.16665C9.97769 12.2917 10.6742 11.7674 10.9336 11.0417H7.54165C6.02524 11.0417 4.65295 11.8525 3.81907 13.1271Z" fill="#848790"/>
</g>
</g>
<defs>
<clipPath id="clip0_3393_1858">
<rect width="20" height="20" fill="white"/>
</clipPath>
<clipPath id="clip1_3393_1858">
<rect width="20" height="20" fill="white"/>
</clipPath>
</defs>
</svg>
