<svg width="20" height="16" viewBox="0 0 20 16" fill="none" xmlns="http://www.w3.org/2000/svg">
<path d="M8.96799 4.63561H5.56799V16H8.96799V4.63561Z" fill="white"/>
<path d="M14.9281 8.50527H11.5281V16H14.9281V8.50527Z" fill="white"/>
<path d="M20 5.00054H16.6V16H20V5.00054Z" fill="white"/>
<path d="M3.4 8.786H0V16H3.4V8.786Z" fill="white"/>
<path d="M1.70002 7.65915C2.43202 7.65915 3.02802 7.06566 3.02802 6.32782C3.02802 6.15539 2.99603 5.98697 2.93603 5.8386L6.48802 2.61855C6.70802 2.77895 6.98002 2.87519 7.27203 2.87519C7.44803 2.87519 7.61602 2.8391 7.77203 2.77895L11.98 6.24361C11.932 6.37995 11.908 6.52431 11.908 6.67268C11.908 7.40652 12.5 8.00401 13.236 8.00401C13.968 8.00401 14.564 7.41053 14.564 6.67268C14.564 6.47619 14.52 6.28772 14.444 6.1193L17.944 2.61053C18.06 2.64261 18.184 2.66266 18.308 2.66266C19.04 2.66266 19.636 2.06917 19.636 1.33133C19.636 0.597494 19.044 0 18.308 0C17.576 0 16.98 0.593484 16.98 1.33133C16.98 1.59599 17.056 1.8406 17.188 2.04912L13.784 5.46165C13.616 5.38546 13.432 5.34135 13.232 5.34135C12.988 5.34135 12.764 5.40551 12.568 5.5218L8.46002 2.13734C8.54803 1.95689 8.60003 1.75639 8.60003 1.54386C8.60003 0.810025 8.00803 0.212531 7.27203 0.212531C6.54003 0.212531 5.94403 0.806015 5.94403 1.54386C5.94403 1.64812 5.95603 1.74837 5.98002 1.84461L2.32002 5.14887C2.13602 5.05263 1.92803 4.99649 1.70802 4.99649C0.976025 4.99649 0.380025 5.58998 0.380025 6.32782C0.376025 7.06166 0.968025 7.65915 1.70002 7.65915Z" fill="white"/>
</svg>
