<svg width="14" height="12" viewBox="0 0 14 12" fill="none" xmlns="http://www.w3.org/2000/svg">
<path d="M7.97424 0.619493C8.57183 0.271166 9.28921 0 10.0259 0C12.0367 0 13.6667 1.65373 13.6667 3.69321C13.6667 5.5573 12.5147 7.13396 11.2559 8.39252C10.4064 9.24185 9.40128 10.0426 8.54225 10.7269L8.54224 10.7269L8.54221 10.7269C8.13838 11.0486 7.76684 11.3446 7.45893 11.6078L7.00013 12L6.54133 11.6078C6.23528 11.3462 5.86704 11.0523 5.46696 10.733L5.46684 10.7329C4.60568 10.0457 3.59705 9.24079 2.74382 8.38643C1.48593 7.12687 0.333344 5.55007 0.333344 3.69309C0.333344 1.6535 1.96355 0.000120502 3.97428 0.000120502C4.71168 0.000120502 5.43173 0.273739 6.02969 0.622498C6.38231 0.828162 6.71208 1.07129 7.00033 1.32811C7.28989 1.06978 7.62051 0.825678 7.97424 0.619493Z" fill="#D11241"/>
</svg>
