<svg width="48" height="48" viewBox="0 0 48 48" fill="none" xmlns="http://www.w3.org/2000/svg">
<rect width="48" height="48" rx="11" fill="#D11241"/>
<path fill-rule="evenodd" clip-rule="evenodd" d="M10.963 22.2089C10.963 21.0227 11.413 19.8856 12.2131 19.0501L20.9906 9.88378C22.6389 8.1625 25.2977 8.16219 26.9463 9.88309L35.7864 19.1107C36.5868 19.9462 37.0371 21.0836 37.0371 22.2702V34.9575C37.0371 37.4151 35.144 39.4074 32.8089 39.4074H15.1912C12.8561 39.4074 10.963 37.4151 10.963 34.9575V22.2089ZM15.3087 23.3349C15.3087 22.53 15.6087 21.7584 16.1421 21.1914L21.9938 14.9714C23.0926 13.8034 24.8651 13.8032 25.9642 14.971L31.8576 21.2325C32.3912 21.7995 32.6914 22.5713 32.6914 23.3765V31.9857C32.6914 33.6534 31.4294 35.0054 29.8726 35.0054H18.1275C16.5707 35.0054 15.3087 33.6534 15.3087 31.9857V23.3349Z" fill="white"/>
</svg>
