<svg width="18" height="18" viewBox="0 0 18 18" fill="none" xmlns="http://www.w3.org/2000/svg">
<path fill-rule="evenodd" clip-rule="evenodd" d="M0.666687 9.00002C0.666687 4.40002 4.39169 0.666687 8.99169 0.666687C13.6 0.666687 17.3334 4.40002 17.3334 9.00002C17.3334 13.6 13.6 17.3334 8.99169 17.3334C4.39169 17.3334 0.666687 13.6 0.666687 9.00002ZM12.3084 5.66669H14.7667C13.9667 4.29169 12.6917 3.22502 11.1584 2.70002C11.6584 3.62502 12.0417 4.62502 12.3084 5.66669ZM9.00003 2.36669C9.69169 3.36669 10.2334 4.47502 10.5917 5.66669H7.40836C7.76669 4.47502 8.30836 3.36669 9.00003 2.36669ZM2.33335 9.00002C2.33335 9.57502 2.41669 10.1334 2.55002 10.6667H5.36669C5.30002 10.1167 5.25002 9.56669 5.25002 9.00002C5.25002 8.43335 5.30002 7.88335 5.36669 7.33335H2.55002C2.41669 7.86669 2.33335 8.42502 2.33335 9.00002ZM3.23336 12.3334H5.69169C5.95836 13.375 6.34169 14.375 6.84169 15.3C5.30836 14.775 4.03336 13.7167 3.23336 12.3334ZM3.23336 5.66669H5.69169C5.95836 4.62502 6.34169 3.62502 6.84169 2.70002C5.30836 3.22502 4.03336 4.28335 3.23336 5.66669ZM9.00003 15.6334C8.30836 14.6334 7.76669 13.525 7.40836 12.3334H10.5917C10.2334 13.525 9.69169 14.6334 9.00003 15.6334ZM7.05002 10.6667H10.95C11.025 10.1167 11.0834 9.56669 11.0834 9.00002C11.0834 8.43335 11.025 7.87502 10.95 7.33335H7.05002C6.97502 7.87502 6.91669 8.43335 6.91669 9.00002C6.91669 9.56669 6.97502 10.1167 7.05002 10.6667ZM11.1584 15.3C11.6584 14.375 12.0417 13.375 12.3084 12.3334H14.7667C13.9667 13.7084 12.6917 14.775 11.1584 15.3ZM12.75 9.00002C12.75 9.56669 12.7 10.1167 12.6334 10.6667H15.45C15.5834 10.1334 15.6667 9.57502 15.6667 9.00002C15.6667 8.42502 15.5834 7.86669 15.45 7.33335H12.6334C12.7 7.88335 12.75 8.43335 12.75 9.00002Z" fill="#00A350"/>
</svg>
