<svg width="18" height="19" viewBox="0 0 18 19" fill="none" xmlns="http://www.w3.org/2000/svg">
<path d="M11.08 12.8252L13.67 10.2352H4V8.23523H13.67L11.08 5.64523L12.5 4.23523L17.5 9.23523L12.5 14.2352L11.08 12.8252ZM16 0.235229C16.5304 0.235229 17.0391 0.445943 17.4142 0.821016C17.7893 1.19609 18 1.7048 18 2.23523V6.90523L16 4.90523V2.23523H2V16.2352H16V13.5652L18 11.5652V16.2352C18 16.7657 17.7893 17.2744 17.4142 17.6494C17.0391 18.0245 16.5304 18.2352 16 18.2352H2C0.89 18.2352 0 17.3352 0 16.2352V2.23523C0 1.12523 0.89 0.235229 2 0.235229H16Z" fill="white"/>
</svg>
