<svg width="14" height="15" viewBox="0 0 14 15" fill="none" xmlns="http://www.w3.org/2000/svg">
<path d="M7.55046 13.3332C6.09426 13.3332 4.63805 13.3332 3.20391 13.3332C2.96121 13.3332 2.89502 13.2684 2.89502 13.0305C2.89502 11.5168 2.89502 10.0248 2.89502 8.51111C2.89502 8.27325 2.96121 8.20837 3.20391 8.20837C6.11632 8.20837 9.02873 8.20837 11.9411 8.20837C12.1838 8.20837 12.25 8.27325 12.25 8.51111C12.25 10.0248 12.25 11.5168 12.25 13.0305C12.25 13.2684 12.1838 13.3332 11.9411 13.3332C10.4629 13.3332 9.00666 13.3332 7.55046 13.3332ZM7.63871 11.1925C7.7711 11.2141 7.94761 11.2141 8.03586 11.0195C8.05792 10.9762 8.12412 10.933 8.19031 10.8897C8.2565 10.8465 8.34475 10.7816 8.41094 10.7384C8.89635 10.3275 8.85222 9.63555 8.34475 9.26794C7.72697 8.81384 6.80029 9.09495 6.51347 9.78691C6.4914 9.85179 6.4914 9.89503 6.55759 9.91666C6.71204 9.95991 6.86648 10.0248 6.99887 10.0896C7.06506 10.1113 7.10919 10.1113 7.15331 10.0248C7.24157 9.87341 7.35189 9.76529 7.5284 9.74367C7.72697 9.70042 7.94761 9.78691 8.0138 9.95991C8.07999 10.0896 8.0138 10.2194 7.81522 10.3491C7.68284 10.4356 7.55046 10.5437 7.44014 10.6519C7.32982 10.7816 7.26363 10.9114 7.2195 11.0843C7.19744 11.1708 7.24157 11.2141 7.32982 11.2141C7.44014 11.1925 7.50633 11.1925 7.63871 11.1925ZM7.61665 12.4683C7.85935 12.4683 8.07999 12.2737 8.07999 12.0358C8.07999 11.7979 7.88142 11.6033 7.63871 11.6033C7.39601 11.6033 7.17538 11.7979 7.17538 12.0358C7.15331 12.2737 7.37395 12.4683 7.61665 12.4683Z" fill="#EBB446"/>
<path d="M5.0352 7.55976C4.7925 7.55976 4.52774 7.55976 4.28504 7.55976C4.19678 7.55976 4.13059 7.53813 4.08647 7.45164C3.68932 6.88942 3.29217 6.3272 2.89503 5.7866C2.74058 5.57036 2.78471 5.419 3.04947 5.3325C3.53487 5.15951 4.02027 4.98652 4.48361 4.81353C4.57187 4.7919 4.61599 4.74866 4.57187 4.66216C4.37329 4.12157 4.17472 3.58097 3.95408 3.04037C3.84377 2.73764 3.579 2.6079 3.29217 2.65114C2.96122 2.73764 2.74058 2.9755 2.76264 3.25661C2.76264 3.32148 2.78471 3.38635 2.80677 3.45123C2.89503 3.75396 2.74058 4.01345 2.47582 4.09994C2.18899 4.18644 1.92422 4.03507 1.83597 3.75396C1.50501 2.80251 2.16692 1.80781 3.18185 1.67807C3.95408 1.59157 4.63806 2.00243 4.92489 2.71601C5.12346 3.23499 5.32203 3.77558 5.52061 4.29456C5.56473 4.40268 5.60886 4.4243 5.71918 4.38105C6.20458 4.20806 6.66792 4.03507 7.15332 3.86208C7.39602 3.77558 7.5284 3.84046 7.55047 4.09994C7.57253 4.25131 7.57253 4.40268 7.59459 4.55404C7.61666 4.68379 7.57253 4.7919 7.50634 4.92165C6.99887 5.76498 6.51347 6.58668 6.02807 7.43001C5.98394 7.51651 5.91775 7.55976 5.80743 7.55976C5.54267 7.53813 5.29997 7.55976 5.0352 7.55976Z" fill="#EBB446"/>
<path d="M8.94049 7.55982C8.25652 7.55982 7.57255 7.55982 6.88857 7.55982C6.73412 7.55982 6.73412 7.55982 6.80032 7.43007C7.63874 6.0029 8.49922 4.5541 9.33764 3.12693C9.49209 2.84582 9.75685 2.78094 10.0437 2.93231C10.2202 3.04043 10.4188 3.14855 10.5953 3.25667C10.86 3.40804 10.9262 3.66752 10.7718 3.90538C10.7277 3.99188 10.6615 4.1 10.5953 4.18649C10.5291 4.27299 10.5511 4.31624 10.6394 4.35949C11.0586 4.59735 11.4999 4.83521 11.9191 5.07307C12.228 5.24606 12.2942 5.50555 12.1177 5.80828C11.8088 6.34888 11.4778 6.88948 11.1689 7.43007C11.1248 7.51657 11.0586 7.55982 10.9483 7.55982C10.3084 7.55982 9.62447 7.55982 8.94049 7.55982ZM11.1248 5.72179C11.1248 5.65692 11.0807 5.65692 11.0365 5.63529C10.5511 5.35418 10.0437 5.07307 9.55828 4.79196C9.47002 4.74872 9.44796 4.74872 9.40383 4.83521C9.20526 5.18119 9.00669 5.52717 8.78605 5.87316C8.74192 5.95965 8.76398 5.98127 8.83018 6.02452C9.31558 6.30563 9.82304 6.58674 10.3084 6.86785C10.3967 6.9111 10.4188 6.9111 10.4629 6.8246C10.6615 6.47862 10.8821 6.13264 11.0807 5.78666C11.1027 5.76504 11.1248 5.74341 11.1248 5.72179Z" fill="#EBB446"/>
</svg>
