<svg width="16" height="18" viewBox="0 0 16 18" fill="none" xmlns="http://www.w3.org/2000/svg">
<path d="M8.78631 17.3332C6.70602 17.3332 4.62573 17.3332 2.57696 17.3332C2.23024 17.3332 2.13568 17.2405 2.13568 16.9007C2.13568 14.7383 2.13568 12.6068 2.13568 10.4444C2.13568 10.1046 2.23024 10.012 2.57696 10.012C6.73754 10.012 10.8981 10.012 15.0587 10.012C15.4054 10.012 15.5 10.1046 15.5 10.4444C15.5 12.6068 15.5 14.7383 15.5 16.9007C15.5 17.2405 15.4054 17.3332 15.0587 17.3332C12.9469 17.3332 10.8666 17.3332 8.78631 17.3332ZM8.91239 14.2749C9.10151 14.3058 9.35366 14.3058 9.47974 14.0278C9.51126 13.966 9.60582 13.9043 9.70038 13.8425C9.79494 13.7807 9.92101 13.688 10.0156 13.6262C10.709 13.0393 10.646 12.0508 9.92101 11.5256C9.03847 10.8769 7.71465 11.2785 7.30489 12.267C7.27337 12.3597 7.27337 12.4215 7.36793 12.4524C7.58857 12.5141 7.8092 12.6068 7.99832 12.6995C8.09288 12.7304 8.15592 12.7304 8.21896 12.6068C8.34504 12.3906 8.50263 12.2361 8.75479 12.2052C9.03847 12.1435 9.35366 12.267 9.44822 12.5141C9.54278 12.6995 9.44822 12.8848 9.16454 13.0702C8.97543 13.1938 8.78631 13.3482 8.62871 13.5027C8.47111 13.688 8.37656 13.8734 8.31352 14.1205C8.282 14.2441 8.34504 14.3058 8.47111 14.3058C8.62871 14.2749 8.72327 14.2749 8.91239 14.2749ZM8.88087 16.0975C9.22758 16.0975 9.54278 15.8195 9.54278 15.4797C9.54278 15.1399 9.2591 14.8619 8.91239 14.8619C8.56567 14.8619 8.25048 15.1399 8.25048 15.4797C8.21896 15.8195 8.53415 16.0975 8.88087 16.0975Z" fill="#DDDFE4"/>
<path d="M5.19315 9.08538C4.84643 9.08538 4.4682 9.08538 4.12148 9.08538C3.99541 9.08538 3.90085 9.05449 3.83781 8.93092C3.27046 8.12775 2.7031 7.32458 2.13575 6.5523C1.91512 6.24339 1.97815 6.02715 2.35639 5.90358C3.04982 5.65645 3.74325 5.40933 4.40516 5.1622C4.53124 5.1313 4.59428 5.06952 4.53124 4.94596C4.24756 4.17368 3.96389 3.4014 3.64869 2.62912C3.49109 2.19664 3.11286 2.01129 2.7031 2.07307C2.23031 2.19664 1.91512 2.53644 1.94663 2.93803C1.94663 3.0307 1.97815 3.12338 2.00967 3.21605C2.13575 3.64853 1.91512 4.01922 1.53688 4.14279C1.12713 4.26635 0.748891 4.05011 0.622813 3.64853C0.150019 2.28931 1.09561 0.868316 2.54551 0.682969C3.64869 0.559404 4.6258 1.14634 5.03555 2.16575C5.31923 2.90714 5.60291 3.67942 5.88658 4.42081C5.94962 4.57526 6.01266 4.60615 6.17026 4.54437C6.86369 4.29724 7.5256 4.05011 8.21903 3.80298C8.56574 3.67942 8.75486 3.77209 8.78638 4.14279C8.8179 4.35902 8.8179 4.57526 8.84942 4.7915C8.88094 4.97685 8.8179 5.1313 8.72334 5.31665C7.99839 6.52141 7.30496 7.69528 6.61153 8.90003C6.54849 9.0236 6.45393 9.08538 6.29634 9.08538C5.9181 9.05449 5.57138 9.08538 5.19315 9.08538Z" fill="#DDDFE4"/>
<path d="M10.772 9.08545C9.79488 9.08545 8.81778 9.08545 7.84067 9.08545C7.62003 9.08545 7.62003 9.08545 7.71459 8.9001C8.91234 6.86128 10.1416 4.79157 11.3393 2.75275C11.56 2.35117 11.9382 2.25849 12.348 2.47473C12.6001 2.62919 12.8838 2.78364 13.136 2.9381C13.5142 3.15434 13.6088 3.52503 13.3881 3.86484C13.3251 3.9884 13.2305 4.14286 13.136 4.26642C13.0414 4.38999 13.0729 4.45177 13.199 4.51355C13.7979 4.85335 14.4283 5.19316 15.0271 5.53296C15.4684 5.78009 15.563 6.15079 15.3108 6.58326C14.8695 7.35554 14.3967 8.12782 13.9555 8.9001C13.8924 9.02367 13.7979 9.08545 13.6403 9.08545C12.7262 9.08545 11.7491 9.08545 10.772 9.08545ZM13.8924 6.4597C13.8924 6.36702 13.8294 6.36702 13.7663 6.33613C13.0729 5.93455 12.348 5.53296 11.6545 5.13138C11.5285 5.06959 11.4969 5.06959 11.4339 5.19316C11.1502 5.68742 10.8665 6.18168 10.5514 6.67594C10.4883 6.7995 10.5198 6.83039 10.6144 6.89217C11.3078 7.29376 12.0328 7.69535 12.7262 8.09693C12.8523 8.15871 12.8838 8.15871 12.9468 8.03515C13.2305 7.54089 13.5457 7.04663 13.8294 6.55237C13.8609 6.52148 13.8924 6.49059 13.8924 6.4597Z" fill="#DDDFE4"/>
</svg>
