<svg width="24" height="24" viewBox="0 0 24 24" fill="none" xmlns="http://www.w3.org/2000/svg">
<path d="M12.6133 19.213C12.6187 19.4295 12.673 19.6374 12.7083 19.8453C12.8197 20.4979 13.0697 21.1013 13.287 21.7135C13.344 21.878 13.344 21.8723 13.1756 21.8867C12.4041 21.9473 11.6325 22.0166 10.861 21.9964C9.88031 21.9704 8.90232 21.904 7.92705 21.777C6.90016 21.6413 5.88142 21.4651 4.88713 21.162C4.26502 20.9743 3.65377 20.7491 3.12674 20.3304C3.05883 20.2755 3.00993 20.2178 2.97733 20.1341C2.5644 19.0715 2.2547 17.983 2.10529 16.8453C1.86079 14.9916 2.02922 13.1899 2.74641 11.4604C3.12131 10.5566 3.74614 9.90698 4.53396 9.41612C5.41144 8.86752 6.37313 8.55568 7.3647 8.34779C8.67684 8.0706 10.008 7.97821 11.3419 8.00419C13.1702 8.03596 14.9686 8.29871 16.6964 8.97724C18.1199 9.53739 19.3967 10.3401 20.4535 11.5095C21.1245 12.2515 21.6352 13.1004 21.8689 14.111C22.1514 15.3352 21.9721 16.4989 21.3826 17.5816C20.6165 18.9849 19.4945 19.9291 18.0167 20.3651C17.3484 20.5614 16.661 20.5701 15.971 20.5065C15.0935 20.4286 14.2595 20.1831 13.4717 19.7587C13.2163 19.6201 12.9773 19.4584 12.7464 19.2794C12.7083 19.2534 12.6812 19.2101 12.6133 19.213ZM10.9887 9.74528C10.7442 9.7424 10.4997 9.75683 10.2552 9.76261C9.29624 9.79148 8.34541 9.89543 7.40817 10.1178C6.65566 10.2968 5.9276 10.5451 5.26746 10.984C4.83551 11.2727 4.4742 11.6336 4.25958 12.1389C3.74885 13.3487 3.57771 14.6192 3.66464 15.9329C3.73527 16.9839 3.97434 17.9945 4.31663 18.982C4.34923 19.0773 4.40085 19.1321 4.48506 19.1726C4.80291 19.3256 5.13434 19.4382 5.46849 19.5306C6.35955 19.7818 7.2669 19.9377 8.18241 20.0532C9.09792 20.1716 10.0189 20.238 10.9398 20.2496C11.1028 20.2524 11.1055 20.2496 11.0729 20.085C10.9588 19.496 10.8746 18.904 10.8257 18.3064C10.7279 17.1514 10.7632 16.0051 10.9941 14.8675C11.1707 13.9897 11.5592 13.2708 12.3063 12.8117C12.9012 12.445 13.5505 12.2602 14.2297 12.24C15.1071 12.2111 15.9384 12.4392 16.7262 12.8521C17.2804 13.1437 17.7722 13.5191 18.1443 14.0561C18.7936 14.9974 18.4513 16.1668 17.4136 16.5508C17.0033 16.7039 16.5823 16.7298 16.1585 16.6432C15.664 16.5451 15.2049 16.3198 14.7322 16.1466C14.5747 16.0888 14.5176 15.9791 14.5611 15.8405C14.5991 15.7164 14.7078 15.6615 14.8626 15.7048C15.0365 15.751 15.2104 15.8059 15.3869 15.8521C15.7836 15.9618 16.1802 16.0831 16.5986 16.0657C16.968 16.0484 17.3022 15.9358 17.5494 15.6211C17.764 15.3468 17.7803 15.0436 17.5956 14.7433C17.4652 14.5297 17.2886 14.3651 17.0903 14.2265C16.6773 13.9349 16.2155 13.7761 15.7401 13.6461C15.08 13.4613 14.4198 13.4296 13.7597 13.6346C13.1702 13.8165 12.7572 14.1947 12.6241 14.8588C12.5644 15.162 12.5834 15.4681 12.6078 15.777C12.6622 16.4613 12.9121 17.0475 13.3603 17.5354C13.8303 18.0465 14.4117 18.3554 15.0501 18.5547C15.8787 18.8145 16.7262 18.8954 17.5657 18.6731C18.617 18.3959 19.4021 17.7029 19.9428 16.7154C20.4834 15.7279 20.4888 14.7173 19.9645 13.7125C19.6195 13.0484 19.125 12.5229 18.5763 12.0523C17.6934 11.3016 16.6936 10.7876 15.6206 10.4267C14.1183 9.9243 12.5644 9.75106 10.9887 9.74528Z" fill="#3A3C40"/>
<path d="M5.85963 6.09274C5.94744 6.04625 6.05256 6.04625 6.14037 6.09274L7.24726 6.67877C7.47857 6.80123 7.74482 6.58947 7.67755 6.33653L7.41368 5.34431C7.38241 5.22675 7.42523 5.10195 7.52209 5.02835L8.36934 4.38451C8.58927 4.21738 8.48556 3.86698 8.21009 3.84648L7.01557 3.75758C6.90877 3.74963 6.81431 3.68535 6.76772 3.58892L6.27012 2.55907C6.16094 2.33309 5.83906 2.33308 5.72988 2.55907L5.23229 3.58892C5.18569 3.68535 5.09123 3.74963 4.98443 3.75758L3.78991 3.84648C3.51444 3.86698 3.41073 4.21738 3.63066 4.38451L4.47791 5.02835C4.57477 5.10195 4.61759 5.22675 4.58632 5.34431L4.32245 6.33653C4.25518 6.58947 4.52143 6.80123 4.75274 6.67877L5.85963 6.09274Z" fill="#3A3C40"/>
<path d="M11.8596 6.09274C11.9474 6.04625 12.0526 6.04625 12.1404 6.09274L13.2473 6.67877C13.4786 6.80123 13.7448 6.58947 13.6776 6.33653L13.4137 5.34431C13.3824 5.22675 13.4252 5.10195 13.5221 5.02835L14.3693 4.38451C14.5893 4.21738 14.4856 3.86698 14.2101 3.84648L13.0156 3.75758C12.9088 3.74963 12.8143 3.68535 12.7677 3.58892L12.2701 2.55907C12.1609 2.33309 11.8391 2.33308 11.7299 2.55907L11.2323 3.58892C11.1857 3.68535 11.0912 3.74963 10.9844 3.75758L9.78991 3.84648C9.51444 3.86698 9.41073 4.21738 9.63066 4.38451L10.4779 5.02835C10.5748 5.10195 10.6176 5.22675 10.5863 5.34431L10.3224 6.33653C10.2552 6.58947 10.5214 6.80123 10.7527 6.67877L11.8596 6.09274Z" fill="#3A3C40"/>
<path d="M17.8596 6.09274C17.9474 6.04625 18.0526 6.04625 18.1404 6.09274L19.2473 6.67877C19.4786 6.80123 19.7448 6.58947 19.6776 6.33653L19.4137 5.34431C19.3824 5.22675 19.4252 5.10195 19.5221 5.02835L20.3693 4.38451C20.5893 4.21738 20.4856 3.86698 20.2101 3.84648L19.0156 3.75758C18.9088 3.74963 18.8143 3.68535 18.7677 3.58892L18.2701 2.55907C18.1609 2.33309 17.8391 2.33308 17.7299 2.55907L17.2323 3.58892C17.1857 3.68535 17.0912 3.74963 16.9844 3.75758L15.7899 3.84648C15.5144 3.86698 15.4107 4.21738 15.6307 4.38451L16.4779 5.02835C16.5748 5.10195 16.6176 5.22675 16.5863 5.34431L16.3224 6.33653C16.2552 6.58947 16.5214 6.80123 16.7527 6.67877L17.8596 6.09274Z" fill="#3A3C40"/>
</svg>
