<svg width="24" height="24" viewBox="0 0 24 24" fill="none" xmlns="http://www.w3.org/2000/svg">
<path d="M11.9251 19.9973C9.40887 19.9973 6.89009 19.9973 4.3739 19.9973C3.15723 19.9973 2.13211 19.0403 2.01303 17.7786C1.94055 17.0049 2.17094 16.3282 2.69126 15.7648C2.76634 15.6839 2.78187 15.6435 2.69644 15.5491C2.21236 15.0234 2.03115 14.3818 2.07775 13.6647C2.11658 13.0447 2.37027 12.519 2.78705 12.0795C2.844 12.0175 2.84917 11.9852 2.78963 11.9205C2.35474 11.4676 2.10622 10.923 2.06998 10.2814C2.03115 9.58045 2.25119 8.9658 2.70162 8.44819C2.77669 8.36192 2.7741 8.32148 2.69644 8.23791C1.39434 6.83606 2.00527 4.54726 3.81475 4.07009C3.9856 4.02426 4.15904 4 4.33766 4C9.40629 4 14.4749 4 19.5435 4.0027C20.6515 4.0027 21.7154 4.95973 21.8941 6.09739C22.0235 6.92233 21.819 7.64212 21.2831 8.25948C21.2236 8.32957 21.2236 8.36462 21.2857 8.42932C21.775 8.95232 22.0235 9.57776 21.9976 10.311C21.9743 10.9176 21.7594 11.4433 21.3686 11.8908C21.2909 11.9798 21.2987 12.0175 21.3763 12.1011C22.184 12.9557 22.2099 14.4465 21.4384 15.3981C21.3686 15.4844 21.2417 15.5653 21.2391 15.6489C21.2365 15.7297 21.3686 15.8133 21.4333 15.8996C21.8086 16.4037 21.9588 16.9779 21.9277 17.6115C21.8733 18.7491 20.9802 19.7601 19.9267 19.9596C19.7869 19.9865 19.6471 20 19.5021 20C16.9756 19.9973 14.4516 19.9973 11.9251 19.9973ZM12.0519 5.52047C10.2761 5.52047 8.50025 5.52047 6.72442 5.52047C5.94782 5.52047 5.1738 5.50969 4.3972 5.53395C3.77851 5.55282 3.33326 6.24297 3.49893 6.86571C3.61283 7.29705 4.06844 7.723 4.54476 7.7203C4.91235 7.71761 5.16345 7.9845 5.18416 8.35653C5.20487 8.75552 4.9926 9.03589 4.61983 9.0925C4.54734 9.10329 4.47486 9.10598 4.40238 9.11137C3.78369 9.15181 3.32808 9.83387 3.49893 10.4566C3.61024 10.8637 4.0555 11.3058 4.58876 11.3031C8.62192 11.295 12.6577 11.2977 16.6908 11.2977C17.6875 11.2977 18.6815 11.3031 19.6781 11.2923C20.2658 11.2869 20.724 10.71 20.6618 10.1035C20.6178 9.66672 20.1519 9.0952 19.5384 9.10059C17.7832 9.11676 16.0307 9.10598 14.2756 9.10598C13.3799 9.10598 12.4816 9.10598 11.5859 9.10598C11.2261 9.10598 10.988 8.94423 10.9025 8.64768C10.755 8.14086 11.0501 7.71491 11.5601 7.71491C12.7457 7.71222 13.9313 7.71491 15.1143 7.71491C16.6235 7.71491 18.1301 7.71761 19.6393 7.71222C20.258 7.70952 20.7291 7.14069 20.6541 6.50177C20.5868 5.94912 20.0923 5.51778 19.5202 5.51778C17.0325 5.52047 14.5422 5.52047 12.0519 5.52047ZM12.0493 18.4768C14.053 18.4768 16.0566 18.4768 18.0602 18.4768C18.5935 18.4768 19.1293 18.4876 19.6626 18.466C20.1959 18.4445 20.68 17.8945 20.6696 17.3607C20.6593 16.7515 20.2166 16.2959 19.6186 16.2824C19.0025 16.2689 18.8446 15.6893 18.9999 15.293C19.1216 14.983 19.3753 14.894 19.6704 14.8886C20.1441 14.8778 20.8198 14.2767 20.6385 13.5299C20.5117 13.0123 20.1208 12.6996 19.5875 12.6996C17.3121 12.6996 15.0367 12.6996 12.7612 12.6996C10.012 12.6996 7.26286 12.6996 4.51369 12.7023C4.05291 12.7023 3.574 13.1309 3.4834 13.6081C3.38762 14.1122 3.65425 14.6136 4.12021 14.8158C4.29365 14.8913 4.47227 14.894 4.65348 14.894C7.27063 14.894 9.88519 14.894 12.5023 14.894C12.5826 14.894 12.6654 14.8994 12.7457 14.9129C13.0356 14.9587 13.2479 15.2067 13.2582 15.5141C13.2738 15.905 13.1055 16.1746 12.7949 16.2554C12.681 16.2851 12.5645 16.2824 12.448 16.2824C9.81012 16.2824 7.17226 16.2797 4.5344 16.2851C4.07879 16.2851 3.76556 16.552 3.56624 16.9564C3.37985 17.3392 3.43939 17.7166 3.68273 18.0563C3.91571 18.3825 4.24965 18.4822 4.62759 18.4822C7.10237 18.4741 9.57455 18.4768 12.0493 18.4768Z" fill="#3A3C40"/>
</svg>
