<svg width="24" height="24" viewBox="0 0 24 24" fill="none" xmlns="http://www.w3.org/2000/svg">
<path d="M11.9911 20.999C10.1607 20.9905 8.38564 20.7064 6.69206 20.0131C6.59021 19.9705 6.5291 19.9136 6.49127 19.8113C6.31959 19.3681 6.26139 18.9021 6.21483 18.439C6.15081 17.8338 6.09843 17.2257 6.04605 16.6177C6.00822 16.1886 5.98203 15.7596 5.95294 15.3306C5.9413 15.1516 5.92675 14.9725 5.92093 14.7935C5.91802 14.6941 5.86273 14.643 5.77252 14.6089C4.95774 14.2992 4.22152 13.8559 3.55224 13.3075C2.429 12.3841 1.55893 11.276 1.02059 9.93202C0.985674 9.84109 0.994404 9.77574 1.0526 9.69618C2.05362 8.34087 3.06919 6.99407 4.17787 5.71263C4.67547 5.13868 5.1818 4.57325 5.77252 4.08454C6.04605 3.86008 6.36033 3.72369 6.69206 3.61004C7.48938 3.33159 8.31289 3.16679 9.13931 3.00483C9.2237 2.98778 9.26735 3.0162 9.29936 3.08439C9.33137 3.15827 9.37211 3.2293 9.40121 3.30317C9.55544 3.72085 9.8668 3.98509 10.2713 4.14705C11.4294 4.61019 12.5905 4.61019 13.7457 4.13853C14.1357 3.97941 14.4354 3.72369 14.5867 3.32306C14.6071 3.26624 14.642 3.21225 14.6624 3.15542C14.706 3.0304 14.7759 2.98494 14.9214 3.01336C15.6809 3.16679 16.4345 3.33727 17.1766 3.55889C17.84 3.75779 18.3609 4.14421 18.8265 4.62724C19.8537 5.68706 20.7732 6.83496 21.6695 7.99991C22.1002 8.55965 22.5192 9.12792 22.9441 9.6905C23.0052 9.7729 23.0168 9.84393 22.9761 9.9377C22.1467 11.9181 20.7383 13.3729 18.8061 14.3588C18.6228 14.4526 18.4278 14.5293 18.2358 14.6032C18.1252 14.6458 18.0815 14.7055 18.0757 14.822C18.0146 15.8022 17.9419 16.7825 17.8517 17.7627C17.808 18.2486 17.7556 18.7316 17.6742 19.2118C17.6363 19.4334 17.5636 19.6409 17.4908 19.854C17.4646 19.9278 17.4152 19.9676 17.3424 19.9989C16.2366 20.4535 15.0872 20.7433 13.8971 20.8854C13.2685 20.9592 12.6312 21.0076 11.9911 20.999ZM16.4374 10.4378C16.4956 10.4435 16.5131 10.4946 16.5422 10.5287C17.1125 11.2049 17.68 11.8812 18.2474 12.5574C18.3813 12.7194 18.3842 12.7194 18.5646 12.6086C18.8381 12.4381 19.1029 12.2562 19.3532 12.0517C19.9992 11.5203 20.5492 10.9094 20.9857 10.1991C21.0701 10.0627 21.0671 9.96327 20.9682 9.83257C20.3309 9.00006 19.6849 8.17039 19.0156 7.3606C18.4889 6.72414 17.9622 6.08768 17.3599 5.51658C17.2115 5.37451 17.0427 5.27222 16.8477 5.20119C16.4753 5.07049 16.097 4.97104 15.7158 4.87443C15.6256 4.8517 15.5645 4.86875 15.4975 4.93694C15.2094 5.23244 14.8661 5.45123 14.4907 5.62171C13.3238 6.15019 12.0987 6.25817 10.8445 6.03654C9.94828 5.87743 9.12185 5.55635 8.46712 4.90569C8.41183 4.8517 8.35654 4.85739 8.29543 4.87443C8.00153 4.95399 7.70472 5.02787 7.41372 5.11595C7.10527 5.20687 6.8201 5.33189 6.5873 5.56772C6.24393 5.91436 5.90929 6.27237 5.59501 6.64175C4.71039 7.68168 3.85778 8.75002 3.03718 9.83825C2.94115 9.96327 2.92951 10.057 3.0139 10.1906C3.63954 11.1993 4.46305 12.0176 5.49317 12.6398C5.59501 12.7023 5.65321 12.6824 5.72305 12.6C5.9413 12.3301 6.16536 12.063 6.38943 11.7931C6.7619 11.3442 7.13146 10.8952 7.50393 10.4463C7.52721 10.4179 7.54467 10.3696 7.58832 10.3838C7.63488 10.398 7.61742 10.4491 7.61451 10.4832C7.60578 10.6566 7.58541 10.8327 7.57959 11.006C7.54758 11.7817 7.4079 12.5546 7.4952 13.3388C7.55922 13.8928 7.5825 14.4497 7.62324 15.0066C7.66689 15.592 7.71345 16.1744 7.76001 16.7598C7.80365 17.3451 7.85894 17.9275 7.92005 18.51C7.93751 18.6777 8.01317 18.743 8.16449 18.7913C9.26444 19.1351 10.3964 19.3027 11.5487 19.3425C12.3228 19.3681 13.0968 19.3312 13.868 19.226C14.5547 19.1323 15.2298 18.9845 15.8904 18.7743C16.0009 18.7402 16.0621 18.6862 16.0766 18.5583C16.1319 18.0469 16.1843 17.5354 16.2221 17.0212C16.2774 16.2909 16.3327 15.5607 16.388 14.8305C16.4229 14.3844 16.4636 13.9355 16.4927 13.4894C16.5073 13.245 16.5684 13.0035 16.5538 12.7563C16.5102 12.0289 16.4636 11.3044 16.42 10.577C16.4142 10.5287 16.3967 10.4776 16.4374 10.4378Z" fill="#3A3C40"/>
<path d="M12.6864 14.3843C11.6476 14.3843 10.7571 13.7053 10.5039 12.7108C10.4748 12.6 10.4341 12.5829 10.3264 12.6028C9.88995 12.6852 9.40689 12.4551 9.18283 12.0658C8.94421 11.651 8.99077 11.1481 9.29341 10.8071C9.468 10.611 9.68334 10.4747 9.94524 10.4349C10.0966 10.4121 10.0849 10.361 10.0413 10.253C9.86958 9.83252 9.87831 9.412 10.0645 8.99716C10.3177 8.42889 10.9404 7.96576 11.7843 8.03679C12.3896 8.08793 13.0065 8.57948 13.1869 9.18185C13.2568 9.412 13.2771 9.64783 13.2393 9.88366C13.2189 10.0002 13.2538 10.0399 13.3615 10.074C14.1879 10.3411 14.7146 10.8923 14.9038 11.7192C15.2239 13.1171 14.0919 14.4156 12.6864 14.3843Z" fill="#3A3C40"/>
</svg>
