<svg width="24" height="24" viewBox="0 0 24 24" fill="none" xmlns="http://www.w3.org/2000/svg">
<path d="M21 14.798C21 16.5765 21 18.3551 21 20.1336C21 21.0457 20.4035 21.7819 19.5238 21.9643C19.4165 21.986 19.3049 21.9969 19.1933 21.9969C17.8609 21.9969 16.5284 21.9969 15.196 21.9969C14.7347 21.9969 14.3677 21.6907 14.2841 21.239C14.269 21.1608 14.2712 21.0804 14.2712 21.0023C14.2712 19.3453 14.2712 17.6906 14.2712 16.0336C14.2712 14.95 13.5996 14.0488 12.5847 13.7665C11.3145 13.4147 9.982 14.2746 9.76529 15.5841C9.73739 15.7491 9.72667 15.9142 9.72667 16.0814C9.72667 17.7383 9.72667 19.3931 9.72667 21.05C9.72667 21.543 9.42413 21.9035 8.94564 21.9882C8.89415 21.9969 8.83836 21.999 8.78472 21.999C7.46728 21.999 6.14769 22.0012 4.83025 21.999C3.80248 21.9969 3 21.1847 3 20.1401C3 16.557 3 12.9738 3 9.39066C3 9.09532 3.10085 8.84993 3.31541 8.65014C5.08344 7.01709 6.86435 5.39923 8.75468 3.90951C9.46704 3.34706 10.1944 2.80416 10.9883 2.36332C11.2522 2.21782 11.5226 2.08753 11.8165 2.02021C12.0547 1.96592 12.2779 2.02889 12.4946 2.11576C12.9988 2.31555 13.4537 2.60871 13.9 2.91491C14.8291 3.55119 15.7045 4.26131 16.5671 4.98663C17.9639 6.1593 19.3135 7.38626 20.6545 8.62408C20.8884 8.83907 21 9.09749 21 9.41889C21 11.2105 21 13.0042 21 14.798ZM4.81953 14.9435C4.81953 16.646 4.81953 18.3486 4.81953 20.0511C4.81953 20.1228 4.81738 20.1684 4.91608 20.1684C5.87734 20.1618 6.8386 20.1575 7.79771 20.1597C7.89856 20.1597 7.91143 20.1249 7.91143 20.0381C7.90929 18.8589 7.90929 17.6819 7.90929 16.5027C7.90929 16.1487 7.89856 15.7947 7.94791 15.4429C8.08738 14.4245 8.53582 13.5667 9.29753 12.8935C10.2245 12.0748 11.308 11.7403 12.5311 11.8924C13.3164 11.9901 14.0159 12.3006 14.6166 12.8196C15.6036 13.6731 16.0864 14.7676 16.0864 16.0792C16.0886 17.3996 16.0886 18.7177 16.0843 20.0381C16.0843 20.1401 16.1122 20.1618 16.2087 20.1618C17.155 20.1575 18.1012 20.1575 19.0496 20.1618C19.1547 20.1618 19.1848 20.1401 19.1848 20.0272C19.1805 16.6395 19.1826 13.2518 19.1826 9.86407C19.1826 9.78589 19.1633 9.7316 19.1032 9.67731C18.3673 9.00628 17.6313 8.3396 16.8803 7.68594C15.6573 6.61968 14.4257 5.56428 13.1254 4.59357C12.7971 4.34817 12.4667 4.1093 12.1062 3.91602C12.0333 3.87693 11.971 3.87042 11.8981 3.91385C11.7672 3.99637 11.6299 4.06587 11.5033 4.15273C10.6815 4.69998 9.91548 5.32323 9.15592 5.95082C7.69472 7.15824 6.27429 8.41343 4.87746 9.69685C4.82382 9.74463 4.81738 9.79675 4.81738 9.85972C4.81953 11.5514 4.81953 13.2474 4.81953 14.9435Z" fill="#3A3C40"/>
</svg>
