<svg width="24" height="24" viewBox="0 0 24 24" fill="none" xmlns="http://www.w3.org/2000/svg">
<path d="M5.4394 22C5.22641 21.9453 5.03149 21.8593 4.89486 21.6795C4.69593 21.4176 4.65373 21.1322 4.78836 20.8332C4.89084 20.6084 5.00939 20.3895 5.12594 20.1706C5.15809 20.11 5.15206 20.0905 5.08575 20.0611C4.03283 19.5979 3.35767 18.824 3.08439 17.7255C3.0221 17.4754 3.00201 17.2193 3.00201 16.9613C3 16.1619 3 15.3606 3 14.5612C3 14.0179 3.3637 13.6661 3.92432 13.6661C9.00205 13.6661 14.0798 13.6661 19.1595 13.6661C19.2278 13.6661 19.2741 13.6719 19.2741 13.5761C19.27 11.0861 19.2761 8.59806 19.268 6.10803C19.266 5.0057 18.4261 4.00109 17.3189 3.74701C16.0711 3.4597 14.8192 4.08318 14.339 5.23047C14.2948 5.33601 14.2948 5.33601 14.4093 5.33601C14.8735 5.33601 15.3397 5.33406 15.8038 5.33796C16.256 5.33992 16.5835 5.58618 16.684 5.99076C16.8085 6.49307 16.4046 7.00515 15.8722 7.00515C14.1401 7.0071 12.406 7.0071 10.6739 7.00515C10.2499 7.00515 9.86609 6.63966 9.85202 6.23312C9.83595 5.76795 10.1655 5.3751 10.6116 5.34774C11.0858 5.32037 11.562 5.34187 12.0362 5.33796C12.1668 5.33601 12.2975 5.33601 12.4281 5.33796C12.4823 5.33992 12.5104 5.32428 12.5245 5.2676C12.8701 3.89555 13.704 2.9183 15.0242 2.34173C15.6752 2.05833 16.3665 1.94497 17.0778 2.0251C18.9184 2.23423 20.1481 3.20366 20.7831 4.89039C20.9398 5.30474 20.9941 5.74254 20.9941 6.1823C20.9961 9.78834 21.0102 13.3924 20.9861 16.9985C20.978 18.4174 20.2486 19.4338 18.9345 20.0455C18.84 20.0905 18.836 20.1198 18.8822 20.2019C18.9827 20.3817 19.0691 20.5693 19.1676 20.7491C19.467 21.3003 19.1153 21.8925 18.5909 21.9824C18.5828 21.9844 18.5748 21.9922 18.5668 21.998C18.4663 21.998 18.3658 21.998 18.2653 21.998C18.2613 21.9941 18.2573 21.9863 18.2513 21.9844C17.9438 21.9199 17.7429 21.7342 17.6083 21.4606C17.4355 21.1088 17.2506 20.7648 17.0738 20.4149C17.0436 20.3543 17.0075 20.3328 16.9371 20.3328C13.6437 20.3348 10.3504 20.3348 7.05495 20.3328C6.98261 20.3328 6.94243 20.3524 6.91028 20.4188C6.72742 20.7843 6.53854 21.1459 6.35367 21.5094C6.26727 21.6795 6.14068 21.8143 5.96586 21.9042C5.88549 21.9453 5.79707 21.959 5.7167 21.9961C5.62627 22 5.53384 22 5.4394 22ZM12.0041 15.341C11.6323 15.341 11.2606 15.341 10.8909 15.341C8.86742 15.341 6.84397 15.341 4.82051 15.341C4.76224 15.341 4.71401 15.3313 4.71401 15.4212C4.71803 15.9548 4.70999 16.4883 4.71803 17.0219C4.7321 17.9386 5.48562 18.6637 6.42601 18.6637C10.1414 18.6656 13.8588 18.6656 17.5741 18.6637C18.5125 18.6637 19.266 17.9268 19.27 17.0121C19.2721 16.4942 19.268 15.9782 19.2741 15.4603C19.2761 15.3625 19.2499 15.3391 19.1495 15.3391C16.7684 15.341 14.3872 15.3391 12.0041 15.341Z" fill="#3A3C40"/>
<path d="M16.7041 9.08085C16.702 9.29194 16.7362 9.50498 16.682 9.71216C16.5815 10.105 16.1796 10.3825 15.7817 10.3376C15.3256 10.2868 14.9981 9.94279 14.9961 9.50889C14.9941 9.22353 14.9941 8.93622 14.9961 8.65087C14.9981 8.20915 15.3698 7.85148 15.838 7.8378C16.2801 7.82412 16.6739 8.16615 16.7041 8.59419C16.7121 8.75445 16.7041 8.91863 16.7041 9.08085Z" fill="#3A3C40"/>
<path d="M11.564 9.09443C11.562 9.29769 11.5922 9.50487 11.5419 9.70618C11.4415 10.1108 11.0456 10.3766 10.6357 10.3355C10.1776 10.2886 9.85605 9.94072 9.85404 9.50487C9.85404 9.22147 9.85203 8.93807 9.85404 8.65662C9.85605 8.21295 10.2218 7.85528 10.6899 7.83769C11.138 7.8201 11.5319 8.16018 11.562 8.59799C11.5741 8.76216 11.564 8.92829 11.564 9.09443Z" fill="#3A3C40"/>
<path d="M14.134 9.92514C14.132 10.1362 14.1641 10.3493 14.1099 10.5564C14.0014 10.963 13.5995 11.2151 13.1494 11.1623C12.7495 11.1135 12.428 10.7519 12.426 10.3493C12.424 10.0639 12.424 9.7766 12.426 9.48929C12.428 9.04953 12.7937 8.68599 13.2499 8.66645C13.702 8.6469 14.1018 8.98894 14.132 9.42674C14.144 9.59288 14.134 9.75901 14.134 9.92514Z" fill="#3A3C40"/>
</svg>
