<svg width="24" height="24" viewBox="0 0 24 24" fill="none" xmlns="http://www.w3.org/2000/svg">
<path d="M20.8332 12.6529C20.6999 12.5004 20.4972 12.4156 20.265 12.4156C20.2217 12.4156 20.1784 12.4156 20.1334 12.4156C20.045 12.4156 19.9532 12.4156 19.8614 12.4156C19.9133 12.076 19.9012 11.752 19.8233 11.4489C19.5565 10.4198 18.9016 9.7494 17.8778 9.45316C17.8345 9.26953 17.7738 9.09975 17.6942 8.9473C18.278 8.36695 18.8704 7.77447 19.4421 7.20105L19.8371 6.80607C19.8787 6.76449 19.9203 6.72464 19.9619 6.68307C20.0571 6.58952 20.1541 6.4925 20.2494 6.39376C20.3984 6.23784 20.4694 6.02649 20.4417 5.81514C20.414 5.60552 20.2945 5.42362 20.1126 5.31448C19.825 5.14124 19.4889 5.19148 19.2342 5.44614C17.5694 7.10923 15.9046 8.77406 14.2398 10.4389L13.7443 10.9344C13.7304 10.9482 13.7131 10.9655 13.6975 10.9829C13.5624 11.1388 13.5 11.3415 13.5277 11.5424C13.5555 11.7399 13.6663 11.9166 13.8361 12.0275C14.1185 12.2129 14.4754 12.1678 14.7266 11.9166C15.1562 11.487 15.5876 11.0574 16.0172 10.626C16.2008 10.4424 16.3845 10.2587 16.5681 10.0751C16.575 10.4372 16.8695 10.7351 17.2368 10.7542C17.7738 10.7819 18.1498 11.0296 18.3854 11.5095C18.5153 11.7763 18.5378 12.0691 18.4512 12.4086C18.4512 12.4104 18.4495 12.4121 18.4495 12.4138H18.4477C16.7361 12.4121 14.9968 12.4121 13.3147 12.4121H11.733C9.66278 12.4121 7.59257 12.4121 5.52236 12.4121C5.48079 12.0448 5.48079 11.7451 5.52236 11.4714C5.67655 10.4631 6.46652 9.6316 7.45745 9.42025C7.48343 9.63506 7.52674 9.84295 7.59084 10.0422C7.64801 10.2241 7.77274 10.3713 7.93905 10.4562C8.10363 10.5411 8.29073 10.555 8.46743 10.4978C8.83816 10.3765 9.02353 9.99886 8.90746 9.60215C8.78792 9.18984 8.78792 8.7602 8.90746 8.32191C9.05991 7.76754 9.40985 7.2894 9.89665 6.97411C10.3852 6.65881 10.9638 6.53754 11.5303 6.63283C11.9859 6.71078 12.374 6.88229 12.6841 7.14388C12.9855 7.39854 13.2211 7.74329 13.3857 8.17119C13.1778 8.35482 12.9976 8.56964 12.8486 8.80698C12.7049 9.03912 12.6945 9.28685 12.8209 9.52072C12.937 9.73727 13.1501 9.8724 13.3909 9.88279C13.6421 9.89319 13.8777 9.77019 14.0215 9.55191C14.3437 9.06511 14.7751 8.8243 15.345 8.81564C15.7227 8.81044 16.0172 8.50035 16.0155 8.11056C16.0137 7.74156 15.7106 7.43666 15.3416 7.42973C15.0956 7.42453 14.853 7.45398 14.6209 7.51461C14.5568 7.3535 14.4788 7.19932 14.3887 7.0538C14.3853 7.0486 14.3835 7.04514 14.3835 7.04514C14.3835 7.0434 14.3835 7.03821 14.387 7.02781C14.5672 6.48904 14.7474 5.94853 14.9275 5.40803C15.0904 4.92296 15.2515 4.43789 15.4143 3.95108C15.5009 3.69122 15.4646 3.45562 15.3069 3.2512C15.2012 3.1178 15.0575 3.05544 14.9171 3.00693L14.8963 3H14.6469L14.6295 3.0052C14.264 3.10394 14.1324 3.39152 14.0648 3.59941C13.8985 4.11739 13.7218 4.64231 13.552 5.15163C13.4706 5.39243 13.3874 5.6419 13.306 5.8879C12.7932 5.52756 12.2198 5.31101 11.5996 5.23998C10.775 5.14643 9.96422 5.32141 9.25567 5.74411C8.54712 6.16681 8.01008 6.7974 7.70171 7.56832C7.63935 7.72597 7.59084 7.86975 7.55792 8.01008C5.97625 8.23182 4.88658 9.10495 4.31835 10.6069C4.13298 11.0972 4.07062 11.6464 4.12259 12.3359C4.12432 12.3532 4.12432 12.3705 4.12606 12.3878C4.12606 12.3982 4.12779 12.4069 4.12779 12.4173H4.06889C3.94935 12.4173 3.82808 12.4173 3.70855 12.4173C3.37766 12.419 3.12127 12.6078 3.02599 12.9249C3.02425 12.9266 3.02425 12.9301 3.02252 12.9318C3.01906 12.937 3.01732 12.9422 3.01386 12.9491L3 12.9734V13.2575L3.00173 13.2696C3.01039 13.3216 3.01906 13.3736 3.02772 13.4255C3.04677 13.5364 3.06583 13.6507 3.08662 13.7634C3.33955 15.1129 3.84021 16.3429 4.57301 17.4187C5.36298 18.5777 6.39202 19.4716 7.63242 20.0779C8.69957 20.5994 9.87586 20.8939 11.2271 20.9788C11.4818 20.9944 11.7365 21.003 11.9911 21.003C12.3722 21.003 12.7534 20.9857 13.131 20.9493C13.8742 20.88 14.5499 20.7466 15.196 20.5422C16.9943 19.974 18.4304 18.9016 19.4647 17.3563C20.2771 16.1402 20.7917 14.756 20.9909 13.2402C21.0238 13.0115 20.9666 12.8036 20.8332 12.6529ZM19.4889 13.7997C19.1112 15.4247 18.4148 16.7067 17.3633 17.7149C16.5317 18.5136 15.4905 19.0662 14.2709 19.359C13.429 19.5599 12.5472 19.6396 11.5719 19.6032C10.678 19.5686 9.88106 19.4335 9.1344 19.1892C8.00661 18.8202 7.0486 18.2035 6.28808 17.3563C5.44787 16.4191 4.87445 15.2931 4.53836 13.9123C4.53317 13.8898 4.52797 13.8673 4.52277 13.843C4.51931 13.8292 4.51758 13.8136 4.51411 13.7997C5.07887 13.8015 5.65056 13.8015 6.20493 13.8015H6.71598H19.4889V13.7997Z" fill="#3A3C40"/>
</svg>
