<svg width="20" height="16" viewBox="0 0 20 16" fill="none" xmlns="http://www.w3.org/2000/svg">
<path d="M9.92507 15.9973C7.40887 15.9973 4.89009 15.9973 2.3739 15.9973C1.15723 15.9973 0.132111 15.0403 0.013032 13.7786C-0.0594509 13.0049 0.170941 12.3282 0.691265 11.7648C0.766336 11.6839 0.781868 11.6435 0.696442 11.5491C0.21236 11.0234 0.0311527 10.3818 0.0777489 9.6647C0.116579 9.04465 0.370269 8.51896 0.787046 8.07953C0.843997 8.01752 0.849174 7.98517 0.789634 7.92047C0.354737 7.46756 0.106224 6.923 0.0699828 6.28138C0.0311527 5.58045 0.25119 4.9658 0.701619 4.44819C0.776691 4.36192 0.774102 4.32148 0.696442 4.23791C-0.605661 2.83606 0.00526595 0.547262 1.81475 0.0700927C1.9856 0.0242628 2.15904 0 2.33766 0C7.40629 0 12.4749 0 17.5435 0.00269587C18.6515 0.00269587 19.7154 0.959731 19.8941 2.09739C20.0235 2.92233 19.819 3.64212 19.2831 4.25948C19.2236 4.32957 19.2236 4.36462 19.2857 4.42932C19.775 4.95232 20.0235 5.57776 19.9976 6.31104C19.9743 6.91761 19.7594 7.4433 19.3686 7.89082C19.2909 7.97978 19.2987 8.01752 19.3763 8.1011C20.184 8.95569 20.2099 10.4465 19.4384 11.3981C19.3686 11.4844 19.2417 11.5653 19.2391 11.6489C19.2365 11.7297 19.3686 11.8133 19.4333 11.8996C19.8086 12.4037 19.9588 12.9779 19.9277 13.6115C19.8733 14.7491 18.9802 15.7601 17.9267 15.9596C17.7869 15.9865 17.6471 16 17.5021 16C14.9756 15.9973 12.4516 15.9973 9.92507 15.9973ZM10.0519 1.52047C8.27608 1.52047 6.50025 1.52047 4.72442 1.52047C3.94782 1.52047 3.1738 1.50969 2.3972 1.53395C1.77851 1.55282 1.33326 2.24297 1.49893 2.86571C1.61283 3.29705 2.06844 3.723 2.54476 3.7203C2.91235 3.71761 3.16345 3.9845 3.18416 4.35653C3.20487 4.75552 2.9926 5.03589 2.61983 5.0925C2.54734 5.10329 2.47486 5.10598 2.40238 5.11137C1.78369 5.15181 1.32808 5.83387 1.49893 6.45661C1.61024 6.86369 2.0555 7.30581 2.58876 7.30312C6.62192 7.29503 10.6577 7.29773 14.6908 7.29773C15.6875 7.29773 16.6815 7.30312 17.6781 7.29233C18.2658 7.28694 18.724 6.71002 18.6618 6.10345C18.6178 5.66672 18.1519 5.0952 17.5384 5.10059C15.7832 5.11677 14.0307 5.10598 12.2756 5.10598C11.3799 5.10598 10.4816 5.10598 9.58595 5.10598C9.22612 5.10598 8.98797 4.94423 8.90254 4.64768C8.75498 4.14086 9.05009 3.71491 9.56006 3.71491C10.7457 3.71222 11.9313 3.71491 13.1143 3.71491C14.6235 3.71491 16.1301 3.71761 17.6393 3.71222C18.258 3.70952 18.7291 3.14069 18.6541 2.50177C18.5868 1.94912 18.0923 1.51778 17.5202 1.51778C15.0325 1.52047 12.5422 1.52047 10.0519 1.52047ZM10.0493 14.4768C12.053 14.4768 14.0566 14.4768 16.0602 14.4768C16.5935 14.4768 17.1293 14.4876 17.6626 14.466C18.1959 14.4445 18.68 13.8945 18.6696 13.3607C18.6593 12.7515 18.2166 12.2959 17.6186 12.2824C17.0025 12.2689 16.8446 11.6893 16.9999 11.293C17.1216 10.983 17.3753 10.894 17.6704 10.8886C18.1441 10.8778 18.8198 10.2767 18.6385 9.52991C18.5117 9.0123 18.1208 8.69958 17.5875 8.69958C15.3121 8.69958 13.0367 8.69958 10.7612 8.69958C8.01204 8.69958 5.26286 8.69958 2.51369 8.70227C2.05291 8.70227 1.574 9.13092 1.4834 9.60809C1.38762 10.1122 1.65425 10.6136 2.12021 10.8158C2.29365 10.8913 2.47227 10.894 2.65348 10.894C5.27063 10.894 7.88519 10.894 10.5023 10.894C10.5826 10.894 10.6654 10.8994 10.7457 10.9129C11.0356 10.9587 11.2479 11.2067 11.2582 11.5141C11.2738 11.905 11.1055 12.1746 10.7949 12.2554C10.681 12.2851 10.5645 12.2824 10.448 12.2824C7.81012 12.2824 5.17226 12.2797 2.5344 12.2851C2.07879 12.2851 1.76556 12.552 1.56624 12.9564C1.37985 13.3392 1.43939 13.7166 1.68273 14.0563C1.91571 14.3825 2.24965 14.4822 2.62759 14.4822C5.10237 14.4741 7.57455 14.4768 10.0493 14.4768Z" fill="white"/>
</svg>
