<svg width="50" height="50" viewBox="0 0 50 50" fill="none" xmlns="http://www.w3.org/2000/svg">
<path fill-rule="evenodd" clip-rule="evenodd" d="M29.2071 3.125C28.0561 3.125 26.9352 3.5487 26.0014 4.09296C25.4487 4.41512 24.9321 4.79653 24.4797 5.20017C24.0293 4.7989 23.514 4.419 22.9631 4.09765C22.0288 3.55272 20.9037 3.12519 19.7515 3.12519C16.6097 3.12519 14.0625 5.70859 14.0625 8.89545C14.0625 11.797 15.8634 14.2607 17.8289 16.2288C19.1621 17.5637 20.738 18.8214 22.0836 19.8952L22.0836 19.8952L22.0839 19.8954C22.709 20.3943 23.2843 20.8534 23.7625 21.2622L24.4794 21.875L25.1963 21.2622C25.6773 20.8509 26.2578 20.3885 26.8887 19.886L26.8889 19.8857L26.889 19.8857C28.2312 18.8165 29.8017 17.5654 31.129 16.2383C33.0959 14.2718 34.8959 11.8083 34.8959 8.89564C34.8959 5.70896 32.349 3.125 29.2071 3.125ZM9.54771 32.8177L5.4952 39.3641C5.04098 40.0978 4.07796 40.3244 3.34423 39.8702C2.6105 39.416 2.3839 38.453 2.83812 37.7192L6.90062 31.1567L6.92039 31.1256C9.52415 27.1332 13.9011 24.4792 18.8542 24.4792H29.1667C30.0296 24.4792 30.7292 25.1787 30.7292 26.0417C30.7292 27.7973 30.1438 29.4216 29.1584 30.7292H32.2916C33.7646 30.7292 35.1517 30.0368 36.0371 28.8601C38.0581 26.1095 41.3409 24.4792 44.7916 24.4792C45.3467 24.4792 45.8601 24.7737 46.1404 25.2528C46.4206 25.732 46.4256 26.3239 46.1534 26.8077L41.9416 34.2955C39.4696 38.8743 34.5597 41.6667 29.4791 41.6667C22.445 41.6667 15.5589 43.7622 9.72083 47.6542C9.00281 48.1329 8.03271 47.9389 7.55403 47.2209C7.07535 46.5029 7.26938 45.5328 7.98739 45.0541C14.3368 40.8211 21.8257 38.5417 29.4791 38.5417C33.4562 38.5417 37.2918 36.3393 39.1971 32.8009L39.2108 32.7755L39.211 32.7756L41.7838 28.2017C40.4984 28.7331 39.3709 29.5985 38.5516 30.7157L37.2916 29.7917L38.5416 30.7292C37.0662 32.6964 34.7507 33.8542 32.2916 33.8542H22.9167H22.9166H19.7917C18.9287 33.8542 18.2292 33.1546 18.2292 32.2917C18.2292 31.4287 18.9287 30.7292 19.7917 30.7292H22.9166H22.9167C24.9443 30.7292 26.6856 29.4186 27.3339 27.6042H18.8542C15.0631 27.6042 11.6324 29.6313 9.54771 32.8177Z" fill="white"/>
</svg>
