<svg width="22" height="18" viewBox="0 0 22 18" fill="none" xmlns="http://www.w3.org/2000/svg">
<path d="M10.9911 17.999C9.1607 17.9905 7.38564 17.7064 5.69206 17.0131C5.59021 16.9705 5.5291 16.9136 5.49127 16.8113C5.31959 16.3681 5.26139 15.9021 5.21483 15.439C5.15081 14.8338 5.09843 14.2257 5.04605 13.6177C5.00822 13.1886 4.98203 12.7596 4.95294 12.3306C4.9413 12.1516 4.92675 11.9725 4.92093 11.7935C4.91802 11.6941 4.86273 11.643 4.77252 11.6089C3.95774 11.2992 3.22152 10.8559 2.55224 10.3075C1.429 9.38409 0.558931 8.27597 0.0205932 6.93202C-0.014326 6.84109 -0.00559621 6.77574 0.0526025 6.69618C1.05362 5.34087 2.06919 3.99407 3.17787 2.71263C3.67547 2.13868 4.1818 1.57325 4.77252 1.08454C5.04605 0.860076 5.36033 0.723691 5.69206 0.610038C6.48938 0.331587 7.31289 0.166789 8.13931 0.00483289C8.2237 -0.0122151 8.26735 0.0161982 8.29936 0.0843904C8.33137 0.158265 8.37211 0.229299 8.40121 0.303173C8.55544 0.72085 8.8668 0.985095 9.27128 1.14705C10.4294 1.61019 11.5905 1.61019 12.7457 1.13853C13.1357 0.979412 13.4354 0.723691 13.5867 0.323063C13.6071 0.266236 13.642 0.212251 13.6624 0.155424C13.706 0.0304049 13.7759 -0.0150565 13.9214 0.0133569C14.6809 0.166789 15.4345 0.337269 16.1766 0.558894C16.84 0.757788 17.3609 1.14421 17.8265 1.62724C18.8537 2.68706 19.7732 3.83496 20.6695 4.99991C21.1002 5.55965 21.5192 6.12792 21.9441 6.6905C22.0052 6.7729 22.0168 6.84393 21.9761 6.9377C21.1467 8.91811 19.7383 10.3729 17.8061 11.3588C17.6228 11.4526 17.4278 11.5293 17.2358 11.6032C17.1252 11.6458 17.0815 11.7055 17.0757 11.822C17.0146 12.8022 16.9419 13.7825 16.8517 14.7627C16.808 15.2486 16.7556 15.7316 16.6742 16.2118C16.6363 16.4334 16.5636 16.6409 16.4908 16.854C16.4646 16.9278 16.4152 16.9676 16.3424 16.9989C15.2366 17.4535 14.0872 17.7433 12.8971 17.8854C12.2685 17.9592 11.6312 18.0076 10.9911 17.999ZM15.4374 7.43777C15.4956 7.44346 15.5131 7.4946 15.5422 7.5287C16.1125 8.20494 16.68 8.88117 17.2474 9.55741C17.3813 9.71937 17.3842 9.71937 17.5646 9.60856C17.8381 9.43808 18.1029 9.25623 18.3532 9.05165C18.9992 8.52032 19.5492 7.90944 19.9857 7.1991C20.0701 7.06272 20.0671 6.96327 19.9682 6.83257C19.3309 6.00006 18.6849 5.17039 18.0156 4.3606C17.4889 3.72414 16.9622 3.08768 16.3599 2.51658C16.2115 2.37451 16.0427 2.27222 15.8477 2.20119C15.4753 2.07049 15.097 1.97104 14.7158 1.87443C14.6256 1.8517 14.5645 1.86875 14.4975 1.93694C14.2094 2.23244 13.8661 2.45123 13.4907 2.62171C12.3238 3.15019 11.0987 3.25817 9.84454 3.03654C8.94828 2.87743 8.12185 2.55635 7.46712 1.90569C7.41183 1.8517 7.35654 1.85739 7.29543 1.87443C7.00153 1.95399 6.70472 2.02787 6.41372 2.11595C6.10527 2.20687 5.8201 2.33189 5.5873 2.56772C5.24393 2.91436 4.90929 3.27237 4.59501 3.64175C3.71039 4.68168 2.85778 5.75002 2.03718 6.83825C1.94115 6.96327 1.92951 7.05703 2.0139 7.19058C2.63954 8.19925 3.46305 9.01756 4.49317 9.63981C4.59501 9.70232 4.65321 9.68243 4.72305 9.60003C4.9413 9.3301 5.16536 9.06302 5.38943 8.79309C5.7619 8.34416 6.13146 7.89523 6.50393 7.4463C6.52721 7.41788 6.54467 7.36958 6.58832 7.38379C6.63488 7.39799 6.61742 7.44914 6.61451 7.48323C6.60578 7.65656 6.58541 7.83272 6.57959 8.00604C6.54758 8.78173 6.4079 9.55457 6.4952 10.3388C6.55922 10.8928 6.5825 11.4497 6.62324 12.0066C6.66689 12.592 6.71345 13.1744 6.76001 13.7598C6.80365 14.3451 6.85894 14.9275 6.92005 15.51C6.93751 15.6777 7.01317 15.743 7.16449 15.7913C8.26444 16.1351 9.39641 16.3027 10.5487 16.3425C11.3228 16.3681 12.0968 16.3312 12.868 16.226C13.5547 16.1323 14.2298 15.9845 14.8904 15.7743C15.0009 15.7402 15.0621 15.6862 15.0766 15.5583C15.1319 15.0469 15.1843 14.5354 15.2221 14.0212C15.2774 13.2909 15.3327 12.5607 15.388 11.8305C15.4229 11.3844 15.4636 10.9355 15.4927 10.4894C15.5073 10.245 15.5684 10.0035 15.5538 9.75631C15.5102 9.02892 15.4636 8.30438 15.42 7.577C15.4142 7.5287 15.3967 7.47755 15.4374 7.43777Z" fill="white"/>
<path d="M11.6864 11.3843C10.6476 11.3843 9.75711 10.7052 9.50394 9.71076C9.47484 9.59995 9.43411 9.5829 9.32644 9.60279C8.88995 9.68519 8.40689 9.45504 8.18283 9.06577C7.94421 8.65094 7.99077 8.14802 8.29341 7.80706C8.468 7.61101 8.68334 7.47463 8.94524 7.43485C9.09655 7.41212 9.08491 7.36097 9.04126 7.253C8.86958 6.83248 8.87831 6.41196 9.06454 5.99713C9.31771 5.42886 9.94044 4.96572 10.7843 5.03676C11.3896 5.0879 12.0065 5.57945 12.1869 6.18182C12.2568 6.41196 12.2771 6.6478 12.2393 6.88363C12.2189 7.00012 12.2538 7.0399 12.3615 7.074C13.1879 7.34108 13.7146 7.8923 13.9038 8.71913C14.2239 10.1171 13.0919 11.4156 11.6864 11.3843Z" fill="white"/>
</svg>
