<svg width="20" height="20" viewBox="0 0 20 20" fill="none" xmlns="http://www.w3.org/2000/svg">
<path d="M10.6133 17.213C10.6187 17.4295 10.673 17.6374 10.7083 17.8453C10.8197 18.4979 11.0697 19.1013 11.287 19.7135C11.344 19.878 11.344 19.8723 11.1756 19.8867C10.4041 19.9473 9.63255 20.0166 8.86102 19.9964C7.88031 19.9704 6.90232 19.904 5.92705 19.777C4.90016 19.6413 3.88142 19.4651 2.88713 19.162C2.26502 18.9743 1.65377 18.7491 1.12674 18.3304C1.05883 18.2755 1.00993 18.2178 0.977328 18.1341C0.564399 17.0715 0.254702 15.983 0.105287 14.8453C-0.139211 12.9916 0.0292206 11.1899 0.746414 9.46038C1.12131 8.55664 1.74614 7.90698 2.53396 7.41612C3.41144 6.86752 4.37313 6.55568 5.3647 6.34779C6.67684 6.0706 8.008 5.97821 9.34187 6.00419C11.1702 6.03596 12.9686 6.29871 14.6964 6.97724C16.1199 7.53739 17.3967 8.34008 18.4535 9.50947C19.1245 10.2515 19.6352 11.1004 19.8689 12.111C20.1514 13.3352 19.9721 14.4989 19.3826 15.5816C18.6165 16.9849 17.4945 17.9291 16.0167 18.3651C15.3484 18.5614 14.661 18.5701 13.971 18.5065C13.0935 18.4286 12.2595 18.1831 11.4717 17.7587C11.2163 17.6201 10.9773 17.4584 10.7464 17.2794C10.7083 17.2534 10.6812 17.2101 10.6133 17.213ZM8.9887 7.74528C8.74421 7.7424 8.49971 7.75683 8.25521 7.76261C7.29624 7.79148 6.34541 7.89543 5.40817 8.11775C4.65566 8.29677 3.9276 8.54509 3.26746 8.98397C2.83551 9.27271 2.4742 9.63363 2.25958 10.1389C1.74885 11.3487 1.57771 12.6192 1.66464 13.9329C1.73527 14.9839 1.97434 15.9945 2.31663 16.982C2.34923 17.0773 2.40085 17.1321 2.48506 17.1726C2.80291 17.3256 3.13434 17.4382 3.46849 17.5306C4.35955 17.7818 5.2669 17.9377 6.18241 18.0532C7.09792 18.1716 8.01886 18.238 8.9398 18.2496C9.1028 18.2524 9.10552 18.2496 9.07292 18.085C8.95882 17.496 8.8746 16.904 8.8257 16.3064C8.72791 15.1514 8.76322 14.0051 8.99414 12.8675C9.17072 11.9897 9.5592 11.2708 10.3063 10.8117C10.9012 10.445 11.5505 10.2602 12.2297 10.24C13.1071 10.2111 13.9384 10.4392 14.7262 10.8521C15.2804 11.1437 15.7722 11.5191 16.1443 12.0561C16.7936 12.9974 16.4513 14.1668 15.4136 14.5508C15.0033 14.7039 14.5823 14.7298 14.1585 14.6432C13.664 14.5451 13.2049 14.3198 12.7322 14.1466C12.5747 14.0888 12.5176 13.9791 12.5611 13.8405C12.5991 13.7164 12.7078 13.6615 12.8626 13.7048C13.0365 13.751 13.2104 13.8059 13.3869 13.8521C13.7836 13.9618 14.1802 14.0831 14.5986 14.0657C14.968 14.0484 15.3022 13.9358 15.5494 13.6211C15.764 13.3468 15.7803 13.0436 15.5956 12.7433C15.4652 12.5297 15.2886 12.3651 15.0903 12.2265C14.6773 11.9349 14.2155 11.7761 13.7401 11.6461C13.08 11.4613 12.4198 11.4296 11.7597 11.6346C11.1702 11.8165 10.7572 12.1947 10.6241 12.8588C10.5644 13.162 10.5834 13.4681 10.6078 13.777C10.6622 14.4613 10.9121 15.0475 11.3603 15.5354C11.8303 16.0465 12.4117 16.3554 13.0501 16.5547C13.8787 16.8145 14.7262 16.8954 15.5657 16.6731C16.617 16.3959 17.4021 15.7029 17.9428 14.7154C18.4834 13.7279 18.4888 12.7173 17.9645 11.7125C17.6195 11.0484 17.125 10.5229 16.5763 10.0523C15.6934 9.30158 14.6936 8.78763 13.6206 8.4267C12.1183 7.9243 10.5644 7.75106 8.9887 7.74528Z" fill="white"/>
<path d="M4.34787 3.70316C4.43568 3.65667 4.54081 3.65667 4.62862 3.70316L5.7355 4.28919C5.96681 4.41165 6.23307 4.19989 6.1658 3.94695L5.90192 2.95473C5.87066 2.83717 5.91348 2.71237 6.01033 2.63877L6.85758 1.99493C7.07752 1.8278 6.97381 1.4774 6.69834 1.4569L5.50382 1.368C5.39702 1.36005 5.30255 1.29577 5.25596 1.19934L4.75837 0.169486C4.64918 -0.056495 4.32731 -0.0564955 4.21812 0.169486L3.72053 1.19934C3.67394 1.29577 3.57947 1.36005 3.47267 1.368L2.27815 1.4569C2.00268 1.4774 1.89897 1.8278 2.1189 1.99493L2.96616 2.63877C3.06301 2.71237 3.10583 2.83717 3.07457 2.95473L2.81069 3.94695C2.74342 4.19989 3.00967 4.41165 3.24099 4.28919L4.34787 3.70316Z" fill="white"/>
<path d="M10.3479 3.70316C10.4357 3.65667 10.5408 3.65667 10.6286 3.70316L11.7355 4.28919C11.9668 4.41165 12.2331 4.19989 12.1658 3.94695L11.9019 2.95473C11.8707 2.83717 11.9135 2.71237 12.0103 2.63877L12.8576 1.99493C13.0775 1.8278 12.9738 1.4774 12.6983 1.4569L11.5038 1.368C11.397 1.36005 11.3026 1.29577 11.256 1.19934L10.7584 0.169486C10.6492 -0.056495 10.3273 -0.0564955 10.2181 0.169486L9.72053 1.19934C9.67394 1.29577 9.57947 1.36005 9.47267 1.368L8.27815 1.4569C8.00268 1.4774 7.89897 1.8278 8.1189 1.99493L8.96616 2.63877C9.06301 2.71237 9.10583 2.83717 9.07457 2.95473L8.81069 3.94695C8.74342 4.19989 9.00967 4.41165 9.24098 4.28919L10.3479 3.70316Z" fill="white"/>
<path d="M16.3479 3.70316C16.4357 3.65667 16.5408 3.65667 16.6286 3.70316L17.7355 4.28919C17.9668 4.41165 18.2331 4.19989 18.1658 3.94695L17.9019 2.95473C17.8707 2.83717 17.9135 2.71237 18.0103 2.63877L18.8576 1.99493C19.0775 1.8278 18.9738 1.4774 18.6983 1.4569L17.5038 1.368C17.397 1.36005 17.3026 1.29577 17.256 1.19934L16.7584 0.169486C16.6492 -0.056495 16.3273 -0.0564955 16.2181 0.169486L15.7205 1.19934C15.6739 1.29577 15.5795 1.36005 15.4727 1.368L14.2782 1.4569C14.0027 1.4774 13.899 1.8278 14.1189 1.99493L14.9662 2.63877C15.063 2.71237 15.1058 2.83717 15.0746 2.95473L14.8107 3.94695C14.7434 4.19989 15.0097 4.41165 15.241 4.28919L16.3479 3.70316Z" fill="white"/>
</svg>
