<svg width="50" height="50" viewBox="0 0 50 50" fill="none" xmlns="http://www.w3.org/2000/svg">
<path d="M24.9814 43.748C21.1682 43.7302 17.4701 43.1383 13.9418 41.6939C13.7296 41.6051 13.6023 41.4867 13.5235 41.2736C13.1658 40.3502 13.0446 39.3794 12.9476 38.4145C12.8142 37.1537 12.7051 35.8869 12.596 34.6202C12.5172 33.7263 12.4626 32.8325 12.402 31.9387C12.3777 31.5657 12.3474 31.1928 12.3353 30.8199C12.3292 30.6127 12.2141 30.5062 12.0261 30.4351C10.3287 29.7899 8.79488 28.8665 7.40054 27.724C5.06046 25.8002 3.24781 23.4916 2.12628 20.6917C2.05353 20.5023 2.07172 20.3661 2.19296 20.2004C4.27842 17.3768 6.39418 14.571 8.70395 11.9013C9.74061 10.7056 10.7955 9.52761 12.0261 8.50946C12.596 8.04182 13.2507 7.75769 13.9418 7.52091C15.6029 6.94081 17.3186 6.59748 19.0403 6.26007C19.2161 6.22455 19.307 6.28375 19.3737 6.42581C19.4404 6.57972 19.5253 6.72771 19.5859 6.88161C19.9072 7.75177 20.5559 8.30228 21.3985 8.63969C23.8114 9.60456 26.2303 9.60456 28.637 8.62193C29.4494 8.29044 30.0738 7.75769 30.389 6.92305C30.4315 6.80466 30.5042 6.69219 30.5467 6.5738C30.6376 6.31334 30.7831 6.21863 31.0862 6.27783C32.6685 6.59748 34.2386 6.95264 35.7845 7.41436C37.1668 7.82872 38.2519 8.63377 39.2219 9.64008C41.3619 11.848 43.2776 14.2395 45.1448 16.6665C46.0421 17.8326 46.915 19.0165 47.8002 20.1885C47.9275 20.3602 47.9517 20.5082 47.8668 20.7035C46.1391 24.8294 43.2049 27.8602 39.1795 29.9142C38.7975 30.1095 38.3914 30.2694 37.9912 30.4233C37.7609 30.5121 37.6699 30.6364 37.6578 30.8791C37.5305 32.9213 37.3789 34.9635 37.191 37.0057C37.1001 38.0179 36.991 39.0242 36.8212 40.0246C36.7424 40.4864 36.5908 40.9185 36.4393 41.3624C36.3847 41.5163 36.2817 41.5992 36.1301 41.6643C33.8264 42.6114 31.4318 43.2152 28.9523 43.5112C27.6428 43.6651 26.3151 43.7657 24.9814 43.748ZM34.2447 21.7454C34.3659 21.7572 34.4023 21.8638 34.4629 21.9348C35.6512 23.3436 36.8333 24.7524 38.0155 26.1613C38.2944 26.4987 38.3004 26.4987 38.6763 26.2678C39.2462 25.9127 39.7978 25.5338 40.3192 25.1076C41.665 24.0007 42.8108 22.728 43.7202 21.2481C43.896 20.964 43.8899 20.7568 43.6838 20.4845C42.3561 18.7501 41.0103 17.0216 39.616 15.3346C38.5187 14.0086 37.4214 12.6827 36.1665 11.4929C35.8573 11.1969 35.5057 10.9838 35.0995 10.8358C34.3235 10.5635 33.5354 10.3563 32.7412 10.1551C32.5533 10.1077 32.426 10.1432 32.2866 10.2853C31.6864 10.9009 30.971 11.3567 30.189 11.7119C27.758 12.8129 25.2057 13.0378 22.5928 12.5761C20.7256 12.2446 19.0039 11.5757 17.6399 10.2202C17.5247 10.1077 17.4095 10.1196 17.2822 10.1551C16.6699 10.3208 16.0515 10.4747 15.4453 10.6582C14.8027 10.8476 14.2086 11.1081 13.7236 11.5994C13.0082 12.3216 12.3111 13.0674 11.6563 13.837C9.81336 16.0035 8.03709 18.2292 6.3275 20.4964C6.12744 20.7568 6.10319 20.9522 6.279 21.2304C7.58241 23.3318 9.29806 25.0366 11.4441 26.3329C11.6563 26.4632 11.7776 26.4217 11.9231 26.2501C12.3777 25.6877 12.8445 25.1313 13.3113 24.5689C14.0873 23.6337 14.8572 22.6984 15.6332 21.7631C15.6817 21.7039 15.7181 21.6033 15.809 21.6329C15.906 21.6625 15.8697 21.769 15.8636 21.8401C15.8454 22.2012 15.803 22.5682 15.7909 22.9293C15.7242 24.5453 15.4332 26.1554 15.615 27.7891C15.7484 28.9434 15.7969 30.1036 15.8818 31.2638C15.9727 32.4833 16.0697 33.6967 16.1667 34.9161C16.2577 36.1356 16.3728 37.349 16.5002 38.5625C16.5365 38.9118 16.6941 39.0479 17.0094 39.1486C19.301 39.8648 21.6592 40.2141 24.0599 40.2969C25.6725 40.3502 27.2851 40.2733 28.8916 40.0542C30.3223 39.8589 31.7288 39.5511 33.105 39.113C33.3353 39.042 33.4627 38.9295 33.493 38.6632C33.6082 37.5977 33.7173 36.5322 33.7961 35.4607C33.9113 33.9394 34.0265 32.4181 34.1416 30.8968C34.2144 29.9675 34.2993 29.0322 34.3599 28.1029C34.3902 27.5938 34.5175 27.0906 34.4872 26.5756C34.3963 25.0603 34.2993 23.5508 34.2083 22.0354C34.1962 21.9348 34.1598 21.8282 34.2447 21.7454Z" fill="white"/>
<path fill-rule="evenodd" clip-rule="evenodd" d="M23.9492 22.1767C25.4712 21.6431 26.5625 20.1938 26.5625 18.4896C26.5625 16.3322 24.8136 14.5833 22.6562 14.5833C20.4989 14.5833 18.75 16.3322 18.75 18.4896C18.75 19.294 18.9932 20.0417 19.4101 20.6631C18.9995 21.1234 18.75 21.7305 18.75 22.3958C18.75 23.8341 19.9159 25 21.3542 25C22.7924 25 23.9583 23.8341 23.9583 22.3958C23.9583 22.322 23.9553 22.249 23.9492 22.1767Z" fill="white"/>
<path fill-rule="evenodd" clip-rule="evenodd" d="M27.5 32.0833C26.1193 32.0833 25 30.964 25 29.5833C25 28.2026 26.1193 27.0833 27.5 27.0833C28.4415 27.0833 29.2614 27.6037 29.6878 28.3726C29.7876 28.347 29.8922 28.3333 30 28.3333C30.6904 28.3333 31.25 28.893 31.25 29.5833C31.25 30.8333 30.6071 31.6337 29.9167 31.6337C29.9705 31.7732 30 31.9248 30 32.0833C30 32.7737 29.4404 33.3333 28.75 33.3333C28.0596 33.3333 27.5 32.7737 27.5 32.0833Z" fill="white"/>
</svg>
