<svg width="4" height="14" viewBox="0 0 4 14" fill="none" xmlns="http://www.w3.org/2000/svg">
<path fill-rule="evenodd" clip-rule="evenodd" d="M2 3.66665C2.91667 3.66665 3.66667 2.91665 3.66667 1.99998C3.66667 1.08331 2.91667 0.333313 2 0.333313C1.08333 0.333313 0.333333 1.08331 0.333333 1.99998C0.333333 2.91665 1.08333 3.66665 2 3.66665ZM2 5.33331C1.08333 5.33331 0.333333 6.08331 0.333333 6.99998C0.333333 7.91665 1.08333 8.66665 2 8.66665C2.91667 8.66665 3.66667 7.91665 3.66667 6.99998C3.66667 6.08331 2.91667 5.33331 2 5.33331ZM0.333333 12C0.333333 11.0833 1.08333 10.3333 2 10.3333C2.91667 10.3333 3.66667 11.0833 3.66667 12C3.66667 12.9166 2.91667 13.6666 2 13.6666C1.08333 13.6666 0.333333 12.9166 0.333333 12Z" fill="white"/>
</svg>
