<svg width="20" height="18" viewBox="0 0 20 18" fill="none" xmlns="http://www.w3.org/2000/svg">
<path fill-rule="evenodd" clip-rule="evenodd" d="M11.4613 0.92924C12.3577 0.406749 13.4338 0 14.5388 0C17.555 0 20 2.4806 20 5.53981C20 8.33595 18.272 10.7009 16.3838 12.5888C15.1096 13.8628 13.6019 15.0638 12.3134 16.0903C11.7076 16.5729 11.1503 17.0168 10.6884 17.4117L10.0002 18L9.31197 17.4117C8.85286 17.0192 8.30043 16.5783 7.70025 16.0994C6.4085 15.0685 4.89556 13.8612 3.61571 12.5796C1.72887 10.6903 0 8.32511 0 5.53963C0 2.48024 2.44531 0.000180753 5.4614 0.000180753C6.56751 0.000180753 7.64757 0.410608 8.54452 0.933747C9.07345 1.24224 9.56811 1.60694 10.0005 1.99216C10.4348 1.60467 10.9307 1.23852 11.4613 0.92924ZM12.5255 2.8077C11.8314 3.2123 11.2208 3.74372 10.8144 4.2295L9.9981 5.20515L9.18422 4.22742C8.78658 3.74972 8.17698 3.2185 7.47988 2.81192C6.77581 2.40128 6.06725 2.1667 5.4614 2.1667C3.62473 2.1667 2.13585 3.67695 2.13585 5.53963C2.13585 7.40964 3.31563 9.23487 5.11619 11.0378C6.31543 12.2386 7.63664 13.2911 8.87643 14.2787C9.26092 14.585 9.63758 14.8851 10.0003 15.1814C10.3688 14.8807 10.7514 14.5765 11.1418 14.2661C12.3765 13.2844 13.6899 12.2402 14.8845 11.0458C16.6836 9.24703 17.8642 7.42158 17.8642 5.53981C17.8642 3.67696 16.3753 2.16652 14.5388 2.16652C13.9316 2.16652 13.2264 2.39917 12.5255 2.8077Z" fill="white"/>
</svg>
