<svg width="24" height="24" viewBox="0 0 24 24" fill="none" xmlns="http://www.w3.org/2000/svg">
<path d="M2 10.795C2.07072 8.162 3.17286 5.79432 5.39618 3.9764C6.61322 2.98134 8.01163 2.35936 9.56276 2.12036C12.1575 1.72045 14.5157 2.31396 16.5896 3.93241C18.2815 5.2528 19.351 6.98463 19.8251 9.07967C20.026 9.96699 20.0821 10.8661 20.0053 11.7739C19.8535 13.564 19.2224 15.1655 18.1238 16.5831C18.0691 16.6537 18.071 16.6887 18.1339 16.7513C19.3441 17.9489 20.5515 19.1491 21.7604 20.3481C22.1327 20.7176 22.0606 21.4424 21.6149 21.7868C21.2103 22.0994 20.6519 22.0651 20.29 21.7028C19.1141 20.5264 17.9382 19.3497 16.7646 18.1707C16.6909 18.0966 16.6488 18.0745 16.5513 18.1507C15.3432 19.0966 13.9784 19.6913 12.466 19.9385C11.4907 20.0978 10.5134 20.0947 9.53715 19.9277C7.6343 19.6021 5.9953 18.7612 4.63377 17.3933C3.31148 16.0646 2.48775 14.4681 2.14637 12.624C2.04863 12.0959 2.00799 11.5617 2 10.795ZM11.0366 18.0665C14.9071 18.0696 18.0505 14.9211 18.0533 11.038C18.0562 7.18647 14.9149 4.03779 11.0662 4.03427C7.16582 4.0305 4.04241 7.15424 4.03865 11.0623C4.03489 14.9167 7.17874 18.0634 11.0366 18.0665Z" fill="white"/>
<path d="M8.09903 13.0019C8.09809 12.7217 8.20029 12.4848 8.39718 12.2867C8.76159 11.9205 9.12529 11.5537 9.48922 11.1872C9.58163 11.0942 9.58257 11.0029 9.49204 10.9134C9.09827 10.5215 8.69792 10.1357 8.31283 9.73532C7.78349 9.18463 8.03325 8.28013 8.76746 8.07289C9.15066 7.96468 9.48664 8.06512 9.76646 8.34388C10.1687 8.74402 10.5683 9.14699 10.9647 9.55301C11.0293 9.61911 11.0617 9.61629 11.1247 9.55207C11.5058 9.16393 11.8916 8.78049 12.2764 8.39587C12.6535 8.01902 13.2315 7.99455 13.6365 8.33682C14.0357 8.67416 14.1069 9.26202 13.7984 9.6911C13.7554 9.75108 13.7065 9.80778 13.6544 9.85976C13.2806 10.2331 12.9068 10.6064 12.529 10.9757C12.4691 11.0343 12.4726 11.0635 12.5302 11.1202C12.9535 11.538 13.3717 11.9609 13.7942 12.3796C14.1955 12.7774 14.2021 13.4159 13.8057 13.8127C13.4089 14.21 12.7724 14.2039 12.3746 13.8021C11.959 13.3822 11.5394 12.9661 11.1249 12.5448C11.0631 12.482 11.0298 12.4745 10.9638 12.5424C10.5817 12.935 10.1945 13.3227 9.80852 13.7113C9.51718 14.0044 9.08511 14.0884 8.70449 13.9273C8.33656 13.7718 8.09856 13.4081 8.09903 13.0019Z" fill="white"/>
</svg>
