<svg width="20" height="20" viewBox="0 0 20 20" fill="none" xmlns="http://www.w3.org/2000/svg">
<path d="M1.66666 8.99586C1.72559 6.80167 2.64404 4.8286 4.49681 3.31366C5.511 2.48445 6.67635 1.96614 7.96896 1.76697C10.1313 1.43371 12.0964 1.9283 13.8247 3.27701C15.2345 4.37734 16.1258 5.82053 16.5209 7.56639C16.6883 8.30583 16.7351 9.05506 16.6711 9.81155C16.5446 11.3034 16.0187 12.6379 15.1032 13.8192C15.0576 13.878 15.0591 13.9073 15.1116 13.9594C16.1201 14.9574 17.1263 15.9576 18.1336 16.9567C18.4439 17.2647 18.3838 17.8687 18.0124 18.1557C17.6753 18.4162 17.2099 18.3876 16.9084 18.0857C15.9284 17.1053 14.9485 16.1248 13.9705 15.1423C13.909 15.0805 13.874 15.0621 13.7927 15.1256C12.786 15.9138 11.6486 16.4094 10.3883 16.6154C9.57561 16.7482 8.76113 16.7456 7.94762 16.6064C6.36191 16.3351 4.99607 15.6343 3.86147 14.4944C2.75956 13.3872 2.07312 12.0567 1.78863 10.52C1.70719 10.0799 1.67331 9.63473 1.66666 8.99586ZM9.19715 15.0554C12.4226 15.058 15.0421 12.4343 15.0444 9.19836C15.0468 5.98872 12.4291 3.36483 9.22182 3.36189C5.9715 3.35875 3.36866 5.96187 3.36553 9.21855C3.3624 12.4305 5.98227 15.0529 9.19715 15.0554Z" fill="#C0C3CC"/>
<path d="M6.74918 10.8349C6.7484 10.6014 6.83357 10.404 6.99764 10.2389C7.30131 9.93372 7.6044 9.6281 7.90768 9.32268C7.98469 9.24519 7.98547 9.16913 7.91002 9.0945C7.58188 8.76791 7.24825 8.44642 6.92735 8.11277C6.48624 7.65386 6.69436 6.90011 7.30621 6.72741C7.62554 6.63723 7.90552 6.72094 8.13871 6.95324C8.4739 7.28669 8.80694 7.62249 9.13724 7.96084C9.19108 8.01593 9.2181 8.01358 9.27057 7.96006C9.58814 7.63661 9.90963 7.31707 10.2303 6.99656C10.5446 6.68251 11.0262 6.66213 11.3638 6.94735C11.6964 7.22847 11.7557 7.71835 11.4987 8.07592C11.4628 8.1259 11.4221 8.17315 11.3786 8.21647C11.0671 8.52758 10.7556 8.83868 10.4408 9.14645C10.3909 9.19526 10.3938 9.21957 10.4418 9.26681C10.7946 9.61497 11.1431 9.96744 11.4951 10.3164C11.8296 10.6479 11.835 11.1799 11.5047 11.5106C11.174 11.8417 10.6437 11.8366 10.3122 11.5018C9.96583 11.1519 9.61614 10.8051 9.27077 10.454C9.21928 10.4016 9.19147 10.3954 9.13646 10.452C8.8181 10.7792 8.49544 11.1023 8.17375 11.4261C7.93097 11.6704 7.57091 11.7404 7.25373 11.6061C6.94713 11.4765 6.74879 11.1734 6.74918 10.8349Z" fill="#C0C3CC"/>
</svg>
