<svg width="20" height="20" viewBox="0 0 20 20" fill="none" xmlns="http://www.w3.org/2000/svg">
<path fill-rule="evenodd" clip-rule="evenodd" d="M16 13.75V8.75C16 5.68 14.37 3.11 11.5 2.43V1.75C11.5 0.92 10.83 0.25 10 0.25C9.17 0.25 8.5 0.92 8.5 1.75V2.43C5.64 3.11 4 5.67 4 8.75V13.75L2 15.75V16.75H18V15.75L16 13.75ZM10 19.75C11.1 19.75 12 18.85 12 17.75H8C8 18.85 8.9 19.75 10 19.75ZM6 14.75H14V8.75C14 6.27 12.49 4.25 10 4.25C7.51 4.25 6 6.27 6 8.75V14.75ZM5.58 1.83L4.15 0.4C1.75 2.23 0.169999 5.05 0.0299988 8.25H2.03C2.18 5.6 3.54 3.28 5.58 1.83ZM19.97 8.25H17.97C17.82 5.6 16.45 3.28 14.43 1.83L15.85 0.4C18.24 2.23 19.82 5.05 19.97 8.25Z" fill="#848790"/>
</svg>
