<svg width="18" height="18" viewBox="0 0 18 18" fill="none" xmlns="http://www.w3.org/2000/svg">
<path fill-rule="evenodd" clip-rule="evenodd" d="M14 12.125V7.95833C14 5.4 12.6417 3.25833 10.25 2.69167V2.125C10.25 1.43333 9.69165 0.875 8.99999 0.875C8.30832 0.875 7.74999 1.43333 7.74999 2.125V2.69167C5.36666 3.25833 3.99999 5.39167 3.99999 7.95833V12.125L2.33332 13.7917V14.625H15.6667V13.7917L14 12.125ZM8.99999 17.125C9.91665 17.125 10.6667 16.375 10.6667 15.4583H7.33332C7.33332 16.375 8.08332 17.125 8.99999 17.125ZM5.66666 12.9583H12.3333V7.95833C12.3333 5.89167 11.075 4.20833 8.99999 4.20833C6.92499 4.20833 5.66666 5.89167 5.66666 7.95833V12.9583ZM5.31665 2.19166L4.12498 0.999996C2.12498 2.525 0.808317 4.875 0.69165 7.54166H2.35832C2.48332 5.33333 3.61665 3.4 5.31665 2.19166ZM17.3083 7.54166H15.6416C15.5166 5.33333 14.375 3.4 12.6916 2.19166L13.875 0.999996C15.8666 2.525 17.1833 4.875 17.3083 7.54166Z" fill="#00AFF0"/>
</svg>
