<svg width="20" height="20" viewBox="0 0 20 20" fill="none" xmlns="http://www.w3.org/2000/svg">
<path d="M9.93758 16.6643C7.84075 16.6643 5.74177 16.6643 3.64494 16.6643C2.63104 16.6643 1.77678 15.8668 1.67755 14.8154C1.61714 14.1707 1.80914 13.6068 2.24274 13.1372C2.3053 13.0698 2.31824 13.0361 2.24706 12.9575C1.84365 12.5194 1.69265 11.9848 1.73148 11.3872C1.76384 10.8705 1.97524 10.4324 2.32256 10.0662C2.37002 10.0145 2.37433 9.98756 2.32472 9.93364C1.9623 9.55622 1.75521 9.10242 1.72501 8.56774C1.69265 7.98363 1.87601 7.47142 2.25137 7.04008C2.31393 6.96819 2.31177 6.93449 2.24706 6.86484C1.16197 5.69663 1.67108 3.7893 3.17898 3.39166C3.32136 3.35347 3.46589 3.33325 3.61474 3.33325C7.83859 3.33325 12.0624 3.33325 16.2863 3.3355C17.2096 3.3355 18.0962 4.13303 18.2451 5.08108C18.3529 5.76852 18.1825 6.36835 17.736 6.88282C17.6863 6.94123 17.6863 6.97043 17.7381 7.02435C18.1458 7.46018 18.3529 7.98138 18.3314 8.59245C18.3119 9.09792 18.1329 9.536 17.8071 9.90893C17.7424 9.98307 17.7489 10.0145 17.8136 10.0842C18.4867 10.7963 18.5082 12.0387 17.8654 12.8317C17.8071 12.9036 17.7014 12.971 17.6993 13.0406C17.6971 13.108 17.8071 13.1777 17.8611 13.2496C18.1739 13.6697 18.299 14.1482 18.2731 14.6761C18.2278 15.6242 17.4836 16.4666 16.6056 16.6329C16.4891 16.6554 16.3726 16.6666 16.2518 16.6666C14.1463 16.6643 12.043 16.6643 9.93758 16.6643ZM10.0433 4.60031C8.56342 4.60031 7.08356 4.60031 5.6037 4.60031C4.95653 4.60031 4.31152 4.59133 3.66435 4.61154C3.14878 4.62727 2.77773 5.20239 2.9158 5.72135C3.01071 6.08079 3.39039 6.43575 3.78732 6.4335C4.09364 6.43126 4.30289 6.65367 4.32015 6.96369C4.33741 7.29618 4.16052 7.52983 3.84988 7.577C3.78947 7.58599 3.72907 7.58824 3.66867 7.59273C3.15309 7.62643 2.77342 8.19481 2.9158 8.71376C3.00856 9.05299 3.3796 9.42143 3.82399 9.41918C7.18495 9.41244 10.5481 9.41469 13.909 9.41469C14.7396 9.41469 15.5679 9.41918 16.3985 9.4102C16.8882 9.4057 17.27 8.92494 17.2182 8.41946C17.1816 8.05552 16.7932 7.57925 16.282 7.58374C14.8194 7.59722 13.3589 7.58824 11.8963 7.58824C11.1499 7.58824 10.4014 7.58824 9.65498 7.58824C9.35512 7.58824 9.15666 7.45344 9.08547 7.20632C8.96251 6.78397 9.20843 6.42901 9.63341 6.42901C10.6214 6.42676 11.6094 6.42901 12.5953 6.42901C13.8529 6.42901 15.1085 6.43126 16.3661 6.42676C16.8817 6.42452 17.2743 5.95049 17.2118 5.41806C17.1557 4.95751 16.7436 4.59807 16.2669 4.59807C14.1938 4.60031 12.1185 4.60031 10.0433 4.60031ZM10.0411 15.3973C11.7108 15.3973 13.3805 15.3973 15.0502 15.3973C15.4946 15.3973 15.9411 15.4063 16.3855 15.3883C16.8299 15.3703 17.2333 14.912 17.2247 14.4672C17.2161 13.9595 16.8472 13.5798 16.3489 13.5686C15.8354 13.5573 15.7038 13.0743 15.8333 12.7441C15.9347 12.4857 16.1461 12.4116 16.392 12.4071C16.7868 12.3981 17.3498 11.8971 17.1988 11.2748C17.0931 10.8435 16.7674 10.5829 16.323 10.5829C14.4268 10.5829 12.5306 10.5829 10.6344 10.5829C8.34338 10.5829 6.05241 10.5829 3.76143 10.5851C3.37744 10.5851 2.97836 10.9424 2.90285 11.34C2.82304 11.7601 3.04523 12.178 3.43353 12.3465C3.57807 12.4094 3.72691 12.4116 3.87792 12.4116C6.05888 12.4116 8.23768 12.4116 10.4186 12.4116C10.4855 12.4116 10.5545 12.4161 10.6214 12.4273C10.863 12.4655 11.0399 12.6722 11.0485 12.9283C11.0615 13.2541 10.9213 13.4787 10.6624 13.5461C10.5675 13.5708 10.4704 13.5686 10.3733 13.5686C8.17512 13.5686 5.9769 13.5663 3.77869 13.5708C3.39902 13.5708 3.13799 13.7932 2.97188 14.1302C2.81656 14.4492 2.86618 14.7637 3.06896 15.0468C3.26311 15.3186 3.54139 15.4018 3.85635 15.4018C5.91866 15.395 7.97881 15.3973 10.0411 15.3973Z" fill="#51B8B8"/>
</svg>
