<svg width="33" height="33" viewBox="0 0 33 33" fill="none" xmlns="http://www.w3.org/2000/svg">
<path fill-rule="evenodd" clip-rule="evenodd" d="M16.8096 32.8096C25.6461 32.8096 32.8096 25.6461 32.8096 16.8096C32.8096 7.97301 25.6461 0.80957 16.8096 0.80957C7.97301 0.80957 0.80957 7.97301 0.80957 16.8096C0.80957 25.6461 7.97301 32.8096 16.8096 32.8096ZM16.8096 26.2445C14.7103 26.2445 12.6191 28.3319 12.6191 27.6307C12.6191 26.9295 13.413 23.9223 16.8096 23.9223C20.2061 23.9223 21 26.9646 21 27.6307C21 28.2968 18.9089 26.2445 16.8096 26.2445ZM6.48572 20.8739C6.9076 21.7787 7.71582 21.3594 7.71582 21.3594L12.3211 19.5359C12.3211 19.5359 13.4415 19.5359 13.251 18.487C13.0605 17.4381 11.9705 17.5934 11.9705 17.5934L6.9076 19.5359C6.9076 19.5359 6.06385 19.9692 6.48572 20.8739ZM27.2499 20.8739C26.828 21.7787 26.0198 21.3594 26.0198 21.3594L21.4145 19.5359C21.4145 19.5359 20.2942 19.5359 20.4846 18.487C20.6751 17.4381 21.7651 17.5934 21.7651 17.5934L26.828 19.5359C26.828 19.5359 27.6718 19.9692 27.2499 20.8739Z" fill="#D11241"/>
</svg>
