<svg width="33" height="33" viewBox="0 0 33 33" fill="none" xmlns="http://www.w3.org/2000/svg">
<path fill-rule="evenodd" clip-rule="evenodd" d="M16.8096 32.8096C25.6461 32.8096 32.8096 25.6461 32.8096 16.8096C32.8096 7.97301 25.6461 0.80957 16.8096 0.80957C7.97301 0.80957 0.80957 7.97301 0.80957 16.8096C0.80957 25.6461 7.97301 32.8096 16.8096 32.8096ZM12.4286 14.8543C14.2274 14.8543 14.5239 17.1905 14.9048 16.8096C14.9048 14.1429 14.1649 11.8572 12.4286 11.8572C10.6923 11.8572 9.95243 14.1429 9.95243 16.8096C10.3334 17.1905 10.6298 14.8543 12.4286 14.8543ZM21.1905 14.8543C22.9893 14.8543 23.2858 17.1905 23.6667 16.8096C23.6667 14.1429 22.9268 11.8572 21.1905 11.8572C19.4542 11.8572 18.7143 14.1429 18.7143 16.8096C19.0953 17.1905 19.3917 14.8543 21.1905 14.8543ZM16.8096 25.3033C22.1977 25.3033 24.0236 21.7619 24.0477 20.6191C24.0477 20.331 20.8475 23.4815 16.8096 23.4815C12.7716 23.4815 9.19052 20.331 9.19052 20.6191C9.19052 21.7619 11.4215 25.3033 16.8096 25.3033Z" fill="#13ADAD"/>
</svg>
