<svg width="16" height="16" viewBox="0 0 16 16" fill="none" xmlns="http://www.w3.org/2000/svg">
<path d="M15.361 8.54408C15.2499 8.41703 15.081 8.34629 14.8875 8.34629C14.8514 8.34629 14.8153 8.34629 14.7778 8.34629C14.7042 8.34629 14.6277 8.34629 14.5511 8.34629C14.5945 8.06334 14.5843 7.79337 14.5194 7.54073C14.2971 6.6832 13.7514 6.1245 12.8982 5.87763C12.8621 5.72461 12.8115 5.58313 12.7451 5.45609C13.2316 4.97246 13.7254 4.47873 14.2018 4.00088L14.5309 3.67172C14.5656 3.63707 14.6002 3.60387 14.6349 3.56922C14.7143 3.49126 14.7951 3.41042 14.8745 3.32813C14.9987 3.1982 15.0579 3.02207 15.0348 2.84595C15.0117 2.67126 14.9121 2.51968 14.7605 2.42873C14.5208 2.28436 14.2408 2.32623 14.0285 2.53845C12.6412 3.92436 11.2538 5.31172 9.86647 6.69908L9.45358 7.11196C9.44203 7.12351 9.42759 7.13795 9.4146 7.15239C9.302 7.28232 9.25002 7.45122 9.27312 7.61869C9.29622 7.78327 9.38862 7.93052 9.53009 8.02291C9.76541 8.17738 10.0628 8.13985 10.2721 7.93052C10.6302 7.57249 10.9896 7.21446 11.3477 6.85499C11.5007 6.70196 11.6537 6.54894 11.8067 6.39591C11.8125 6.69763 12.0579 6.94594 12.364 6.96182C12.8115 6.98492 13.1248 7.19137 13.3211 7.59126C13.4294 7.81358 13.4482 8.05756 13.376 8.34052L13.3746 8.34485H13.3731C11.9468 8.34341 10.4973 8.34341 9.09555 8.34341H7.77749C6.05232 8.34341 4.32714 8.34341 2.60197 8.34341C2.56732 8.03735 2.56732 7.7876 2.60197 7.5595C2.73045 6.71929 3.38876 6.02633 4.21454 5.8502C4.23619 6.02922 4.27228 6.20246 4.3257 6.36848C4.37334 6.52006 4.47728 6.64277 4.61588 6.71351C4.75302 6.78425 4.90894 6.7958 5.05619 6.74816C5.36513 6.6471 5.51961 6.33239 5.42288 6.00179C5.32327 5.6582 5.32327 5.30017 5.42288 4.93492C5.54992 4.47295 5.84154 4.0745 6.24721 3.81176C6.65432 3.54901 7.13651 3.44795 7.60858 3.52736C7.98827 3.59232 8.31165 3.73524 8.57006 3.95324C8.82126 4.16545 9.0176 4.45274 9.15474 4.80933C8.9815 4.96235 8.83136 5.14137 8.70721 5.33915C8.58738 5.5326 8.57872 5.73904 8.68411 5.93394C8.78084 6.11439 8.9584 6.227 9.15907 6.23566C9.3684 6.24432 9.56474 6.14182 9.68457 5.95992C9.95309 5.55425 10.3126 5.35359 10.7875 5.34637C11.1022 5.34204 11.3477 5.08362 11.3462 4.7588C11.3448 4.4513 11.0921 4.19721 10.7846 4.19144C10.5796 4.18711 10.3775 4.21165 10.1841 4.26218C10.1307 4.12792 10.0657 3.99943 9.99062 3.87816C9.98773 3.87383 9.98629 3.87095 9.98629 3.87095C9.98629 3.87095 9.98629 3.86517 9.98918 3.85651C10.1393 3.40753 10.2895 2.95711 10.4396 2.50669C10.5753 2.10246 10.7096 1.69824 10.8453 1.29257C10.9175 1.07602 10.8871 0.879683 10.7558 0.709331C10.6677 0.598169 10.5479 0.546197 10.4309 0.505775L10.4136 0.5H10.2057L10.1913 0.504331C9.88668 0.58662 9.77696 0.826267 9.72066 0.999506C9.58207 1.43116 9.43481 1.86859 9.29333 2.29303C9.22548 2.49369 9.15619 2.70158 9.08833 2.90658C8.66101 2.6063 8.18316 2.42584 7.66633 2.36665C6.97915 2.2887 6.30351 2.4345 5.71306 2.78676C5.1226 3.13901 4.67507 3.6645 4.41809 4.30693C4.36612 4.4383 4.3257 4.55813 4.29827 4.67507C2.98021 4.85985 2.07215 5.58746 1.59863 6.83911C1.44415 7.24767 1.39218 7.70531 1.43549 8.27988C1.43694 8.29432 1.43694 8.30876 1.43838 8.32319C1.43838 8.33186 1.43982 8.33907 1.43982 8.34774H1.39074C1.29113 8.34774 1.19007 8.34774 1.09046 8.34774C0.814718 8.34918 0.601056 8.50654 0.521655 8.77073C0.520211 8.77217 0.520211 8.77506 0.518768 8.7765C0.51588 8.78083 0.514437 8.78516 0.511549 8.79094L0.5 8.81115V9.04791L0.501444 9.05802C0.508662 9.10133 0.51588 9.14464 0.523099 9.18795C0.538979 9.28034 0.554859 9.37562 0.572183 9.46946C0.782957 10.5941 1.20018 11.6191 1.81084 12.5156C2.46915 13.4814 3.32669 14.2263 4.36035 14.7316C5.24964 15.1661 6.22989 15.4116 7.35594 15.4823C7.56816 15.4953 7.78038 15.5025 7.9926 15.5025C8.3102 15.5025 8.62781 15.4881 8.94252 15.4578C9.56185 15.4 10.1249 15.2889 10.6634 15.1185C12.1619 14.645 13.3587 13.7514 14.2205 12.4636C14.8976 11.4502 15.3264 10.2967 15.4924 9.03347C15.5198 8.84291 15.4722 8.66967 15.361 8.54408ZM14.2408 9.49978C13.926 10.8539 13.3457 11.9222 12.4694 12.7625C11.7764 13.428 10.9088 13.8885 9.89245 14.1325C9.19083 14.2999 8.45601 14.3664 7.64323 14.336C6.8983 14.3072 6.23422 14.1946 5.612 13.991C4.67218 13.6835 3.87383 13.1696 3.24007 12.4636C2.53989 11.6826 2.06204 10.7442 1.78197 9.59362C1.77764 9.57485 1.77331 9.55608 1.76898 9.53587C1.76609 9.52432 1.76465 9.51133 1.76176 9.49978C2.23239 9.50122 2.7088 9.50122 3.17077 9.50122H14.2408V9.49978Z" fill="#848790"/>
</svg>
