<svg width="44" height="44" viewBox="0 0 44 44" fill="none" xmlns="http://www.w3.org/2000/svg">
<rect width="44" height="44" rx="8" fill="#D9184A" fill-opacity="0.1"/>
<path d="M29.361 22.5441C29.2499 22.417 29.081 22.3463 28.8875 22.3463C28.8514 22.3463 28.8153 22.3463 28.7778 22.3463C28.7042 22.3463 28.6277 22.3463 28.5511 22.3463C28.5945 22.0633 28.5843 21.7934 28.5194 21.5407C28.2971 20.6832 27.7514 20.1245 26.8982 19.8776C26.8621 19.7246 26.8115 19.5831 26.7451 19.4561C27.2316 18.9725 27.7254 18.4787 28.2018 18.0009L28.5309 17.6717C28.5656 17.6371 28.6002 17.6039 28.6349 17.5692C28.7143 17.4913 28.7951 17.4104 28.8745 17.3281C28.9987 17.1982 29.0579 17.0221 29.0348 16.8459C29.0117 16.6713 28.9121 16.5197 28.7605 16.4287C28.5208 16.2844 28.2408 16.3262 28.0285 16.5384C26.6412 17.9244 25.2538 19.3117 23.8665 20.6991L23.4536 21.112C23.442 21.1235 23.4276 21.1379 23.4146 21.1524C23.302 21.2823 23.25 21.4512 23.2731 21.6187C23.2962 21.7833 23.3886 21.9305 23.5301 22.0229C23.7654 22.1774 24.0628 22.1398 24.2721 21.9305C24.6302 21.5725 24.9896 21.2145 25.3477 20.855C25.5007 20.702 25.6537 20.5489 25.8067 20.3959C25.8125 20.6976 26.0579 20.9459 26.364 20.9618C26.8115 20.9849 27.1248 21.1914 27.3211 21.5913C27.4294 21.8136 27.4482 22.0576 27.376 22.3405C27.376 22.342 27.3746 22.3434 27.3746 22.3448H27.3731C25.9468 22.3434 24.4973 22.3434 23.0956 22.3434H21.7775C20.0523 22.3434 18.3271 22.3434 16.602 22.3434C16.5673 22.0373 16.5673 21.7876 16.602 21.5595C16.7305 20.7193 17.3888 20.0263 18.2145 19.8502C18.2362 20.0292 18.2723 20.2025 18.3257 20.3685C18.3733 20.5201 18.4773 20.6428 18.6159 20.7135C18.753 20.7843 18.9089 20.7958 19.0562 20.7482C19.3651 20.6471 19.5196 20.3324 19.4229 20.0018C19.3233 19.6582 19.3233 19.3002 19.4229 18.9349C19.5499 18.473 19.8415 18.0745 20.2472 17.8118C20.6543 17.549 21.1365 17.448 21.6086 17.5274C21.9883 17.5923 22.3116 17.7352 22.5701 17.9532C22.8213 18.1655 23.0176 18.4527 23.1547 18.8093C22.9815 18.9624 22.8314 19.1414 22.7072 19.3391C22.5874 19.5326 22.5787 19.739 22.6841 19.9339C22.7808 20.1144 22.9584 20.227 23.1591 20.2357C23.3684 20.2443 23.5647 20.1418 23.6846 19.9599C23.9531 19.5543 24.3126 19.3536 24.7875 19.3464C25.1022 19.342 25.3477 19.0836 25.3462 18.7588C25.3448 18.4513 25.0921 18.1972 24.7846 18.1914C24.5796 18.1871 24.3775 18.2117 24.1841 18.2622C24.1307 18.1279 24.0657 17.9994 23.9906 17.8782C23.9877 17.8738 23.9863 17.8709 23.9863 17.8709C23.9863 17.8695 23.9863 17.8652 23.9892 17.8565C24.1393 17.4075 24.2895 16.9571 24.4396 16.5067C24.5753 16.1025 24.7096 15.6982 24.8453 15.2926C24.9175 15.076 24.8871 14.8797 24.7558 14.7093C24.6677 14.5982 24.5479 14.5462 24.4309 14.5058L24.4136 14.5H24.2057L24.1913 14.5043C23.8867 14.5866 23.777 14.8263 23.7207 14.9995C23.5821 15.4312 23.4348 15.8686 23.2933 16.293C23.2255 16.4937 23.1562 16.7016 23.0883 16.9066C22.661 16.6063 22.1832 16.4258 21.6663 16.3667C20.9791 16.2887 20.3035 16.4345 19.7131 16.7868C19.1226 17.139 18.6751 17.6645 18.4181 18.3069C18.3661 18.4383 18.3257 18.5581 18.2983 18.6751C16.9802 18.8599 16.0721 19.5875 15.5986 20.8391C15.4442 21.2477 15.3922 21.7053 15.4355 22.2799C15.4369 22.2943 15.4369 22.3088 15.4384 22.3232C15.4384 22.3319 15.4398 22.3391 15.4398 22.3477H15.3907C15.2911 22.3477 15.1901 22.3477 15.0905 22.3477C14.8147 22.3492 14.6011 22.5065 14.5217 22.7707C14.5202 22.7722 14.5202 22.7751 14.5188 22.7765C14.5159 22.7808 14.5144 22.7852 14.5115 22.7909L14.5 22.8112V23.0479L14.5014 23.058C14.5087 23.1013 14.5159 23.1446 14.5231 23.1879C14.539 23.2803 14.5549 23.3756 14.5722 23.4695C14.783 24.5941 15.2002 25.6191 15.8108 26.5156C16.4692 27.4814 17.3267 28.2263 18.3603 28.7316C19.2496 29.1661 20.2299 29.4116 21.3559 29.4823C21.5682 29.4953 21.7804 29.5025 21.9926 29.5025C22.3102 29.5025 22.6278 29.4881 22.9425 29.4578C23.5619 29.4 24.1249 29.2889 24.6634 29.1185C26.1619 28.645 27.3587 27.7514 28.2205 26.4636C28.8976 25.4502 29.3264 24.2967 29.4924 23.0335C29.5198 22.8429 29.4722 22.6697 29.361 22.5441ZM28.2408 23.4998C27.926 24.8539 27.3457 25.9222 26.4694 26.7625C25.7764 27.428 24.9088 27.8885 23.8925 28.1325C23.1908 28.2999 22.456 28.3664 21.6432 28.336C20.8983 28.3072 20.2342 28.1946 19.612 27.991C18.6722 27.6835 17.8738 27.1696 17.2401 26.4636C16.5399 25.6826 16.062 24.7442 15.782 23.5936C15.7776 23.5748 15.7733 23.5561 15.769 23.5359C15.7661 23.5243 15.7646 23.5113 15.7618 23.4998C16.2324 23.5012 16.7088 23.5012 17.1708 23.5012H17.5967H28.2408V23.4998Z" fill="#3A3C40"/>
</svg>
