<svg width="20" height="20" viewBox="0 0 20 20" fill="none" xmlns="http://www.w3.org/2000/svg">
<path d="M17.361 10.5441C17.2499 10.417 17.081 10.3463 16.8875 10.3463C16.8514 10.3463 16.8153 10.3463 16.7778 10.3463C16.7042 10.3463 16.6277 10.3463 16.5511 10.3463C16.5945 10.0633 16.5843 9.79337 16.5194 9.54073C16.2971 8.6832 15.7514 8.1245 14.8982 7.87763C14.8621 7.72461 14.8115 7.58313 14.7451 7.45609C15.2316 6.97246 15.7254 6.47873 16.2018 6.00088L16.5309 5.67172C16.5656 5.63707 16.6002 5.60387 16.6349 5.56922C16.7143 5.49126 16.7951 5.41042 16.8745 5.32813C16.9987 5.1982 17.0579 5.02207 17.0348 4.84595C17.0117 4.67126 16.9121 4.51968 16.7605 4.42873C16.5208 4.28436 16.2408 4.32623 16.0285 4.53845C14.6412 5.92436 13.2538 7.31172 11.8665 8.69908L11.4536 9.11196C11.442 9.12351 11.4276 9.13795 11.4146 9.15239C11.302 9.28232 11.25 9.45122 11.2731 9.61869C11.2962 9.78327 11.3886 9.93052 11.5301 10.0229C11.7654 10.1774 12.0628 10.1398 12.2721 9.93052C12.6302 9.57249 12.9896 9.21446 13.3477 8.85499C13.5007 8.70196 13.6537 8.54894 13.8067 8.39591C13.8125 8.69763 14.0579 8.94594 14.364 8.96182C14.8115 8.98492 15.1248 9.19137 15.3211 9.59126C15.4294 9.81358 15.4482 10.0576 15.376 10.3405L15.3746 10.3449H15.3731C13.9468 10.3434 12.4973 10.3434 11.0956 10.3434H9.77749C8.05232 10.3434 6.32714 10.3434 4.60197 10.3434C4.56732 10.0373 4.56732 9.7876 4.60197 9.5595C4.73046 8.71929 5.38876 8.02633 6.21454 7.8502C6.23619 8.02922 6.27228 8.20246 6.3257 8.36848C6.37334 8.52006 6.47728 8.64277 6.61588 8.71351C6.75302 8.78425 6.90894 8.7958 7.05619 8.74816C7.36513 8.6471 7.51961 8.33239 7.42288 8.00179C7.32327 7.6582 7.32327 7.30017 7.42288 6.93492C7.54992 6.47295 7.84154 6.0745 8.24721 5.81176C8.65432 5.54901 9.13651 5.44795 9.60858 5.52736C9.98827 5.59232 10.3116 5.73524 10.5701 5.95324C10.8213 6.16545 11.0176 6.45274 11.1547 6.80933C10.9815 6.96235 10.8314 7.14137 10.7072 7.33915C10.5874 7.5326 10.5787 7.73904 10.6841 7.93394C10.7808 8.11439 10.9584 8.227 11.1591 8.23566C11.3684 8.24432 11.5647 8.14182 11.6846 7.95992C11.9531 7.55425 12.3126 7.35359 12.7875 7.34637C13.1022 7.34204 13.3477 7.08362 13.3462 6.7588C13.3448 6.4513 13.0921 6.19721 12.7846 6.19144C12.5796 6.18711 12.3775 6.21165 12.1841 6.26218C12.1307 6.12792 12.0657 5.99943 11.9906 5.87816C11.9877 5.87383 11.9863 5.87095 11.9863 5.87095C11.9863 5.87095 11.9863 5.86517 11.9892 5.85651C12.1393 5.40753 12.2895 4.95711 12.4396 4.50669C12.5753 4.10246 12.7096 3.69824 12.8453 3.29257C12.9175 3.07602 12.8871 2.87968 12.7558 2.70933C12.6677 2.59817 12.5479 2.5462 12.4309 2.50577L12.4136 2.5H12.2057L12.1913 2.50433C11.8867 2.58662 11.777 2.82627 11.7207 2.99951C11.5821 3.43116 11.4348 3.86859 11.2933 4.29303C11.2255 4.49369 11.1562 4.70158 11.0883 4.90658C10.661 4.6063 10.1832 4.42584 9.66633 4.36665C8.97915 4.2887 8.30351 4.4345 7.71306 4.78676C7.1226 5.13901 6.67507 5.6645 6.41809 6.30693C6.36612 6.4383 6.3257 6.55813 6.29827 6.67507C4.98021 6.85985 4.07215 7.58746 3.59863 8.83911C3.44415 9.24767 3.39218 9.70531 3.43549 10.2799C3.43694 10.2943 3.43694 10.3088 3.43838 10.3232C3.43838 10.3319 3.43982 10.3391 3.43982 10.3477H3.39074C3.29113 10.3477 3.19007 10.3477 3.09046 10.3477C2.81472 10.3492 2.60106 10.5065 2.52165 10.7707C2.52021 10.7722 2.52021 10.7751 2.51877 10.7765C2.51588 10.7808 2.51444 10.7852 2.51155 10.7909L2.5 10.8112V11.0479L2.50144 11.058C2.50866 11.1013 2.51588 11.1446 2.5231 11.1879C2.53898 11.2803 2.55486 11.3756 2.57218 11.4695C2.78296 12.5941 3.20018 13.6191 3.81084 14.5156C4.46915 15.4814 5.32669 16.2263 6.36035 16.7316C7.24964 17.1661 8.22989 17.4116 9.35594 17.4823C9.56816 17.4953 9.78038 17.5025 9.9926 17.5025C10.3102 17.5025 10.6278 17.4881 10.9425 17.4578C11.5619 17.4 12.1249 17.2889 12.6634 17.1185C14.1619 16.645 15.3587 15.7514 16.2205 14.4636C16.8976 13.4502 17.3264 12.2967 17.4924 11.0335C17.5198 10.8429 17.4722 10.6697 17.361 10.5441ZM16.2408 11.4998C15.926 12.8539 15.3457 13.9222 14.4694 14.7624C13.7764 15.428 12.9088 15.8885 11.8925 16.1325C11.1908 16.2999 10.456 16.3664 9.64323 16.336C8.8983 16.3072 8.23422 16.1946 7.612 15.991C6.67218 15.6835 5.87383 15.1696 5.24007 14.4636C4.53989 13.6826 4.06204 12.7442 3.78197 11.5936C3.77764 11.5748 3.77331 11.5561 3.76898 11.5359C3.76609 11.5243 3.76465 11.5113 3.76176 11.4998C4.23239 11.5012 4.7088 11.5012 5.17077 11.5012H16.2408V11.4998Z" fill="#848790"/>
</svg>
