<svg width="16" height="18" viewBox="0 0 16 18" fill="none" xmlns="http://www.w3.org/2000/svg">
<path d="M11.5782 3.17799C11.6401 3.16011 11.6636 3.12652 11.6916 3.09914C12.3217 2.48331 12.9506 1.86602 13.5818 1.25128C13.8251 1.01474 14.1847 1.03518 14.3902 1.29144C14.5585 1.50171 14.5353 1.79374 14.3313 1.99379C13.8579 2.45849 13.383 2.92173 12.9088 3.3857C12.6037 3.68431 12.2985 3.98255 11.9938 4.28152C11.9132 4.36037 11.9143 4.36402 12.0135 4.41039C12.3541 4.56918 12.6373 4.79514 12.8462 5.10434C12.8928 5.17333 12.9432 5.20509 13.0312 5.21312C13.831 5.28394 14.5253 5.85085 14.754 6.60832C14.8271 6.85071 14.8547 7.09529 14.8237 7.34644C14.8174 7.39755 14.8122 7.44428 14.8905 7.44537C15.3273 7.45085 15.5818 7.70455 15.7507 8.06412C15.9548 8.49889 15.9977 8.96505 15.9999 9.43414C16.0022 9.93972 15.9388 10.4395 15.8343 10.9348C15.6261 11.9219 15.2744 12.8579 14.7853 13.7435C14.2757 14.6667 13.64 15.4968 12.838 16.1984C12.1053 16.8387 11.2786 17.3268 10.3456 17.6323C9.41971 17.9353 8.46768 18.0474 7.49253 17.982C6.99526 17.9488 6.50581 17.874 6.02644 17.7444C5.27661 17.5414 4.58087 17.2216 3.93811 16.7916C3.13493 16.2543 2.46717 15.5833 1.90051 14.8131C1.34466 14.0574 0.911179 13.239 0.584014 12.3654C0.398981 11.8719 0.250507 11.3681 0.149037 10.8523C0.0221998 10.2088 -0.0430838 9.55898 0.0315262 8.90373C0.0703235 8.56168 0.143441 8.2262 0.32549 7.92431C0.500823 7.63373 0.745917 7.44829 1.10591 7.44647C1.16746 7.4461 1.18351 7.4158 1.1932 7.3647C1.27304 6.94708 1.46329 6.58569 1.77666 6.28927C1.98221 6.0947 2.21872 5.94613 2.49105 5.85779C2.57349 5.83114 2.6108 5.78295 2.63504 5.70191C2.82791 5.05104 3.2517 4.60568 3.89931 4.36804C4.25408 4.23808 4.62042 4.22129 4.98974 4.29832C5.06509 4.31401 5.10053 4.28956 5.1397 4.23224C5.45045 3.77849 5.87424 3.46601 6.41069 3.32109C7.17245 3.11557 7.86595 3.26925 8.47925 3.75659C8.53707 3.80258 8.59079 3.8223 8.66391 3.81682C9.02913 3.78981 9.37457 3.86099 9.6939 4.03658C9.77523 4.08111 9.8129 4.07053 9.85916 3.99204C10.4068 3.05789 10.957 2.12557 11.5073 1.19288C11.6916 0.880398 11.8748 0.566824 12.062 0.255806C12.1713 0.0743784 12.3433 -0.0121372 12.5533 0.0013695C12.7712 0.0156063 12.9338 0.1295 13.0163 0.331005C13.0823 0.492355 13.0629 0.65115 12.973 0.803009C12.5276 1.55683 12.0837 2.31101 11.6394 3.06519C11.6207 3.09695 11.6047 3.12908 11.5782 3.17799ZM7.99055 7.44391C7.99055 7.44428 7.99055 7.44428 7.99055 7.44464C9.80097 7.44464 11.611 7.44464 13.4214 7.44464C13.499 7.44464 13.5766 7.44391 13.6542 7.44318C13.699 7.44282 13.7281 7.42748 13.7411 7.37893C13.787 7.21211 13.7766 7.04784 13.7228 6.88539C13.5934 6.49552 13.1883 6.19546 12.688 6.26299C12.3802 6.30461 12.1795 6.17647 12.0702 5.89831C11.9378 5.56174 11.6871 5.35841 11.3294 5.28941C11.1357 5.25218 10.9649 5.27408 10.8075 5.43616C10.3542 5.90269 9.88117 6.35133 9.41523 6.80618C9.25258 6.96497 9.0142 7.01644 8.82544 6.93686C8.50462 6.8018 8.39531 6.46778 8.57438 6.16224C8.78552 5.80194 8.99742 5.44164 9.21304 5.08353C9.25557 5.01271 9.24438 4.9784 9.16902 4.94554C9.00339 4.87253 8.83327 4.83895 8.65309 4.86998C8.58594 4.88129 8.52029 4.9021 8.45314 4.9105C8.23677 4.93678 8.07225 4.85099 7.93087 4.69256C7.32727 4.01614 6.22938 4.21144 5.90595 5.04958C5.87014 5.14267 5.84701 5.2405 5.78135 5.3219C5.6034 5.54239 5.3225 5.58729 5.05651 5.43726C4.73681 5.25692 4.40927 5.24707 4.09292 5.43142C3.78553 5.61065 3.62512 5.88407 3.63706 6.24218C3.64004 6.32943 3.62102 6.41193 3.58185 6.48859C3.48821 6.67184 3.33563 6.77004 3.12598 6.78719C2.76039 6.81749 2.48844 6.98724 2.32467 7.31286C2.26572 7.43004 2.27542 7.44428 2.41084 7.44428C4.27087 7.44391 6.13053 7.44391 7.99055 7.44391ZM2.55708 12.7422C2.54999 12.8174 2.57424 12.8988 2.61639 12.9747C2.96967 13.6088 3.38525 14.1991 3.9023 14.7178C4.59281 15.4099 5.39636 15.9228 6.35062 16.1966C6.61959 16.274 6.91319 16.1225 6.99861 15.8637C7.09113 15.5833 6.95198 15.2865 6.67704 15.1982C6.36144 15.0967 6.05405 14.9784 5.76494 14.8167C5.02742 14.4046 4.45963 13.8183 3.97802 13.1448C3.82507 12.9309 3.6919 12.7053 3.56245 12.4768C3.44419 12.2683 3.18641 12.1596 2.9678 12.2183C2.71935 12.2851 2.55782 12.4863 2.55708 12.7422Z" fill="white"/>
</svg>
