<svg width="18" height="19" viewBox="0 0 18 19" fill="none" xmlns="http://www.w3.org/2000/svg">
<path d="M17.8332 9.65289C17.6999 9.50044 17.4972 9.41555 17.265 9.41555C17.2217 9.41555 17.1784 9.41555 17.1334 9.41555C17.045 9.41555 16.9532 9.41555 16.8614 9.41555C16.9133 9.076 16.9012 8.75205 16.8233 8.44888C16.5565 7.41984 15.9016 6.7494 14.8778 6.45316C14.8345 6.26953 14.7738 6.09975 14.6942 5.9473C15.278 5.36695 15.8704 4.77447 16.4421 4.20105L16.8371 3.80607C16.8787 3.76449 16.9203 3.72464 16.9619 3.68307C17.0571 3.58952 17.1541 3.4925 17.2494 3.39376C17.3984 3.23784 17.4694 3.02649 17.4417 2.81514C17.414 2.60552 17.2945 2.42362 17.1126 2.31448C16.825 2.14124 16.4889 2.19148 16.2342 2.44614C14.5694 4.10923 12.9046 5.77406 11.2398 7.43889L10.7443 7.93436C10.7304 7.94822 10.7131 7.96554 10.6975 7.98286C10.5624 8.13878 10.5 8.34147 10.5277 8.54243C10.5555 8.73992 10.6663 8.91662 10.8361 9.0275C11.1185 9.21286 11.4754 9.16782 11.7266 8.91662C12.1562 8.48699 12.5876 8.05736 13.0172 7.62599C13.2008 7.44236 13.3845 7.25872 13.5681 7.07509C13.575 7.43716 13.8695 7.73513 14.2368 7.75419C14.7738 7.78191 15.1498 8.02964 15.3854 8.50951C15.5153 8.7763 15.5378 9.06907 15.4512 9.40862C15.4512 9.41035 15.4495 9.41209 15.4495 9.41382H15.4477C13.7361 9.41209 11.9968 9.41209 10.3147 9.41209H8.73299C6.66278 9.41209 4.59257 9.41209 2.52236 9.41209C2.48079 9.04482 2.48079 8.74512 2.52236 8.4714C2.67655 7.46315 3.46652 6.6316 4.45745 6.42025C4.48343 6.63506 4.52674 6.84295 4.59084 7.04217C4.64801 7.22408 4.77274 7.37133 4.93905 7.45622C5.10363 7.5411 5.29073 7.55496 5.46743 7.49779C5.83816 7.37653 6.02353 6.99886 5.90746 6.60215C5.78792 6.18984 5.78792 5.7602 5.90746 5.32191C6.05991 4.76754 6.40985 4.2894 6.89665 3.97411C7.38519 3.65881 7.96381 3.53754 8.5303 3.63283C8.98592 3.71078 9.37397 3.88229 9.68407 4.14388C9.98551 4.39854 10.2211 4.74329 10.3857 5.17119C10.1778 5.35482 9.99764 5.56964 9.84865 5.80698C9.70486 6.03912 9.69447 6.28685 9.82093 6.52072C9.937 6.73727 10.1501 6.8724 10.3909 6.88279C10.6421 6.89319 10.8777 6.77019 11.0215 6.55191C11.3437 6.06511 11.7751 5.8243 12.345 5.81564C12.7227 5.81044 13.0172 5.50035 13.0155 5.11056C13.0137 4.74156 12.7106 4.43666 12.3416 4.42973C12.0956 4.42453 11.853 4.45398 11.6209 4.51461C11.5568 4.3535 11.4788 4.19932 11.3887 4.0538C11.3853 4.0486 11.3835 4.04514 11.3835 4.04514C11.3835 4.0434 11.3835 4.03821 11.387 4.02781C11.5672 3.48904 11.7474 2.94853 11.9275 2.40803C12.0904 1.92296 12.2515 1.43789 12.4143 0.951083C12.5009 0.691225 12.4646 0.455619 12.3069 0.251197C12.2012 0.117803 12.0575 0.0554366 11.9171 0.00692957L11.8963 0H11.6469L11.6295 0.00519718C11.264 0.103944 11.1324 0.391521 11.0648 0.599408C10.8985 1.11739 10.7218 1.64231 10.552 2.15163C10.4706 2.39243 10.3874 2.6419 10.306 2.8879C9.79321 2.52756 9.21979 2.31101 8.5996 2.23998C7.77498 2.14643 6.96422 2.32141 6.25567 2.74411C5.54712 3.16681 5.01008 3.7974 4.70171 4.56832C4.63935 4.72597 4.59084 4.86975 4.55792 5.01008C2.97625 5.23182 1.88658 6.10495 1.31835 7.60693C1.13298 8.0972 1.07062 8.64637 1.12259 9.33586C1.12432 9.35319 1.12432 9.37051 1.12606 9.38783C1.12606 9.39823 1.12779 9.40689 1.12779 9.41728H1.06889C0.949351 9.41728 0.828084 9.41728 0.708548 9.41728C0.377662 9.41902 0.121267 9.60785 0.0259859 9.92488C0.0242535 9.92661 0.0242535 9.93007 0.0225211 9.9318C0.0190563 9.937 0.0173239 9.9422 0.0138591 9.94913L0 9.97338V10.2575L0.00173239 10.2696C0.0103944 10.3216 0.0190563 10.3736 0.0277183 10.4255C0.0467746 10.5364 0.0658309 10.6507 0.0866196 10.7634C0.339549 12.1129 0.84021 13.3429 1.57301 14.4187C2.36298 15.5777 3.39202 16.4716 4.63242 17.0779C5.69957 17.5994 6.87586 17.8939 8.22713 17.9788C8.48179 17.9944 8.73645 18.003 8.99112 18.003C9.37224 18.003 9.75337 17.9857 10.131 17.9493C10.8742 17.88 11.5499 17.7466 12.196 17.5422C13.9943 16.974 15.4304 15.9016 16.4647 14.3563C17.2771 13.1402 17.7917 11.756 17.9909 10.2402C18.0238 10.0115 17.9666 9.80361 17.8332 9.65289ZM16.4889 10.7997C16.1112 12.4247 15.4148 13.7067 14.3633 14.7149C13.5317 15.5136 12.4905 16.0662 11.2709 16.359C10.429 16.5599 9.54721 16.6396 8.57188 16.6032C7.67796 16.5686 6.88106 16.4335 6.1344 16.1892C5.00661 15.8202 4.0486 15.2035 3.28808 14.3563C2.44787 13.4191 1.87445 12.2931 1.53836 10.9123C1.53317 10.8898 1.52797 10.8673 1.52277 10.843C1.51931 10.8292 1.51758 10.8136 1.51411 10.7997C2.07887 10.8015 2.65056 10.8015 3.20493 10.8015H3.71598H16.4889V10.7997Z" fill="#3A3C40"/>
</svg>
