<svg width="14" height="14" viewBox="0 0 14 14" fill="none" xmlns="http://www.w3.org/2000/svg">
<path d="M3.17298 12.8333C3.04874 12.8014 2.93504 12.7512 2.85533 12.6464C2.73929 12.4936 2.71468 12.3271 2.79321 12.1527C2.85299 12.0216 2.92215 11.8939 2.99013 11.7662C3.00888 11.7308 3.00537 11.7194 2.96669 11.7023C2.35248 11.4321 1.95864 10.9806 1.79923 10.3399C1.76289 10.194 1.75117 10.0446 1.75117 9.8941C1.75 9.42779 1.75 8.96034 1.75 8.49404C1.75 8.17708 1.96216 7.97186 2.28919 7.97186C5.2512 7.97186 8.21321 7.97186 11.1764 7.97186C11.2162 7.97186 11.2432 7.97528 11.2432 7.91942C11.2409 6.4669 11.2444 5.01553 11.2397 3.56302C11.2385 2.91999 10.7486 2.33397 10.1027 2.18575C9.3748 2.01816 8.64456 2.38185 8.36441 3.0511C8.33863 3.11267 8.33863 3.11267 8.40544 3.11267C8.6762 3.11267 8.94814 3.11153 9.21891 3.11381C9.48264 3.11495 9.6737 3.25861 9.73231 3.49461C9.80498 3.78762 9.56938 4.08633 9.25876 4.08633C8.24837 4.08747 7.23681 4.08747 6.22642 4.08633C5.9791 4.08633 5.75522 3.87313 5.74701 3.63599C5.73764 3.36464 5.92987 3.13547 6.19009 3.11951C6.46671 3.10355 6.74451 3.11609 7.02114 3.11381C7.09733 3.11267 7.17351 3.11267 7.2497 3.11381C7.28135 3.11495 7.29776 3.10583 7.30597 3.07277C7.50758 2.2724 7.99402 1.70234 8.76412 1.36601C9.14389 1.20069 9.54711 1.13456 9.96205 1.18131C11.0357 1.3033 11.7531 1.8688 12.1235 2.85272C12.2149 3.09443 12.2466 3.34981 12.2466 3.60634C12.2477 5.70986 12.2559 7.81224 12.2419 9.91577C12.2372 10.7435 11.8117 11.3364 11.0451 11.6932C10.99 11.7194 10.9877 11.7365 11.0146 11.7844C11.0732 11.8893 11.1236 11.9988 11.1811 12.1037C11.3557 12.4252 11.1506 12.7706 10.8447 12.8231C10.84 12.8242 10.8353 12.8288 10.8306 12.8322C10.772 12.8322 10.7134 12.8322 10.6548 12.8322C10.6524 12.8299 10.6501 12.8254 10.6466 12.8242C10.4672 12.7866 10.35 12.6783 10.2715 12.5187C10.1707 12.3134 10.0629 12.1128 9.9597 11.9087C9.94212 11.8734 9.92102 11.8608 9.88 11.8608C7.95885 11.8619 6.03771 11.8619 4.11539 11.8608C4.07319 11.8608 4.04975 11.8722 4.03099 11.911C3.92433 12.1242 3.81415 12.3351 3.70631 12.5472C3.65591 12.6464 3.58206 12.725 3.48009 12.7775C3.4332 12.8014 3.38163 12.8094 3.33474 12.8311C3.28199 12.8333 3.22807 12.8333 3.17298 12.8333ZM7.00238 8.94894C6.78553 8.94894 6.56869 8.94894 6.35301 8.94894C5.17266 8.94894 3.99231 8.94894 2.81196 8.94894C2.77797 8.94894 2.74984 8.94324 2.74984 8.99569C2.75218 9.30694 2.7475 9.61819 2.75218 9.92945C2.76039 10.4642 3.19994 10.8871 3.74851 10.8871C5.9158 10.8883 8.08427 10.8883 10.2516 10.8871C10.799 10.8871 11.2385 10.4573 11.2409 9.92375C11.242 9.62161 11.2397 9.32062 11.2432 9.01849C11.2444 8.96149 11.2291 8.9478 11.1705 8.9478C9.78154 8.94894 8.39255 8.9478 7.00238 8.94894Z" fill="#53565E"/>
<path d="M9.74404 5.29716C9.74287 5.4203 9.7628 5.54457 9.73115 5.66542C9.67254 5.89459 9.43811 6.05648 9.20603 6.03026C8.93995 6.00062 8.74889 5.79996 8.74772 5.54685C8.74655 5.38039 8.74655 5.21279 8.74772 5.04634C8.74889 4.78867 8.96574 4.58003 9.23885 4.57205C9.49672 4.56407 9.72646 4.76359 9.74404 5.01327C9.74873 5.10676 9.74404 5.20253 9.74404 5.29716Z" fill="#53565E"/>
<path d="M6.74568 5.30508C6.74451 5.42365 6.76209 5.5445 6.73278 5.66194C6.67418 5.89794 6.44326 6.053 6.20415 6.02906C5.9369 6.00169 5.74935 5.79875 5.74818 5.5445C5.74818 5.37919 5.74701 5.21387 5.74818 5.04969C5.74935 4.79089 5.96269 4.58224 6.23579 4.57198C6.49718 4.56172 6.72692 4.7601 6.74451 5.01549C6.75154 5.11126 6.74568 5.20817 6.74568 5.30508Z" fill="#53565E"/>
<path d="M8.24482 5.78966C8.24365 5.9128 8.2624 6.03707 8.23075 6.15792C8.16746 6.39507 7.93303 6.54214 7.67047 6.51136C7.43721 6.48285 7.24967 6.27193 7.2485 6.03707C7.24732 5.87061 7.24732 5.70301 7.2485 5.53542C7.24967 5.27889 7.463 5.06683 7.72908 5.05543C7.99281 5.04402 8.22607 5.24354 8.24365 5.49893C8.25068 5.59584 8.24482 5.69275 8.24482 5.78966Z" fill="#53565E"/>
</svg>
