<svg width="18" height="20" viewBox="0 0 18 20" fill="none" xmlns="http://www.w3.org/2000/svg">
<path d="M9.94358 19.9998C7.44723 19.9998 4.95088 19.9998 2.49236 19.9998C2.0763 19.9998 1.96283 19.8886 1.96283 19.4808C1.96283 16.886 1.96283 14.3282 1.96283 11.7333C1.96283 11.3256 2.0763 11.2144 2.49236 11.2144C7.48506 11.2144 12.4778 11.2144 17.4705 11.2144C17.8865 11.2144 18 11.3256 18 11.7333C18 14.3282 18 16.886 18 19.4808C18 19.8886 17.8865 19.9998 17.4705 19.9998C14.9363 19.9998 12.4399 19.9998 9.94358 19.9998ZM10.0949 16.3299C10.3218 16.367 10.6244 16.367 10.7757 16.0334C10.8135 15.9592 10.927 15.8851 11.0405 15.811C11.1539 15.7368 11.3052 15.6256 11.4187 15.5515C12.2508 14.8472 12.1752 13.6609 11.3052 13.0308C10.2462 12.2523 8.65759 12.7342 8.16588 13.9204C8.12806 14.0316 8.12806 14.1058 8.24153 14.1428C8.50629 14.217 8.77106 14.3282 8.998 14.4394C9.11147 14.4765 9.18711 14.4765 9.26276 14.3282C9.41405 14.0687 9.60317 13.8834 9.90576 13.8463C10.2462 13.7721 10.6244 13.9204 10.7379 14.217C10.8513 14.4394 10.7379 14.6618 10.3975 14.8842C10.1705 15.0325 9.94358 15.2179 9.75447 15.4032C9.56535 15.6256 9.45188 15.848 9.37623 16.1446C9.33841 16.2929 9.41405 16.367 9.56535 16.367C9.75447 16.3299 9.86794 16.3299 10.0949 16.3299ZM10.0571 18.517C10.4731 18.517 10.8513 18.1834 10.8513 17.7756C10.8513 17.3679 10.5109 17.0343 10.0949 17.0343C9.67882 17.0343 9.30059 17.3679 9.30059 17.7756C9.26276 18.1834 9.641 18.517 10.0571 18.517Z" fill="white"/>
<path d="M5.63178 10.1025C5.21572 10.1025 4.76184 10.1025 4.34578 10.1025C4.19449 10.1025 4.08102 10.0654 4.00537 9.91711C3.32455 8.95331 2.64373 7.9895 1.9629 7.06276C1.69814 6.69207 1.77379 6.43258 2.22767 6.2843C3.05978 5.98775 3.8919 5.69119 4.68619 5.39464C4.83749 5.35757 4.91313 5.28343 4.83749 5.13515C4.49708 4.20841 4.15666 3.28168 3.77843 2.35494C3.58931 1.83597 3.13543 1.61355 2.64373 1.68769C2.07637 1.83597 1.69814 2.24373 1.73596 2.72564C1.73596 2.83684 1.77379 2.94805 1.81161 3.05926C1.9629 3.57823 1.69814 4.02307 1.24426 4.17135C0.752551 4.31962 0.29867 4.06014 0.147376 3.57823C-0.419977 1.94718 0.714728 0.241983 2.45461 0.0195657C3.77843 -0.128712 4.95096 0.575608 5.44266 1.7989C5.78307 2.68857 6.12349 3.6153 6.4639 4.50497C6.53954 4.69032 6.61519 4.72739 6.80431 4.65325C7.63642 4.35669 8.43072 4.06014 9.26283 3.76358C9.67889 3.6153 9.90583 3.72651 9.94366 4.17135C9.98148 4.43083 9.98148 4.69032 10.0193 4.9498C10.0571 5.17222 9.98148 5.35757 9.86801 5.57998C8.99807 7.02569 8.16595 8.43433 7.33384 9.88004C7.25819 10.0283 7.14472 10.1025 6.9556 10.1025C6.50172 10.0654 6.08566 10.1025 5.63178 10.1025Z" fill="white"/>
<path d="M12.3264 10.1025C11.1539 10.1025 9.98136 10.1025 8.80883 10.1025C8.54407 10.1025 8.54407 10.1025 8.65754 9.88012C10.0948 7.43354 11.5699 4.94989 13.0072 2.5033C13.272 2.0214 13.7259 1.91019 14.2176 2.16968C14.5202 2.35502 14.8606 2.54037 15.1632 2.72572C15.6171 2.98521 15.7305 3.43004 15.4658 3.8378C15.3901 3.98608 15.2766 4.17143 15.1632 4.31971C15.0497 4.46798 15.0875 4.54212 15.2388 4.61626C15.9575 5.02403 16.7139 5.43179 17.4326 5.83955C17.9621 6.13611 18.0756 6.58094 17.773 7.09992C17.2435 8.02665 16.6761 8.95339 16.1466 9.88012C16.0709 10.0284 15.9575 10.1025 15.7684 10.1025C14.6715 10.1025 13.4989 10.1025 12.3264 10.1025ZM16.0709 6.95164C16.0709 6.84043 15.9953 6.84043 15.9196 6.80336C15.0875 6.32146 14.2176 5.83955 13.3855 5.35765C13.2342 5.28351 13.1964 5.28351 13.1207 5.43179C12.7803 6.0249 12.4399 6.61801 12.0616 7.21112C11.986 7.3594 12.0238 7.39647 12.1373 7.47061C12.9694 7.95251 13.8394 8.43442 14.6715 8.91632C14.8228 8.99046 14.8606 8.99046 14.9362 8.84218C15.2766 8.24907 15.6549 7.65596 15.9953 7.06285C16.0331 7.02578 16.0709 6.98871 16.0709 6.95164Z" fill="white"/>
</svg>
