<svg width="20" height="20" viewBox="0 0 20 20" fill="none" xmlns="http://www.w3.org/2000/svg">
<path d="M10.1592 17.9992C8.63392 17.9921 7.1547 17.7553 5.74338 17.1776C5.65851 17.1421 5.60758 17.0947 5.57606 17.0095C5.43299 16.6401 5.38449 16.2518 5.34569 15.8658C5.29234 15.3615 5.24869 14.8548 5.20504 14.3481C5.17352 13.9905 5.1517 13.633 5.12745 13.2755C5.11775 13.1263 5.10562 12.9771 5.10077 12.828C5.09835 12.7451 5.05227 12.7025 4.9771 12.674C4.29811 12.416 3.6846 12.0466 3.12686 11.5896C2.19084 10.8201 1.46578 9.89664 1.01716 8.77668C0.988062 8.70091 0.995336 8.64645 1.04384 8.58015C1.87802 7.45072 2.72432 6.32839 3.64823 5.26052C4.06289 4.78223 4.48483 4.31104 4.9771 3.90378C5.20504 3.71673 5.46694 3.60308 5.74338 3.50836C6.40782 3.27632 7.09408 3.13899 7.78276 3.00403C7.85309 2.98982 7.88946 3.0135 7.91613 3.07033C7.94281 3.13189 7.97676 3.19108 8.00101 3.25264C8.12953 3.60071 8.389 3.82091 8.72607 3.95588C9.69119 4.34182 10.6587 4.34182 11.6215 3.94877C11.9464 3.81618 12.1962 3.60308 12.3223 3.26922C12.3392 3.22186 12.3683 3.17688 12.3853 3.12952C12.4217 3.02534 12.4799 2.98745 12.6011 3.01113C13.234 3.13899 13.8621 3.28106 14.4805 3.46574C15.0334 3.63149 15.4674 3.95351 15.8554 4.35603C16.7114 5.23921 17.4777 6.1958 18.2246 7.16659C18.5835 7.63304 18.9327 8.1066 19.2867 8.57542C19.3376 8.64408 19.3473 8.70328 19.3134 8.78141C18.6223 10.4318 17.4486 11.6441 15.8384 12.4657C15.6857 12.5438 15.5232 12.6077 15.3631 12.6693C15.271 12.7048 15.2346 12.7546 15.2298 12.8516C15.1788 13.6685 15.1182 14.4854 15.0431 15.3023C15.0067 15.7072 14.963 16.1097 14.8951 16.5099C14.8636 16.6945 14.803 16.8674 14.7424 17.045C14.7205 17.1065 14.6793 17.1397 14.6187 17.1657C13.6972 17.5446 12.7394 17.7861 11.7475 17.9045C11.2238 17.966 10.6927 18.0063 10.1592 17.9992ZM13.8645 9.19814C13.913 9.20288 13.9276 9.2455 13.9518 9.27391C14.4271 9.83745 14.9 10.401 15.3728 10.9645C15.4844 11.0995 15.4868 11.0995 15.6372 11.0071C15.8651 10.8651 16.0858 10.7135 16.2943 10.543C16.8327 10.1003 17.291 9.5912 17.6547 8.99925C17.725 8.8856 17.7226 8.80272 17.6402 8.69381C17.1091 8.00005 16.5708 7.30865 16.013 6.63384C15.5741 6.10345 15.1352 5.57307 14.6332 5.09715C14.5096 4.97876 14.3689 4.89352 14.2064 4.83432C13.8961 4.7254 13.5808 4.64253 13.2631 4.56203C13.188 4.54309 13.137 4.55729 13.0813 4.61412C12.8412 4.86037 12.5551 5.04269 12.2422 5.18475C11.2698 5.62516 10.2489 5.71514 9.20378 5.53045C8.4569 5.39785 7.76821 5.1303 7.2226 4.58807C7.17652 4.54309 7.13045 4.54782 7.07953 4.56203C6.83461 4.62833 6.58726 4.68989 6.34477 4.76329C6.08772 4.83906 5.85008 4.94324 5.65608 5.13977C5.36994 5.42864 5.09107 5.72698 4.82918 6.03479C4.09199 6.9014 3.38148 7.79168 2.69765 8.69854C2.61763 8.80272 2.60793 8.88086 2.67825 8.99215C3.19961 9.83271 3.88587 10.5146 4.7443 11.0332C4.82918 11.0853 4.87768 11.0687 4.93587 11C5.11775 10.7751 5.30447 10.5525 5.49119 10.3276C5.80158 9.95347 6.10955 9.57936 6.41994 9.20525C6.43934 9.18157 6.45389 9.14132 6.49027 9.15316C6.52907 9.165 6.51451 9.20762 6.51209 9.23603C6.50482 9.38046 6.48784 9.52727 6.48299 9.6717C6.45632 10.3181 6.33992 10.9621 6.41267 11.6156C6.46602 12.0774 6.48542 12.5415 6.51936 13.0055C6.55574 13.4933 6.59454 13.9787 6.63334 14.4665C6.66971 14.9542 6.71579 15.4396 6.76671 15.925C6.78126 16.0647 6.84431 16.1192 6.9704 16.1594C7.88703 16.4459 8.83034 16.5856 9.79062 16.6188C10.4357 16.6401 11.0807 16.6093 11.7233 16.5217C12.2956 16.4436 12.8582 16.3204 13.4086 16.1452C13.5008 16.1168 13.5517 16.0718 13.5638 15.9653C13.6099 15.5391 13.6536 15.1129 13.6851 14.6843C13.7312 14.0758 13.7772 13.4673 13.8233 12.8587C13.8524 12.487 13.8864 12.1129 13.9106 11.7411C13.9227 11.5375 13.9737 11.3363 13.9615 11.1303C13.9252 10.5241 13.8864 9.92032 13.85 9.31417C13.8451 9.27391 13.8306 9.23129 13.8645 9.19814Z" fill="#848790"/>
<path fill-rule="evenodd" clip-rule="evenodd" d="M9.74639 9.37087C10.3552 9.1574 10.7917 8.57768 10.7917 7.896C10.7917 7.03305 10.0921 6.3335 9.22919 6.3335C8.36624 6.3335 7.66669 7.03305 7.66669 7.896C7.66669 8.21779 7.76396 8.51686 7.93071 8.76541C7.76649 8.94954 7.66669 9.19236 7.66669 9.4585C7.66669 10.0338 8.13306 10.5002 8.70835 10.5002C9.28365 10.5002 9.75002 10.0338 9.75002 9.4585C9.75002 9.42898 9.74879 9.39976 9.74639 9.37087Z" fill="#848790"/>
<path fill-rule="evenodd" clip-rule="evenodd" d="M12.0418 11.8492C11.8713 11.5417 11.5433 11.3335 11.1667 11.3335C10.6144 11.3335 10.1667 11.7812 10.1667 12.3335C10.1667 12.8858 10.6144 13.3335 11.1667 13.3335C11.1667 13.6096 11.3905 13.8335 11.6667 13.8335C11.9428 13.8335 12.1667 13.6096 12.1667 13.3335C12.1667 13.2701 12.1549 13.2095 12.1334 13.1536C12.4095 13.1536 12.6667 12.8335 12.6667 12.3335C12.6667 12.0574 12.4428 11.8335 12.1667 11.8335C12.1236 11.8335 12.0817 11.839 12.0418 11.8492Z" fill="#848790"/>
</svg>
