<svg width="24" height="24" viewBox="0 0 24 24" fill="none" xmlns="http://www.w3.org/2000/svg">
<path d="M13.075 9.5V8H18.825V9.5H13.075ZM13.075 6.5V5H21.075V6.5H13.075ZM7.47499 20.975C6.22499 20.975 5.15415 20.5292 4.26249 19.6375C3.37082 18.7458 2.92499 17.675 2.92499 16.425C2.92499 15.625 3.11249 14.8833 3.48749 14.2C3.86249 13.5167 4.42499 12.9333 5.17499 12.45V5.3C5.17499 4.66667 5.39999 4.125 5.84999 3.675C6.29999 3.225 6.84165 3 7.47499 3C8.10832 3 8.64999 3.225 9.09999 3.675C9.54999 4.125 9.77499 4.66667 9.77499 5.3V12.45C10.5083 12.9167 11.0667 13.4958 11.45 14.1875C11.8333 14.8792 12.025 15.625 12.025 16.425C12.025 17.675 11.5792 18.7458 10.6875 19.6375C9.79582 20.5292 8.72499 20.975 7.47499 20.975ZM4.42499 16.425H10.525C10.525 15.925 10.3875 15.3833 10.1125 14.8C9.83749 14.2167 9.39165 13.7833 8.77499 13.5L8.27499 13.275V5.3C8.27499 5.06667 8.19999 4.875 8.04999 4.725C7.89999 4.575 7.70832 4.5 7.47499 4.5C7.24165 4.5 7.04999 4.575 6.89999 4.725C6.74999 4.875 6.67499 5.06667 6.67499 5.3V13.275L6.17499 13.5C5.57499 13.7833 5.13332 14.2167 4.84999 14.8C4.56665 15.3833 4.42499 15.925 4.42499 16.425Z" fill="#A8ABB3"/>
</svg>
