<svg width="16" height="16" viewBox="0 0 16 16" fill="none" xmlns="http://www.w3.org/2000/svg">
<path fill-rule="evenodd" clip-rule="evenodd" d="M7.99998 1.33333C4.31998 1.33333 1.33331 4.31999 1.33331 8C1.33331 11.68 4.31998 14.6667 7.99998 14.6667C11.68 14.6667 14.6666 11.68 14.6666 8C14.6666 4.31999 11.68 1.33333 7.99998 1.33333ZM10.8266 5.17333C10.0466 4.39333 9.02665 3.99999 7.99998 3.99999V8L5.17331 10.8267C6.73331 12.3867 9.26665 12.3867 10.8333 10.8267C12.3933 9.26666 12.3933 6.73333 10.8266 5.17333ZM2.66665 8C2.66665 10.9467 5.05331 13.3333 7.99998 13.3333C10.9466 13.3333 13.3333 10.9467 13.3333 8C13.3333 5.05333 10.9466 2.66666 7.99998 2.66666C5.05331 2.66666 2.66665 5.05333 2.66665 8Z" fill="#46C05A"/>
</svg>
