<svg width="14" height="12" viewBox="0 0 14 12" fill="none" xmlns="http://www.w3.org/2000/svg">
<path d="M13.6666 0.461538V2.61538C13.6666 2.86154 13.4445 3.07692 13.1906 3.07692C12.9367 3.07692 12.7145 2.86154 12.7145 2.61538V1.53846C11.3816 2.61538 7.41454 5.50769 0.908563 6.76923C0.654671 6.8 0.400779 6.64615 0.337306 6.4C0.30557 6.15385 0.464252 5.90769 0.718144 5.84615C6.77981 4.67692 10.6199 2 11.9846 0.923077H10.969C10.7151 0.923077 10.493 0.707692 10.493 0.461538C10.493 0.215385 10.7151 0 10.969 0H13.1906C13.4445 0 13.6666 0.215385 13.6666 0.461538ZM7.63669 6.46154H6.36723C6.17681 6.46154 6.04987 6.58462 6.04987 6.76923V11.6923C6.04987 11.8769 6.17681 12 6.36723 12H7.63669C7.82711 12 7.95405 11.8769 7.95405 11.6923V6.76923C7.95405 6.58462 7.82711 6.46154 7.63669 6.46154ZM2.55886 8.30769H1.2894C1.09898 8.30769 0.972035 8.43077 0.972035 8.61539V11.6923C0.972035 11.8769 1.09898 12 1.2894 12H2.55886C2.74928 12 2.87622 11.8769 2.87622 11.6923V8.61539C2.87622 8.43077 2.74928 8.30769 2.55886 8.30769ZM12.7145 4.61538H11.4451C11.2546 4.61538 11.1277 4.73846 11.1277 4.92308V11.6923C11.1277 11.8769 11.2546 12 11.4451 12H12.7145C12.9049 12 13.0319 11.8769 13.0319 11.6923V4.92308C13.0319 4.73846 12.9049 4.61538 12.7145 4.61538Z" fill="#13ADAD"/>
</svg>
