<svg width="14" height="12" viewBox="0 0 14 12" fill="none" xmlns="http://www.w3.org/2000/svg">
<path d="M7.91505 6.90037V11.7C7.91505 11.88 7.78331 12 7.5857 12H6.26829C6.07068 12 5.93894 11.88 5.93894 11.7V6.90037C5.93894 6.72038 6.07068 6.60039 6.26829 6.60039H7.5857C7.78331 6.60039 7.91505 6.72038 7.91505 6.90037ZM12.8553 8.40025H11.5379C11.3403 8.40025 11.2086 8.52024 11.2086 8.70023V11.7C11.2086 11.88 11.3403 12 11.5379 12H12.8553C13.0529 12 13.1847 11.88 13.1847 11.7V8.70023C13.1847 8.52024 13.0529 8.40025 12.8553 8.40025ZM2.31606 4.80053H0.998651C0.801039 4.80053 0.669298 4.92052 0.669298 5.10051V11.7C0.669298 11.88 0.801039 12 0.998651 12H2.31606C2.51367 12 2.64541 11.88 2.64541 11.7V5.10051C2.64541 4.92052 2.51367 4.80053 2.31606 4.80053ZM13.547 4.17058L11.9002 2.6707C11.7026 2.49071 11.4062 2.49071 11.2086 2.6707C11.011 2.85068 11.011 3.12066 11.2086 3.30065L11.999 4.02059C4.6874 3.75061 1.2292 0.180889 1.19626 0.150891C1.03159 -0.0290951 0.735169 -0.0590927 0.504622 0.120893C0.307011 0.270882 0.274075 0.570858 0.438752 0.750844C0.603428 0.93083 4.19337 4.68054 11.999 4.95052L11.1756 5.70046C10.978 5.88045 10.978 6.15042 11.1756 6.33041C11.3733 6.5104 11.6697 6.5104 11.8673 6.33041L13.514 4.83053C13.7117 4.65054 13.7117 4.35056 13.547 4.17058Z" fill="#D11241"/>
</svg>
