<svg width="16" height="16" viewBox="0 0 16 16" fill="none" xmlns="http://www.w3.org/2000/svg">
<path d="M1.71099 16C0.945904 16 0.464219 15.1758 0.839698 14.5092L7.02683 3.52484C7.40658 2.85065 8.37529 2.84468 8.7633 3.51415L15.1298 14.4985C15.5162 15.1652 15.0351 16 14.2646 16H1.71099Z" fill="#F8B711"/>
<path fill-rule="evenodd" clip-rule="evenodd" d="M7.21998 7H8.77998L8.78 11.1999H7.21873L7.21998 7Z" fill="#001730"/>
<path fill-rule="evenodd" clip-rule="evenodd" d="M8.00002 14.0132C8.46946 14.0132 8.85002 13.6327 8.85002 13.1633C8.85002 12.694 8.46946 12.3135 8.00002 12.3135C7.53057 12.3135 7.15001 12.694 7.15001 13.1633C7.15001 13.6327 7.53057 14.0132 8.00002 14.0132Z" fill="#001730"/>
</svg>
