<svg width="14" height="14" viewBox="0 0 14 14" fill="none" xmlns="http://www.w3.org/2000/svg">
<path fill-rule="evenodd" clip-rule="evenodd" d="M7 0.333336C3.33333 0.333336 0.333328 3.33334 0.333328 7C0.333328 10.6667 3.33333 13.6667 7 13.6667C10.6667 13.6667 13.6667 10.6667 13.6667 7C13.6667 3.33334 10.6667 0.333336 7 0.333336ZM6.99999 12.3333C4.05999 12.3333 1.66666 9.94 1.66666 7C1.66666 4.06 4.05999 1.66667 6.99999 1.66667C9.93999 1.66667 12.3333 4.06 12.3333 7C12.3333 9.94 9.93999 12.3333 6.99999 12.3333ZM6.33333 3.66667H7.33333V7.13334L10.3333 8.93334L9.79999 9.8L6.33333 7.66667V3.66667Z" fill="#13ADAD"/>
</svg>
