<svg width="16" height="16" viewBox="0 0 16 16" fill="none" xmlns="http://www.w3.org/2000/svg">
<g clip-path="url(#clip0_114_1522)">
<path fill-rule="evenodd" clip-rule="evenodd" d="M0.777344 15.7857V0.272912C0.777344 0.236938 0.784711 0.201319 0.799023 0.168103C0.813335 0.134887 0.83431 0.10473 0.86074 0.0793676C0.88717 0.0540047 0.918534 0.033936 0.953029 0.0203159C0.987523 0.00669583 1.02447 -0.000206891 1.06173 4.72206e-06H14.8942C14.9314 -4.80316e-05 14.9682 0.0069719 15.0025 0.0206632C15.0369 0.0343544 15.0681 0.0544483 15.0944 0.0797953C15.1207 0.105142 15.1415 0.135245 15.1558 0.168382C15.17 0.201519 15.1773 0.23704 15.1773 0.272912V15.7857C15.1773 15.8425 15.154 15.897 15.1123 15.9372C15.0707 15.9774 15.0142 16 14.9553 16H0.999368C0.940484 16 0.884011 15.9774 0.842373 15.9372C0.800736 15.897 0.777344 15.8425 0.777344 15.7857ZM13.0956 5.31448C13.0956 5.37443 13.0709 5.4319 13.027 5.47425C12.9831 5.51664 12.9236 5.54043 12.8615 5.54043H8.21686C8.06143 5.5403 7.90999 5.58797 7.78441 5.67649L3.23048 8.87674C3.19554 8.90124 3.1543 8.91594 3.11127 8.91922C3.09537 8.92042 3.07947 8.92005 3.06383 8.91818C3.03704 8.91494 3.01094 8.90726 2.98662 8.89534C2.94819 8.87641 2.91588 8.84764 2.89335 8.81214C2.87073 8.77664 2.85874 8.73578 2.85874 8.69414V2.26756C2.85874 2.20764 2.8834 2.15018 2.92727 2.10779C2.97123 2.0654 3.03075 2.04161 3.09282 2.04161H12.8615C12.9236 2.04161 12.9831 2.0654 13.027 2.10779C13.0709 2.15018 13.0956 2.20764 13.0956 2.26756V5.31448ZM13.0955 13.7846C13.0955 13.8446 13.0708 13.902 13.027 13.9444C12.9831 13.9868 12.9235 14.0106 12.8614 14.0106H3.09401C3.03194 14.0106 2.97242 13.9868 2.92846 13.9444C2.88459 13.902 2.85993 13.8446 2.85993 13.7846V11.6612C2.85985 11.6256 2.86852 11.5905 2.88527 11.5587C2.89539 11.5395 2.90831 11.5218 2.92353 11.5062C2.9334 11.4961 2.94428 11.4868 2.95601 11.4786L7.83967 8.04353C7.87972 8.01538 7.92802 8.00022 7.97751 8.00022C8.02708 8.00022 8.07529 8.01538 8.11534 8.04353L13.0011 11.4782C13.0309 11.4993 13.0551 11.5268 13.0718 11.5586C13.0884 11.5904 13.0972 11.6255 13.0972 11.6612L13.0955 13.7846Z" fill="#D11242"/>
</g>
<defs>
<clipPath id="clip0_114_1522">
<rect width="16" height="16" fill="white"/>
</clipPath>
</defs>
</svg>
