<svg width="180" height="180" viewBox="0 0 180 180" fill="none" xmlns="http://www.w3.org/2000/svg">
<path fill-rule="evenodd" clip-rule="evenodd" d="M9 177.589V3.07026C9 2.66555 9.08288 2.26483 9.24389 1.89116C9.40491 1.51748 9.64087 1.17822 9.93821 0.892885C10.2355 0.607553 10.5884 0.38178 10.9765 0.228554C11.3645 0.0753281 11.7801 -0.00232752 12.1994 5.31231e-05H167.815C168.233 -0.000540356 168.647 0.0784339 169.033 0.232461C169.42 0.386487 169.771 0.612543 170.067 0.897697C170.363 1.18285 170.597 1.52151 170.757 1.8943C170.918 2.26709 171 2.66669 171 3.07026V177.589C171 178.228 170.737 178.842 170.268 179.294C169.8 179.746 169.165 180 168.502 180H11.4978C10.8353 180 10.2 179.746 9.73158 179.294C9.26316 178.842 9 178.228 9 177.589ZM147.58 59.7879C147.58 60.4624 147.303 61.1088 146.808 61.5853C146.315 62.0622 145.645 62.3298 144.947 62.3298H92.6945C90.9459 62.3284 89.2423 62.8646 87.8295 63.8605L36.5978 99.8634C36.2047 100.139 35.7407 100.304 35.2567 100.341C35.0778 100.355 34.899 100.351 34.723 100.33C34.4216 100.293 34.128 100.207 33.8544 100.073C33.422 99.8596 33.0585 99.5359 32.805 99.1366C32.5506 98.7372 32.4157 98.2776 32.4157 97.8091V25.51C32.4157 24.836 32.6931 24.1895 33.1867 23.7126C33.6813 23.2357 34.3509 22.9681 35.0491 22.9681H144.947C145.645 22.9681 146.315 23.2357 146.808 23.7126C147.303 24.1895 147.58 24.836 147.58 25.51V59.7879ZM147.579 155.077C147.579 155.751 147.302 156.398 146.808 156.874C146.315 157.351 145.644 157.619 144.946 157.619H35.0625C34.3642 157.619 33.6947 157.351 33.2001 156.874C32.7065 156.398 32.4291 155.751 32.4291 155.077V131.188C32.4282 130.788 32.5257 130.393 32.7142 130.036C32.828 129.819 32.9734 129.62 33.1446 129.445C33.2556 129.331 33.378 129.227 33.51 129.134L88.4512 90.4897C88.9018 90.173 89.4451 90.0025 90.0018 90.0025C90.5595 90.0025 91.1019 90.173 91.5524 90.4897L146.518 129.129C146.852 129.367 147.125 129.677 147.312 130.035C147.5 130.392 147.598 130.787 147.598 131.188L147.579 155.077Z" fill="#D11242"/>
</svg>
