<svg width="192" height="192" viewBox="0 0 192 192" fill="none" xmlns="http://www.w3.org/2000/svg">
<path fill-rule="evenodd" clip-rule="evenodd" d="M9 189.428V3.27494C9 2.84325 9.08851 2.41582 9.26045 2.01723C9.4324 1.61865 9.68438 1.25677 10.0019 0.952411C10.3194 0.648056 10.6962 0.407232 11.1107 0.243791C11.5251 0.08035 11.9689 -0.00248269 12.4166 5.66647e-05H178.598C179.045 -0.000576379 179.487 0.0836628 179.9 0.247958C180.312 0.412253 180.687 0.653379 181.003 0.957544C181.319 1.26171 181.57 1.62294 181.741 2.02059C181.912 2.41823 182 2.84447 182 3.27494V189.428C182 190.11 181.719 190.764 181.219 191.247C180.719 191.729 180.04 192 179.333 192H11.6674C10.9599 192 10.2815 191.729 9.78126 191.247C9.28103 190.764 9 190.11 9 189.428ZM156.99 63.7737C156.99 64.4932 156.694 65.1828 156.166 65.691C155.639 66.1997 154.923 66.4851 154.178 66.4851H98.3775C96.5102 66.4836 94.6909 67.0556 93.1821 68.1179L38.4717 106.521C38.0519 106.815 37.5565 106.991 37.0396 107.031C36.8486 107.045 36.6575 107.041 36.4696 107.018C36.1478 106.979 35.8342 106.887 35.542 106.744C35.0803 106.517 34.6921 106.172 34.4214 105.746C34.1497 105.32 34.0057 104.829 34.0057 104.33V27.2107C34.0057 26.4917 34.3019 25.8022 34.829 25.2935C35.3571 24.7848 36.0722 24.4993 36.8179 24.4993H154.178C154.923 24.4993 155.639 24.7848 156.166 25.2935C156.694 25.8022 156.99 26.4917 156.99 27.2107V63.7737ZM156.989 165.415C156.989 166.135 156.693 166.824 156.166 167.333C155.639 167.841 154.922 168.127 154.177 168.127H36.8322C36.0865 168.127 35.3714 167.841 34.8433 167.333C34.3162 166.824 34.02 166.135 34.02 165.415V139.934C34.019 139.507 34.1232 139.086 34.3244 138.705C34.446 138.474 34.6012 138.262 34.7841 138.075C34.9026 137.953 35.0333 137.842 35.1743 137.743L93.8461 96.5223C94.3272 96.1845 94.9074 96.0026 95.5019 96.0026C96.0975 96.0026 96.6767 96.1845 97.1578 96.5223L155.855 137.738C156.213 137.991 156.504 138.322 156.704 138.703C156.904 139.085 157.009 139.506 157.009 139.934L156.989 165.415Z" fill="#D11242"/>
</svg>
