<svg width="32" height="32" viewBox="0 0 32 32" fill="none" xmlns="http://www.w3.org/2000/svg">
<g clip-path="url(#clip0_114_1524)">
<path fill-rule="evenodd" clip-rule="evenodd" d="M1.44713 31.5714V0.545824C1.44713 0.473876 1.46197 0.402637 1.49079 0.336206C1.51962 0.269774 1.56186 0.209461 1.61508 0.158735C1.66831 0.108009 1.73148 0.0678721 1.80094 0.0406319C1.87041 0.0133917 1.94481 -0.000413782 2.01986 9.44411e-06H29.8769C29.9518 -9.60632e-05 30.0259 0.0139438 30.0951 0.0413263C30.1642 0.0687088 30.2271 0.108897 30.2801 0.159591C30.333 0.210285 30.375 0.27049 30.4037 0.336764C30.4324 0.403038 30.4471 0.474079 30.4471 0.545824V31.5714C30.4471 31.6851 30.4 31.7941 30.3162 31.8745C30.2323 31.9548 30.1186 32 30 32H1.89427C1.77568 32 1.66195 31.9548 1.5781 31.8745C1.49424 31.7941 1.44713 31.6851 1.44713 31.5714ZM26.2547 10.629C26.2547 10.7489 26.2051 10.8638 26.1165 10.9485C26.0282 11.0333 25.9083 11.0809 25.7833 11.0809H16.4295C16.1165 11.0806 15.8115 11.1759 15.5586 11.353L6.38748 17.7535C6.31711 17.8025 6.23406 17.8319 6.14741 17.8384C6.11539 17.8408 6.08337 17.8401 6.05186 17.8364C5.99792 17.8299 5.94535 17.8145 5.89638 17.7907C5.81898 17.7528 5.75391 17.6953 5.70853 17.6243C5.66298 17.5533 5.63884 17.4716 5.63884 17.3883V4.53511C5.63884 4.41529 5.6885 4.30036 5.77685 4.21558C5.86538 4.13079 5.98525 4.08321 6.11025 4.08321H25.7833C25.9083 4.08321 26.0282 4.13079 26.1165 4.21558C26.2051 4.30036 26.2547 4.41529 26.2547 4.53511V10.629ZM26.2545 27.5692C26.2545 27.6891 26.2049 27.8041 26.1165 27.8888C26.0282 27.9736 25.9081 28.0211 25.7831 28.0211H6.11265C5.98765 28.0211 5.86778 27.9736 5.77925 27.8888C5.69089 27.8041 5.64123 27.6891 5.64123 27.5692V23.3224C5.64106 23.2512 5.65853 23.1809 5.69226 23.1175C5.71264 23.079 5.73867 23.0436 5.76932 23.0125C5.78918 22.9922 5.8111 22.9737 5.83473 22.9571L15.6699 16.0871C15.7505 16.0308 15.8478 16.0004 15.9475 16.0004C16.0473 16.0004 16.1444 16.0308 16.225 16.0871L26.0645 22.9563C26.1244 22.9985 26.1732 23.0536 26.2068 23.1172C26.2403 23.1808 26.258 23.251 26.258 23.3224L26.2545 27.5692Z" fill="#D11242"/>
</g>
<defs>
<clipPath id="clip0_114_1524">
<rect width="32" height="32" fill="white"/>
</clipPath>
</defs>
</svg>
