<svg width="512" height="512" viewBox="0 0 512 512" fill="none" xmlns="http://www.w3.org/2000/svg">
<path fill-rule="evenodd" clip-rule="evenodd" d="M25 505.142V8.73318C25 7.58201 25.2364 6.44219 25.6955 5.37929C26.1547 4.31639 26.8277 3.35137 27.6756 2.53976C28.5236 1.72815 29.5299 1.08595 30.6366 0.65011C31.7433 0.214267 32.9285 -0.0066205 34.1242 0.000151106H477.916C479.108 -0.00153701 480.289 0.223101 481.391 0.661221C482.493 1.09934 483.495 1.74234 484.339 2.55345C485.182 3.36456 485.852 4.32785 486.308 5.38823C486.765 6.4486 487 7.58526 487 8.73318V505.142C487 506.961 486.25 508.705 484.914 509.991C483.578 511.277 481.766 512 479.877 512H32.1233C30.2341 512 28.4222 511.277 27.0864 509.991C25.7505 508.705 25 506.961 25 505.142ZM420.21 170.063C420.21 171.982 419.419 173.821 418.009 175.176C416.601 176.532 414.692 177.294 412.7 177.294H263.684C258.698 177.29 253.839 178.815 249.81 181.648L103.705 284.056C102.584 284.84 101.261 285.31 99.8803 285.415C99.3701 285.453 98.86 285.442 98.3581 285.382C97.4987 285.278 96.6613 285.032 95.8811 284.651C94.648 284.045 93.6114 283.124 92.8885 281.988C92.1628 280.852 91.7782 279.545 91.7782 278.212V72.5618C91.7782 70.6446 92.5693 68.8058 93.9769 67.4492C95.3873 66.0927 97.2969 65.3314 99.2883 65.3314H412.7C414.692 65.3314 416.601 66.0927 418.009 67.4492C419.419 68.8058 420.21 70.6446 420.21 72.5618V170.063ZM420.208 441.108C420.208 443.026 419.417 444.865 418.009 446.22C416.601 447.577 414.689 448.338 412.698 448.338H99.3265C97.3351 448.338 95.4255 447.577 94.0151 446.22C92.6075 444.865 91.8164 443.026 91.8164 441.108V373.158C91.8136 372.019 92.0919 370.895 92.6293 369.88C92.9539 369.263 93.3686 368.697 93.8569 368.199C94.1733 367.875 94.5225 367.579 94.899 367.314L251.583 257.393C252.868 256.492 254.417 256.007 256.005 256.007C257.596 256.007 259.142 256.492 260.427 257.393L417.18 367.301C418.134 367.976 418.912 368.858 419.447 369.876C419.981 370.892 420.262 372.016 420.262 373.158L420.208 441.108Z" fill="#D11242"/>
</svg>
