<svg width="60" height="60" viewBox="0 0 60 60" fill="none" xmlns="http://www.w3.org/2000/svg">
<path d="M30 18.75C27.7749 18.75 25.5999 19.4098 23.7498 20.646C21.8998 21.8821 20.4578 23.6391 19.6063 25.6948C18.7549 27.7505 18.5321 30.0125 18.9662 32.1948C19.4002 34.377 20.4717 36.3816 22.045 37.9549C23.6184 39.5283 25.6229 40.5997 27.8052 41.0338C29.9875 41.4679 32.2495 41.2451 34.3052 40.3936C36.3608 39.5421 38.1179 38.1002 39.354 36.2502C40.5902 34.4001 41.25 32.225 41.25 30C41.2469 27.0173 40.0606 24.1576 37.9515 22.0485C35.8424 19.9393 32.9827 18.7531 30 18.75ZM30 37.5C28.5166 37.5 27.0666 37.0601 25.8332 36.236C24.5998 35.4119 23.6385 34.2406 23.0709 32.8701C22.5032 31.4997 22.3547 29.9917 22.6441 28.5368C22.9335 27.082 23.6478 25.7456 24.6967 24.6967C25.7456 23.6478 27.082 22.9335 28.5368 22.6441C29.9917 22.3547 31.4997 22.5032 32.8701 23.0709C34.2406 23.6385 35.4119 24.5998 36.236 25.8332C37.0601 27.0666 37.5 28.5166 37.5 30C37.5 31.9891 36.7098 33.8968 35.3033 35.3033C33.8968 36.7098 31.9891 37.5 30 37.5ZM50.625 30.5062C50.6344 30.1687 50.6344 29.8312 50.625 29.4937L54.1219 25.125C54.3052 24.8956 54.4321 24.6264 54.4924 24.339C54.5526 24.0515 54.5445 23.754 54.4687 23.4703C53.8955 21.3155 53.0379 19.2465 51.9187 17.318C51.7722 17.0656 51.5688 16.8509 51.3246 16.691C51.0805 16.5311 50.8024 16.4304 50.5125 16.3969L44.9531 15.7781C44.7219 15.5344 44.4875 15.3 44.25 15.075L43.5937 9.50155C43.56 9.21142 43.4589 8.93319 43.2986 8.68904C43.1383 8.44489 42.9231 8.24157 42.6703 8.0953C40.741 6.97814 38.6722 6.12147 36.518 5.54764C36.2341 5.47217 35.9364 5.46445 35.649 5.5251C35.3616 5.58576 35.0924 5.7131 34.8633 5.89686L30.5062 9.37498C30.1687 9.37498 29.8312 9.37498 29.4937 9.37498L25.125 5.88514C24.8956 5.70179 24.6264 5.57487 24.339 5.51462C24.0515 5.45437 23.754 5.46247 23.4703 5.53827C21.3158 6.11255 19.247 6.97002 17.318 8.08827C17.0656 8.23481 16.8509 8.43825 16.691 8.68238C16.5311 8.92651 16.4304 9.2046 16.3969 9.49452L15.7781 15.0633C15.5344 15.2961 15.3 15.5305 15.075 15.7664L9.50155 16.4062C9.21142 16.44 8.93319 16.5411 8.68904 16.7014C8.44489 16.8617 8.24157 17.0769 8.0953 17.3297C6.97814 19.259 6.12147 21.3277 5.54764 23.482C5.47217 23.7659 5.46445 24.0636 5.5251 24.351C5.58576 24.6384 5.7131 24.9075 5.89686 25.1367L9.37498 29.4937C9.37498 29.8312 9.37498 30.1687 9.37498 30.5062L5.88514 34.875C5.70179 35.1044 5.57487 35.3736 5.51462 35.661C5.45437 35.9484 5.46247 36.246 5.53827 36.5297C6.11152 38.6845 6.96905 40.7535 8.08827 42.682C8.23481 42.9344 8.43825 43.1491 8.68238 43.309C8.92651 43.4689 9.2046 43.5696 9.49452 43.6031L15.0539 44.2219C15.2867 44.4656 15.5211 44.7 15.757 44.925L16.4062 50.4984C16.44 50.7886 16.5411 51.0668 16.7014 51.3109C16.8617 51.5551 17.0769 51.7584 17.3297 51.9047C19.259 53.0218 21.3277 53.8785 23.482 54.4523C23.7659 54.5278 24.0636 54.5355 24.351 54.4749C24.6384 54.4142 24.9075 54.2869 25.1367 54.1031L29.4937 50.625C29.8312 50.6344 30.1687 50.6344 30.5062 50.625L34.875 54.1219C35.1044 54.3052 35.3736 54.4321 35.661 54.4924C35.9484 54.5526 36.246 54.5445 36.5297 54.4687C38.6845 53.8955 40.7535 53.0379 42.682 51.9187C42.9344 51.7722 43.1491 51.5688 43.309 51.3246C43.4689 51.0805 43.5696 50.8024 43.6031 50.5125L44.2219 44.9531C44.4656 44.7219 44.7 44.4875 44.925 44.25L50.4984 43.5937C50.7886 43.56 51.0668 43.4589 51.3109 43.2986C51.5551 43.1383 51.7584 42.9231 51.9047 42.6703C53.0218 40.741 53.8785 38.6722 54.4523 36.518C54.5278 36.2341 54.5355 35.9364 54.4749 35.649C54.4142 35.3616 54.2869 35.0924 54.1031 34.8633L50.625 30.5062ZM46.8515 28.9828C46.8914 29.6603 46.8914 30.3396 46.8515 31.0172C46.8236 31.481 46.969 31.9388 47.2594 32.3015L50.5851 36.457C50.2035 37.6698 49.7149 38.8463 49.125 39.9726L43.8281 40.5726C43.3668 40.6238 42.9409 40.8443 42.6328 41.1914C42.1816 41.6988 41.7011 42.1793 41.1937 42.6305C40.8467 42.9386 40.6262 43.3645 40.575 43.8258L39.9867 49.118C38.8605 49.7081 37.684 50.1968 36.4711 50.5781L32.3133 47.2523C31.9806 46.9865 31.5673 46.8418 31.1414 46.8422H31.0289C30.3514 46.882 29.6721 46.882 28.9945 46.8422C28.5306 46.8143 28.0729 46.9596 27.7101 47.25L23.543 50.5781C22.3301 50.1965 21.1536 49.7079 20.0273 49.118L19.4273 43.8281C19.3761 43.3668 19.1557 42.9409 18.8086 42.6328C18.3012 42.1816 17.8207 41.7011 17.3695 41.1937C17.0614 40.8467 16.6355 40.6262 16.1742 40.575L10.882 39.9844C10.2918 38.8582 9.80319 37.6817 9.42186 36.4687L12.7476 32.3109C13.038 31.9481 13.1834 31.4904 13.1555 31.0265C13.1156 30.349 13.1156 29.6697 13.1555 28.9922C13.1834 28.5283 13.038 28.0706 12.7476 27.7078L9.42186 23.543C9.80348 22.3301 10.2921 21.1536 10.882 20.0273L16.1719 19.4273C16.6331 19.3761 17.059 19.1557 17.3672 18.8086C17.8183 18.3012 18.2988 17.8207 18.8062 17.3695C19.1547 17.0612 19.3761 16.6343 19.4273 16.1719L20.0156 10.882C21.1418 10.2918 22.3183 9.80319 23.5312 9.42186L27.689 12.7476C28.0518 13.038 28.5096 13.1834 28.9734 13.1555C29.651 13.1156 30.3303 13.1156 31.0078 13.1555C31.4717 13.1834 31.9294 13.038 32.2922 12.7476L36.457 9.42186C37.6698 9.80348 38.8463 10.2921 39.9726 10.882L40.5726 16.1719C40.6238 16.6331 40.8443 17.059 41.1914 17.3672C41.6988 17.8183 42.1793 18.2988 42.6305 18.8062C42.9386 19.1533 43.3645 19.3738 43.8258 19.425L49.118 20.0133C49.7081 21.1394 50.1968 22.316 50.5781 23.5289L47.2523 27.6867C46.9591 28.0526 46.8136 28.515 46.8445 28.9828H46.8515Z" fill="#3C3C3C"/>
</svg>
