<svg width="60" height="60" viewBox="0 0 60 60" fill="none" xmlns="http://www.w3.org/2000/svg">
<path d="M51.2883 24.3211L32.5383 6.63045C32.5291 6.62245 32.5205 6.61384 32.5125 6.60467C31.8222 5.97686 30.9226 5.62897 29.9895 5.62897C29.0563 5.62897 28.1567 5.97686 27.4664 6.60467L27.4406 6.63045L8.71172 24.3211C8.32968 24.6724 8.02473 25.0992 7.81615 25.5744C7.60758 26.0496 7.49992 26.563 7.5 27.082V48.75C7.5 49.7445 7.89509 50.6984 8.59835 51.4016C9.30161 52.1049 10.2554 52.5 11.25 52.5H22.5C23.4946 52.5 24.4484 52.1049 25.1516 51.4016C25.8549 50.6984 26.25 49.7445 26.25 48.75V37.5H33.75V48.75C33.75 49.7445 34.1451 50.6984 34.8484 51.4016C35.5516 52.1049 36.5054 52.5 37.5 52.5H48.75C49.7446 52.5 50.6984 52.1049 51.4016 51.4016C52.1049 50.6984 52.5 49.7445 52.5 48.75V27.082C52.5001 26.563 52.3924 26.0496 52.1838 25.5744C51.9753 25.0992 51.6703 24.6724 51.2883 24.3211ZM48.75 48.75H37.5V37.5C37.5 36.5054 37.1049 35.5516 36.4016 34.8483C35.6984 34.1451 34.7446 33.75 33.75 33.75H26.25C25.2554 33.75 24.3016 34.1451 23.5984 34.8483C22.8951 35.5516 22.5 36.5054 22.5 37.5V48.75H11.25V27.082L11.2758 27.0586L30 9.37498L48.7266 27.0539L48.7523 27.0773L48.75 48.75Z" fill="#3C3C3C"/>
</svg>
