<svg width="60" height="60" viewBox="0 0 60 60" fill="none" xmlns="http://www.w3.org/2000/svg">
<path d="M52.5 30C52.5 30.4973 52.3025 30.9742 51.9508 31.3258C51.5992 31.6775 51.1223 31.875 50.625 31.875H9.375C8.87772 31.875 8.40081 31.6775 8.04918 31.3258C7.69754 30.9742 7.5 30.4973 7.5 30C7.5 29.5027 7.69754 29.0258 8.04918 28.6742C8.40081 28.3225 8.87772 28.125 9.375 28.125H50.625C51.1223 28.125 51.5992 28.3225 51.9508 28.6742C52.3025 29.0258 52.5 29.5027 52.5 30ZM9.375 16.875H50.625C51.1223 16.875 51.5992 16.6775 51.9508 16.3258C52.3025 15.9742 52.5 15.4973 52.5 15C52.5 14.5027 52.3025 14.0258 51.9508 13.6742C51.5992 13.3225 51.1223 13.125 50.625 13.125H9.375C8.87772 13.125 8.40081 13.3225 8.04918 13.6742C7.69754 14.0258 7.5 14.5027 7.5 15C7.5 15.4973 7.69754 15.9742 8.04918 16.3258C8.40081 16.6775 8.87772 16.875 9.375 16.875ZM50.625 43.125H9.375C8.87772 43.125 8.40081 43.3225 8.04918 43.6742C7.69754 44.0258 7.5 44.5027 7.5 45C7.5 45.4973 7.69754 45.9742 8.04918 46.3258C8.40081 46.6775 8.87772 46.875 9.375 46.875H50.625C51.1223 46.875 51.5992 46.6775 51.9508 46.3258C52.3025 45.9742 52.5 45.4973 52.5 45C52.5 44.5027 52.3025 44.0258 51.9508 43.6742C51.5992 43.3225 51.1223 43.125 50.625 43.125Z" fill="#3C3C3C"/>
</svg>
