<svg width="60" height="60" viewBox="0 0 60 60" fill="none" xmlns="http://www.w3.org/2000/svg">
<path d="M47.318 12.8109C45.075 10.5454 42.4072 8.74457 39.4673 7.5115C36.5274 6.27843 33.3731 5.63736 30.1852 5.625H30C23.5353 5.625 17.3355 8.19307 12.7643 12.7643C8.19307 17.3355 5.625 23.5353 5.625 30V43.125C5.625 44.6168 6.21763 46.0476 7.27252 47.1025C8.32742 48.1574 9.75816 48.75 11.25 48.75H15C16.4918 48.75 17.9226 48.1574 18.9775 47.1025C20.0324 46.0476 20.625 44.6168 20.625 43.125V33.75C20.625 32.2582 20.0324 30.8274 18.9775 29.7725C17.9226 28.7176 16.4918 28.125 15 28.125H9.45938C9.82097 24.2155 11.2895 20.49 13.6927 17.3852C16.096 14.2805 19.3344 11.9251 23.0285 10.5951C26.7226 9.26507 30.7193 9.01559 34.5501 9.87588C38.3809 10.7362 41.8871 12.6706 44.6578 15.4523C48.0443 18.8562 50.1273 23.3415 50.543 28.125H45C43.5082 28.125 42.0774 28.7176 41.0225 29.7725C39.9676 30.8274 39.375 32.2582 39.375 33.75V43.125C39.375 44.6168 39.9676 46.0476 41.0225 47.1025C42.0774 48.1574 43.5082 48.75 45 48.75H50.625C50.625 50.2418 50.0324 51.6726 48.9775 52.7275C47.9226 53.7824 46.4918 54.375 45 54.375H31.875C31.3777 54.375 30.9008 54.5725 30.5492 54.9242C30.1975 55.2758 30 55.7527 30 56.25C30 56.7473 30.1975 57.2242 30.5492 57.5758C30.9008 57.9275 31.3777 58.125 31.875 58.125H45C47.4864 58.125 49.871 57.1373 51.6291 55.3791C53.3873 53.621 54.375 51.2364 54.375 48.75V30C54.3872 26.8115 53.7701 23.6519 52.5592 20.7023C51.3482 17.7527 49.5671 15.071 47.318 12.8109ZM15 31.875C15.4973 31.875 15.9742 32.0725 16.3258 32.4242C16.6775 32.7758 16.875 33.2527 16.875 33.75V43.125C16.875 43.6223 16.6775 44.0992 16.3258 44.4508C15.9742 44.8025 15.4973 45 15 45H11.25C10.7527 45 10.2758 44.8025 9.92418 44.4508C9.57254 44.0992 9.375 43.6223 9.375 43.125V31.875H15ZM45 45C44.5027 45 44.0258 44.8025 43.6742 44.4508C43.3225 44.0992 43.125 43.6223 43.125 43.125V33.75C43.125 33.2527 43.3225 32.7758 43.6742 32.4242C44.0258 32.0725 44.5027 31.875 45 31.875H50.625V45H45Z" fill="#3C3C3C"/>
</svg>
