<svg width="60" height="60" viewBox="0 0 60 60" fill="none" xmlns="http://www.w3.org/2000/svg">
<path d="M38.8266 47.4234C39.0008 47.5977 39.139 47.8045 39.2332 48.0321C39.3275 48.2597 39.3761 48.5036 39.3761 48.75C39.3761 48.9964 39.3275 49.2403 39.2332 49.4679C39.139 49.6956 39.0008 49.9024 38.8266 50.0766C38.6524 50.2508 38.4456 50.389 38.2179 50.4832C37.9903 50.5775 37.7464 50.6261 37.5 50.6261C37.2536 50.6261 37.0097 50.5775 36.7821 50.4832C36.5545 50.389 36.3477 50.2508 36.1734 50.0766L17.4234 31.3266C17.2491 31.1524 17.1108 30.9456 17.0165 30.718C16.9221 30.4904 16.8735 30.2464 16.8735 30C16.8735 29.7536 16.9221 29.5096 17.0165 29.282C17.1108 29.0544 17.2491 28.8476 17.4234 28.6734L36.1734 9.92344C36.5253 9.57162 37.0025 9.37396 37.5 9.37396C37.9976 9.37396 38.4747 9.57162 38.8266 9.92344C39.1784 10.2753 39.3761 10.7524 39.3761 11.25C39.3761 11.7476 39.1784 12.2247 38.8266 12.5766L21.4008 30L38.8266 47.4234Z" fill="#3C3C3C"/>
</svg>
