<svg width="60" height="60" viewBox="0 0 60 60" fill="none" xmlns="http://www.w3.org/2000/svg">
<path d="M50.0765 23.8266L31.3265 42.5766C31.1524 42.7509 30.9456 42.8892 30.718 42.9836C30.4903 43.0779 30.2463 43.1265 29.9999 43.1265C29.7535 43.1265 29.5096 43.0779 29.2819 42.9836C29.0543 42.8892 28.8475 42.7509 28.6734 42.5766L9.92338 23.8266C9.57156 23.4747 9.3739 22.9976 9.3739 22.5C9.3739 22.0024 9.57156 21.5253 9.92338 21.1734C10.2752 20.8216 10.7524 20.624 11.2499 20.624C11.7475 20.624 12.2247 20.8216 12.5765 21.1734L29.9999 38.5992L47.4234 21.1734C47.5976 20.9992 47.8044 20.861 48.032 20.7668C48.2596 20.6725 48.5036 20.624 48.7499 20.624C48.9963 20.624 49.2403 20.6725 49.4679 20.7668C49.6955 20.861 49.9023 20.9992 50.0765 21.1734C50.2507 21.3476 50.3889 21.5545 50.4832 21.7821C50.5775 22.0097 50.626 22.2536 50.626 22.5C50.626 22.7464 50.5775 22.9903 50.4832 23.2179C50.3889 23.4455 50.2507 23.6524 50.0765 23.8266Z" fill="#3C3C3C"/>
</svg>
