<svg width="60" height="60" viewBox="0 0 60 60" fill="none" xmlns="http://www.w3.org/2000/svg">
<path d="M50.0765 38.8266C49.9024 39.0009 49.6956 39.1392 49.468 39.2336C49.2403 39.3279 48.9963 39.3765 48.7499 39.3765C48.5035 39.3765 48.2596 39.3279 48.0319 39.2336C47.8043 39.1392 47.5975 39.0009 47.4234 38.8266L29.9999 21.4008L12.5765 38.8266C12.2247 39.1784 11.7475 39.3761 11.2499 39.3761C10.7524 39.3761 10.2752 39.1784 9.92338 38.8266C9.57156 38.4747 9.3739 37.9976 9.3739 37.5C9.3739 37.0025 9.57156 36.5253 9.92338 36.1734L28.6734 17.4234C28.8475 17.2491 29.0543 17.1108 29.2819 17.0165C29.5096 16.9221 29.7535 16.8735 29.9999 16.8735C30.2463 16.8735 30.4903 16.9221 30.718 17.0165C30.9456 17.1108 31.1524 17.2491 31.3265 17.4234L50.0765 36.1734C50.2508 36.3476 50.3891 36.5544 50.4835 36.782C50.5779 37.0096 50.6264 37.2536 50.6264 37.5C50.6264 37.7464 50.5779 37.9904 50.4835 38.218C50.3891 38.4456 50.2508 38.6524 50.0765 38.8266Z" fill="#3C3C3C"/>
</svg>
