<svg width="60" height="60" viewBox="0 0 60 60" fill="none" xmlns="http://www.w3.org/2000/svg">
<path d="M48.2015 45.5484C48.3757 45.7226 48.5139 45.9294 48.6082 46.157C48.7025 46.3846 48.751 46.6286 48.751 46.8749C48.751 47.1213 48.7025 47.3653 48.6082 47.5929C48.5139 47.8205 48.3757 48.0273 48.2015 48.2015C48.0273 48.3757 47.8205 48.5139 47.5929 48.6082C47.3653 48.7025 47.1213 48.751 46.8749 48.751C46.6286 48.751 46.3846 48.7025 46.157 48.6082C45.9294 48.5139 45.7226 48.3757 45.5484 48.2015L29.9999 32.6507L14.4515 48.2015C14.0997 48.5533 13.6225 48.751 13.1249 48.751C12.6274 48.751 12.1502 48.5533 11.7984 48.2015C11.4466 47.8497 11.2489 47.3725 11.2489 46.8749C11.2489 46.3774 11.4466 45.9002 11.7984 45.5484L27.3492 29.9999L11.7984 14.4515C11.4466 14.0997 11.2489 13.6225 11.2489 13.1249C11.2489 12.6274 11.4466 12.1502 11.7984 11.7984C12.1502 11.4466 12.6274 11.2489 13.1249 11.2489C13.6225 11.2489 14.0997 11.4466 14.4515 11.7984L29.9999 27.3492L45.5484 11.7984C45.9002 11.4466 46.3774 11.2489 46.8749 11.2489C47.3725 11.2489 47.8497 11.4466 48.2015 11.7984C48.5533 12.1502 48.751 12.6274 48.751 13.1249C48.751 13.6225 48.5533 14.0997 48.2015 14.4515L32.6507 29.9999L48.2015 45.5484Z" fill="#3C3C3C"/>
</svg>
