<svg width="60" height="60" viewBox="0 0 60 60" fill="none" xmlns="http://www.w3.org/2000/svg">
<path d="M42.5765 31.3265L23.8265 50.0765C23.6523 50.2507 23.4455 50.3889 23.2179 50.4832C22.9903 50.5775 22.7463 50.626 22.4999 50.626C22.2536 50.626 22.0096 50.5775 21.782 50.4832C21.5544 50.3889 21.3476 50.2507 21.1734 50.0765C20.9992 49.9023 20.861 49.6955 20.7667 49.4679C20.6724 49.2403 20.6239 48.9963 20.6239 48.7499C20.6239 48.5036 20.6724 48.2596 20.7667 48.032C20.861 47.8044 20.9992 47.5976 21.1734 47.4234L38.5992 29.9999L21.1734 12.5765C20.8216 12.2247 20.6239 11.7475 20.6239 11.2499C20.6239 10.7524 20.8216 10.2752 21.1734 9.92338C21.5252 9.57156 22.0024 9.3739 22.4999 9.3739C22.9975 9.3739 23.4747 9.57156 23.8265 9.92338L42.5765 28.6734C42.7508 28.8475 42.8891 29.0543 42.9835 29.2819C43.0779 29.5096 43.1264 29.7535 43.1264 29.9999C43.1264 30.2463 43.0779 30.4903 42.9835 30.718C42.8891 30.9456 42.7508 31.1524 42.5765 31.3265Z" fill="#3C3C3C"/>
</svg>
