<svg width="60" height="60" viewBox="0 0 60 60" fill="none" xmlns="http://www.w3.org/2000/svg">
<path d="M52.2657 13.3594C49.7183 10.8184 46.2685 9.38948 42.6705 9.38509C39.0725 9.38069 35.6192 10.8012 33.0657 13.3359L30 16.1836L26.9321 13.3265C24.3792 10.7808 20.9195 9.35342 17.3142 9.35847C13.7089 9.36353 10.2532 10.8006 7.70746 13.3535C5.1617 15.9064 3.73434 19.3661 3.73939 22.9714C3.74445 26.5767 5.1815 30.0323 7.73442 32.5781L28.6758 53.8265C28.8503 54.0037 29.0582 54.1444 29.2876 54.2404C29.517 54.3365 29.7631 54.3859 30.0118 54.3859C30.2604 54.3859 30.5066 54.3365 30.7359 54.2404C30.9653 54.1444 31.1732 54.0037 31.3477 53.8265L52.2657 32.5781C54.8132 30.029 56.2443 26.5726 56.2443 22.9687C56.2443 19.3648 54.8132 15.9084 52.2657 13.3594ZM49.6055 29.9437L30 49.8281L10.3829 29.925C8.5367 28.0788 7.49954 25.5749 7.49954 22.964C7.49954 20.3532 8.5367 17.8493 10.3829 16.0031C12.229 14.157 14.7329 13.1198 17.3438 13.1198C19.9546 13.1198 22.4586 14.157 24.3047 16.0031L24.3516 16.05L28.7227 20.1164C29.0697 20.4393 29.5261 20.6188 30 20.6188C30.474 20.6188 30.9304 20.4393 31.2774 20.1164L35.6485 16.05L35.6954 16.0031C37.5428 14.1582 40.0474 13.1227 42.6582 13.1245C45.2691 13.1262 47.7723 14.1651 49.6172 16.0125C51.4621 17.8599 52.4976 20.3645 52.4959 22.9754C52.4941 25.5862 51.4553 28.0894 49.6079 29.9344L49.6055 29.9437Z" fill="#3C3C3C"/>
</svg>
