<svg width="60" height="60" viewBox="0 0 60 60" fill="none" xmlns="http://www.w3.org/2000/svg">
<path d="M55.7015 24.9258L36.9515 6.17577C36.6895 5.91339 36.3554 5.73462 35.9918 5.66208C35.6281 5.58953 35.251 5.62647 34.9083 5.76822C34.5656 5.90996 34.2727 6.15015 34.0665 6.4584C33.8603 6.76666 33.7502 7.12913 33.75 7.49999V16.957C27.6703 17.4773 20.9554 20.4539 15.4312 25.139C8.77967 30.7828 4.63826 38.0555 3.76873 45.6164C3.70078 46.2042 3.81997 46.7985 4.10933 47.3147C4.3987 47.8308 4.8435 48.2426 5.38043 48.4913C5.91735 48.7401 6.51906 48.8131 7.09991 48.7001C7.68075 48.587 8.21115 48.2936 8.6156 47.8617C11.1937 45.1172 20.3672 36.4383 33.75 35.6742V45C33.7502 45.3708 33.8603 45.7333 34.0665 46.0416C34.2727 46.3498 34.5656 46.59 34.9083 46.7318C35.251 46.8735 35.6281 46.9104 35.9918 46.8379C36.3554 46.7653 36.6895 46.5866 36.9515 46.3242L55.7015 27.5742C56.0522 27.2227 56.2491 26.7465 56.2491 26.25C56.2491 25.7535 56.0522 25.2773 55.7015 24.9258ZM37.5 40.4742V33.75C37.5 33.2527 37.3024 32.7758 36.9508 32.4242C36.5992 32.0725 36.1223 31.875 35.625 31.875C29.0437 31.875 22.6336 33.593 16.5726 36.9844C13.4858 38.7193 10.6097 40.805 8.00154 43.2C9.36092 37.6125 12.7875 32.2992 17.857 27.9984C23.2992 23.3836 29.9414 20.625 35.625 20.625C36.1223 20.625 36.5992 20.4274 36.9508 20.0758C37.3024 19.7242 37.5 19.2473 37.5 18.75V12.0281L51.7242 26.25L37.5 40.4742Z" fill="#3C3C3C"/>
</svg>
