<svg width="60" height="60" viewBox="0 0 60 60" fill="none" xmlns="http://www.w3.org/2000/svg">
<path d="M57.9891 27.4219L54.7078 19.2188C54.4294 18.5247 53.9491 17.9302 53.3289 17.5123C52.7088 17.0945 51.9775 16.8724 51.2297 16.875H43.125V15C43.125 14.5027 42.9275 14.0258 42.5758 13.6742C42.2242 13.3225 41.7473 13.125 41.25 13.125H5.625C4.63044 13.125 3.67661 13.5201 2.97335 14.2233C2.27009 14.9266 1.875 15.8804 1.875 16.875V43.125C1.875 44.1196 2.27009 45.0734 2.97335 45.7766C3.67661 46.4799 4.63044 46.875 5.625 46.875H9.60938C10.0224 48.4883 10.9607 49.9182 12.2762 50.9393C13.5917 51.9605 15.2097 52.5147 16.875 52.5147C18.5403 52.5147 20.1583 51.9605 21.4738 50.9393C22.7893 49.9182 23.7276 48.4883 24.1406 46.875H35.8594C36.2724 48.4883 37.2107 49.9182 38.5262 50.9393C39.8417 51.9605 41.4597 52.5147 43.125 52.5147C44.7903 52.5147 46.4083 51.9605 47.7238 50.9393C49.0393 49.9182 49.9776 48.4883 50.3906 46.875H54.375C55.3696 46.875 56.3234 46.4799 57.0266 45.7766C57.7299 45.0734 58.125 44.1196 58.125 43.125V28.125C58.1256 27.884 58.0795 27.6452 57.9891 27.4219ZM43.125 20.625H51.2297L53.4797 26.25H43.125V20.625ZM5.625 16.875H39.375V31.875H5.625V16.875ZM16.875 48.75C16.1333 48.75 15.4083 48.5301 14.7916 48.118C14.1749 47.706 13.6943 47.1203 13.4105 46.4351C13.1266 45.7498 13.0524 44.9958 13.1971 44.2684C13.3417 43.541 13.6989 42.8728 14.2233 42.3484C14.7478 41.8239 15.416 41.4667 16.1434 41.3221C16.8708 41.1774 17.6248 41.2516 18.3101 41.5355C18.9953 41.8193 19.581 42.2999 19.993 42.9166C20.4051 43.5333 20.625 44.2583 20.625 45C20.625 45.9946 20.2299 46.9484 19.5266 47.6516C18.8234 48.3549 17.8696 48.75 16.875 48.75ZM35.8594 43.125H24.1406C23.7276 41.5117 22.7893 40.0818 21.4738 39.0607C20.1583 38.0395 18.5403 37.4853 16.875 37.4853C15.2097 37.4853 13.5917 38.0395 12.2762 39.0607C10.9607 40.0818 10.0224 41.5117 9.60938 43.125H5.625V35.625H39.375V38.5102C38.5128 39.0085 37.7581 39.673 37.1546 40.4652C36.5512 41.2574 36.1109 42.1614 35.8594 43.125ZM43.125 48.75C42.3833 48.75 41.6583 48.5301 41.0416 48.118C40.4249 47.706 39.9443 47.1203 39.6605 46.4351C39.3766 45.7498 39.3024 44.9958 39.4471 44.2684C39.5917 43.541 39.9489 42.8728 40.4734 42.3484C40.9978 41.8239 41.666 41.4667 42.3934 41.3221C43.1208 41.1774 43.8748 41.2516 44.5601 41.5355C45.2453 41.8193 45.831 42.2999 46.243 42.9166C46.6551 43.5333 46.875 44.2583 46.875 45C46.875 45.9946 46.4799 46.9484 45.7766 47.6516C45.0734 48.3549 44.1196 48.75 43.125 48.75ZM54.375 43.125H50.3906C49.9726 41.5156 49.0326 40.0904 47.7178 39.0725C46.403 38.0546 44.7878 37.5016 43.125 37.5V30H54.375V43.125Z" fill="#3C3C3C"/>
</svg>
