<svg width="60" height="60" viewBox="0 0 60 60" fill="none" xmlns="http://www.w3.org/2000/svg">
<path d="M54.1218 49.6875C50.5523 43.5164 45.0515 39.0914 38.632 36.9938C41.8074 35.1034 44.2745 32.223 45.6544 28.7949C47.0343 25.3667 47.2507 21.5803 46.2704 18.0173C45.2901 14.4542 43.1673 11.3114 40.228 9.07157C37.2887 6.83172 33.6954 5.61865 30 5.61865C26.3045 5.61865 22.7112 6.83172 19.7719 9.07157C16.8326 11.3114 14.7098 14.4542 13.7295 18.0173C12.7492 21.5803 12.9657 25.3667 14.3456 28.7949C15.7255 32.223 18.1925 35.1034 21.3679 36.9938C14.9484 39.0891 9.44762 43.5141 5.87809 49.6875C5.74719 49.901 5.66036 50.1385 5.62273 50.386C5.58511 50.6335 5.59744 50.8861 5.659 51.1288C5.72057 51.3715 5.83012 51.5994 5.98119 51.7991C6.13227 51.9988 6.3218 52.1662 6.53862 52.2914C6.75543 52.4166 6.99513 52.4972 7.24358 52.5283C7.49202 52.5594 7.74418 52.5404 7.98517 52.4724C8.22616 52.4045 8.45111 52.289 8.64673 52.1327C8.84236 51.9764 9.0047 51.7826 9.12418 51.5625C13.5398 43.9313 21.3445 39.375 30 39.375C38.6554 39.375 46.4601 43.9313 50.8757 51.5625C50.9952 51.7826 51.1576 51.9764 51.3532 52.1327C51.5488 52.289 51.7738 52.4045 52.0148 52.4724C52.2557 52.5404 52.5079 52.5594 52.7563 52.5283C53.0048 52.4972 53.2445 52.4166 53.4613 52.2914C53.6781 52.1662 53.8677 51.9988 54.0187 51.7991C54.1698 51.5994 54.2794 51.3715 54.3409 51.1288C54.4025 50.8861 54.4148 50.6335 54.3772 50.386C54.3396 50.1385 54.2527 49.901 54.1218 49.6875ZM16.875 22.5C16.875 19.9041 17.6447 17.3666 19.0869 15.2082C20.5291 13.0498 22.579 11.3675 24.9772 10.3741C27.3755 9.38071 30.0145 9.12079 32.5605 9.62722C35.1065 10.1337 37.4452 11.3837 39.2807 13.2193C41.1163 15.0548 42.3663 17.3935 42.8728 19.9395C43.3792 22.4855 43.1193 25.1245 42.1259 27.5227C41.1325 29.921 39.4502 31.9709 37.2918 33.4131C35.1334 34.8553 32.5958 35.625 30 35.625C26.5201 35.6213 23.1839 34.2373 20.7233 31.7767C18.2627 29.3161 16.8787 25.9799 16.875 22.5Z" fill="#3C3C3C"/>
</svg>
