<svg width="44" height="30" viewBox="0 0 44 30" fill="none" xmlns="http://www.w3.org/2000/svg">
<path d="M0 2.68371C0 1.20154 1.12339 0 2.50916 0H41.4907C42.8764 0 43.9998 1.20154 43.9998 2.68371V27.3163C43.9998 28.7985 42.8764 30 41.4907 30H2.50916C1.12339 30 0 28.7985 0 27.3163V2.68371Z" fill="url(#paint0_linear_165_5484)"/>
<path fill-rule="evenodd" clip-rule="evenodd" d="M41.7111 15.9139H43.9998C43.9998 16.3123 43.9998 16.6749 43.9998 17.0037H41.5365C40.2387 17.0037 39.7621 17.8462 39.7621 18.6467C39.7621 20.2788 41.0274 20.3153 42.1409 20.3475C42.2188 20.3498 42.296 20.352 42.372 20.3547C42.5874 20.3547 42.718 20.393 42.8077 20.4772C42.8987 20.5538 42.9588 20.6814 42.9588 20.8422C42.9588 20.9928 42.8987 21.1167 42.8125 21.2021C42.7131 21.3056 42.548 21.3387 42.3121 21.3387H39.9334V22.5221H42.3217C43.1142 22.5221 43.6996 22.2846 44 21.8162C44 22.2842 44 22.765 44 23.2588C43.5045 23.5141 42.8533 23.6138 42.1864 23.6138H38.982V23.121C38.6107 23.4387 37.9403 23.6138 37.2989 23.6138H27.1963V21.8342C27.1963 21.616 27.1762 21.607 26.9714 21.607H26.811V23.6139H23.4854V21.5358C22.9288 21.7924 22.2978 21.8154 21.7629 21.8065H21.3665V23.6179L17.3346 23.6141L16.3433 22.4169L15.291 23.6141H8.75V15.9139H15.4165L16.3729 17.0924L17.3942 15.9139H21.857C22.3729 15.9139 23.2194 15.9715 23.6 16.3645V15.9139H27.5876C27.9623 15.9139 28.7741 15.9944 29.2552 16.3645V15.9139H35.3006V16.3645C35.6011 16.057 36.2366 15.9139 36.778 15.9139H40.1633V16.3645C40.5187 16.0903 41.0204 15.9139 41.7111 15.9139ZM44 19.7481C44 19.2052 44 18.682 44 18.1779H43.9999C43.9998 19.9033 43.9998 20.4395 43.9998 18.1779H41.7461C41.521 18.1779 41.3715 18.1869 41.2456 18.2776C41.1151 18.3669 41.0649 18.4996 41.0649 18.6746C41.0649 18.8828 41.175 19.0244 41.3353 19.0857C41.4658 19.1341 41.6059 19.1482 41.8119 19.1482L42.4822 19.1674C43.1585 19.1852 43.61 19.3092 43.8853 19.6115C43.9276 19.6471 43.9556 19.6863 43.9841 19.726L43.9841 19.7261L43.9918 19.7368L43.9967 19.7436L44 19.7481ZM43.9999 17.251L44 18.171C44 -0.967928 43.9999 7.49122 43.9999 14.244C43.9999 15.3314 43.9999 16.3745 43.9999 17.251ZM21.8176 20.6711C22.8987 20.6711 23.9712 20.3546 23.9712 18.8216C23.9712 17.2932 22.8685 17.0035 21.8871 17.0035H17.9354L16.3623 18.8124L14.8408 17.0035H9.86675V22.5221H14.7654L16.348 20.6952L17.8708 22.5221H20.2745V20.6711H21.8176ZM20.2745 19.5503H21.8727C22.3479 19.5503 22.6435 19.2989 22.6435 18.8216C22.6435 18.339 22.3336 18.145 21.8871 18.145H20.2745V19.5503ZM14.1393 21.372H11.0987V20.2741H13.8138V19.1481H11.0987V18.1448H14.1992L15.5519 19.753L14.1393 21.372ZM19.0428 22.0202L17.144 19.7723L19.0428 17.5958V22.0202ZM29.2602 20.4208C29.1547 20.26 28.9297 20.0658 28.6544 19.9575C28.9799 19.8197 29.5308 19.3702 29.5309 18.4894C29.5309 17.8599 29.2855 17.5154 28.8952 17.264C28.4893 17.033 28.0333 17.0035 27.4072 17.0035H24.5519V22.5221H25.7946V20.5065H27.1163C27.5674 20.5065 27.8429 20.5538 28.0236 20.7515C28.2305 20.9824 28.2269 21.4038 28.2241 21.7278L28.2241 21.7286C28.2238 21.7643 28.2235 21.7987 28.2235 21.8316V22.5221H29.4651V21.4281C29.4601 20.9417 29.4348 20.6902 29.2602 20.4208ZM27.9075 19.2708C27.7421 19.3754 27.5375 19.3844 27.2968 19.3844H25.7945V18.145H27.3173C27.5375 18.145 27.7578 18.15 27.9075 18.2447C28.0678 18.334 28.1636 18.5049 28.1636 18.7411C28.1636 18.9772 28.0678 19.1674 27.9075 19.2708ZM39.4367 20.7807C39.4367 20.2128 39.3077 19.8773 39.0669 19.6115C38.7867 19.309 38.3259 19.1852 37.6545 19.1677L36.9888 19.1486C36.7781 19.1486 36.638 19.1344 36.5075 19.086C36.3519 19.0248 36.2369 18.8832 36.2369 18.675C36.2369 18.4999 36.2872 18.3673 36.4226 18.2779C36.547 18.1872 36.6932 18.1782 36.9181 18.1782H39.1867V17.0037H36.7074C35.4109 17.0037 34.9393 17.8462 34.9393 18.6467C34.9393 20.2787 36.2042 20.3153 37.3137 20.3475C37.3915 20.3497 37.4685 20.352 37.5442 20.3547C37.7596 20.3547 37.89 20.393 37.9846 20.4772C38.0695 20.5538 38.1355 20.6814 38.1355 20.8421C38.1355 20.9928 38.0745 21.1167 37.9894 21.2021C37.8852 21.3056 37.7188 21.3387 37.4843 21.3387H35.0852V22.5221H37.4939C38.7412 22.5221 39.4367 21.9679 39.4367 20.7807ZM34.3442 17.0035H30.2167V22.5221H34.3442V21.377L31.4483 21.372V20.274H34.2735V19.1481H31.4483V18.1448H34.3442V17.0035Z" fill="white"/>
<path fill-rule="evenodd" clip-rule="evenodd" d="M2.58962 12.8912L2.11318 14.1166H0V10.0803L1.49768 6.42175H4.72277L5.1382 7.33053V6.42175H8.91979L9.74705 8.40921L10.5526 6.42175H22.5586C23.1043 6.42175 23.5951 6.53025 23.9553 6.87106V6.42175H27.2416V6.87106C27.8076 6.5404 28.5083 6.42175 29.3054 6.42175H34.0675L34.5093 7.33053V6.42175H38.0348L38.516 7.33053V6.42175H41.9517V14.1166H38.4801L37.824 12.9526V14.1166H33.4917L33.0212 12.8912H31.9545L31.4734 14.1166H29.2252C28.343 14.1166 27.6726 13.8946 27.2416 13.6484V14.1166H21.8977V12.3705C21.8977 12.124 21.8568 12.1102 21.7168 12.1051H21.5169L21.5218 14.1166H11.1895V13.1658L10.8184 14.1206H8.66011L8.289 13.1797V14.1166H4.13147L3.65627 12.8912H2.58962ZM3.11977 8.44463L3.96623 10.6441H2.27815L3.11977 8.44463ZM22.0018 9.88198C22.2426 9.88198 22.4436 9.87832 22.6136 9.76832C22.774 9.67896 22.8684 9.48492 22.8684 9.24379C22.8684 9.00749 22.7691 8.83642 22.6087 8.75604C22.4627 8.66684 22.2378 8.65653 22.0223 8.65653H20.4994V9.88198H22.0018ZM32.4755 8.44463L33.3313 10.6441H31.6243L32.4755 8.44463ZM12.085 13.0248H13.3526V7.50757H11.2936L9.80683 11.2503L8.18836 7.50757H6.16991V12.7312L4.06656 7.50757H2.22914L0.0145271 13.0248H1.35772L1.83775 11.7942H4.4127L4.8879 13.0248H7.40323V8.69992L9.20117 13.0248H10.287L12.0803 8.70374L12.085 13.0248ZM14.2745 13.0248H18.4058V11.8837H15.5112V10.7819H18.3363V9.65096H15.5112V8.65648H18.4058V7.50757H14.2745V13.0248ZM23.3593 10.464C23.6802 10.3276 24.2308 9.87312 24.2308 8.99347C24.2308 8.37807 23.9962 8.01829 23.605 7.77184C23.2052 7.52538 22.7395 7.50757 22.1075 7.50757H19.263V13.0248H20.4996V11.018H21.8272C22.2724 11.018 22.5478 11.0601 22.7286 11.2542C22.9308 11.4927 22.9272 11.9024 22.9244 12.224C22.9241 12.2602 22.9238 12.2954 22.9238 12.329L22.9285 13.0248H24.1758V11.941C24.1758 11.4482 24.1457 11.2031 23.9711 10.9287C23.8611 10.7679 23.63 10.5739 23.3593 10.464ZM24.948 13.0248H26.2099V7.50757H24.948V13.0248ZM39.0968 13.0248H40.8494V7.50774H39.5826V11.3502L37.4088 7.50774H35.5258V12.7263L33.4319 7.50774H31.5789L29.8359 11.8466H29.2805C28.955 11.8466 28.609 11.7804 28.4186 11.562C28.1887 11.2836 28.0785 10.8574 28.0785 10.2664C28.0785 9.68807 28.2232 9.24891 28.434 9.0166C28.6795 8.76132 28.9344 8.68976 29.3857 8.68976H30.5578V7.50757H29.3605C28.5083 7.50757 27.8822 7.7106 27.4824 8.15092C26.9509 8.74202 26.8157 9.49004 26.8157 10.3083C26.8157 11.3116 27.0418 11.9461 27.4765 12.4146C27.9075 12.883 28.6686 13.0248 29.2697 13.0248H30.7168L31.1838 11.7942H33.7528L34.2341 13.0248H36.7527V8.8838L39.0968 13.0248Z" fill="white"/>
<defs>
<linearGradient id="paint0_linear_165_5484" x1="21.9999" y1="0" x2="21.9999" y2="30" gradientUnits="userSpaceOnUse">
<stop stop-color="#64B5FA"/>
<stop offset="1" stop-color="#4378C4"/>
</linearGradient>
</defs>
</svg>
