<svg width="44" height="30" viewBox="0 0 44 30" fill="none" xmlns="http://www.w3.org/2000/svg">
<path d="M0 2.68371C0 1.20154 1.12339 0 2.50916 0H41.4907C42.8764 0 43.9998 1.20154 43.9998 2.68371V27.3163C43.9998 28.7985 42.8764 30 41.4907 30H2.50916C1.12339 30 0 28.7985 0 27.3163V2.68371Z" fill="white"/>
<path d="M32 9V21C32 21.55 31.804 22.021 31.412 22.413C31.02 22.805 30.5493 23.0007 30 23H14C13.45 23 12.979 22.804 12.587 22.412C12.195 22.02 11.9993 21.5493 12 21V9C12 8.45 12.196 7.979 12.588 7.587C12.98 7.195 13.4507 6.99934 14 7H30C30.55 7 31.021 7.196 31.413 7.588C31.805 7.98 32.0007 8.45067 32 9ZM14 11H30V9H14V11ZM14 15V21H30V15H14Z" fill="#D9D9D9"/>
</svg>
