<svg width="80" height="80" viewBox="0 0 80 80" fill="none" xmlns="http://www.w3.org/2000/svg">
<path fill-rule="evenodd" clip-rule="evenodd" d="M68.5 27C73.1944 27 77 23.1944 77 18.5C77 13.8056 73.1944 10 68.5 10C63.8056 10 60 13.8056 60 18.5C60 23.1944 63.8056 27 68.5 27ZM61.914 27.9285C63.1257 28.7765 64.5084 29.3968 66 29.7275V58.6095L47.2302 41.9726L61.914 27.9285ZM57.0969 20C57.3875 22.2303 58.317 24.2598 59.6958 25.8988L43.0295 41.8391C39.9366 44.7972 35.0634 44.7972 31.9705 41.8391L9.38238 20.235L9.37005 20.2233C9.542 20.0837 9.76123 20 10 20H57.0969ZM68.5 7C62.6571 7 57.832 11.3575 57.0969 17H10C7.79086 17 6 18.7909 6 21V21.6804V24H4C1.79086 24 0 25.7909 0 28V28.6804V68C0 68.2417 0.0214328 68.4783 0.0625015 68.7082C0.396839 70.5795 2.03254 72 4 72H59C61.0711 72 62.7745 70.426 62.9793 68.409C62.993 68.2745 63 68.1381 63 68V65H65C67.0711 65 68.7745 63.426 68.9793 61.409C68.993 61.2745 69 61.1381 69 61V29.9893C75.1193 29.7275 80 24.6837 80 18.5C80 12.1487 74.8513 7 68.5 7ZM60 65V68C60 68.5523 59.5523 69 59 69H4C3.44772 69 3 68.5523 3 68V31.0206L6 33.8899V61C6 61.2417 6.02143 61.4783 6.0625 61.7082C6.39684 63.5795 8.03254 65 10 65H60ZM6 29.7386V27H4C3.76123 27 3.542 27.0837 3.37005 27.2233L3.38238 27.235L6 29.7386ZM9 24.0206V57.7227L27.2886 41.5124L9 24.0206ZM10 62C9.66051 62 9.36054 61.8308 9.17978 61.5722L29.464 43.593L29.8969 44.0071C34.1335 48.0591 40.7996 48.0745 45.0546 44.0531L65.263 61.9651C65.1792 61.9878 65.091 62 65 62H10ZM73.7004 16.3995C74.1972 15.7366 74.0625 14.7965 73.3996 14.2997C72.7366 13.8028 71.7965 13.9375 71.2997 14.6005L68.1176 18.8467L65.951 17.0707C65.3103 16.5455 64.3652 16.6392 63.84 17.2798C63.3148 17.9205 63.4084 18.8657 64.0491 19.3908L68.6391 23.1533L73.7004 16.3995Z" fill="#CE0538"/>
</svg>
