<svg width="50" height="50" viewBox="0 0 50 50" fill="none" xmlns="http://www.w3.org/2000/svg">
<g clip-path="url(#clip0_2459_4893)">
<path fill-rule="evenodd" clip-rule="evenodd" d="M20.9607 3.37422L20.9608 3.37421C20.9868 3.3714 21.0129 3.36762 21.039 3.36284C24.8513 2.66485 28.7811 2.98667 32.4291 4.29563C32.4541 4.30459 32.4792 4.31257 32.5044 4.31957L32.5045 4.3196L32.5089 4.32081C33.0082 4.45716 33.545 4.21453 33.7446 3.72894C33.9549 3.21736 33.7113 2.63004 33.1914 2.44125C29.1584 0.97685 24.806 0.620406 20.5886 1.40915C20.0449 1.51083 19.7089 2.05068 19.8332 2.58967C19.9511 3.10127 20.4413 3.42801 20.9561 3.3747L20.9607 3.37422ZM48 13.3809C48 16.3934 45.4068 18.9999 42 18.9999C38.5932 18.9999 36 16.3934 36 13.3809C36 10.326 37.2216 7.62104 42 3.58341C46.7784 7.62104 48 10.326 48 13.3809ZM50 13.3809C50 17.5888 46.4183 20.9999 42 20.9999C37.5817 20.9999 34 17.5888 34 13.3809C34 9.32124 35.8616 6.00316 41.3807 1.49826C41.7408 1.20435 42.2592 1.20435 42.6193 1.49826C48.1384 6.00316 50 9.32124 50 13.3809ZM16.6048 9.44673C16.8497 8.83048 17 8.05519 17 6.9691C17 3.95508 12.9876 2.70892 11.3537 5.73841C10.5591 7.21179 8.44087 7.21179 7.64626 5.73841C6.0124 2.70892 2 3.95508 2 6.9691C2 8.05519 2.15026 8.83048 2.39522 9.44673C2.63726 10.0556 3.01228 10.6116 3.60042 11.209C4.6182 12.2427 6.05382 13.2127 8.18779 14.6546L8.18781 14.6546C8.59865 14.9322 9.03538 15.2273 9.5 15.5437C9.96463 15.2273 10.4014 14.9322 10.8122 14.6546C12.9462 13.2127 14.3818 12.2427 15.3996 11.209C15.9877 10.6116 16.3627 10.0556 16.6048 9.44673ZM8.19252 3.2353C5.14954 0.538704 -1.49012e-08 2.469 -1.49012e-08 6.9691C-1.49012e-08 11.5432 2.2801 13.082 7.17159 16.3832C7.72403 16.756 8.30978 17.1513 8.92932 17.576C9.27287 17.8115 9.72713 17.8115 10.0707 17.576C10.6902 17.1513 11.276 16.756 11.8284 16.3832C16.7199 13.082 19 11.5432 19 6.9691C19 2.469 13.8505 0.538704 10.8075 3.2353C10.7837 3.2564 10.76 3.27779 10.7364 3.29947C10.3387 3.66537 9.97885 4.11233 9.67347 4.64511C9.64636 4.69241 9.61967 4.74039 9.59343 4.78905C9.55431 4.86158 9.44569 4.86158 9.40657 4.78905C9.38033 4.74039 9.35364 4.69241 9.32653 4.64511C9.02115 4.11233 8.66125 3.66537 8.26359 3.29947C8.24003 3.27779 8.21634 3.2564 8.19252 3.2353ZM25.0034 24L25 24L24.9966 24C23.3413 23.9981 22 22.6557 22 21C22 19.3431 23.3431 18 25 18C26.6569 18 28 19.3431 28 21C28 22.6557 26.6587 23.9981 25.0034 24ZM28.4247 24.643C29.3944 23.731 30 22.4362 30 21C30 18.2386 27.7614 16 25 16C22.2386 16 20 18.2386 20 21C20 22.4362 20.6056 23.731 21.5753 24.643C18.8813 25.8268 17 28.5187 17 31.65C17 32.3956 17.6044 33 18.35 33H31.65C32.3956 33 33 32.3956 33 31.65C33 28.5187 31.1187 25.8268 28.4247 24.643ZM25.0044 26L25 26L24.9956 26H24.65C21.7494 26 19.3593 28.1857 19.037 31H30.963C30.6407 28.1857 28.2506 26 25.35 26H25.0044ZM48 41.4998C48 43.3545 47.3128 45.3036 46.2323 46.5654C45.2158 47.7525 43.9975 48.2224 42.5392 47.7502C41.8013 47.5113 41.04 47.5619 40.3862 47.8069C39.5246 48.1297 38.3167 47.8446 37.0534 46.4787C35.8183 45.1433 35 43.2057 35 41.4998C35 39.6627 35.6609 38.4033 36.428 37.8206C37.0801 37.3254 38.2122 37.0158 40.0482 37.9769C40.9563 38.4523 42.0437 38.4523 42.9518 37.9769C44.7878 37.0158 45.9199 37.3254 46.572 37.8206C47.3391 38.4033 48 39.6627 48 41.4998ZM50 41.4998C50 46.0606 46.6963 51.1984 41.9231 49.653C41.6514 49.565 41.3555 49.5794 41.088 49.6797C37.1975 51.1376 33 46.0337 33 41.4998C33 37.1644 35.9852 34.0133 40.3801 35.9198C39.9573 34.1194 38.5104 33.3066 37.6059 32.9189C37.0982 32.7013 36.8631 32.1135 37.0806 31.6058C37.2982 31.0982 37.8861 30.8631 38.3937 31.0806C39.5426 31.573 41.9925 32.8962 42.4316 36.0042C46.9294 33.924 50 37.1027 50 41.4998ZM45.7427 13.0301C46.2785 13.164 46.6043 13.707 46.4703 14.2428C45.9574 16.2943 44.3244 17.2552 43.1963 17.4808C42.6548 17.5891 42.1279 17.2379 42.0196 16.6963C41.9113 16.1548 42.2625 15.628 42.8041 15.5196C43.3426 15.4119 44.2429 14.9061 44.5301 13.7577C44.664 13.2219 45.2069 12.8961 45.7427 13.0301ZM3.43847 36.4453C3.62393 36.1671 3.93616 36 4.27052 36H5.3843C5.60725 36.3777 5.92263 36.8039 6.33283 37.1658C6.8324 37.6066 7.53089 38 8.40015 38C10.1311 38 11.0852 36.8827 11.5076 36H12.3641C12.7429 36 13.0891 36.214 13.2585 36.5528L14.3414 38.7186C14.5615 39.1588 14.4287 39.6936 14.0283 39.9796L13.4564 40.388C13.4207 40.4136 13.3855 40.4398 13.3511 40.4668L12.8942 39.553C12.6472 39.059 12.0465 38.8588 11.5526 39.1058C11.0586 39.3528 10.8584 39.9534 11.1054 40.4474L12.1054 42.4474C12.1348 42.5063 12.1693 42.5611 12.2081 42.6114C12.2028 42.6836 12.2001 42.7562 12.2001 42.8292V47C12.2001 47.5523 11.7524 48 11.2001 48H5.60015C5.04786 48 4.60015 47.5523 4.60015 47V42.9768C4.60015 42.7469 4.57385 42.5209 4.52341 42.3022L5.80006 40.6001C6.13143 40.1582 6.04189 39.5314 5.60006 39.2001C5.15823 38.8687 4.53143 38.9582 4.20006 39.4001L3.34684 40.5377C3.25448 40.4716 3.1578 40.4103 3.05708 40.3543L2.3816 39.9791C1.87096 39.6954 1.71116 39.0362 2.03519 38.5502L3.43847 36.4453ZM4.27052 34C3.26746 34 2.33076 34.5013 1.77437 35.3359L0.371092 37.4408C-0.600994 38.8989 -0.121608 40.8763 1.41031 41.7274L2.08579 42.1026C2.40326 42.279 2.60015 42.6136 2.60015 42.9768V47C2.60015 48.6568 3.94329 50 5.60015 50H11.2001C12.857 50 14.2001 48.6568 14.2001 47V42.8292C14.2001 42.5063 14.3561 42.2032 14.6189 42.0155L15.1907 41.6071C16.392 40.749 16.7905 39.1446 16.1303 37.8242L15.0474 35.6584C14.5392 34.642 13.5004 34 12.3641 34H11.2101C10.4718 34 9.95353 34.5115 9.7515 35.0266C9.56258 35.5084 9.15662 36 8.40015 36C8.16484 36 7.91764 35.8969 7.65607 35.6661C7.39112 35.4324 7.17199 35.1174 7.02863 34.8432C6.78609 34.3793 6.28874 34 5.66163 34H4.27052ZM46.878 22.685L46.878 22.6849L46.8779 22.6804C46.8655 22.163 47.23 21.7002 47.7494 21.6231C48.2965 21.5419 48.8081 21.9195 48.8664 22.4695C49.2205 25.8087 48.8698 29.1852 47.8372 32.3804C47.6671 32.9067 47.0889 33.1711 46.5701 32.9792C46.0777 32.7971 45.816 32.2693 45.9345 31.7654L45.9355 31.761L45.9356 31.7609C45.9417 31.7355 45.9487 31.7101 45.9568 31.6848C46.875 28.8064 47.1903 25.7695 46.8832 22.7639C46.8805 22.7375 46.8788 22.7112 46.878 22.685ZM30.5469 46.2892L30.5468 46.2892L20.4912 46.5328L20.4867 46.5322C19.9732 46.4677 19.476 46.7837 19.3469 47.2927C19.211 47.8288 19.5351 48.3759 20.0764 48.4893C23.7075 49.2505 27.466 49.1594 31.0559 48.2233C31.5911 48.0837 31.8884 47.5216 31.7266 46.9927C31.5731 46.4906 31.0611 46.1991 30.5514 46.2884L30.5469 46.2892ZM30.5468 46.2892L20.4913 46.5328C20.5173 46.5362 20.5433 46.5406 20.5692 46.5459C23.8446 47.2195 27.2307 47.1375 30.4696 46.306C30.4953 46.2994 30.521 46.2938 30.5468 46.2892ZM3.81914 30.9465L3.81917 30.9466L3.82004 30.9511C3.91891 31.4591 3.63705 31.9764 3.13796 32.1394C2.61216 32.3111 2.04457 32.0245 1.89496 31.492C0.734389 27.3613 0.702467 22.9944 1.80253 18.8473C1.94434 18.3126 2.50767 18.0178 3.03593 18.1818C3.53734 18.3374 3.82674 18.8506 3.73531 19.36L3.7345 19.3644L3.81914 30.9465ZM3.73448 19.3646C3.72974 19.3903 3.72404 19.416 3.71733 19.4417C2.73788 23.1916 2.7667 27.1344 3.80087 30.8696C3.80795 30.8952 3.81403 30.9208 3.81914 30.9465L3.73448 19.3646Z" fill="#CE0538"/>
</g>
<defs>
<clipPath id="clip0_2459_4893">
<rect width="50" height="50" fill="white"/>
</clipPath>
</defs>
</svg>
