<svg width="50" height="50" viewBox="0 0 50 50" fill="none" xmlns="http://www.w3.org/2000/svg">
<path fill-rule="evenodd" clip-rule="evenodd" d="M30 6C30 7.44777 29.3847 8.75182 28.4013 9.6649C31.6857 11.0065 34 14.233 34 18V18.35C34 19.2613 33.2613 20 32.35 20H17.65C16.7387 20 16 19.2613 16 18.35V18C16 14.233 18.3143 11.0065 21.5987 9.6649C20.6153 8.75182 20 7.44777 20 6C20 3.23858 22.2386 1 25 1C27.7614 1 30 3.23858 30 6ZM25 9C26.6569 9 28 7.65685 28 6C28 4.34315 26.6569 3 25 3C23.3431 3 22 4.34315 22 6C22 7.65685 23.3431 9 25 9ZM32 18C32 14.134 28.866 11 25 11C21.134 11 18 14.134 18 18H32Z" fill="#CE0538"/>
<path fill-rule="evenodd" clip-rule="evenodd" d="M0.683261 33.4057C-0.0786429 31.9344 0.496421 30.1241 1.9677 29.3622L4.59004 28.0042C5.77014 27.3931 7.16838 27.6421 8.06877 28.5238C8.93272 27.6806 10.0462 26.6516 11.2887 25.7524C12.9213 24.5709 14.9275 23.5 17 23.5C20.5736 23.5 22.7545 24.4366 24.3055 25.4007C24.6832 25.6356 25.0175 25.8681 25.3116 26.0761L25.4726 26.1902C25.7027 26.3535 25.8981 26.4922 26.0866 26.6147C26.5538 26.9184 26.802 27 27 27H31.1283C31.431 27 31.7343 26.9897 32.061 26.9786C32.2327 26.9727 32.4109 26.9666 32.5988 26.9617C33.1196 26.9482 33.6831 26.9453 34.2341 26.9993C35.3227 27.1062 36.5592 27.4558 37.3475 28.6035C37.643 29.0336 37.8423 29.5473 37.9368 30.1488L42.7675 25.3182C42.7998 25.2859 42.8403 25.2475 42.8895 25.2067C43.061 25.0649 43.86 24.4274 44.8967 24.0644C45.9472 23.6964 47.4655 23.5511 48.7071 24.7927C49.6357 25.7212 49.9682 26.6918 49.937 27.5967C49.9086 28.4207 49.5759 29.0848 49.4079 29.4203L49.3773 29.4814L49.3576 29.5143C48.3358 31.2173 45.5001 35.505 42.2475 39.1642C40.6007 41.0169 39.1224 42.2477 37.5437 43.0021C35.9522 43.7626 34.3407 43.9998 32.5001 43.9998L16.2404 43.9998C16.8371 45.4261 16.2482 47.0952 14.851 47.8187L12.2287 49.1767C10.7574 49.9386 8.94703 49.3635 8.18512 47.8922L0.683261 33.4057ZM2.8874 31.1381L5.50974 29.7802C6.00017 29.5262 6.60362 29.7179 6.85759 30.2083L14.3594 44.6948C14.6134 45.1853 14.4217 45.7887 13.9313 46.0427L11.309 47.4007C10.8185 47.6546 10.2151 47.463 9.96112 46.9725L2.45925 32.486C2.20529 31.9956 2.39697 31.3921 2.8874 31.1381ZM15.2161 41.9998L32.5001 41.9998C34.1594 41.9998 35.4479 41.787 36.6814 41.1976C37.9277 40.602 39.1995 39.5828 40.7527 37.8355C43.879 34.3183 46.6274 30.1715 47.6227 28.5183C47.7858 28.1904 47.9261 27.8776 47.9382 27.5278C47.9486 27.2244 47.8644 26.7783 47.293 26.207C46.8212 25.7353 46.2446 25.7114 45.5578 25.9519C44.8781 26.19 44.311 26.6281 44.1754 26.7387L37.2071 33.707C37.2071 33.707 36.2239 34.3811 35.9472 34.5194C35.4575 34.7643 34.9799 34.8817 34.6332 34.9395C34.4574 34.9688 34.3088 34.9838 34.2002 34.9916C34.1457 34.9955 34.1008 34.9976 34.067 34.9987C34.0501 34.9993 34.036 34.9996 34.0247 34.9998L34.0101 35L34.0045 35L34.0021 35H34.001H34H26C25.4477 35 25 34.5523 25 34C25 33.4477 25.4477 33 26 33H33.9939L34.0004 32.9998C34.0106 32.9995 34.0301 32.9986 34.0577 32.9967C34.1131 32.9927 34.1988 32.9843 34.3044 32.9667C34.5201 32.9308 34.7925 32.8607 35.0528 32.7306C35.3092 32.6024 35.5351 32.4258 35.6992 32.1797C35.8591 31.9398 36 31.575 36 31C36 30.3291 35.8483 29.9533 35.699 29.7359C35.4061 29.3095 34.9 29.0743 34.0388 28.9898C33.6149 28.9482 33.1518 28.948 32.6509 28.9611C32.4987 28.965 32.3386 28.9704 32.1752 28.976C31.8272 28.9877 31.4638 29 31.1283 29H27C26.198 29 25.5387 28.6441 24.9965 28.2915C24.7705 28.1446 24.5342 27.9768 24.3027 27.8125L24.1567 27.709C23.8709 27.5069 23.5756 27.3019 23.2495 27.0993C21.9855 26.3134 20.1665 25.5 17 25.5C15.5725 25.5 13.9953 26.2624 12.4613 27.3726C11.1753 28.3033 10.025 29.3991 9.14313 30.2726L15.2161 41.9998Z" fill="#CE0538"/>
</svg>
