<svg width="37" height="32" viewBox="0 0 37 32" fill="none" xmlns="http://www.w3.org/2000/svg">
<path fill-rule="evenodd" clip-rule="evenodd" d="M15.2511 18.9165C15.1361 18.9728 15.0069 19.006 14.8698 19.006C14.5516 19.006 14.2751 18.8342 14.1298 18.5808L14.0746 18.4619L11.7588 13.4812C11.7339 13.4269 11.7183 13.3655 11.7183 13.3057C11.7183 13.0765 11.9081 12.8905 12.1424 12.8905C12.2378 12.8905 12.3253 12.9215 12.396 12.9731L15.1285 14.8798C15.3277 15.0077 15.5668 15.0828 15.8235 15.0828C15.9761 15.0828 16.1221 15.0554 16.2579 15.0065L29.1077 9.4007C26.8046 6.73943 23.0111 5 18.7182 5C11.6937 5 6 9.65154 6 15.39C6 18.5203 7.71245 21.3389 10.3943 23.2436C10.6095 23.394 10.7499 23.6408 10.7499 23.9206C10.7499 24.0128 10.7306 24.0969 10.7054 24.1849C10.4915 24.9683 10.1489 26.222 10.1328 26.2811C10.1059 26.3789 10.0639 26.4819 10.0639 26.5848C10.0639 26.814 10.2537 27 10.4884 27C10.5803 27 10.6553 26.9666 10.7332 26.923L13.5178 25.3468C13.7269 25.2284 13.9487 25.1553 14.1929 25.1553C14.3232 25.1553 14.4488 25.1748 14.5668 25.2102C15.8659 25.5762 17.2675 25.7797 18.7182 25.7797C25.7428 25.7797 31.4375 21.1284 31.4375 15.39C31.4375 13.6523 30.9122 12.0156 29.9886 10.5756L15.3442 18.8636L15.2511 18.9165Z" fill="#07C160"/>
</svg>
