<svg width="32" height="32" viewBox="0 0 32 32" fill="none" xmlns="http://www.w3.org/2000/svg">
<path d="M23.3206 5H8.4944C6.5636 5 5 6.5774 5 8.52448V23.4761C5 25.422 6.5636 27 8.4944 27H23.3206C25.2509 27 26.8137 25.422 26.8137 23.4761V8.52448C26.8137 6.5774 25.2509 5 23.3206 5Z" fill="#1677FF"/>
<path d="M10.8934 21.918C7.49977 21.918 6.49645 19.2221 8.17359 17.7471C8.73325 17.2486 9.75594 17.0052 10.3012 16.9506C12.3171 16.7497 14.1832 17.5253 16.3854 18.6094C14.8374 20.6459 12.8658 21.918 10.8934 21.918ZM22.9592 18.8139C22.0863 18.519 20.915 18.0681 19.6104 17.5921C20.3939 16.2185 21.0197 14.6543 21.431 12.9543H17.1311V11.3923H22.3985V10.5205H17.1311V7.91668H14.9815C14.6044 7.91668 14.6044 8.29212 14.6044 8.29212V10.5205H9.27705V11.3923H14.6044V12.9543H10.206V13.8259H18.7365C18.4243 14.9106 18.0052 15.929 17.5078 16.8542C14.7398 15.9331 11.7861 15.1865 9.93047 15.6461C8.74376 15.9409 7.97948 16.4672 7.53047 17.0186C5.46964 19.5474 6.94773 23.3884 11.3 23.3884C13.8733 23.3884 16.3522 21.9415 18.2735 19.5569C21.1392 20.9462 26.8129 23.3316 26.8129 23.3316V19.9319C26.8129 19.9319 26.1004 19.8747 22.9592 18.8139Z" fill="white"/>
</svg>
