<svg width="32" height="32" viewBox="0 0 32 32" fill="none" xmlns="http://www.w3.org/2000/svg">
<path d="M20.3267 8.23877H11.6738V23.7883H20.3267V8.23877Z" fill="#FF5F00"/>
<path d="M12.2232 16.014C12.2218 14.5165 12.5611 13.0383 13.2155 11.6913C13.8699 10.3443 14.8222 9.16385 16.0002 8.23928C14.5414 7.0926 12.7893 6.3795 10.9444 6.18148C9.09943 5.98346 7.23598 6.30851 5.56703 7.11948C3.89808 7.93045 2.49096 9.19462 1.50651 10.7675C0.522061 12.3404 0 14.1585 0 16.014C0 17.8696 0.522061 19.6877 1.50651 21.2606C2.49096 22.8335 3.89808 24.0976 5.56703 24.9086C7.23598 25.7196 9.09943 26.0446 10.9444 25.8466C12.7893 25.6486 14.5414 24.9355 16.0002 23.7888C14.8222 22.8642 13.8699 21.6838 13.2155 20.3368C12.5612 18.9898 12.2218 17.5116 12.2232 16.014Z" fill="#EB001B"/>
<path d="M31.9997 16.014C31.9998 17.8696 31.4778 19.6877 30.4934 21.2606C29.509 22.8334 28.1019 24.0976 26.433 24.9086C24.7641 25.7196 22.9007 26.0446 21.0557 25.8466C19.2108 25.6486 17.4588 24.9355 16 23.7888C17.177 22.8633 18.1285 21.6827 18.7828 20.3359C19.4371 18.9891 19.777 17.5113 19.777 16.014C19.777 14.5167 19.4371 13.039 18.7828 11.6922C18.1285 10.3454 17.177 9.16478 16 8.23928C17.4588 7.0926 19.2108 6.37949 21.0557 6.18148C22.9007 5.98346 24.7641 6.30852 26.433 7.1195C28.1019 7.93048 29.509 9.19465 30.4934 10.7675C31.4778 12.3404 31.9998 14.1585 31.9997 16.014Z" fill="#F79E1B"/>
<path d="M31.0569 22.1415V21.8232H31.1853V21.7583H30.8584V21.8232H30.9868V22.1415H31.0569ZM31.6916 22.1415V21.7577H31.5914L31.4762 22.0217L31.3609 21.7577H31.2606V22.1415H31.3314V21.852L31.4395 22.1016H31.5128L31.6209 21.8514V22.1415H31.6916Z" fill="#F79E1B"/>
</svg>
