<svg width="32" height="32" viewBox="0 0 32 32" fill="none" xmlns="http://www.w3.org/2000/svg">
<path fill-rule="evenodd" clip-rule="evenodd" d="M31.9996 16.5794H30.3351C29.8327 16.5794 29.4678 16.6994 29.2094 16.8858V16.5794H26.7473C26.3536 16.5794 25.8914 16.6767 25.6729 16.8858V16.5794H21.2762V16.8858C20.9263 16.6342 20.3359 16.5794 20.0634 16.5794H17.1633V16.8858C16.8865 16.6186 16.2709 16.5794 15.8957 16.5794H12.65L11.9073 17.3808L11.2116 16.5794H6.36328V21.8154H11.1204L11.8857 21.0013L12.6066 21.8154L15.5389 21.818V20.5863H15.8272C16.2163 20.5923 16.6752 20.5766 17.08 20.4022V21.8152H19.4986V20.4506H19.6153C19.7642 20.4506 19.7788 20.4567 19.7788 20.605V21.8151H27.1262C27.5927 21.8151 28.0802 21.6961 28.3502 21.4801V21.8151H30.6808C31.1658 21.8151 31.6394 21.7473 31.9997 21.5738C31.9997 -7.07364 31.9996 28.5739 31.9996 16.5794Z" fill="#006FCF"/>
<path fill-rule="evenodd" clip-rule="evenodd" d="M1.53686 15.3573L1.88337 14.524H2.65912L3.00472 15.3573H6.02839V14.7202L6.29828 15.36H7.86795L8.13784 14.7107V15.3573H15.6522L15.6487 13.9895H15.7941C15.8959 13.993 15.9257 14.0024 15.9257 14.17V15.3573H19.8121V15.0389C20.1256 15.2064 20.6132 15.3573 21.2548 15.3573H22.8898L23.2397 14.524H24.0155L24.3577 15.3573H27.5085V14.5658L27.9856 15.3573H30.5105V10.125H28.0117V10.7429L27.6618 10.125H25.0978V10.7429L24.7765 10.125H21.3131C20.7334 10.125 20.2238 10.2057 19.8121 10.4305V10.125H17.4221V10.4305C17.1602 10.1988 16.8032 10.125 16.4063 10.125H7.67466L7.08879 11.4764L6.48714 10.125H3.73689V10.7429L3.43476 10.125H1.08923L0 12.6127V15.3573H1.53686Z" fill="#006FCF"/>
<path fill-rule="evenodd" clip-rule="evenodd" d="M15.8674 19.8143C16.6536 19.8143 17.4336 19.599 17.4336 18.5567C17.4336 17.5174 16.6317 17.3204 15.9179 17.3204H13.0439L11.8999 18.5504L10.7933 17.3204H7.17578V21.0729H10.7384L11.8894 19.8307L12.9969 21.0729H14.7451V19.8143H15.8674ZM14.7451 19.0522H15.9074C16.253 19.0522 16.468 18.8812 16.468 18.5567C16.468 18.2285 16.2426 18.0966 15.9179 18.0966H14.7451V19.0522ZM10.2831 20.2909H8.07172V19.5443H10.0463V18.7787H8.07172V18.0965H10.3267L11.3105 19.19L10.2831 20.2909ZM13.8493 20.7317L12.4684 19.2031L13.8493 17.7232V20.7317Z" fill="white"/>
<path fill-rule="evenodd" clip-rule="evenodd" d="M21.2802 19.6441C21.2034 19.5348 21.0398 19.4027 20.8396 19.3291C21.0763 19.2354 21.477 18.9297 21.4771 18.3308C21.4771 17.9027 21.2985 17.6685 21.0147 17.4975C20.7195 17.3405 20.3878 17.3204 19.9325 17.3204H17.856V21.0729H18.7597V19.7024H19.7209C20.0491 19.7024 20.2494 19.7345 20.3808 19.8689C20.5313 20.026 20.5287 20.3125 20.5266 20.5328C20.5264 20.5573 20.5262 20.5809 20.5262 20.6034V21.0729H21.4292V20.329C21.4255 19.9983 21.4072 19.8273 21.2802 19.6441ZM20.2964 18.8621C20.1761 18.9333 20.0273 18.9394 19.8523 18.9394H18.7596V18.0966H19.8671C20.0273 18.0966 20.1875 18.1 20.2964 18.1644C20.4129 18.2251 20.4826 18.3413 20.4826 18.5019C20.4826 18.6625 20.4129 18.7918 20.2964 18.8621Z" fill="white"/>
<path d="M28.4123 19.0938C28.5874 19.2745 28.6813 19.5026 28.6813 19.8888C28.6813 20.6961 28.1754 21.0729 27.2684 21.0729H25.5165V20.2683H27.2613C27.4319 20.2683 27.5529 20.2457 27.6287 20.1754C27.6906 20.1173 27.735 20.033 27.735 19.9306C27.735 19.8213 27.6869 19.7345 27.6252 19.6824C27.5564 19.6252 27.4615 19.5992 27.3049 19.5992C27.2498 19.5973 27.1939 19.5958 27.1373 19.5942C26.3304 19.5724 25.4104 19.5474 25.4104 18.4377C25.4104 17.8935 25.7534 17.3205 26.6963 17.3205H28.4995V18.1192H26.8496C26.686 18.1192 26.5797 18.1253 26.4892 18.187C26.3907 18.2477 26.3542 18.3379 26.3542 18.457C26.3542 18.5985 26.4378 18.6948 26.551 18.7365C26.6458 18.7694 26.7478 18.779 26.901 18.779L27.3852 18.792C27.8734 18.8039 28.2086 18.8881 28.4123 19.0938Z" fill="white"/>
<path d="M32.0001 18.119H30.3608C30.1972 18.119 30.0884 18.1251 29.9968 18.1867C29.902 18.2475 29.8654 18.3377 29.8654 18.4567C29.8654 18.5983 29.9455 18.6946 30.0621 18.7362C30.157 18.7692 30.2589 18.7788 30.4087 18.7788L30.8962 18.7918C31.3881 18.8039 31.7164 18.8882 31.9166 19.0938C31.9474 19.118 31.9678 19.1446 31.9885 19.1717L31.9941 19.179L31.9977 19.1836L32.0001 19.1867V20.5929C31.7816 20.9114 31.3558 21.0729 30.7795 21.0729H29.0426V20.2683H30.7725C30.9441 20.2683 31.0642 20.2457 31.1365 20.1754C31.1991 20.1173 31.2428 20.033 31.2428 19.9306C31.2428 19.8213 31.1991 19.7345 31.1329 19.6825C31.0677 19.6252 30.9727 19.5992 30.8161 19.5992C30.7608 19.5973 30.7047 19.5958 30.648 19.5943C29.8382 19.5724 28.9179 19.5475 28.9179 18.4377C28.9179 17.8935 29.2646 17.3206 30.2084 17.3206H31.9999L32.0001 18.119Z" fill="white"/>
<path d="M21.9758 17.3204H24.9777V18.0965H22.8715V18.7787H24.9262V19.5443H22.8715V20.2909L24.9777 20.2943V21.0729H21.9758V17.3204Z" fill="white"/>
<path fill-rule="evenodd" clip-rule="evenodd" d="M2.88374 12.996L2.26813 11.5005L1.65604 12.996H2.88374ZM16.4455 12.4005C16.3219 12.4753 16.1757 12.4778 16.0006 12.4778H14.9079V11.6445H16.0154C16.1722 11.6445 16.3357 11.6516 16.442 11.7122C16.5586 11.7669 16.6308 11.8832 16.6308 12.0439C16.6308 12.2078 16.5622 12.3398 16.4455 12.4005ZM24.2402 12.996L23.6178 11.5005L22.9988 12.996H24.2402ZM9.71035 14.6148H8.7883L8.78489 11.6766L7.4807 14.6148H6.69099L5.38339 11.674V14.6148H3.55405L3.20845 13.7781H1.33575L0.986633 14.6148H0.00976562L1.6204 10.8633H2.95671L4.48642 14.4152V10.8633H5.95439L7.13147 13.4083L8.21276 10.8633H9.71023V14.6148H9.71035ZM13.3853 14.6148H10.3807V10.8633H13.3853V11.6445H11.2801V12.3207H13.3348V13.0897H11.2801V13.8389H13.3853V14.6148ZM17.6216 11.8736C17.6216 12.4718 17.2212 12.7808 16.9879 12.8736C17.1847 12.9483 17.3528 13.0802 17.4328 13.1895C17.5598 13.3761 17.5817 13.5428 17.5817 13.8779V14.6148H16.6745L16.6711 14.1417C16.6711 13.916 16.6928 13.5913 16.5291 13.4109C16.3977 13.2789 16.1974 13.2503 15.8736 13.2503H14.9081V14.6148H14.0087V10.8633H16.0774C16.5371 10.8633 16.8757 10.8754 17.1665 11.043C17.4511 11.2106 17.6216 11.4552 17.6216 11.8736ZM19.061 14.6148H18.1433V10.8633H19.061V14.6148ZM29.7079 14.6148H28.4334L26.7285 11.7991V14.6148H24.8968L24.5468 13.7781H22.6784L22.3388 14.6148H21.2864C20.8492 14.6148 20.2956 14.5184 19.9822 14.1999C19.6661 13.8814 19.5016 13.4499 19.5016 12.7677C19.5016 12.2113 19.5999 11.7027 19.9865 11.3007C20.2773 11.0013 20.7326 10.8633 21.3524 10.8633H22.2232V11.6671H21.3707C21.0424 11.6671 20.8571 11.7158 20.6786 11.8894C20.5252 12.0473 20.42 12.346 20.42 12.7392C20.42 13.1411 20.5002 13.4309 20.6673 13.6202C20.8058 13.7687 21.0574 13.8137 21.2942 13.8137H21.6981L22.9658 10.8634H24.3134L25.8362 14.4118V10.8634H27.2057L28.7867 13.4762V10.8634H29.7079V14.6148Z" fill="white"/>
</svg>
