<svg width="95" height="70" viewBox="0 0 95 70" fill="none" xmlns="http://www.w3.org/2000/svg">
<g clip-path="url(#clip0_490_2058)">
<path d="M4.67053 64.7261H3.62832C3.57466 64.7264 3.52159 64.7372 3.47216 64.7579C3.42273 64.7785 3.37792 64.8087 3.34031 64.8465C3.3027 64.8843 3.27303 64.9291 3.253 64.9783C3.23297 65.0276 3.22299 65.0802 3.22362 65.1332V69.5108C3.22362 69.6172 3.18085 69.7193 3.10473 69.7945C3.02861 69.8697 2.92537 69.912 2.81772 69.912H0.495742C0.388091 69.912 0.284849 69.8697 0.208729 69.7945C0.132608 69.7193 0.0898438 69.6172 0.0898438 69.5108V56.2742C0.0898433 56.1677 0.132569 56.0655 0.208656 55.9901C0.284743 55.9147 0.387982 55.8721 0.495742 55.8718H5.89539C9.38253 55.8718 10.7614 57.1698 10.7614 60.3096C10.7614 62.4099 10.1299 63.6949 8.65669 64.2919C8.60511 64.3156 8.5591 64.3497 8.52162 64.392C8.48414 64.4343 8.45601 64.4838 8.43904 64.5375C8.42207 64.5911 8.41663 64.6477 8.42307 64.7036C8.4295 64.7594 8.44768 64.8133 8.47642 64.8618L10.9727 69.3114C11.0071 69.3727 11.0247 69.4419 11.0237 69.512C11.0226 69.5821 11.003 69.6507 10.9668 69.711C10.9305 69.7713 10.879 69.8212 10.8172 69.8556C10.7554 69.89 10.6855 69.9079 10.6146 69.9073H7.97621C7.90271 69.9077 7.83051 69.8882 7.76739 69.851C7.70427 69.8137 7.65264 69.7602 7.61807 69.6961L5.02867 64.9385C4.99416 64.8743 4.94257 64.8206 4.87946 64.7831C4.81636 64.7457 4.74412 64.726 4.67053 64.7261ZM3.22362 61.6831C3.22362 61.7895 3.26638 61.8915 3.3425 61.9667C3.41862 62.042 3.52187 62.0842 3.62952 62.0842H5.56112C7.08562 62.0842 7.62881 61.5686 7.62881 60.3143C7.62881 59.0353 7.08562 58.5196 5.56112 58.5196H3.62832C3.52067 58.5196 3.41743 58.5619 3.34131 58.6371C3.26519 58.7124 3.22242 58.8144 3.22242 58.9208L3.22362 61.6831Z" fill="#1F1F1F"/>
<path d="M10.6143 69.9957H7.97593C7.88596 69.9957 7.79768 69.9715 7.72066 69.9255C7.64364 69.8795 7.58082 69.8136 7.53899 69.7349L4.9496 64.9797C4.92255 64.9297 4.88227 64.888 4.83307 64.8589C4.78386 64.8298 4.72758 64.8144 4.67024 64.8145H3.62804C3.58603 64.8147 3.54447 64.8231 3.50577 64.8392C3.46707 64.8553 3.43199 64.8789 3.40256 64.9085C3.37314 64.9382 3.34995 64.9733 3.33435 65.0118C3.31875 65.0504 3.31105 65.0916 3.31168 65.1331V69.5107C3.31168 69.5751 3.29882 69.6389 3.27385 69.6984C3.24888 69.7578 3.21228 69.8119 3.16615 69.8574C3.12001 69.9029 3.06526 69.9389 3.00501 69.9634C2.94476 69.988 2.88021 70.0005 2.81505 70.0004H0.495458C0.429993 70.0004 0.365176 69.9876 0.304754 69.9627C0.244331 69.9377 0.189502 69.9013 0.143433 69.8553C0.097365 69.8093 0.0609716 69.7548 0.0363563 69.6948C0.011741 69.6349 -0.000607974 69.5707 2.30158e-05 69.506V56.2729C0.000338265 56.1431 0.052637 56.0187 0.145481 55.927C0.238325 55.8352 0.364157 55.7835 0.495458 55.7832H5.8951C9.41448 55.7832 10.8506 57.0953 10.8506 60.3095C10.8506 62.4841 10.1642 63.7762 8.69103 64.3732C8.65327 64.3887 8.6192 64.4118 8.59103 64.441C8.56286 64.4703 8.54121 64.5051 8.52747 64.5431C8.5116 64.5874 8.50541 64.6344 8.50933 64.6812C8.51324 64.728 8.52715 64.7734 8.55016 64.8145L11.0476 69.2641C11.0894 69.3386 11.1107 69.4226 11.1096 69.5078C11.1084 69.593 11.0848 69.6765 11.041 69.7499C10.9973 69.8233 10.9349 69.8841 10.86 69.9264C10.7852 69.9687 10.7005 69.9909 10.6143 69.9909V69.9957ZM3.62804 64.6375H4.67024C4.76013 64.6379 4.84826 64.6622 4.92536 64.7079C5.00246 64.7535 5.06568 64.8189 5.10838 64.8971L7.69658 69.6558C7.72378 69.7056 7.76413 69.7471 7.81332 69.776C7.86251 69.8049 7.91871 69.82 7.97593 69.8198H10.6143C10.6694 69.8199 10.7236 69.8058 10.7715 69.7789C10.8194 69.752 10.8595 69.7133 10.8877 69.6664C10.9154 69.6194 10.9301 69.5658 10.9301 69.5113C10.9301 69.4568 10.9154 69.4032 10.8877 69.3561L8.39377 64.9054C8.35835 64.8424 8.33685 64.7727 8.33067 64.7009C8.3245 64.6291 8.3338 64.5568 8.35795 64.4888C8.37949 64.4263 8.41426 64.369 8.45996 64.3208C8.50566 64.2726 8.56123 64.2345 8.62298 64.2092C10.04 63.6346 10.6716 62.4322 10.6716 60.3154C10.6716 57.2263 9.28794 55.9661 5.8963 55.9661H0.495458C0.411554 55.9661 0.331086 55.999 0.271756 56.0577C0.212427 56.1163 0.179096 56.1958 0.179096 56.2788V69.506C0.179096 69.5889 0.212427 69.6684 0.271756 69.7271C0.331086 69.7857 0.411554 69.8187 0.495458 69.8187H2.81505C2.89906 69.8187 2.97965 69.7858 3.03917 69.7272C3.09869 69.6685 3.13229 69.589 3.1326 69.506V65.1331C3.13197 65.0683 3.14432 65.0041 3.16892 64.9441C3.19352 64.8841 3.22989 64.8294 3.27594 64.7834C3.322 64.7373 3.37682 64.7007 3.43725 64.6757C3.49767 64.6506 3.56252 64.6377 3.62804 64.6375ZM5.56083 62.1726H3.62804C3.49664 62.1726 3.37063 62.121 3.27771 62.0292C3.1848 61.9374 3.1326 61.8128 3.1326 61.6829V58.916C3.1326 58.786 3.18476 58.6613 3.27764 58.5693C3.37052 58.4773 3.49653 58.4254 3.62804 58.4251H5.56083C7.1128 58.4251 7.71806 58.9537 7.71806 60.313C7.71806 61.6723 7.1128 62.1726 5.56083 62.1726ZM3.62804 58.6021C3.54403 58.6024 3.46356 58.6356 3.40426 58.6944C3.34497 58.7533 3.31168 58.8329 3.31168 58.916V61.6829C3.31168 61.7659 3.34501 61.8454 3.40434 61.904C3.46367 61.9627 3.54414 61.9956 3.62804 61.9956H5.56083C7.00297 61.9956 7.53899 61.539 7.53899 60.3095C7.53899 59.08 7.00297 58.6021 5.56083 58.6021H3.62804Z" fill="#1F1F1F"/>
<path d="M23.2515 67.6465V69.5061C23.2515 69.6125 23.2087 69.7146 23.1326 69.7898C23.0565 69.865 22.9532 69.9073 22.8456 69.9073H13.7164C13.6088 69.9073 13.5056 69.865 13.4294 69.7898C13.3533 69.7146 13.3105 69.6125 13.3105 69.5061V56.2742C13.3105 56.1677 13.3533 56.0655 13.4294 55.9901C13.5054 55.9147 13.6087 55.8721 13.7164 55.8718H22.6367C22.7444 55.8721 22.8477 55.9147 22.9237 55.9901C22.9998 56.0655 23.0426 56.1677 23.0426 56.2742V58.1338C23.0426 58.2402 22.9998 58.3422 22.9237 58.4175C22.8476 58.4927 22.7443 58.535 22.6367 58.535H16.849C16.7414 58.535 16.6381 58.5772 16.562 58.6525C16.4859 58.7277 16.4431 58.8297 16.4431 58.9361V61.0435C16.4431 61.15 16.4859 61.2522 16.5619 61.3276C16.638 61.403 16.7413 61.4456 16.849 61.4459H21.5921C21.6997 61.4459 21.803 61.4882 21.8791 61.5634C21.9552 61.6386 21.998 61.7407 21.998 61.8471V63.6854C21.998 63.7919 21.9552 63.8941 21.8792 63.9695C21.8031 64.0449 21.6998 64.0875 21.5921 64.0878H16.849C16.7414 64.0878 16.6381 64.1301 16.562 64.2053C16.4859 64.2805 16.4431 64.3826 16.4431 64.489V66.8489C16.4431 66.9553 16.4859 67.0573 16.562 67.1325C16.6381 67.2078 16.7414 67.25 16.849 67.25H22.8456C22.9524 67.25 23.0549 67.2917 23.1309 67.3659C23.2069 67.4401 23.2502 67.5409 23.2515 67.6465Z" fill="#1F1F1F"/>
<path d="M22.8453 69.9957H13.7161C13.5848 69.9953 13.459 69.9437 13.3662 69.8519C13.2733 69.7601 13.221 69.6358 13.2207 69.506V56.2729C13.2213 56.1432 13.2737 56.019 13.3665 55.9273C13.4593 55.8356 13.5849 55.7838 13.7161 55.7832H22.6352C22.7666 55.7835 22.8925 55.8352 22.9856 55.9269C23.0786 56.0186 23.1312 56.143 23.1318 56.2729V58.1337C23.1312 58.2635 23.0786 58.3879 22.9856 58.4796C22.8925 58.5714 22.7666 58.623 22.6352 58.6233H16.8487C16.7648 58.6233 16.6843 58.6563 16.625 58.7149C16.5657 58.7736 16.5324 58.8531 16.5324 58.936V61.0434C16.5324 61.1264 16.5656 61.2061 16.6249 61.2649C16.6842 61.3238 16.7647 61.357 16.8487 61.3573H21.5918C21.7232 61.3573 21.8492 61.4089 21.9421 61.5007C22.035 61.5925 22.0872 61.7171 22.0872 61.8469V63.6865C22.0869 63.8163 22.0346 63.9406 21.9417 64.0324C21.8489 64.1242 21.7231 64.1759 21.5918 64.1762H16.8487C16.7648 64.1762 16.6843 64.2091 16.625 64.2677C16.5657 64.3264 16.5324 64.4059 16.5324 64.4888V66.8487C16.5324 66.9317 16.5657 67.0112 16.625 67.0698C16.6843 67.1285 16.7648 67.1614 16.8487 67.1614H22.8453C22.9767 67.1614 23.1027 67.213 23.1956 67.3048C23.2885 67.3967 23.3407 67.5212 23.3407 67.6511V69.5107C23.3394 69.6397 23.2867 69.7631 23.1939 69.8539C23.1011 69.9447 22.9758 69.9957 22.8453 69.9957ZM13.7161 55.9543C13.6322 55.9543 13.5518 55.9872 13.4924 56.0459C13.4331 56.1045 13.3998 56.184 13.3998 56.267V69.506C13.3998 69.5889 13.4331 69.6684 13.4924 69.7271C13.5518 69.7857 13.6322 69.8187 13.7161 69.8187H22.8453C22.9292 69.8187 23.0096 69.7857 23.069 69.7271C23.1283 69.6684 23.1616 69.5889 23.1616 69.506V67.6464C23.1616 67.5635 23.1283 67.4839 23.069 67.4253C23.0096 67.3666 22.9292 67.3337 22.8453 67.3337H16.8487C16.7177 67.3331 16.5923 67.2812 16.4999 67.1894C16.4075 67.0977 16.3557 66.9735 16.3557 66.844V64.4841C16.3557 64.3543 16.4079 64.2297 16.5008 64.1379C16.5937 64.046 16.7197 63.9944 16.8511 63.9944H21.5942C21.6781 63.9944 21.7585 63.9615 21.8179 63.9029C21.8772 63.8442 21.9105 63.7647 21.9105 63.6818V61.8469C21.9105 61.764 21.8772 61.6845 21.8179 61.6258C21.7585 61.5672 21.6781 61.5343 21.5942 61.5343H16.8487C16.7172 61.5339 16.5912 61.4821 16.4983 61.3901C16.4054 61.2981 16.3533 61.1734 16.3533 61.0434V58.936C16.3533 58.8061 16.4055 58.6816 16.4984 58.5898C16.5913 58.4979 16.7173 58.4463 16.8487 58.4463H22.6352C22.7192 58.4463 22.7998 58.4134 22.8593 58.3548C22.9188 58.2962 22.9524 58.2167 22.9527 58.1337V56.2729C22.9524 56.1898 22.9188 56.1103 22.8593 56.0517C22.7998 55.9931 22.7192 55.9602 22.6352 55.9602L13.7161 55.9543Z" fill="#1F1F1F"/>
<path d="M36.6796 56.2742V69.5061C36.6796 69.6125 36.6368 69.7146 36.5607 69.7898C36.4846 69.865 36.3813 69.9073 36.2737 69.9073H33.935C33.8616 69.9077 33.7895 69.8883 33.7265 69.8513C33.6634 69.8143 33.6117 69.7611 33.5768 69.6973L29.297 61.8542C29.254 61.7758 29.1859 61.7137 29.1033 61.6779C29.0207 61.642 28.9283 61.6344 28.8409 61.6561C28.7534 61.6779 28.6757 61.7279 28.6202 61.7982C28.5646 61.8684 28.5344 61.955 28.5341 62.0442V69.5061C28.5338 69.6126 28.4908 69.7147 28.4145 69.7899C28.3382 69.8651 28.2348 69.9073 28.127 69.9073H25.9782C25.8705 69.9073 25.7673 69.865 25.6912 69.7898C25.615 69.7146 25.5723 69.6125 25.5723 69.5061V56.2742C25.5723 56.1677 25.615 56.0655 25.6911 55.9901C25.7672 55.9147 25.8704 55.8722 25.9782 55.8719H28.6511C28.7246 55.8717 28.7967 55.8913 28.8597 55.9285C28.9228 55.9657 28.9745 56.0191 29.0093 56.0831L32.9489 63.3256C32.9916 63.4047 33.0598 63.4674 33.1428 63.5037C33.2258 63.54 33.3187 63.5477 33.4066 63.5257C33.4946 63.5037 33.5725 63.4532 33.6281 63.3823C33.6836 63.3114 33.7135 63.2241 33.7129 63.1344V56.2742C33.7129 56.1677 33.7556 56.0655 33.8317 55.9901C33.9078 55.9147 34.0111 55.8722 34.1188 55.8719H36.2677C36.3215 55.8712 36.375 55.8812 36.4249 55.9011C36.4749 55.9211 36.5203 55.9506 36.5586 55.988C36.5969 56.0254 36.6274 56.07 36.6481 56.1191C36.6689 56.1683 36.6796 56.221 36.6796 56.2742Z" fill="#1F1F1F"/>
<path d="M36.2738 69.9957H33.9351C33.8457 69.996 33.7578 69.9722 33.6811 69.9269C33.6043 69.8816 33.5415 69.8164 33.4994 69.7384L29.2195 61.8953C29.1866 61.8329 29.1334 61.7833 29.0685 61.7545C29.0035 61.7257 28.9307 61.7194 28.8616 61.7366C28.7926 61.7538 28.7315 61.7935 28.6881 61.8493C28.6447 61.905 28.6216 61.9737 28.6226 62.044V69.506C28.6223 69.636 28.5698 69.7605 28.4767 69.8523C28.3836 69.9441 28.2575 69.9957 28.126 69.9957H25.9771C25.8456 69.9957 25.7195 69.9441 25.6263 69.8523C25.5332 69.7605 25.4808 69.636 25.4805 69.506V56.2729C25.4811 56.143 25.5337 56.0186 25.6267 55.9269C25.7197 55.8352 25.8457 55.7835 25.9771 55.7832H28.6513C28.7409 55.7833 28.8289 55.8074 28.9058 55.8528C28.9827 55.8983 29.0457 55.9636 29.0882 56.0416L33.0278 63.2829C33.0607 63.3453 33.1139 63.395 33.1788 63.4238C33.2438 63.4526 33.3167 63.4589 33.3857 63.4417C33.4547 63.4245 33.5158 63.3848 33.5592 63.329C33.6026 63.2732 33.6257 63.2046 33.6247 63.1343V56.2729C33.625 56.1431 33.6773 56.0187 33.7702 55.927C33.863 55.8352 33.9888 55.7835 34.1201 55.7832H36.269C36.4002 55.7838 36.5259 55.8356 36.6186 55.9273C36.7114 56.019 36.7638 56.1432 36.7644 56.2729V69.506C36.7641 69.6349 36.7125 69.7586 36.6207 69.8502C36.5289 69.9419 36.4043 69.9941 36.2738 69.9957ZM28.9449 61.5531C29.0339 61.5533 29.1212 61.5775 29.1973 61.623C29.2735 61.6685 29.3356 61.7337 29.3771 61.8115L33.6569 69.6547C33.6838 69.7044 33.724 69.7459 33.773 69.7748C33.822 69.8037 33.878 69.8189 33.9351 69.8187H36.2738C36.3577 69.8187 36.4382 69.7857 36.4975 69.7271C36.5568 69.6684 36.5902 69.5889 36.5902 69.506V56.2729C36.5902 56.19 36.5568 56.1104 36.4975 56.0518C36.4382 55.9931 36.3577 55.9602 36.2738 55.9602H34.1249C34.041 55.9602 33.9605 55.9931 33.9012 56.0518C33.8419 56.1104 33.8086 56.19 33.8086 56.2729V63.1343C33.8097 63.2439 33.7737 63.3507 33.7061 63.4377C33.6386 63.5246 33.5435 63.5867 33.436 63.6139C33.3286 63.641 33.215 63.6318 33.1135 63.5877C33.012 63.5435 32.9284 63.4669 32.8762 63.3703L28.9258 56.1254C28.899 56.0755 28.8589 56.0338 28.8099 56.0047C28.7609 55.9756 28.7048 55.9602 28.6477 55.9602H25.9759C25.8919 55.9602 25.8113 55.9931 25.7518 56.0517C25.6923 56.1103 25.6587 56.1898 25.6583 56.2729V69.506C25.6587 69.589 25.6923 69.6685 25.7518 69.7272C25.8113 69.7858 25.8919 69.8187 25.9759 69.8187H28.1248C28.2088 69.8187 28.2894 69.7858 28.3489 69.7272C28.4084 69.6685 28.442 69.589 28.4423 69.506V62.044C28.4421 61.9353 28.4788 61.8297 28.5466 61.7441C28.6143 61.6585 28.7092 61.5979 28.816 61.572C28.8581 61.5609 28.9014 61.5546 28.9449 61.5531Z" fill="#1F1F1F"/>
<path d="M49.7542 67.6465V69.5061C49.7542 69.6125 49.7114 69.7146 49.6353 69.7898C49.5592 69.865 49.4559 69.9073 49.3483 69.9073H40.2204C40.1127 69.9073 40.0095 69.865 39.9333 69.7898C39.8572 69.7146 39.8145 69.6125 39.8145 69.5061V56.2742C39.8145 56.1677 39.8572 56.0655 39.9333 55.9901C40.0094 55.9147 40.1126 55.8721 40.2204 55.8718H49.1394C49.2471 55.8721 49.3504 55.9147 49.4265 55.9901C49.5025 56.0655 49.5453 56.1677 49.5453 56.2742V58.1338C49.5453 58.2402 49.5025 58.3422 49.4264 58.4175C49.3503 58.4927 49.247 58.535 49.1394 58.535H43.3529C43.2452 58.535 43.1418 58.5772 43.0655 58.6524C42.9892 58.7276 42.9462 58.8296 42.9458 58.9361V61.0435C42.9458 61.1502 42.9887 61.2526 43.0651 61.328C43.1414 61.4035 43.245 61.4459 43.3529 61.4459H48.0948C48.2025 61.4459 48.3059 61.4881 48.3822 61.5633C48.4585 61.6385 48.5016 61.7406 48.5019 61.8471V63.6854C48.5019 63.7921 48.459 63.8945 48.3826 63.9699C48.3063 64.0454 48.2027 64.0878 48.0948 64.0878H43.3529C43.2452 64.0878 43.1418 64.13 43.0655 64.2052C42.9892 64.2804 42.9462 64.3825 42.9458 64.489V66.8489C42.9462 66.9554 42.9892 67.0574 43.0655 67.1326C43.1418 67.2078 43.2452 67.25 43.3529 67.25H49.3483C49.4551 67.25 49.5576 67.2917 49.6336 67.3659C49.7096 67.4401 49.7529 67.5409 49.7542 67.6465Z" fill="#1F1F1F"/>
<path d="M49.348 69.9957H40.22C40.0886 69.9957 39.9626 69.9441 39.8697 69.8522C39.7768 69.7604 39.7246 69.6358 39.7246 69.506V56.2729C39.7249 56.1431 39.7772 56.0187 39.8701 55.927C39.9629 55.8352 40.0887 55.7835 40.22 55.7832H49.1391C49.2704 55.7835 49.3962 55.8352 49.489 55.927C49.5819 56.0187 49.6342 56.1431 49.6345 56.2729V58.1337C49.6342 58.2634 49.5819 58.3878 49.489 58.4796C49.3962 58.5713 49.2704 58.623 49.1391 58.6233H43.3514C43.2677 58.6236 43.1876 58.6567 43.1285 58.7153C43.0694 58.7739 43.0363 58.8533 43.0363 58.936V61.0434C43.0361 61.0845 43.0441 61.1252 43.0599 61.1632C43.0756 61.2011 43.0988 61.2357 43.1281 61.2649C43.1573 61.294 43.1921 61.3172 43.2305 61.333C43.2688 61.3489 43.3099 61.3571 43.3514 61.3573H48.0945C48.226 61.3573 48.3521 61.4088 48.4452 61.5006C48.5383 61.5924 48.5908 61.717 48.5911 61.8469V63.6865C48.5905 63.8164 48.5379 63.9407 48.4449 64.0325C48.3518 64.1242 48.2259 64.1759 48.0945 64.1762H43.3514C43.2677 64.1765 43.1876 64.2096 43.1285 64.2682C43.0694 64.3268 43.0363 64.4061 43.0363 64.4888V66.8487C43.0363 66.9315 43.0694 67.0108 43.1285 67.0694C43.1876 67.128 43.2677 67.1611 43.3514 67.1614H49.348C49.4794 67.1614 49.6054 67.213 49.6983 67.3048C49.7912 67.3967 49.8434 67.5212 49.8434 67.6511V69.5107C49.8422 69.6397 49.7894 69.7631 49.6966 69.8539C49.6039 69.9447 49.4786 69.9957 49.348 69.9957ZM40.22 55.9543C40.1361 55.9543 40.0557 55.9872 39.9963 56.0459C39.937 56.1045 39.9037 56.184 39.9037 56.267V69.506C39.9037 69.5889 39.937 69.6684 39.9963 69.7271C40.0557 69.7857 40.1361 69.8187 40.22 69.8187H49.348C49.4319 69.8187 49.5124 69.7857 49.5717 69.7271C49.631 69.6684 49.6643 69.5889 49.6643 69.506V67.6464C49.6643 67.5635 49.631 67.4839 49.5717 67.4253C49.5124 67.3666 49.4319 67.3337 49.348 67.3337H43.3514C43.2204 67.3331 43.095 67.2812 43.0027 67.1894C42.9103 67.0977 42.8584 66.9735 42.8584 66.844V64.4841C42.8584 64.3545 42.9104 64.2301 43.0031 64.1383C43.0957 64.0465 43.2214 63.9948 43.3526 63.9944H48.0957C48.1797 63.9944 48.2603 63.9615 48.3198 63.9029C48.3793 63.8443 48.4129 63.7648 48.4132 63.6818V61.8469C48.4132 61.8058 48.405 61.765 48.389 61.727C48.3731 61.689 48.3496 61.6545 48.3201 61.6254C48.2906 61.5964 48.2556 61.5734 48.2171 61.5577C48.1786 61.5421 48.1373 61.5341 48.0957 61.5343H43.3514C43.2201 61.5336 43.0944 61.4816 43.0018 61.3897C42.9092 61.2977 42.8572 61.1732 42.8572 61.0434V58.936C42.8572 58.8064 42.9092 58.682 43.0019 58.5902C43.0945 58.4984 43.2202 58.4467 43.3514 58.4463H49.1391C49.223 58.4463 49.3034 58.4134 49.3628 58.3548C49.4221 58.2961 49.4554 58.2166 49.4554 58.1337V56.2729C49.4554 56.19 49.4221 56.1104 49.3628 56.0518C49.3034 55.9931 49.223 55.9602 49.1391 55.9602L40.22 55.9543Z" fill="#1F1F1F"/>
<path d="M68.6352 56.3698L65.3271 69.6029C65.3057 69.69 65.2551 69.7674 65.1836 69.8227C65.1121 69.8779 65.0239 69.9077 64.9332 69.9073H62.3306C62.2402 69.9074 62.1523 69.8776 62.0809 69.8226C62.0095 69.7677 61.9588 69.6908 61.9367 69.604L60.1089 62.3934C60.0871 62.3064 60.0365 62.2292 59.9651 62.174C59.8937 62.1188 59.8056 62.0888 59.715 62.0888C59.6243 62.0888 59.5363 62.1188 59.4649 62.174C59.3935 62.2292 59.3428 62.3064 59.321 62.3934L57.4766 69.6052C57.4544 69.6918 57.4036 69.7686 57.3322 69.8233C57.2608 69.8781 57.173 69.9076 57.0826 69.9073H54.4168C54.3261 69.9075 54.238 69.8776 54.1666 69.8224C54.0951 69.7672 54.0445 69.6899 54.0228 69.6029L50.7148 56.3698C50.7002 56.3107 50.6993 56.249 50.7122 56.1896C50.7252 56.1301 50.7516 56.0743 50.7895 56.0263C50.8275 55.9784 50.8759 55.9396 50.9312 55.9128C50.9865 55.8861 51.0472 55.872 51.1087 55.8718H53.4964C53.589 55.8719 53.6789 55.9033 53.751 55.9608C53.8231 56.0184 53.8731 56.0985 53.8927 56.1881L55.5641 63.7208C55.5836 63.8092 55.6328 63.8885 55.7037 63.9458C55.7746 64.0031 55.8629 64.035 55.9545 64.0364C56.046 64.0377 56.1354 64.0085 56.208 63.9533C56.2806 63.8982 56.3322 63.8204 56.3544 63.7326L58.2788 56.181C58.3007 56.094 58.3513 56.0168 58.4227 55.9617C58.4941 55.9065 58.5821 55.8765 58.6728 55.8765H60.8217C60.9123 55.8765 61.0003 55.9065 61.0717 55.9617C61.1431 56.0168 61.1938 56.094 61.2156 56.181L63.14 63.7326C63.1623 63.8204 63.2139 63.8982 63.2865 63.9533C63.3591 64.0085 63.4484 64.0377 63.5399 64.0364C63.6315 64.035 63.7199 64.0031 63.7907 63.9458C63.8616 63.8885 63.9108 63.8092 63.9304 63.7208L65.6017 56.1881C65.6218 56.0985 65.6721 56.0185 65.7443 55.961C65.8166 55.9035 65.9065 55.8721 65.9992 55.8718H68.2448C68.3062 55.8724 68.3666 55.8866 68.4215 55.9135C68.4765 55.9405 68.5246 55.9793 68.5621 56.0273C68.5997 56.0752 68.6258 56.1309 68.6385 56.1902C68.6511 56.2495 68.65 56.3109 68.6352 56.3698Z" fill="#1F1F1F"/>
<path d="M64.9331 69.9958H62.3306C62.2206 69.9954 62.114 69.9587 62.0275 69.8916C61.941 69.8245 61.8796 69.7308 61.853 69.6253L60.0229 62.4194C60.0066 62.3512 59.9671 62.2906 59.911 62.2477C59.855 62.2047 59.7858 62.182 59.7149 62.1834C59.6442 62.1821 59.5751 62.2048 59.5193 62.2478C59.4634 62.2907 59.4242 62.3513 59.4081 62.4194L57.5625 69.6312C57.5359 69.7366 57.4744 69.8301 57.3879 69.897C57.3014 69.9639 57.1948 70.0004 57.0849 70.0005H54.4167C54.3066 70 54.1998 69.9632 54.1133 69.8958C54.0268 69.8285 53.9655 69.7345 53.9392 69.6289L50.6276 56.391C50.6097 56.3192 50.6086 56.2442 50.6242 56.1719C50.6398 56.0995 50.6718 56.0315 50.7177 55.9731C50.7636 55.9147 50.8223 55.8672 50.8894 55.8344C50.9565 55.8015 51.0302 55.7841 51.1051 55.7834H53.4927C53.6066 55.7819 53.7175 55.819 53.807 55.8886C53.8965 55.9582 53.9592 56.056 53.9846 56.1657L55.6559 63.6985C55.6698 63.7681 55.7078 63.8308 55.7633 63.8758C55.8189 63.9208 55.8885 63.9453 55.9603 63.9451C56.0311 63.9466 56.1003 63.9239 56.1562 63.881C56.2121 63.838 56.2513 63.7773 56.2672 63.7091L58.1916 56.1515C58.2182 56.0461 58.2795 55.9524 58.366 55.8853C58.4525 55.8181 58.5592 55.7815 58.6691 55.781H60.818C60.928 55.7813 61.0348 55.8179 61.1213 55.885C61.2078 55.9521 61.2692 56.046 61.2955 56.1515L63.2247 63.7173C63.2408 63.7854 63.2801 63.846 63.3359 63.8889C63.3918 63.9319 63.4608 63.9546 63.5315 63.9533C63.6034 63.9538 63.6732 63.9294 63.7288 63.8843C63.7844 63.8393 63.8223 63.7765 63.836 63.7067L65.5073 56.1739C65.5311 56.0645 65.5923 55.9664 65.6805 55.8961C65.7687 55.8259 65.8787 55.7877 65.992 55.7881H68.2376C68.3125 55.7886 68.3864 55.8059 68.4536 55.8387C68.5208 55.8714 68.5796 55.9189 68.6256 55.9774C68.6715 56.0359 68.7035 56.1039 68.719 56.1764C68.7345 56.2489 68.7332 56.3239 68.7151 56.3958L65.4082 69.6289C65.3811 69.7333 65.3198 69.8259 65.2338 69.8923C65.1479 69.9586 65.0422 69.995 64.9331 69.9958ZM59.7149 62.0017C59.8251 62.0011 59.9323 62.0374 60.019 62.1047C60.1057 62.1719 60.1668 62.2662 60.1924 62.3722L62.0202 69.5828C62.0373 69.6504 62.0768 69.7104 62.1324 69.7532C62.188 69.7959 62.2565 69.8191 62.327 69.8188H64.9295C65.0001 69.8191 65.0688 69.796 65.1246 69.7533C65.1805 69.7105 65.2202 69.6505 65.2375 69.5828L68.5444 56.3497C68.5557 56.3037 68.5564 56.2557 68.5463 56.2094C68.5362 56.163 68.5156 56.1195 68.4861 56.0822C68.4566 56.0448 68.4189 56.0146 68.3759 55.9937C68.3328 55.9728 68.2855 55.9618 68.2376 55.9615H65.9956C65.9231 55.9613 65.8527 55.9856 65.7962 56.0305C65.7397 56.0754 65.7005 56.1381 65.6852 56.2081L64.0139 63.7409C63.9911 63.8496 63.9313 63.9473 63.8443 64.0175C63.7574 64.0878 63.6486 64.1264 63.5363 64.1268H63.528C63.4177 64.1273 63.3106 64.0911 63.2239 64.0238C63.1372 63.9565 63.076 63.8622 63.0504 63.7563L61.1236 56.1975C61.1062 56.1302 61.0665 56.0704 61.011 56.0277C60.9555 55.985 60.8872 55.9617 60.8168 55.9615H58.6679C58.5974 55.9615 58.5288 55.9846 58.473 56.0273C58.4172 56.0701 58.3774 56.13 58.3599 56.1975L56.4438 63.7551C56.4184 63.8612 56.3574 63.9556 56.2706 64.0229C56.1839 64.0902 56.0766 64.1264 55.9663 64.1256H55.958C55.8457 64.125 55.7371 64.0863 55.6502 64.0161C55.5633 63.9459 55.5034 63.8483 55.4804 63.7397L53.8091 56.207C53.7932 56.1374 53.754 56.0752 53.6979 56.0305C53.6418 55.9857 53.572 55.961 53.4999 55.9604H51.1122C51.0642 55.9604 51.0168 55.9713 50.9736 55.9921C50.9304 56.0129 50.8925 56.0432 50.8629 56.0805C50.8332 56.1179 50.8125 56.1615 50.8024 56.2079C50.7922 56.2543 50.7929 56.3024 50.8042 56.3486L54.1099 69.5817C54.1268 69.6493 54.1663 69.7094 54.2219 69.7522C54.2776 69.795 54.3462 69.8181 54.4167 69.8177H57.0825C57.153 69.8179 57.2215 69.7948 57.2771 69.752C57.3328 69.7092 57.3723 69.6492 57.3893 69.5817L59.235 62.3698C59.2611 62.2639 59.3228 62.1699 59.41 62.103C59.4971 62.0362 59.6046 62.0004 59.7149 62.0017Z" fill="#1F1F1F"/>
<path d="M76.7131 67.0802H72.8391C72.7528 67.0801 72.6687 67.1073 72.5991 67.1578C72.5295 67.2084 72.4781 67.2796 72.4523 67.361L71.736 69.6265C71.7103 69.708 71.6589 69.7792 71.5893 69.8297C71.5197 69.8803 71.4356 69.9075 71.3492 69.9074H69.0344C68.97 69.9079 68.9063 69.8933 68.8487 69.8647C68.7911 69.8361 68.7412 69.7944 68.7032 69.7429C68.6652 69.6915 68.6401 69.6319 68.63 69.569C68.6199 69.506 68.6251 69.4416 68.6452 69.3811L73.1352 56.148C73.1622 56.0683 73.2138 55.9991 73.2828 55.95C73.3518 55.9008 73.4346 55.8744 73.5196 55.8743H76.1723C76.2573 55.8744 76.3401 55.9008 76.4091 55.95C76.478 55.9991 76.5297 56.0683 76.5567 56.148L81.049 69.3811C81.0695 69.4414 81.0751 69.5056 81.0655 69.5685C81.0559 69.6314 81.0313 69.6911 80.9937 69.7427C80.9562 69.7943 80.9068 69.8364 80.8495 69.8654C80.7923 69.8945 80.7289 69.9097 80.6646 69.9097H78.2065C78.1202 69.9098 78.0361 69.8826 77.9665 69.8321C77.8969 69.7816 77.8455 69.7104 77.8197 69.6289L77.1034 67.3634C77.078 67.2809 77.0262 67.2088 76.9558 67.1577C76.8855 67.1067 76.8003 67.0795 76.7131 67.0802ZM73.8479 64.4997H75.6983C75.761 64.4996 75.8228 64.4852 75.8788 64.4576C75.9349 64.43 75.9838 64.39 76.0216 64.3406C76.0594 64.2913 76.0851 64.2339 76.0968 64.1731C76.1084 64.1122 76.1056 64.0495 76.0887 63.9899L75.1635 60.7498C75.1397 60.6654 75.0886 60.5911 75.018 60.5381C74.9474 60.4851 74.8612 60.4564 74.7725 60.4564C74.6839 60.4564 74.5977 60.4851 74.5271 60.5381C74.4565 60.5911 74.4054 60.6654 74.3815 60.7498L73.4563 63.9899C73.4393 64.0499 73.4366 64.113 73.4485 64.1742C73.4604 64.2354 73.4865 64.2931 73.5249 64.3425C73.5632 64.392 73.6127 64.4319 73.6694 64.4592C73.7261 64.4865 73.7884 64.5004 73.8515 64.4997H73.8479Z" fill="#1F1F1F"/>
<path d="M80.6634 69.9957H78.2065C78.1002 69.9971 77.9963 69.9646 77.9103 69.9029C77.8242 69.8413 77.7606 69.7538 77.729 69.6535L77.0127 67.3868C76.9927 67.3232 76.9526 67.2676 76.8982 67.2283C76.8438 67.189 76.778 67.168 76.7107 67.1685H72.8379C72.7707 67.1683 72.7053 67.1894 72.6511 67.2287C72.597 67.268 72.557 67.3234 72.5371 67.3868L71.8208 69.6535C71.7891 69.7538 71.7255 69.8413 71.6395 69.9029C71.5534 69.9646 71.4495 69.9971 71.3432 69.9957H69.0332C68.9546 69.9958 68.877 69.9774 68.807 69.942C68.737 69.9066 68.6765 69.8552 68.6305 69.7922C68.5846 69.7291 68.5545 69.6561 68.5427 69.5793C68.5309 69.5024 68.5378 69.4239 68.5628 69.3502L73.0516 56.1183C73.0846 56.0208 73.1478 55.936 73.2322 55.8759C73.3166 55.8157 73.4179 55.7833 73.522 55.7832H76.1734C76.2774 55.7831 76.3787 55.8152 76.4631 55.8752C76.5475 55.9351 76.6107 56.0197 76.6438 56.1171L81.1326 69.3502C81.1578 69.4238 81.165 69.5023 81.1534 69.5792C81.1418 69.6561 81.1118 69.7291 81.0659 69.7922C81.02 69.8553 80.9596 69.9067 80.8896 69.9421C80.8196 69.9775 80.742 69.9958 80.6634 69.9957ZM72.8379 66.9915H76.7119C76.8181 66.9902 76.9219 67.0228 77.0079 67.0845C77.0939 67.1461 77.1576 67.2335 77.1894 67.3337L77.9057 69.6004C77.926 69.664 77.9665 69.7195 78.021 69.7587C78.0756 69.798 78.1414 69.819 78.2089 69.8187H80.6658C80.716 69.819 80.7655 69.8073 80.8101 69.7847C80.8548 69.7621 80.8933 69.7293 80.9224 69.6889C80.9518 69.6486 80.971 69.6021 80.9785 69.553C80.986 69.504 80.9815 69.4539 80.9654 69.4069L76.4767 56.1738C76.4554 56.1115 76.415 56.0574 76.361 56.0191C76.307 55.9808 76.2423 55.9602 76.1758 55.9602H73.522C73.4556 55.9604 73.3909 55.9811 73.3369 56.0194C73.283 56.0576 73.2425 56.1116 73.2211 56.1738L68.7324 69.4069C68.7167 69.4539 68.7126 69.504 68.7203 69.5529C68.728 69.6019 68.7473 69.6484 68.7766 69.6885C68.8059 69.7287 68.8445 69.7614 68.8891 69.7841C68.9337 69.8067 68.9831 69.8185 69.0332 69.8187H71.3444C71.4117 69.8188 71.4773 69.7976 71.5316 69.7584C71.5859 69.7191 71.6262 69.6638 71.6465 69.6004L72.3628 67.3337C72.3941 67.2337 72.4573 67.1464 72.5429 67.0847C72.6285 67.0231 72.732 66.9904 72.8379 66.9915ZM75.7031 64.588H73.8527C73.776 64.5881 73.7004 64.5706 73.6317 64.537C73.563 64.5033 73.5032 64.4544 73.4569 64.394C73.4106 64.3336 73.3792 64.2634 73.365 64.189C73.3508 64.1145 73.3543 64.0378 73.3751 63.9649L74.3015 60.726C74.3304 60.6227 74.3928 60.5317 74.479 60.4668C74.5653 60.4019 74.6707 60.3668 74.7791 60.3668C74.8874 60.3668 74.9929 60.4019 75.0791 60.4668C75.1654 60.5317 75.2277 60.6227 75.2566 60.726L76.1818 63.9649C76.2029 64.0379 76.2066 64.1146 76.1925 64.1892C76.1784 64.2637 76.1469 64.334 76.1006 64.3944C76.0543 64.4549 75.9943 64.5039 75.9255 64.5374C75.8568 64.571 75.781 64.5883 75.7043 64.588H75.7031ZM74.7779 60.5466C74.7087 60.5457 74.6412 60.5675 74.586 60.6088C74.5309 60.65 74.4913 60.7083 74.4734 60.7744L73.547 64.0133C73.5337 64.0599 73.5315 64.1089 73.5407 64.1565C73.5498 64.2041 73.5699 64.2489 73.5996 64.2874C73.6292 64.326 73.6675 64.3572 73.7114 64.3786C73.7553 64.4001 73.8037 64.4111 73.8527 64.411H75.7031C75.752 64.411 75.8002 64.3998 75.8439 64.3782C75.8877 64.3567 75.9258 64.3255 75.9553 64.287C75.9848 64.2484 76.0049 64.2037 76.0139 64.1562C76.023 64.1087 76.0208 64.0598 76.0075 64.0133L75.0823 60.7744C75.0644 60.7079 75.0244 60.6493 74.9687 60.608C74.9131 60.5667 74.845 60.5451 74.7755 60.5466H74.7779Z" fill="#1F1F1F"/>
<path d="M91.9646 67.6111V69.512C91.9643 69.6185 91.9213 69.7206 91.845 69.7958C91.7687 69.871 91.6653 69.9132 91.5575 69.9132H83.2438C83.1361 69.9132 83.0329 69.8709 82.9568 69.7957C82.8807 69.7204 82.8379 69.6184 82.8379 69.512V56.2742C82.8379 56.1677 82.8806 56.0655 82.9567 55.9901C83.0328 55.9147 83.136 55.8721 83.2438 55.8718H85.5646C85.6723 55.8721 85.7756 55.9147 85.8517 55.9901C85.9277 56.0655 85.9705 56.1677 85.9705 56.2742V66.8029C85.9705 66.9093 86.0132 67.0113 86.0894 67.0865C86.1655 67.1618 86.2687 67.204 86.3764 67.204H91.5575C91.6114 67.204 91.6647 67.2146 91.7144 67.2351C91.7641 67.2556 91.8092 67.2857 91.8471 67.3235C91.885 67.3614 91.9149 67.4063 91.935 67.4557C91.9552 67.505 91.9653 67.5579 91.9646 67.6111Z" fill="#1F1F1F"/>
<path d="M91.5572 69.9957H83.2435C83.1121 69.9957 82.9861 69.9441 82.8932 69.8522C82.8002 69.7604 82.748 69.6358 82.748 69.506V56.2729C82.7484 56.1431 82.8007 56.0187 82.8935 55.927C82.9863 55.8352 83.1122 55.7835 83.2435 55.7832H85.5631C85.6946 55.7832 85.8207 55.8348 85.9138 55.9266C86.0069 56.0184 86.0594 56.1429 86.0597 56.2729V66.8027C86.0597 66.8857 86.093 66.9652 86.1524 67.0238C86.2117 67.0825 86.2922 67.1154 86.3761 67.1154H91.5572C91.6887 67.1154 91.8149 67.167 91.908 67.2588C92.0011 67.3506 92.0536 67.4751 92.0539 67.6051V69.506C92.0536 69.636 92.0011 69.7605 91.908 69.8523C91.8149 69.9441 91.6887 69.9957 91.5572 69.9957ZM83.2435 55.9543C83.1596 55.9543 83.0791 55.9872 83.0198 56.0459C82.9604 56.1045 82.9271 56.184 82.9271 56.267V69.506C82.9271 69.5889 82.9604 69.6684 83.0198 69.7271C83.0791 69.7857 83.1596 69.8187 83.2435 69.8187H91.5572C91.6413 69.8187 91.7218 69.7858 91.7814 69.7272C91.8409 69.6685 91.8745 69.589 91.8748 69.506V67.611C91.8745 67.5279 91.8409 67.4484 91.7814 67.3898C91.7218 67.3312 91.6413 67.2983 91.5572 67.2983H86.3761C86.2448 67.298 86.1189 67.2463 86.0261 67.1545C85.9332 67.0628 85.8809 66.9384 85.8806 66.8086V56.2729C85.8803 56.1898 85.8467 56.1103 85.7872 56.0517C85.7277 55.9931 85.6471 55.9602 85.5631 55.9602L83.2435 55.9543Z" fill="#1F1F1F"/>
<path d="M1.2151e-10 5.70887V51.3173C1.21512e-10 51.4845 0.0671649 51.6447 0.186719 51.7629C0.306274 51.8811 0.468424 51.9474 0.637499 51.9474H40.7092C40.8783 51.9474 41.0405 51.8811 41.16 51.7629C41.2796 51.6447 41.3467 51.4845 41.3467 51.3173V5.70887C41.3467 5.6034 41.3257 5.49897 41.2848 5.40155C41.2439 5.30412 41.184 5.21562 41.1085 5.1411C41.033 5.06658 40.9434 5.0075 40.8448 4.96725C40.7461 4.92699 40.6404 4.90635 40.5337 4.90651H0.816572C0.709564 4.90589 0.603488 4.92618 0.504444 4.96622C0.405401 5.00627 0.315345 5.06527 0.239456 5.13984C0.163567 5.21441 0.103343 5.30307 0.062248 5.40073C0.0211531 5.49838 -1.85127e-06 5.60311 1.21509e-10 5.70887H1.2151e-10Z" fill="#CE0538"/>
<path d="M35.3699 45.434C35.3699 45.6102 35.2991 45.7791 35.173 45.9037C35.047 46.0283 34.876 46.0983 34.6978 46.0983H6.65259C6.47433 46.0983 6.30338 46.0283 6.17733 45.9037C6.05128 45.7791 5.98047 45.6102 5.98047 45.434V39.1909C5.98032 39.0862 6.00522 38.983 6.05315 38.8897C6.10108 38.7964 6.17068 38.7157 6.25624 38.654L20.2788 28.5549C20.3938 28.4721 20.5324 28.4275 20.6746 28.4275C20.8168 28.4275 20.9554 28.4721 21.0703 28.5549L35.0989 38.6528C35.1844 38.7149 35.2538 38.7959 35.3018 38.8893C35.3497 38.9828 35.3746 39.0861 35.3747 39.1909L35.3699 45.434Z" fill="white"/>
<path d="M35.3696 20.5314C35.3696 20.7076 35.2988 20.8766 35.1727 21.0011C35.0467 21.1257 34.8757 21.1957 34.6975 21.1957H21.3613C20.915 21.1953 20.4801 21.3354 20.1197 21.5957L7.04384 31.0046C6.94359 31.0766 6.82516 31.1198 6.70163 31.1295C6.57809 31.1391 6.45426 31.1148 6.34382 31.0593C6.23338 31.0037 6.14063 30.9191 6.07582 30.8147C6.01101 30.7103 5.97666 30.5902 5.97656 30.4677V11.5732C5.97656 11.3971 6.04737 11.2281 6.17342 11.1035C6.29947 10.9789 6.47042 10.9089 6.64868 10.9089H34.6975C34.8757 10.9089 35.0467 10.9789 35.1727 11.1035C35.2988 11.2281 35.3696 11.3971 35.3696 11.5732V20.5314Z" fill="white"/>
<path d="M50.0537 35.0081H45.9362C45.6793 35.0081 45.4329 35.1088 45.2511 35.2883C45.0694 35.4677 44.9671 35.7111 44.9668 35.965V51.0553C44.9671 51.3093 45.0693 51.5529 45.2511 51.7325C45.4328 51.9121 45.6792 52.0131 45.9362 52.0134H50.0537C50.3105 52.0131 50.5568 51.912 50.7383 51.7324C50.9199 51.5528 51.0218 51.3092 51.0218 51.0553V35.965C51.0215 35.7113 50.9194 35.4681 50.7379 35.2887C50.5564 35.1093 50.3103 35.0084 50.0537 35.0081Z" fill="#CE0538"/>
<path d="M67.3642 35.0081H63.2455C62.9889 35.0084 62.7428 35.1093 62.5613 35.2887C62.3798 35.4681 62.2777 35.7113 62.2773 35.965V51.0553C62.2773 51.3092 62.3793 51.5528 62.5608 51.7324C62.7424 51.912 62.9886 52.0131 63.2455 52.0134H67.3642C67.6211 52.0131 67.8674 51.912 68.0489 51.7324C68.2304 51.5528 68.3324 51.3092 68.3324 51.0553V35.965C68.3321 35.7113 68.23 35.4681 68.0485 35.2887C67.867 35.1093 67.6209 35.0084 67.3642 35.0081Z" fill="#CE0538"/>
<path d="M92.2658 17.4315H78.5237C78.4347 17.4315 78.3494 17.3966 78.2865 17.3344C78.2236 17.2722 78.1882 17.1879 78.1882 17.0999V10.7707C78.1884 10.6947 78.215 10.6211 78.2634 10.562C78.3118 10.503 78.3793 10.4621 78.4545 10.4462C81.8568 9.70049 86.6918 8.00491 90.3771 4.16891C90.4684 4.07367 90.5385 3.9607 90.5831 3.83718C90.6277 3.71366 90.6458 3.5823 90.6362 3.4515C90.6273 3.31776 90.5904 3.18732 90.5277 3.06847C90.465 2.94963 90.3779 2.84499 90.2721 2.76123L87.0488 0.207825C86.8607 0.0607327 86.6243 -0.0124451 86.385 0.00236681C86.1456 0.0171787 85.9203 0.118934 85.7523 0.288061C81.5787 4.3931 75.2347 4.93469 74.9721 4.95593L73.0381 5.081C72.793 5.09771 72.5633 5.20559 72.3954 5.38293C72.2275 5.56027 72.1338 5.79389 72.1332 6.03676V40.3933C72.1332 44.4511 71.8371 44.7001 70.4201 45.8965C70.1395 46.1325 69.8231 46.4039 69.4554 46.7402C69.0722 47.0942 68.9863 47.598 69.2406 47.9968L71.4456 51.4458C71.5154 51.556 71.6071 51.6509 71.7152 51.7249C71.8233 51.7989 71.9455 51.8504 72.0744 51.8762C72.2033 51.902 72.3361 51.9017 72.4649 51.8751C72.5936 51.8486 72.7155 51.7965 72.8232 51.7219C77.4123 48.5644 78.1882 46.5302 78.1882 42.0204V23.7489C78.1882 23.661 78.2236 23.5767 78.2865 23.5145C78.3494 23.4523 78.4347 23.4174 78.5237 23.4174H81.9082C81.9971 23.4174 82.0825 23.4523 82.1454 23.5145C82.2083 23.5767 82.2436 23.661 82.2436 23.7489V51.0553C82.244 51.3093 82.3462 51.5528 82.5279 51.7324C82.7096 51.912 82.956 52.0131 83.213 52.0134H87.3305C87.5875 52.0131 87.8339 51.912 88.0156 51.7324C88.1973 51.5528 88.2996 51.3093 88.2999 51.0553V23.7489C88.2999 23.661 88.3352 23.5767 88.3981 23.5145C88.4611 23.4523 88.5464 23.4174 88.6354 23.4174H92.2658C92.5228 23.4171 92.7691 23.316 92.9509 23.1364C93.1326 22.9568 93.2348 22.7133 93.2351 22.4593V18.3896C93.2348 18.1356 93.1326 17.8921 92.9509 17.7125C92.7691 17.5329 92.5228 17.4318 92.2658 17.4315Z" fill="#CE0538"/>
<path d="M65.3704 10.9348H67.364C67.6209 10.9344 67.8672 10.8334 68.0487 10.6537C68.2303 10.4741 68.3322 10.2305 68.3322 9.97664V5.90819C68.3307 5.65531 68.228 5.4133 68.0466 5.23492C67.8653 5.05655 67.6199 4.95628 67.364 4.95597H60.0137C59.9695 4.95612 59.9258 4.94766 59.885 4.93107C59.8441 4.91448 59.807 4.89008 59.7757 4.85927C59.7444 4.82847 59.7196 4.79187 59.7027 4.75156C59.6858 4.71126 59.677 4.66805 59.677 4.6244V2.95006C59.677 2.69616 59.5751 2.45263 59.3935 2.27299C59.212 2.09334 58.9657 1.99226 58.7088 1.99194H54.5914C54.3344 1.99226 54.088 2.0933 53.9063 2.27291C53.7245 2.45253 53.6223 2.69605 53.622 2.95006V4.6185C53.6228 4.66254 53.6147 4.70629 53.5982 4.7472C53.5817 4.78811 53.5571 4.82536 53.5259 4.85678C53.4946 4.8882 53.4574 4.91315 53.4163 4.93018C53.3752 4.94721 53.3311 4.95598 53.2865 4.95597H45.9362C45.6792 4.95628 45.4328 5.05733 45.2511 5.23694C45.0693 5.41655 44.9671 5.66007 44.9668 5.91409V9.97664C44.9671 10.2307 45.0693 10.4742 45.2511 10.6538C45.4328 10.8334 45.6792 10.9344 45.9362 10.9348H48.1233C48.2122 10.9348 48.2976 10.9697 48.3605 11.0319C48.4234 11.0941 48.4587 11.1784 48.4587 11.2663V17.1307C48.4589 17.1743 48.4503 17.2175 48.4335 17.2579C48.4167 17.2983 48.3921 17.335 48.3609 17.3659C48.3297 17.3968 48.2927 17.4213 48.2519 17.4381C48.2111 17.4548 48.1674 17.4634 48.1233 17.4634H45.9362C45.6792 17.4637 45.4328 17.5648 45.2511 17.7444C45.0693 17.924 44.9671 18.1675 44.9668 18.4215V22.49C44.9671 22.744 45.0693 22.9875 45.2511 23.1671C45.4328 23.3467 45.6792 23.4478 45.9362 23.4481H53.2865C53.3755 23.4481 53.4608 23.483 53.5237 23.5452C53.5866 23.6074 53.622 23.6917 53.622 23.7797V26.3637C53.6221 26.4074 53.6136 26.4506 53.5968 26.491C53.58 26.5313 53.5553 26.568 53.5242 26.599C53.493 26.6299 53.456 26.6544 53.4152 26.6711C53.3744 26.6879 53.3307 26.6965 53.2865 26.6965H45.9362C45.6793 26.6965 45.4329 26.7973 45.2511 26.9767C45.0694 27.1561 44.9671 27.3995 44.9668 27.6534V31.7242C44.9671 31.9782 45.0693 32.2218 45.2511 32.4014C45.4328 32.581 45.6792 32.682 45.9362 32.6824H53.2865C53.3753 32.6824 53.4604 32.7171 53.5233 32.779C53.5862 32.841 53.6217 32.925 53.622 33.0127V51.0553C53.6223 51.3093 53.7245 51.5528 53.9063 51.7324C54.088 51.9121 54.3344 52.0131 54.5914 52.0134H58.7088C58.9657 52.0131 59.212 51.912 59.3935 51.7324C59.5751 51.5527 59.677 51.3092 59.677 51.0553V33.0127C59.6772 32.9692 59.686 32.9261 59.703 32.8859C59.72 32.8458 59.7449 32.8093 59.7761 32.7786C59.8074 32.7479 59.8445 32.7237 59.8852 32.7071C59.926 32.6906 59.9696 32.6822 60.0137 32.6824H67.364C67.6208 32.6817 67.8669 32.5805 68.0484 32.401C68.2298 32.2214 68.3319 31.978 68.3322 31.7242V27.6534C68.3319 27.3997 68.2298 27.1565 68.0483 26.9771C67.8668 26.7977 67.6207 26.6968 67.364 26.6965H60.0137C59.9244 26.6965 59.8388 26.6614 59.7756 26.599C59.7125 26.5366 59.677 26.452 59.677 26.3637V23.7797C59.677 23.736 59.6858 23.6928 59.7027 23.6525C59.7196 23.6122 59.7444 23.5756 59.7757 23.5448C59.807 23.514 59.8441 23.4896 59.885 23.473C59.9258 23.4564 59.9695 23.4479 60.0137 23.4481H67.364C67.6209 23.4478 67.8672 23.3467 68.0487 23.167C68.2303 22.9874 68.3322 22.7439 68.3322 22.49V18.4203C68.3322 18.1664 68.2303 17.9229 68.0487 17.7433C67.8672 17.5636 67.6209 17.4625 67.364 17.4622H65.3704C65.3262 17.4624 65.2825 17.4539 65.2416 17.4373C65.2008 17.4207 65.1637 17.3963 65.1324 17.3655C65.1011 17.3347 65.0763 17.2981 65.0594 17.2578C65.0424 17.2175 65.0337 17.1743 65.0337 17.1307V11.2663C65.0337 11.2227 65.0424 11.1795 65.0594 11.1392C65.0763 11.0989 65.1011 11.0623 65.1324 11.0315C65.1637 11.0006 65.2008 10.9762 65.2416 10.9597C65.2825 10.9431 65.3262 10.9346 65.3704 10.9348ZM59.5493 17.1307C59.5495 17.1743 59.5409 17.2175 59.5241 17.2579C59.5073 17.2983 59.4826 17.335 59.4515 17.3659C59.4203 17.3968 59.3833 17.4213 59.3425 17.4381C59.3017 17.4548 59.258 17.4634 59.2138 17.4634H54.0804C53.9914 17.4634 53.9061 17.4285 53.8432 17.3663C53.7803 17.3041 53.745 17.2198 53.745 17.1318V11.2663C53.745 11.1784 53.7803 11.0941 53.8432 11.0319C53.9061 10.9697 53.9914 10.9348 54.0804 10.9348H59.2138C59.3028 10.9348 59.3881 10.9697 59.451 11.0319C59.514 11.0941 59.5493 11.1784 59.5493 11.2663V17.1307Z" fill="#CE0538"/>
</g>
<defs>
<clipPath id="clip0_490_2058">
<rect width="95" height="70" fill="white"/>
</clipPath>
</defs>
</svg>
