<svg width="50" height="50" viewBox="0 0 50 50" fill="none" xmlns="http://www.w3.org/2000/svg">
<path fill-rule="evenodd" clip-rule="evenodd" d="M7.99756 3C6.8898 3 6 3.89862 6 5V9.5C6 10.6046 6.89543 11.5 8 11.5H10.7732L8.2526 14.3356C7.88568 14.7484 7.92286 15.3805 8.33565 15.7474C8.74843 16.1143 9.3805 16.0772 9.74742 15.6644L12.9863 12.0206L14.3428 13.6032C14.3728 13.6382 14.4033 13.6726 14.4344 13.7064C13.9385 13.9977 13.4863 14.3666 13.0777 14.7896C12.0616 15.8413 11.2829 17.255 10.6938 18.7606C9.65999 21.4024 9.13637 24.5185 9.02352 27H3.02006C3.00739 26.9998 2.99468 26.9998 2.98194 27H1C0.447715 27 0 27.4477 0 28C0 28.5523 0.447715 29 1 29H2.18859L5.51997 44.8241C5.90965 46.675 7.54262 48 9.43417 48H40.5658C42.4574 48 44.0903 46.675 44.48 44.8241L47.8114 29H49C49.5523 29 50 28.5523 50 28C50 27.4477 49.5523 27 49 27H47.018C47.0053 26.9998 46.9926 26.9998 46.9799 27H41.0891L43.2097 22.2351C44.0433 20.3619 43.6323 18.2503 42.3327 16.8273L42.5019 16.4472L43.3151 14.62C43.9887 13.1063 43.3078 11.3331 41.794 10.6594L39.0532 9.43962C37.5395 8.76594 35.7663 9.44692 35.0926 10.9606L34.2794 12.7878L34.1102 13.1679C32.1832 13.1548 30.3392 14.2629 29.5056 16.1361L28.8294 17.6555C28.314 16.5724 27.685 15.579 26.9223 14.7896C26.5327 14.3863 26.1034 14.0321 25.6344 13.7475C26.3915 12.7461 27 11.2555 27 9C27 6.99068 26.2713 5.45347 25.0924 4.43181C23.937 3.43041 22.438 3 21 3H7.99756ZM29.8393 20.305C30.5236 22.5599 30.885 24.9884 30.9765 27H34H38.8999L41.3825 21.4219C42.0561 19.9082 41.3752 18.1349 39.8615 17.4613L35.2934 15.4283C33.7797 14.7546 32.0065 15.4356 31.3328 16.9493L29.8393 20.305ZM13.6644 9.7526C13.7486 9.82744 13.8171 9.9133 13.8698 10.0061C13.9366 10.0655 13.9997 10.1297 14.0586 10.1984L15.8613 12.3016C16.2413 12.7449 16.796 13 17.3798 13H22.9477C23.4576 13 23.799 12.8418 23.9676 12.6329C24.4593 12.0232 25 10.9551 25 9C25 7.50932 24.4787 6.54653 23.7826 5.94319C23.063 5.31959 22.062 5 21 5H8V9.5H12.5401C12.6308 9.5 12.7209 9.50616 12.8097 9.51824C13.1049 9.46123 13.4223 9.53744 13.6644 9.7526ZM22.9827 14.9999L22.9477 15H17.3798C17.2952 15 17.2109 14.9973 17.127 14.992C17.0854 14.9973 17.043 15 17 15C16.0843 15 15.2671 15.4018 14.5161 16.1792C13.7509 16.9712 13.0921 18.12 12.5562 19.4894C11.6263 21.8659 11.1385 24.7196 11.0257 27H16H28.9743C28.8615 24.7196 28.3737 21.8659 27.4438 19.4894C26.9079 18.12 26.2491 16.9712 25.4839 16.1792C24.7329 15.4018 23.9157 15 23 15L22.9827 14.9999ZM4.23243 29H10H15V37V40C15 40.5523 15.4477 41 16 41C16.5523 41 17 40.5523 17 40V38H21V40C21 40.5523 21.4477 41 22 41C22.5523 41 23 40.5523 23 40V38H27V40C27 40.5523 27.4477 41 28 41C28.5523 41 29 40.5523 29 40V38H33V40C33 40.5523 33.4477 41 34 41C34.5523 41 35 40.5523 35 40V37V29H45.7675L42.5229 44.412C42.3281 45.3375 41.5116 46 40.5658 46H9.43417C8.4884 46 7.67191 45.3375 7.47707 44.412L4.23243 29ZM30 29H17V36H22H28H33V29H30ZM38.24 11.2668L40.9808 12.4866C41.4854 12.7112 41.7124 13.3023 41.4878 13.8068L40.6746 15.634L36.1066 13.601L36.9198 11.7738C37.1444 11.2693 37.7355 11.0423 38.24 11.2668Z" fill="#CE0538"/>
</svg>
