<svg width="50" height="50" viewBox="0 0 50 50" fill="none" xmlns="http://www.w3.org/2000/svg">
<g clip-path="url(#clip0_114_595)">
<path fill-rule="evenodd" clip-rule="evenodd" d="M20.9612 3.37428L20.9613 3.37427C20.9873 3.37146 21.0134 3.36768 21.0395 3.3629C24.8518 2.66491 28.7816 2.98673 32.4296 4.2957C32.4545 4.30465 32.4797 4.31263 32.5049 4.31963L32.505 4.31966L32.5094 4.32087C33.0086 4.45723 33.5455 4.21459 33.7451 3.729C33.9554 3.21742 33.7118 2.6301 33.1919 2.44132C29.1589 0.976911 24.8065 0.620468 20.589 1.40921C20.0453 1.51089 19.7094 2.05075 19.8337 2.58973C19.9516 3.10133 20.4418 3.42807 20.9566 3.37476L20.9612 3.37428ZM48.0005 13.3809C48.0005 16.3934 45.4073 19 42.0005 19C38.5937 19 36.0005 16.3934 36.0005 13.3809C36.0005 10.3261 37.2221 7.6211 42.0005 3.58347C46.7789 7.6211 48.0005 10.3261 48.0005 13.3809ZM50.0005 13.3809C50.0005 17.5888 46.4188 21 42.0005 21C37.5822 21 34.0005 17.5888 34.0005 13.3809C34.0005 9.3213 35.8621 6.00323 41.3812 1.49832C41.7413 1.20441 42.2597 1.20441 42.6198 1.49832C48.1389 6.00323 50.0005 9.3213 50.0005 13.3809ZM16.6053 9.44679C16.8502 8.83054 17.0005 8.05525 17.0005 6.96916C17.0005 3.95514 12.9881 2.70898 11.3542 5.73848C10.5596 7.21186 8.44136 7.21185 7.64674 5.73848C6.01289 2.70898 2.00049 3.95514 2.00049 6.96916C2.00049 8.05525 2.15075 8.83054 2.39571 9.44679C2.63775 10.0557 3.01277 10.6116 3.60091 11.209C4.61868 12.2428 6.05431 13.2128 8.18827 14.6547L8.18829 14.6547C8.59914 14.9323 9.03587 15.2274 9.50049 15.5438C9.96512 15.2274 10.4019 14.9323 10.8127 14.6547C12.9467 13.2128 14.3823 12.2428 15.4001 11.209C15.9882 10.6116 16.3632 10.0557 16.6053 9.44679ZM8.19301 3.23536C5.15003 0.538765 0.000488266 2.46906 0.000488266 6.96916C0.000488266 11.5432 2.28059 13.082 7.17208 16.3832C7.72452 16.756 8.31027 17.1514 8.92981 17.5761C9.27336 17.8116 9.72762 17.8116 10.0712 17.5761C10.6907 17.1514 11.2765 16.756 11.8289 16.3832C16.7204 13.082 19.0005 11.5432 19.0005 6.96916C19.0005 2.46906 13.8509 0.538765 10.808 3.23536C10.7841 3.25647 10.7605 3.27786 10.7369 3.29953C10.3392 3.66543 9.97934 4.11239 9.67396 4.64517C9.64685 4.69247 9.62016 4.74045 9.59392 4.78911C9.5548 4.86164 9.44617 4.86164 9.40706 4.78911C9.38082 4.74045 9.35413 4.69247 9.32702 4.64517C9.02163 4.11239 8.66174 3.66543 8.26407 3.29953C8.24052 3.27785 8.21683 3.25647 8.19301 3.23536ZM25.0039 24.0001L25.0005 24.0001L24.9971 24.0001C23.3418 23.9982 22.0005 22.6558 22.0005 21.0001C22.0005 19.3432 23.3436 18.0001 25.0005 18.0001C26.6573 18.0001 28.0005 19.3432 28.0005 21.0001C28.0005 22.6558 26.6592 23.9982 25.0039 24.0001ZM28.4252 24.643C29.3949 23.7311 30.0005 22.4363 30.0005 21.0001C30.0005 18.2386 27.7619 16.0001 25.0005 16.0001C22.2391 16.0001 20.0005 18.2386 20.0005 21.0001C20.0005 22.4363 20.606 23.7311 21.5758 24.643C18.8818 25.8269 17.0005 28.5188 17.0005 31.6501C17.0005 32.3956 17.6049 33.0001 18.3505 33.0001H31.6505C32.3961 33.0001 33.0005 32.3956 33.0005 31.6501C33.0005 28.5188 31.1192 25.8269 28.4252 24.643ZM25.0049 26.0001L25.0005 26.0001L24.9961 26.0001H24.6505C21.7499 26.0001 19.3598 28.1858 19.0375 31.0001H30.9635C30.6411 28.1858 28.2511 26.0001 25.3505 26.0001H25.0049ZM48.0005 41.4999C48.0005 43.3545 47.3133 45.3037 46.2328 46.5655C45.2163 47.7526 43.998 48.2224 42.5397 47.7503C41.8018 47.5114 41.0405 47.5619 40.3867 47.8069C39.5251 48.1298 38.3171 47.8447 37.0538 46.4788C35.8188 45.1433 35.0005 43.2058 35.0005 41.4999C35.0005 39.6627 35.6613 38.4033 36.4285 37.8207C37.0806 37.3254 38.2127 37.0159 40.0486 37.977C40.9568 38.4524 42.0442 38.4524 42.9523 37.977C44.7883 37.0159 45.9204 37.3254 46.5725 37.8207C47.3396 38.4033 48.0005 39.6627 48.0005 41.4999ZM50.0005 41.4999C50.0005 46.0607 46.6968 51.1984 41.9236 49.653C41.6519 49.565 41.356 49.5795 41.0885 49.6797C37.1979 51.1376 33.0005 46.0337 33.0005 41.4999C33.0005 37.1644 35.9856 34.0134 40.3806 35.9198C39.9578 34.1194 38.5109 33.3066 37.6063 32.919C37.0987 32.7014 36.8636 32.1135 37.0811 31.6059C37.2987 31.0983 37.8865 30.8631 38.3942 31.0807C39.5431 31.5731 41.993 32.8962 42.4321 36.0042C46.9299 33.924 50.0005 37.1028 50.0005 41.4999ZM45.7432 13.0301C46.279 13.1641 46.6048 13.707 46.4708 14.2428C45.9579 16.2944 44.3249 17.2552 43.1968 17.4809C42.6552 17.5892 42.1284 17.238 42.0201 16.6964C41.9118 16.1548 42.263 15.628 42.8046 15.5197C43.3431 15.412 44.2434 14.9062 44.5305 13.7578C44.6645 13.222 45.2074 12.8962 45.7432 13.0301ZM3.43895 36.4454C3.62442 36.1672 3.93665 36.0001 4.27101 36.0001H5.38479C5.60774 36.3778 5.92311 36.8039 6.33332 37.1659C6.83289 37.6067 7.53138 38.0001 8.40064 38.0001C10.1315 38.0001 11.0856 36.8827 11.5081 36.0001H12.3646C12.7433 36.0001 13.0896 36.2141 13.259 36.5528L14.3419 38.7187C14.562 39.1588 14.4292 39.6936 14.0287 39.9796L13.4569 40.3881C13.4211 40.4136 13.386 40.4399 13.3516 40.4669L12.8947 39.5531C12.6477 39.0591 12.047 38.8589 11.5531 39.1058C11.0591 39.3528 10.8589 39.9535 11.1058 40.4475L12.1058 42.4475C12.1353 42.5064 12.1698 42.5611 12.2085 42.6115C12.2033 42.6836 12.2006 42.7563 12.2006 42.8293V47.0001C12.2006 47.5523 11.7529 48.0001 11.2006 48.0001H5.60064C5.04835 48.0001 4.60064 47.5523 4.60064 47.0001V42.9769C4.60064 42.747 4.57434 42.5209 4.5239 42.3023L5.80055 40.6001C6.13192 40.1583 6.04238 39.5315 5.60055 39.2001C5.15872 38.8687 4.53192 38.9583 4.20055 39.4001L3.34733 40.5377C3.25497 40.4716 3.15829 40.4103 3.05757 40.3544L2.38209 39.9791C1.87145 39.6954 1.71165 39.0363 2.03568 38.5503L3.43895 36.4454ZM4.27101 34.0001C3.26795 34.0001 2.33125 34.5014 1.77485 35.336L0.37158 37.4409C-0.600506 38.899 -0.12112 40.8764 1.4108 41.7274L2.08628 42.1027C2.40375 42.2791 2.60064 42.6137 2.60064 42.9769V47.0001C2.60064 48.6569 3.94378 50.0001 5.60064 50.0001H11.2006C12.8575 50.0001 14.2006 48.6569 14.2006 47.0001V42.8293C14.2006 42.5063 14.3566 42.2033 14.6194 42.0156L15.1912 41.6071C16.3925 40.7491 16.791 39.1446 16.1308 37.8243L15.0479 35.6584C14.5397 34.6421 13.5009 34.0001 12.3646 34.0001H11.2105C10.4723 34.0001 9.95401 34.5115 9.75199 35.0267C9.56307 35.5085 9.15711 36.0001 8.40064 36.0001C8.16533 36.0001 7.91813 35.897 7.65656 35.6662C7.39161 35.4324 7.17248 35.1174 7.02912 34.8433C6.78658 34.3794 6.28923 34.0001 5.66212 34.0001H4.27101ZM46.8785 22.6851L46.8785 22.685L46.8784 22.6804C46.866 22.163 47.2305 21.7003 47.7499 21.6232C48.297 21.5419 48.8086 21.9196 48.8669 22.4696C49.2209 25.8087 48.8703 29.1853 47.8377 32.3804C47.6676 32.9067 47.0894 33.1712 46.5706 32.9793C46.0782 32.7971 45.8165 32.2693 45.935 31.7655L45.936 31.7611L45.9361 31.761C45.9422 31.7355 45.9492 31.7102 45.9573 31.6849C46.8755 28.8065 47.1908 25.7696 46.8837 22.7639C46.881 22.7375 46.8793 22.7112 46.8785 22.6851ZM30.5474 46.2892L30.5473 46.2892L20.4917 46.5329L20.4872 46.5323C19.9737 46.4678 19.4765 46.7838 19.3474 47.2927C19.2115 47.8289 19.5356 48.3759 20.0769 48.4894C23.708 49.2506 27.4665 49.1595 31.0564 48.2234C31.5916 48.0838 31.8889 47.5217 31.7271 46.9928C31.5735 46.4907 31.0616 46.1991 30.5518 46.2884L30.5474 46.2892ZM30.5473 46.2892L20.4918 46.5329C20.5178 46.5363 20.5437 46.5406 20.5697 46.546C23.845 47.2196 27.2312 47.1375 30.4701 46.3061C30.4958 46.2995 30.5215 46.2939 30.5473 46.2892ZM3.81963 30.9465L3.81965 30.9467L3.82053 30.9511C3.9194 31.4592 3.63753 31.9765 3.13845 32.1394C2.61265 32.3111 2.04506 32.0245 1.89545 31.492C0.734877 27.3614 0.702955 22.9945 1.80301 18.8473C1.94483 18.3127 2.50816 18.0178 3.03642 18.1818C3.53783 18.3375 3.82723 18.8506 3.7358 19.36L3.73499 19.3645L3.81963 30.9465ZM3.73497 19.3646C3.73023 19.3904 3.72452 19.4161 3.71782 19.4417C2.73837 23.1917 2.76719 27.1345 3.80136 30.8697C3.80844 30.8953 3.81452 30.9209 3.81963 30.9465L3.73497 19.3646Z" fill="#CE0538"/>
</g>
<defs>
<clipPath id="clip0_114_595">
<rect width="50" height="50" fill="white"/>
</clipPath>
</defs>
</svg>
