<svg width="50" height="50" viewBox="0 0 50 50" fill="none" xmlns="http://www.w3.org/2000/svg">
<path fill-rule="evenodd" clip-rule="evenodd" d="M30.0001 6C30.0001 7.44777 29.3847 8.75182 28.4013 9.6649C31.6857 11.0065 34.0001 14.233 34.0001 18V18.35C34.0001 19.2613 33.2613 20 32.3501 20H17.6501C16.7388 20 16.0001 19.2613 16.0001 18.35V18C16.0001 14.233 18.3144 11.0065 21.5988 9.6649C20.6154 8.75182 20.0001 7.44777 20.0001 6C20.0001 3.23858 22.2386 1 25.0001 1C27.7615 1 30.0001 3.23858 30.0001 6ZM25.0001 9C26.6569 9 28.0001 7.65685 28.0001 6C28.0001 4.34315 26.6569 3 25.0001 3C23.3432 3 22.0001 4.34315 22.0001 6C22.0001 7.65685 23.3432 9 25.0001 9ZM32.0001 18C32.0001 14.134 28.866 11 25.0001 11C21.1341 11 18.0001 14.134 18.0001 18H32.0001Z" fill="#CE0538"/>
<path fill-rule="evenodd" clip-rule="evenodd" d="M0.683312 33.4057C-0.0785914 31.9344 0.496472 30.1241 1.96775 29.3622L4.59009 28.0042C5.77019 27.3931 7.16843 27.6421 8.06882 28.5238C8.93278 27.6806 10.0462 26.6516 11.2888 25.7524C12.9214 24.5709 14.9276 23.5 17.0001 23.5C20.5736 23.5 22.7546 24.4366 24.3055 25.4007C24.6833 25.6356 25.0176 25.8681 25.3117 26.0761L25.4726 26.1902C25.7027 26.3535 25.8982 26.4922 26.0867 26.6147C26.5538 26.9184 26.8021 27 27.0001 27H31.1284C31.431 27 31.7344 26.9897 32.061 26.9786C32.2328 26.9727 32.411 26.9666 32.5989 26.9617C33.1197 26.9482 33.6832 26.9453 34.2342 26.9993C35.3227 27.1062 36.5592 27.4558 37.3476 28.6035C37.643 29.0336 37.8423 29.5473 37.9369 30.1488L42.7676 25.3182C42.7999 25.2859 42.8403 25.2475 42.8896 25.2067C43.0611 25.0649 43.86 24.4274 44.8968 24.0644C45.9473 23.6964 47.4655 23.5511 48.7072 24.7927C49.6358 25.7212 49.9682 26.6918 49.937 27.5967C49.9086 28.4207 49.576 29.0848 49.4079 29.4203L49.3774 29.4814L49.3576 29.5143C48.3358 31.2173 45.5001 35.505 42.2475 39.1642C40.6007 41.0169 39.1225 42.2477 37.5438 43.0021C35.9523 43.7626 34.3408 43.9998 32.5001 43.9998L16.2405 43.9998C16.8372 45.4261 16.2482 47.0952 14.8511 47.8187L12.2287 49.1767C10.7574 49.9386 8.94708 49.3635 8.18517 47.8922L0.683312 33.4057ZM2.88745 31.1381L5.50979 29.7802C6.00022 29.5262 6.60367 29.7179 6.85764 30.2083L14.3595 44.6948C14.6135 45.1853 14.4218 45.7887 13.9314 46.0427L11.309 47.4007C10.8186 47.6546 10.2151 47.463 9.96117 46.9725L2.45931 32.486C2.20534 31.9956 2.39703 31.3921 2.88745 31.1381ZM15.2162 41.9998L32.5001 41.9998C34.1595 41.9998 35.448 41.787 36.6814 41.1976C37.9277 40.602 39.1995 39.5828 40.7527 37.8355C43.8791 34.3183 46.6275 30.1715 47.6228 28.5183C47.7859 28.1904 47.9262 27.8776 47.9382 27.5278C47.9487 27.2244 47.8645 26.7783 47.293 26.207C46.8213 25.7353 46.2447 25.7114 45.5578 25.9519C44.8781 26.19 44.3111 26.6281 44.1755 26.7387L37.2072 33.707C37.2072 33.707 36.224 34.3811 35.9473 34.5194C35.4576 34.7643 34.9799 34.8817 34.6332 34.9395C34.4575 34.9688 34.3088 34.9838 34.2002 34.9916C34.1457 34.9955 34.1008 34.9976 34.0671 34.9987C34.0502 34.9993 34.036 34.9996 34.0248 34.9998L34.0102 35L34.0045 35L34.0022 35H34.0011H34.0001H26.0001C25.4478 35 25.0001 34.5523 25.0001 34C25.0001 33.4477 25.4478 33 26.0001 33H33.9939L34.0004 32.9998C34.0106 32.9995 34.0302 32.9986 34.0577 32.9967C34.1132 32.9927 34.1989 32.9843 34.3044 32.9667C34.5202 32.9308 34.7926 32.8607 35.0528 32.7306C35.3092 32.6024 35.5352 32.4258 35.6993 32.1797C35.8592 31.9398 36.0001 31.575 36.0001 31C36.0001 30.3291 35.8484 29.9533 35.6991 29.7359C35.4062 29.3095 34.9 29.0743 34.0388 28.9898C33.615 28.9482 33.1518 28.948 32.651 28.9611C32.4988 28.965 32.3387 28.9704 32.1752 28.976C31.8272 28.9877 31.4638 29 31.1284 29H27.0001C26.198 29 25.5388 28.6441 24.9965 28.2915C24.7705 28.1446 24.5342 27.9768 24.3027 27.8125L24.1568 27.709C23.871 27.5069 23.5756 27.3019 23.2496 27.0993C21.9855 26.3134 20.1665 25.5 17.0001 25.5C15.5725 25.5 13.9954 26.2624 12.4613 27.3726C11.1753 28.3033 10.025 29.3991 9.14318 30.2726L15.2162 41.9998Z" fill="#CE0538"/>
</svg>
