<svg width="50" height="50" viewBox="0 0 50 50" fill="none" xmlns="http://www.w3.org/2000/svg">
<path fill-rule="evenodd" clip-rule="evenodd" d="M11 2C9.89543 2 9 2.89543 9 4V17.3333C9 18.4379 9.89543 19.3333 11 19.3333H18.1742C19.6695 19.3333 21.04 20.1674 21.727 21.4956L25 27.8234L28.273 21.4956C28.96 20.1674 30.3305 19.3333 31.8258 19.3333H39C40.1046 19.3333 41 18.4379 41 17.3333V4C41 2.89543 40.1046 2 39 2H11ZM7 4C7 1.79086 8.79086 0 11 0H39C41.2091 0 43 1.79087 43 4V17.3333C43 19.5425 41.2091 21.3333 39 21.3333H31.8258C31.0781 21.3333 30.3929 21.7504 30.0494 22.4145L26.7764 28.7422C26.0308 30.1837 23.9692 30.1837 23.2236 28.7422L19.9506 22.4145C19.6071 21.7504 18.9219 21.3333 18.1742 21.3333H11C8.79086 21.3333 7 19.5425 7 17.3333V4ZM17 32C17 34.7614 14.7614 37 12 37C9.23858 37 7 34.7614 7 32C7 29.2386 9.23858 27 12 27C14.7614 27 17 29.2386 17 32ZM19 32C19 34.3829 17.8093 36.4877 15.9905 37.7519C20.0929 39.3612 23 43.3749 23 48.0425C23 49.1194 22.127 50 21.05 50H2.95C1.87305 50 1 49.1194 1 48.0425C1 43.3749 3.90715 39.3612 8.00953 37.7519C6.19067 36.4877 5 34.3829 5 32C5 28.134 8.13401 25 12 25C15.866 25 19 28.134 19 32ZM3.0001 48C3.02298 43.0388 7.05356 39 12 39C16.9464 39 20.977 43.0388 20.9999 48H3.0001ZM43 32C43 34.7614 40.7614 37 38 37C35.2386 37 33 34.7614 33 32C33 29.2386 35.2386 27 38 27C40.7614 27 43 29.2386 43 32ZM41.9905 37.7519C43.8093 36.4877 45 34.3829 45 32C45 28.134 41.866 25 38 25C34.134 25 31 28.134 31 32C31 34.3829 32.1907 36.4877 34.0095 37.7519C29.9071 39.3612 27 43.3749 27 48.0425C27 49.1194 27.873 50 28.95 50H47.05C48.127 50 49 49.1194 49 48.0425C49 43.3749 46.0929 39.3612 41.9905 37.7519ZM38 39C33.0536 39 29.023 43.0388 29.0001 48H46.9999C46.977 43.0388 42.9464 39 38 39ZM22 9C22.5523 9 23 8.55229 23 8C23 7.44772 22.5523 7 22 7C21.4477 7 21 7.44772 21 8C21 8.55229 21.4477 9 22 9ZM29 8C29 8.55229 28.5523 9 28 9C27.4477 9 27 8.55229 27 8C27 7.44772 27.4477 7 28 7C28.5523 7 29 7.44772 29 8ZM19.8001 11.4001C19.4687 10.9582 18.8419 10.8687 18.4001 11.2001C17.9582 11.5314 17.8687 12.1582 18.2001 12.6001C21.6001 17.1334 28.4001 17.1334 31.8001 12.6001C32.1314 12.1582 32.0419 11.5314 31.6001 11.2001C31.1582 10.8687 30.5314 10.9582 30.2001 11.4001C27.6001 14.8667 22.4001 14.8667 19.8001 11.4001Z" fill="#CE0538"/>
</svg>
