<svg width="80" height="80" viewBox="0 0 80 80" fill="none" xmlns="http://www.w3.org/2000/svg">
<path fill-rule="evenodd" clip-rule="evenodd" d="M57.0512 22.368L54.856 18.7093C51.9583 13.8798 47.8112 12.8698 44.5856 13.7988C41.2556 14.7578 38.4 17.9041 38.4 22.663C38.4 23.5026 38.7278 24.8219 39.6639 26.6419C40.578 28.4192 41.9601 30.4585 43.7764 32.6734C44.4454 33.4891 45.1665 34.3206 45.9356 35.1632L46.9028 34.2977C47.9806 33.2382 49.639 32.4592 51.3394 32.3092C53.1129 32.1527 55.1127 32.6799 56.48 34.503C58.0198 36.556 57.7956 38.6656 57.0975 40.2953C56.531 41.6178 55.5929 42.7573 55.0585 43.4065C54.9906 43.4889 54.9293 43.5634 54.876 43.6293C55.7604 44.3674 56.6693 45.1024 57.6 45.8312C63.1901 41.4535 67.9936 36.8561 71.4236 32.6734C73.2399 30.4585 74.622 28.4192 75.5361 26.6418C76.4722 24.8218 76.8 23.5026 76.8 22.663C76.8 17.9041 73.9444 14.7578 70.6144 13.7988C67.3888 12.8698 63.2417 13.8798 60.344 18.7093L58.1488 22.368C57.9002 22.7823 57.2998 22.7823 57.0512 22.368ZM53.6 46.7266C54.5893 47.5375 55.6048 48.3423 56.643 49.1373C57.2076 49.5697 57.9924 49.5697 58.557 49.1373C70.8755 39.7038 80 28.9028 80 22.663C80 11.3655 67.324 6.02441 59.6403 14.3212C58.9101 15.1097 58.2249 16.0215 57.6 17.063C56.9751 16.0215 56.2899 15.1097 55.5597 14.3212C47.9452 6.09906 35.4277 11.2705 35.2031 22.3595C34.6914 22.5692 34.0285 22.8598 33.2842 23.2319C31.6089 24.0696 29.4395 25.3605 27.6684 27.1317C27.0474 27.7526 26.0117 29.1274 24.8784 30.701C23.7096 32.3239 22.3402 34.2971 21.0167 36.2211C20.4053 37.1099 19.8064 37.9842 19.2401 38.8109L19.239 38.8125L19.2376 38.8145L19.2363 38.8164C18.5711 39.7875 17.9511 40.6927 17.4087 41.4784C16.9081 42.2036 16.4831 42.8131 16.1605 43.2636C15.9102 43.6132 15.7652 43.8038 15.7032 43.8849C15.6242 43.9254 15.5002 43.9799 15.3243 44.045C14.9679 44.177 14.4975 44.3162 13.963 44.453C13.4604 44.5816 12.929 44.7011 12.4271 44.8049C11.7009 43.0766 9.99218 41.863 8 41.863H1.6C0.716344 41.863 0 42.5793 0 43.463V67.463C0 68.3466 0.716344 69.063 1.6 69.063H8C9.77656 69.063 11.3277 68.0978 12.1577 66.6633C13.5649 66.6641 14.8791 66.6665 16.1076 66.6688L16.1112 66.6688H16.1113H16.1113C21.3516 66.6785 25.0335 66.6853 27.729 66.5513C31.2119 66.3781 33.3403 65.9647 35.2232 64.835C36.079 64.3215 36.9495 63.5948 37.7956 62.774C37.8249 62.8066 37.855 62.839 37.8858 62.871C38.7195 63.7395 39.9656 64.263 41.6 64.263C43.413 64.263 44.6995 63.2332 45.5127 62.1495C45.9134 61.6156 46.2314 61.0309 46.4797 60.4587C47.6607 61.0523 48.9028 61.2183 50.1812 60.8461C51.5706 60.4417 52.444 59.434 52.9399 58.3781C53.4257 57.3437 53.6 56.1763 53.6 55.1485V46.7266ZM35.7443 25.608C35.4318 25.7472 35.0849 25.9093 34.7153 26.0941C33.1906 26.8565 31.36 27.9655 29.9311 29.3944C29.5323 29.7933 28.6581 30.9284 27.4751 32.571C26.3277 34.1643 24.9747 36.1136 23.6531 38.0347C23.0515 38.9093 22.4537 39.782 21.8862 40.6104L21.8839 40.6137L21.8827 40.6155C21.2121 41.5944 20.584 42.5114 20.0422 43.2963C19.5396 44.0243 19.1017 44.6526 18.7623 45.1266C18.4683 45.5372 18.1475 45.978 17.9311 46.1944C17.6803 46.4452 17.3894 46.6155 17.1754 46.7261C16.9418 46.8468 16.6868 46.9529 16.4352 47.046C15.9316 47.2324 15.342 47.4032 14.7565 47.5531C14.1063 47.7195 13.4222 47.8699 12.8 47.9946V63.4637C14.0003 63.4648 15.1268 63.4668 16.1855 63.4688H16.1866H16.1869C21.3997 63.4783 24.9646 63.4848 27.5701 63.3552C30.9202 63.1886 32.3918 62.802 33.5768 62.091C34.3845 61.6064 35.3636 60.7357 36.4449 59.5816C37.5092 58.4455 38.6001 57.1138 39.637 55.7807C40.4631 54.7186 41.24 53.675 41.9369 52.7389L41.9376 52.7381C42.1157 52.4988 42.2886 52.2666 42.4557 52.0428C43.2365 50.9979 43.9671 50.0332 44.4686 49.5316C44.7928 49.2074 45.2988 48.6672 45.93 47.9934L45.9307 47.9926C46.5317 47.3511 47.246 46.5884 48.0249 45.7758C49.4966 44.2405 51.1786 42.5495 52.4671 41.5188C52.519 41.4549 52.5716 41.3902 52.6248 41.3249C53.1753 40.6493 53.7853 39.9008 54.156 39.0353C54.5424 38.1332 54.5848 37.3095 53.92 36.423C53.3673 35.6861 52.5671 35.4133 51.6206 35.4968C50.6191 35.5852 49.6546 36.0711 49.1314 36.5944L49.1 36.6258L35.5691 48.7323C33.8915 50.2334 31.3571 48.3708 32.2886 46.3215L38.967 31.629C37.4564 29.4581 36.3534 27.4222 35.7443 25.608ZM41.1626 34.5318L37.4071 42.7939L43.5507 37.297C42.6993 36.3634 41.9014 35.4398 41.1626 34.5318ZM40.0352 60.4059C40.0313 60.3958 40.0279 60.3861 40.0248 60.3768C40.7604 59.519 41.4814 58.6216 42.163 57.7453C43.0118 56.6539 43.8144 55.5758 44.5127 54.6378L44.5128 54.6377L44.5151 54.6346L44.5194 54.6288C44.6928 54.3959 44.8597 54.1717 45.0193 53.9581C45.8635 52.8281 46.4329 52.0928 46.7314 51.7944C47.0731 51.4526 47.6455 50.8422 48.328 50.1143L48.3282 50.1141L48.3286 50.1137C48.9383 49.4636 49.6357 48.7198 50.3351 47.9901L50.4 47.9225V55.1485C50.4 55.8556 50.2742 56.5264 50.0434 57.0178C49.8228 57.4876 49.5632 57.6932 49.2868 57.7737C48.7697 57.9242 48.1022 57.886 47.0712 57.0313C45.9671 56.1161 44.2724 56.6713 43.9242 58.0627C43.7447 58.7798 43.4151 59.6133 42.9532 60.2288C42.5023 60.8297 42.0616 61.063 41.6 61.063C40.6744 61.063 40.3205 60.7865 40.1942 60.6549C40.1156 60.573 40.0656 60.4858 40.0352 60.4059ZM3.2 65.863V45.063H8C8.88366 45.063 9.6 45.7793 9.6 46.663V64.263C9.6 65.1466 8.88366 65.863 8 65.863H3.2ZM8 49.863C8 50.7466 7.28366 51.463 6.4 51.463C5.51634 51.463 4.8 50.7466 4.8 49.863C4.8 48.9793 5.51634 48.263 6.4 48.263C7.28366 48.263 8 48.9793 8 49.863Z" fill="#CE0538"/>
</svg>
