<svg width="40" height="40" viewBox="0 0 40 40" fill="none" xmlns="http://www.w3.org/2000/svg">
<path d="M20 11.667C17.8167 11.667 16.0417 13.442 16.0417 15.6253C16.0417 17.767 17.7167 19.5003 19.9 19.5753C19.9667 19.567 20.0334 19.567 20.0834 19.5753C20.1 19.5753 20.1084 19.5753 20.125 19.5753C20.1334 19.5753 20.1334 19.5753 20.1417 19.5753C22.275 19.5003 23.95 17.767 23.9584 15.6253C23.9584 13.442 22.1834 11.667 20 11.667Z" fill="white"/>
<path d="M24.2333 21.7919C21.9083 20.2419 18.1166 20.2419 15.775 21.7919C14.7166 22.5002 14.1333 23.4586 14.1333 24.4836C14.1333 25.5086 14.7166 26.4586 15.7666 27.1586C16.9333 27.9419 18.4666 28.3336 20 28.3336C21.5333 28.3336 23.0666 27.9419 24.2333 27.1586C25.2833 26.4502 25.8666 25.5002 25.8666 24.4669C25.8583 23.4419 25.2833 22.4919 24.2333 21.7919Z" fill="white"/>
<rect x="0.5" y="0.5" width="39" height="39" rx="19.5" stroke="white" stroke-opacity="0.05"/>
</svg>
