<svg width="204" height="80" viewBox="0 0 204 80" fill="none" xmlns="http://www.w3.org/2000/svg">
<g clip-path="url(#clip0_379_4256)">
<path fill-rule="evenodd" clip-rule="evenodd" d="M88.52 14.1444C88.7221 14.8169 88.7535 15.5282 88.6117 16.2156C88.4697 16.9029 88.1587 17.545 87.7064 18.0851C87.6968 18.0972 87.6832 18.1057 87.6681 18.1094C87.6529 18.113 87.6369 18.1115 87.6229 18.1051C87.6086 18.0987 87.5968 18.0878 87.5897 18.0741C87.5824 18.0604 87.5801 18.0448 87.5828 18.0296C87.7985 17.0386 87.687 16.0053 87.2647 15.0817C86.7852 15.3941 86.2828 15.671 85.7621 15.9102C85.726 15.9266 85.6862 15.9324 85.6468 15.9269C85.6076 15.9213 85.5709 15.9045 85.5413 15.8787L83.6571 14.2596C83.6362 14.242 83.621 14.2189 83.613 14.1929C83.605 14.1669 83.6048 14.1393 83.6124 14.1132C83.7806 13.5557 83.9912 13.0115 84.2421 12.4853C83.2637 12.2024 82.2195 12.2363 81.2621 12.5823C81.2465 12.5874 81.2295 12.5873 81.214 12.5819C81.1986 12.5765 81.1855 12.5662 81.1766 12.5525C81.1677 12.5388 81.1639 12.5225 81.1654 12.5064C81.167 12.4902 81.1741 12.4751 81.1855 12.4633C81.6625 11.9473 82.2602 11.5552 82.9263 11.3213C83.5923 11.0875 84.3062 11.019 85.0052 11.1219C85.3133 10.6487 85.655 10.1979 86.0277 9.77269C87.691 7.87223 89.9271 6.55094 92.4067 6.00358C92.4317 5.99832 92.4575 5.99886 92.482 6.00516C92.5067 6.01147 92.5296 6.02335 92.5488 6.03988C92.5679 6.05641 92.583 6.07713 92.5928 6.10041C92.6024 6.12369 92.6066 6.1489 92.6049 6.17403C92.4029 8.67963 91.3941 11.055 89.7265 12.9508C89.3534 13.3765 88.9503 13.7754 88.52 14.1444ZM54.5384 19.5666C52.2211 18.7599 49.8076 18.2557 47.3586 18.0667C46.6067 18.006 45.8469 17.976 45.0798 17.9767C39.3207 17.9801 33.6971 19.7065 28.9471 22.9294C24.1969 26.1523 20.5422 30.7212 18.4624 36.0362C17.8858 37.5085 17.4373 39.0265 17.1218 40.5743C16.9741 41.2848 16.8552 42.006 16.7651 42.7375C16.435 45.4067 16.4878 48.1088 16.9219 50.7632C25.0969 48.9732 36.4891 44.4736 50.0602 36.7918C50.1226 36.7567 50.1844 36.7215 50.2463 36.6864C50.3151 36.6473 50.3838 36.6083 50.4531 36.5692C56.0675 33.3783 61.3024 30.1334 65.9556 26.9672C62.8101 23.6232 58.8924 21.0839 54.5384 19.5666ZM29.4843 34.8199C29.0464 35.0574 28.686 35.414 28.4458 35.8475L27.9665 36.7176L27.4848 35.8475C27.3584 35.6167 27.1959 35.4072 27.0031 35.2268C26.8372 35.0667 26.6498 34.9296 26.4463 34.8199L25.5672 34.3429L26.4463 33.8684C26.8849 33.6315 27.2453 33.2747 27.4848 32.8409L27.9665 31.9707L28.4458 32.8409C28.686 33.2743 29.0464 33.6309 29.4843 33.8684L29.525 33.891L30.3636 34.3429L29.4843 34.8199ZM40.531 25.6022L40.2697 26.0789L40.0061 25.6022C39.8741 25.3657 39.6771 25.1708 39.4382 25.04L38.9565 24.7792L39.4382 24.5205C39.6771 24.3897 39.8741 24.1949 40.0061 23.9584L40.2697 23.4816L40.531 23.9584C40.6632 24.1949 40.86 24.3897 41.0991 24.5205L41.5808 24.7792L41.0991 25.04C40.86 25.1708 40.6632 25.3657 40.531 25.6022ZM43.528 33.4076C43.2422 33.5613 43.0073 33.7932 42.8508 34.0753L42.5396 34.6421L42.2259 34.0753C42.0968 33.8431 41.9139 33.6441 41.6921 33.4953C41.6461 33.4635 41.5982 33.4341 41.549 33.4076L40.9764 33.0972L41.549 32.787C41.8346 32.6322 42.0697 32.3997 42.2259 32.1169L42.5396 31.5501L42.8508 32.1169C43.0071 32.3997 43.2422 32.6322 43.528 32.787L44.1005 33.0972L43.528 33.4076ZM83.1526 17.1013C83.1546 17.1093 83.1537 17.1177 83.1497 17.1251C80.2963 22.5868 76.7072 27.1038 70.2611 32.9258C72.4084 36.9076 73.5555 41.3428 73.6056 45.8559C73.8044 61.7792 60.485 74.8114 44.4002 74.4395C40.0578 74.3409 35.7957 73.2607 31.9399 71.2812C28.0843 69.3018 24.7372 66.4758 22.1545 63.0192C25.411 62.0051 28.5627 60.6876 31.5677 59.0839C36.9408 56.2306 41.5575 52.925 44.9385 49.5969C35.7367 54.2491 27.0732 57.5953 19.8461 59.3922C11.9779 61.3484 5.81374 61.4655 2.50787 59.4235C1.69648 58.9404 1.02497 58.2579 0.558432 57.4425C-0.816173 54.9936 0.410747 52.394 3.53712 49.5426C4.71085 48.4949 5.94906 47.5201 7.24469 46.6241C6.06798 48.1595 5.27298 49.5468 4.90719 50.7455C4.63227 51.6516 4.60273 52.4478 4.8413 53.118C4.88767 53.2564 4.94699 53.3904 5.01852 53.5181C6.35904 55.9062 10.9032 56.4708 17.9284 54.8989C25.9738 53.1021 37.2774 48.5035 50.7622 40.6352C50.9939 40.5002 51.2281 40.3631 51.462 40.2258C57.533 36.6548 63.1541 33.0209 68.0778 29.5016C75.1532 24.4467 79.6563 21.1588 83.0939 17.0886C83.0992 17.0822 83.1065 17.078 83.1148 17.0767C83.123 17.0754 83.1315 17.0773 83.1384 17.0818C83.1455 17.0863 83.1504 17.0933 83.1526 17.1013ZM52.4435 49.8661C52.5684 49.6419 52.7552 49.4578 52.982 49.3353L53.4364 49.088L52.982 48.8429C52.7561 48.7208 52.57 48.5375 52.4457 48.3141L52.1935 47.8601L51.946 48.3099C51.8213 48.5344 51.6346 48.7195 51.4075 48.8429L50.9532 49.088L51.4075 49.3353C51.6343 49.4578 51.8211 49.6419 51.946 49.8661L52.1935 50.3178L52.4435 49.8661ZM65.0717 53.7742C65.3121 53.341 65.6723 52.9844 66.1101 52.7466L66.9892 52.2699L66.1101 51.7954C65.6723 51.5576 65.3121 51.2012 65.0717 50.7678L64.5924 49.8974L64.1107 50.7678C63.8705 51.2012 63.5103 51.5576 63.0724 51.7954L62.1931 52.2699L63.0724 52.7466C63.5103 52.9844 63.8705 53.341 64.1107 53.7742L64.5924 54.6443L65.0717 53.7742ZM158.966 68.0878C158.966 68.868 158.768 69.5323 158.372 70.0809C157.976 70.6172 157.407 71.0317 156.666 71.3243C155.938 71.6168 155.075 71.7631 154.078 71.7631C153.567 71.7631 153.075 71.7387 152.603 71.69C152.142 71.6412 151.721 71.5742 151.337 71.4888C150.954 71.3913 150.615 71.2755 150.322 71.1414V69.5689C150.782 69.764 151.35 69.9407 152.027 70.0992C152.718 70.2576 153.427 70.3369 154.155 70.3369C154.832 70.3369 155.401 70.2515 155.861 70.0809C156.321 69.9102 156.666 69.6664 156.896 69.3495C157.126 69.0326 157.241 68.6608 157.241 68.2341C157.241 67.8075 157.145 67.4479 156.954 67.1553C156.762 66.8628 156.43 66.5946 155.957 66.3508C155.497 66.0948 154.852 65.8266 154.021 65.5463C153.433 65.339 152.916 65.1196 152.468 64.888C152.034 64.6442 151.67 64.3699 151.376 64.0652C151.082 63.7604 150.858 63.413 150.705 63.023C150.564 62.6329 150.494 62.1819 150.494 61.6699C150.494 60.9751 150.679 60.3838 151.05 59.8962C151.421 59.3965 151.932 59.0125 152.583 58.7443C153.248 58.4761 154.008 58.342 154.864 58.342C155.618 58.342 156.308 58.4091 156.934 58.5432C157.561 58.6773 158.129 58.854 158.64 59.0734L158.104 60.4814C157.631 60.2863 157.113 60.1218 156.551 59.9877C156.002 59.8536 155.427 59.7865 154.826 59.7865C154.251 59.7865 153.772 59.8658 153.388 60.0242C153.005 60.1827 152.718 60.4082 152.526 60.7008C152.334 60.9811 152.238 61.3103 152.238 61.6882C152.238 62.127 152.334 62.4927 152.526 62.7853C152.718 63.0778 153.031 63.3399 153.465 63.5715C153.9 63.8031 154.487 64.053 155.228 64.3212C156.034 64.6015 156.711 64.9063 157.26 65.2354C157.822 65.5524 158.244 65.9363 158.525 66.3874C158.819 66.8384 158.966 67.4052 158.966 68.0878ZM109.417 68.5998C109.992 67.6124 110.28 66.3874 110.28 64.9246C110.28 63.5227 110.005 62.3525 109.455 61.4139C108.906 60.4631 108.127 59.7439 107.117 59.2563C106.108 58.7687 104.913 58.5249 103.533 58.5249H99.3158V71.5802H103.13C104.638 71.5802 105.922 71.3304 106.983 70.8306C108.043 70.3308 108.855 69.5872 109.417 68.5998ZM107.845 62.127C108.254 62.8706 108.459 63.8214 108.459 64.9794C108.459 66.6982 107.992 67.9964 107.06 68.8741C106.139 69.7396 104.753 70.1723 102.9 70.1723H101.041V59.9328H103.284C104.382 59.9328 105.315 60.1157 106.082 60.4814C106.861 60.8349 107.449 61.3834 107.845 62.127ZM113.317 71.5802H120.965V70.1357H115.042V65.4731H120.62V64.0469H115.042V59.9694H120.965V58.5249H113.317V71.5802ZM131.616 71.5802H123.968V58.5249H131.616V59.9694H125.693V64.0469H131.271V65.4731H125.693V70.1357H131.616V71.5802ZM142.152 59.5306C141.334 58.8601 140.03 58.5249 138.241 58.5249H134.619V71.5802H136.344V66.4971H137.916C138.938 66.4971 139.8 66.3874 140.503 66.1679C141.206 65.9363 141.768 65.6255 142.19 65.2354C142.612 64.8453 142.912 64.4065 143.091 63.9189C143.283 63.4191 143.378 62.9011 143.378 62.3647C143.378 61.1457 142.969 60.201 142.152 59.5306ZM136.344 59.9328H138.088C139.302 59.9328 140.19 60.14 140.752 60.5545C141.315 60.969 141.596 61.5967 141.596 62.4378C141.596 63.0717 141.455 63.5837 141.174 63.9738C140.893 64.3638 140.465 64.6503 139.89 64.8331C139.315 65.0038 138.593 65.0891 137.724 65.0891H136.344V59.9328ZM169.256 59.5306C168.438 58.8601 167.135 58.5249 165.346 58.5249H161.723V71.5802H163.448V66.4971H165.02C166.042 66.4971 166.905 66.3874 167.607 66.1679C168.31 65.9363 168.873 65.6255 169.294 65.2354C169.716 64.8453 170.016 64.4065 170.195 63.9189C170.387 63.4191 170.483 62.9011 170.483 62.3647C170.483 61.1457 170.074 60.201 169.256 59.5306ZM163.448 59.9328H165.192C166.406 59.9328 167.294 60.14 167.857 60.5545C168.419 60.969 168.7 61.5967 168.7 62.4378C168.7 63.0717 168.559 63.5837 168.278 63.9738C167.997 64.3638 167.569 64.6503 166.994 64.8331C166.419 65.0038 165.697 65.0891 164.828 65.0891H163.448V59.9328ZM180.961 71.5802L179.312 67.5393H173.888L172.259 71.5802H170.515L175.862 58.47H177.415L182.744 71.5802H180.961ZM177.262 62.127C177.223 62.0295 177.159 61.8527 177.07 61.5967C176.98 61.3408 176.891 61.0787 176.802 60.8105C176.725 60.5301 176.661 60.3168 176.61 60.1705C176.546 60.4143 176.476 60.6642 176.399 60.9202C176.335 61.164 176.265 61.3895 176.188 61.5967C176.124 61.804 176.067 61.9807 176.016 62.127L174.463 66.0765H178.795L177.262 62.127ZM188.132 60.1522C188.72 59.9084 189.378 59.7865 190.107 59.7865C190.72 59.7865 191.282 59.8597 191.793 60.006C192.317 60.1522 192.79 60.3168 193.212 60.4996L193.902 59.11C193.391 58.8662 192.809 58.6773 192.158 58.5432C191.506 58.4091 190.829 58.342 190.126 58.342C189.065 58.342 188.126 58.5066 187.308 58.8357C186.49 59.1527 185.8 59.6098 185.238 60.2071C184.689 60.8044 184.267 61.5114 183.973 62.3281C183.692 63.1449 183.551 64.0469 183.551 65.0343C183.551 66.3995 183.781 67.5881 184.241 68.5998C184.714 69.6116 185.417 70.3917 186.35 70.9403C187.283 71.4888 188.445 71.7631 189.838 71.7631C190.592 71.7631 191.237 71.7204 191.774 71.6351C192.324 71.5498 192.854 71.4157 193.365 71.2328V69.8066C192.854 69.9529 192.33 70.0748 191.793 70.1723C191.257 70.2698 190.688 70.3186 190.087 70.3186C189.04 70.3186 188.164 70.1053 187.461 69.6786C186.771 69.252 186.247 68.6425 185.89 67.8501C185.545 67.0578 185.372 66.1253 185.372 65.0526C185.372 64.2358 185.481 63.5045 185.698 62.8584C185.915 62.2001 186.228 61.6455 186.637 61.1945C187.046 60.7313 187.545 60.3838 188.132 60.1522ZM204 71.5802H196.352V58.5249H204V59.9694H198.077V64.0469H203.655V65.4731H198.077V70.1357H204V71.5802ZM160.772 11.8935V7.34204H164.142V11.8935H181.125V19.7711H177.799V14.9133H168.869V23.6224C168.869 24.6727 169.176 24.8478 170.795 24.8478H176.442C177.711 24.8478 177.93 24.4101 178.105 21.3466C178.762 21.828 180.075 22.3094 180.994 22.5283C180.6 26.6859 179.681 27.7362 176.748 27.7362H170.445C166.593 27.7362 165.63 26.8609 165.63 23.6224V14.9133H159.236C158.358 22.6985 155.763 27.2542 145.364 29.5743C145.057 28.7865 144.269 27.4736 143.569 26.8172C152.987 24.9767 155.12 21.3362 155.865 14.9133H147.334V20.7339H144.094V11.8935H160.772ZM164.142 34.4321H178.018V31.4562H147.859V34.4321H160.772V43.3163H143.263V46.2923H181.826V43.3163H164.142V34.4321ZM110.653 32.1126V29.1367H122.602V24.1913H125.798V29.1367H138.448V32.1126H128.023C130.657 36.2748 134.989 40.3276 139.148 42.3097C138.36 42.9224 137.31 44.1041 136.785 44.9793C132.73 42.6084 128.542 38.1324 125.798 33.4491V47.1238H122.602V33.9794C119.579 38.7827 115.125 42.9732 110.609 45.2857C110.127 44.5417 109.208 43.4038 108.508 42.7911C113.1 40.7465 117.691 36.6274 120.544 32.1126H110.653ZM129.869 11.6309H135.121V16.1387H138.142V8.83003H111.266V16.8827H114.198V11.6309H119.524C119.152 18.0606 117.778 21.1511 110.609 22.8784C111.178 23.4473 112.01 24.5852 112.272 25.3292C120.365 23.1657 122.168 19.2482 122.631 11.6309H126.805V19.9462C126.805 22.9221 127.549 23.7099 130.744 23.7099H135.209C137.616 23.7099 138.448 22.7033 138.754 18.7208C137.923 18.5019 136.697 18.1081 136.04 17.6266C135.953 20.6026 135.778 21.0403 134.859 21.0403H131.138C130 21.0403 129.869 20.8652 129.869 19.9024V11.6309ZM108.333 14.8695C106.713 13.2502 103.43 11.1058 100.629 9.74908L102.555 7.3858C105.269 8.61121 108.639 10.6681 110.303 12.1999L108.333 14.8695ZM106.582 25.9856C104.875 24.5414 101.417 22.8346 98.6154 21.7843L100.279 19.2459C103.08 20.1212 106.582 21.7405 108.333 23.0972L106.582 25.9856ZM102.599 46.6424L99.7535 44.6292C101.855 41.3031 104.875 35.6138 107.107 30.7559L109.646 32.6816C107.589 37.2331 104.919 42.6161 102.599 46.6424Z" fill="white"/>
</g>
<defs>
<clipPath id="clip0_379_4256">
<rect width="204" height="80" fill="white"/>
</clipPath>
</defs>
</svg>
