<svg width="60" height="60" viewBox="0 0 60 60" fill="none" xmlns="http://www.w3.org/2000/svg">
<g clip-path="url(#clip0_495_401)">
<path d="M58.6979 29.2066L54.785 26.4768C52.6545 24.9904 50.1553 24.2047 47.5576 24.2047C45.8597 24.2047 44.2056 24.5398 42.6414 25.2008L38.1 27.1198C38.1393 26.6705 38.1592 26.2185 38.1592 25.7668V22.2336H39.9012C42.3887 22.2336 44.5386 20.6209 45.267 18.3063H47.575C48.0605 18.3063 48.4539 17.9129 48.4539 17.4274C48.4539 16.9419 48.0605 16.5485 47.575 16.5485H44.5781C44.151 16.5485 43.7857 16.8555 43.7122 17.2762C43.3886 19.1302 41.7858 20.4758 39.9012 20.4758H26.753C26.4091 19.9567 25.9464 19.5145 25.39 19.1953L18.7829 15.4043C17.3289 14.5699 15.6743 14.1289 13.9979 14.1289C10.0125 14.1289 6.39457 16.6362 4.99523 20.3678L4.9548 20.4757H4.77211C3.10992 20.4758 1.75781 19.1236 1.75781 17.4615C1.75781 16.477 2.2398 15.5529 3.04734 14.9896L10.0843 10.08C13.5009 7.69617 17.509 6.43617 21.6751 6.43617C24.0673 6.43617 26.4198 6.85535 28.6675 7.68199C29.051 7.82285 29.4809 7.68129 29.7052 7.33992C32.0032 3.84469 35.8723 1.75781 40.0553 1.75781C42.2152 1.75781 44.3469 2.32605 46.2203 3.4009L56.2541 9.15797C57.4804 9.86156 58.2422 11.1771 58.2422 12.5907C58.2422 14.773 56.4668 16.5484 54.2845 16.5484H50.9877C50.5022 16.5484 50.1088 16.9418 50.1088 17.4273C50.1088 17.9128 50.5022 18.3062 50.9877 18.3062H54.2845C57.4362 18.3062 60 15.7423 60 12.5907C60 10.549 58.8998 8.64938 57.1289 7.63324L47.0951 1.87617C44.9558 0.64875 42.5216 0 40.0553 0C35.5099 0 31.2888 2.15813 28.6297 5.80641C26.3834 5.05758 24.0472 4.67848 21.6751 4.67848C17.1475 4.67848 12.7916 6.04781 9.07863 8.63836L2.04164 13.5479C0.763242 14.4397 0 15.9027 0 17.4616C0 20.0195 2.02312 22.1132 4.55309 22.228C4.5518 22.271 4.55016 22.3139 4.55016 22.357C4.55016 24.7979 6.5359 26.7837 8.9768 26.7837H14.8884L14.9595 26.8901C16.8144 29.6726 19.9184 31.3338 23.2627 31.3338H30.1815C29.9072 31.7002 29.6051 32.0495 29.2752 32.3786C27.5089 34.1398 25.1721 35.1087 22.6923 35.1087C22.6691 35.1087 22.6455 35.1086 22.6222 35.1086C15.6523 35.1086 9.49582 39.7952 7.64133 46.519C7.48383 47.0902 7.12734 47.5714 6.63773 47.8745L5.73914 48.4303C4.54137 49.1712 3.82641 50.4543 3.82641 51.8627V52.535C2.61199 53.2489 1.85098 54.5528 1.85098 55.9891C1.85098 58.2007 3.65027 60 5.86172 60H22.6062C23.0917 60 23.4851 59.6066 23.4851 59.1211C23.4851 58.6356 23.0917 58.2422 22.6062 58.2422H5.8616C4.6193 58.2422 3.60867 57.2316 3.60867 55.9893C3.60867 55.0819 4.14879 54.2673 4.98469 53.9141L12.7973 50.6129C14.4143 49.9297 16.1242 49.5833 17.8796 49.5833C20.5651 49.5833 23.1487 50.3955 25.3513 51.9322L29.9914 55.1695C30.4437 55.4849 30.7137 56.0025 30.7137 56.5539C30.7137 57.4847 29.9563 58.2421 29.0255 58.2421H25.867C25.3815 58.2421 24.9881 58.6355 24.9881 59.121C24.9881 59.6065 25.3815 59.9999 25.867 59.9999H29.0255C30.9257 59.9999 32.4715 58.4541 32.4715 56.5539C32.4715 55.4283 31.9204 54.3717 30.9971 53.7278L26.357 50.4905C23.9382 48.8031 21.1139 47.8881 18.1721 47.831C18.1675 47.8259 18.1634 47.8202 18.1586 47.8152C17.7521 47.3895 17.5283 46.8308 17.5283 46.242C17.5283 43.5479 19.6861 41.2924 22.3384 41.214C22.4237 41.2116 22.5093 41.2102 22.5953 41.2099C25.2448 41.2027 27.8085 40.5203 30.0667 39.2924C30.0947 39.2951 30.1229 39.2967 30.1515 39.2967H39.6875C42.0407 39.2967 44.2334 38.2429 45.7035 36.4054L47.0305 34.7466H56.9563C58.6345 34.7466 60 33.3812 60 31.7029C60 30.7089 59.5133 29.7757 58.6979 29.2066ZM8.9768 25.026C7.50527 25.026 6.30797 23.8287 6.30797 22.357C6.30797 22.1276 6.33844 21.9014 6.39621 21.6812C6.41555 21.6329 6.43125 21.5829 6.44191 21.5309C6.45398 21.4939 6.46418 21.4564 6.47789 21.42L6.64102 20.9851C7.78465 17.9357 10.7411 15.8868 13.9978 15.8868C15.3676 15.8868 16.7198 16.2471 17.908 16.9289L24.515 20.7199C25.2296 21.1298 25.6734 21.8962 25.6734 22.72C25.6734 23.9916 24.639 25.026 23.3674 25.026H8.9768ZM23.2627 29.5761C20.8761 29.5761 18.6386 28.5486 17.0891 26.7838H23.3674C25.6082 26.7838 27.4313 24.9607 27.4313 22.72C27.4313 22.5562 27.4199 22.3941 27.4004 22.2336H32.0579V25.6723C32.0579 27.0417 31.7671 28.3654 31.219 29.5761H23.2627ZM22.5907 39.4521C22.4891 39.4523 22.3877 39.454 22.2865 39.4569C20.5267 39.5089 18.8828 40.2449 17.6575 41.5291C16.4406 42.8044 15.7704 44.4782 15.7704 46.2421C15.7704 46.8321 15.8975 47.4052 16.1381 47.9282C14.7565 48.0907 13.4084 48.4466 12.1131 48.994L5.5875 51.7512C5.62348 51.0005 6.01945 50.3239 6.66363 49.9254L7.56234 49.3696C8.43023 48.8326 9.06 47.9863 9.33586 46.9866C10.9807 41.0228 16.4401 36.8667 22.6221 36.8667C22.6452 36.8668 22.6692 36.8668 22.6924 36.8667C25.6406 36.8667 28.4181 35.7157 30.5162 33.6234C32.644 31.5018 33.8157 28.6779 33.8157 25.6723V22.2336H36.4012V25.7668C36.4012 26.4854 36.3446 27.2045 36.2333 27.9084L36.0532 27.9845C34.7471 28.5363 33.9033 29.809 33.9033 31.2267C33.9033 31.8491 34.0663 32.4338 34.3509 32.9415C31.8466 36.9538 27.3757 39.4392 22.5907 39.4521ZM44.331 35.3072C43.1962 36.7255 41.5039 37.5389 39.6877 37.5389H32.6455C33.7759 36.5937 34.776 35.486 35.6048 34.2394C36.1359 34.5612 36.7583 34.7466 37.4232 34.7466H44.7793L44.331 35.3072ZM56.9563 32.9887H37.4234C36.4518 32.9887 35.6613 32.1983 35.6613 31.2268C35.6613 30.517 36.0837 29.88 36.7376 29.6037L43.3256 26.82C44.6722 26.2512 46.0962 25.9627 47.5577 25.9627C49.7939 25.9627 51.9452 26.6389 53.7795 27.9185L57.6922 30.6483C58.0366 30.8888 58.2423 31.2829 58.2423 31.7029C58.2422 32.412 57.6654 32.9887 56.9563 32.9887Z" fill="#3C3C3C"/>
</g>
<defs>
<clipPath id="clip0_495_401">
<rect width="60" height="60" fill="white"/>
</clipPath>
</defs>
</svg>
