<svg width="64" height="62" viewBox="0 0 64 62" fill="none" xmlns="http://www.w3.org/2000/svg">
<path d="M38.3708 44.4135C41.8738 45.1675 48.9994 45.7617 55.908 40.6448C65.576 33.4844 62.5521 24.2317 62.5521 24.2317C62.5521 24.2317 54.5931 18.6342 44.9251 25.7934C37.8169 31.0589 36.4185 38.3079 36.1777 41.777" stroke="#3C3C3C" stroke-width="2" stroke-miterlimit="10" stroke-linecap="round" stroke-linejoin="round"/>
<path d="M10.0322 10.9466C6.29038 9.23602 3.02197 10.1045 3.02197 10.1045C3.02197 10.1045 -1.81454 16.2238 3.47231 24.2893C7.09875 29.8206 12.3295 31.4522 15.2586 31.9328" stroke="#3C3C3C" stroke-width="2" stroke-miterlimit="10" stroke-linecap="round" stroke-linejoin="round"/>
<path d="M18.1428 30.0839C18.8763 27.2177 19.4938 21.7325 15.8449 16.1675C15.1359 15.0859 14.3864 14.1853 13.6201 13.4368" stroke="#3C3C3C" stroke-width="2" stroke-miterlimit="10" stroke-linecap="round" stroke-linejoin="round"/>
<path d="M33.7014 17.2298C34.5684 15.1963 35.5864 11.3527 33.6428 6.96234C30.7648 0.461033 25.0426 1.01155 25.0426 1.01155C25.0426 1.01155 20.7912 4.88137 23.6691 11.3839C25.6352 15.8255 29.2229 17.6443 31.3 18.3509" stroke="#3C3C3C" stroke-width="2" stroke-miterlimit="10" stroke-linecap="round" stroke-linejoin="round"/>
<path d="M34.6271 19.5255C36.0342 20.0436 38.3608 20.4917 40.9855 19.3283C45.2644 17.4321 44.9014 13.6621 44.9014 13.6621C44.9014 13.6621 42.354 10.8596 38.0764 12.7558C35.5178 13.8906 34.2815 15.843 33.7027 17.2298" stroke="#3C3C3C" stroke-width="2" stroke-miterlimit="10" stroke-linecap="round" stroke-linejoin="round"/>
<path d="M39.3529 41.454C38.7679 40.7096 37.6906 40.5805 36.9466 41.166L25.9604 49.8971C26.9601 43.8165 28.1939 36.4201 28.9047 32.5558C30.158 25.742 34.3734 19.934 34.443 19.8392C35.0048 19.0774 34.8435 18.004 34.0824 17.4415C33.321 16.8789 32.2482 17.0403 31.6858 17.802C31.4926 18.0638 26.9385 24.2996 25.5341 31.935C25.1364 34.0967 24.5768 37.3531 23.9859 40.8668L17.3269 28.5798C16.8551 27.7589 15.8078 27.4761 14.9871 27.9481C14.1666 28.4202 13.884 29.4684 14.3558 30.2894L23.0968 46.1996C21.9972 52.8419 21.0151 58.9311 20.9974 59.0407C20.6506 61.251 24.0072 61.8055 24.3809 59.5869C24.3907 59.5268 24.6908 57.6661 25.1408 54.9051L39.0652 43.862C39.809 43.2766 39.9378 42.1984 39.3529 41.454Z" stroke="#3C3C3C" stroke-width="2" stroke-miterlimit="10" stroke-linecap="round" stroke-linejoin="round"/>
<path d="M3.02209 10.1045L14.987 27.9479" stroke="#3C3C3C" stroke-width="2" stroke-miterlimit="10" stroke-linecap="round" stroke-linejoin="round"/>
<path d="M43.6568 38.259L39.353 41.454" stroke="#3C3C3C" stroke-width="2" stroke-miterlimit="10" stroke-linecap="round" stroke-linejoin="round"/>
<path d="M62.552 24.2323L47.1642 35.6554" stroke="#3C3C3C" stroke-width="2" stroke-miterlimit="10" stroke-linecap="round" stroke-linejoin="round"/>
<path d="M32.4714 17.2124L25.0427 1.0116" stroke="#3C3C3C" stroke-width="2" stroke-miterlimit="10" stroke-linecap="round" stroke-linejoin="round"/>
<path d="M44.9014 13.6621L34.662 18.1998" stroke="#3C3C3C" stroke-width="2" stroke-miterlimit="10" stroke-linecap="round" stroke-linejoin="round"/>
</svg>
