<svg width="60" height="60" viewBox="0 0 60 60" fill="none" xmlns="http://www.w3.org/2000/svg">
<g clip-path="url(#clip0_495_245)">
<path d="M58.3062 54.324H54.4725V51.2855C54.4725 50.8 54.079 50.4063 53.5934 50.4063H49.9904V44.1313C54.7485 42.3135 58.4391 38.7366 59.1382 36.5834C59.3708 35.902 58.6946 35.2307 58.015 35.4699C53.6532 37.0015 48.0114 36.5395 44.7939 34.4072V29.2002C52.9367 26.7275 54.4348 22.6067 54.5173 22.3596C54.7447 21.6788 54.0697 21.0136 53.3922 21.2513C49.8597 22.4917 44.293 22.1279 41.5487 20.5393V15.4079C49.2411 13.0322 50.2819 8.59851 50.3351 8.34403C50.351 7.58033 49.9793 7.2398 49.22 7.32268C40.6364 10.1824 33.2827 6.98426 30.7145 0.572366C30.4478 -0.192269 29.3154 -0.191683 29.0517 0.579517C29.0458 0.596514 28.4506 2.30478 26.8823 4.08772C26.5615 4.45228 26.5971 5.00779 26.9616 5.32851C27.3264 5.64911 27.8817 5.61371 28.2024 5.24903C28.9452 4.40457 29.4967 3.57734 29.8908 2.88901C30.5549 4.03743 31.6565 5.57631 33.3436 6.9444C35.1841 8.43687 37.3401 9.41613 39.7512 9.85525C42.1887 10.2989 44.8878 10.1859 47.7971 9.51999C47.3415 10.13 46.6765 10.8253 45.7449 11.4932C38.6593 16.4223 21.3536 16.4289 14.2547 11.4932C13.3063 10.8133 12.6342 10.1049 12.1783 9.48823C17.3754 10.6185 21.7966 10.0284 25.3428 7.72627C25.7501 7.46194 25.8658 6.91744 25.6015 6.5101C25.3369 6.10275 24.7924 5.98706 24.3853 6.25139C20.8618 8.53885 16.2812 8.89837 10.77 7.31975C10.1216 7.13172 9.5185 7.73834 9.6703 8.36946C9.77158 8.81022 10.9436 13.089 18.4511 15.4078V20.5394C15.7069 22.128 10.1404 22.4919 6.60754 21.2514C5.93012 21.0136 5.25504 21.679 5.48245 22.3597C5.56427 22.6044 7.03387 26.6469 14.9675 29.1268V34.5601C11.7153 36.5611 6.24064 36.9641 1.9848 35.4699C1.31288 35.2338 0.639915 35.8874 0.855837 36.5659C0.944457 36.8444 2.41863 41.1042 10.0094 44.1727V50.4063H6.4065C5.92086 50.4063 5.52734 50.8 5.52734 51.2855V54.324H1.69374C1.20809 54.324 0.814575 54.7176 0.814575 55.2032V59.1208C0.814575 59.6063 1.20809 60 1.69374 60H58.3062C58.7918 60 59.1853 59.6063 59.1853 59.1208V55.2032C59.1853 54.7176 58.7918 54.324 58.3062 54.324ZM48.232 50.4063H42.6V46.251C44.6305 45.8682 46.5092 45.3817 48.232 44.7911V50.4063ZM33.3372 50.4063V47.2371C34.2193 47.2034 35.0823 47.156 35.9258 47.095V50.4063H33.3372ZM24.0742 50.4063V47.0966C24.9074 47.1566 25.7698 47.2043 26.6628 47.2384V50.4063H24.0742ZM19.1583 46.5573C20.1563 46.7084 21.2084 46.8393 22.316 46.9477V50.4063H19.1583V46.5573ZM28.4212 47.2869C29.4737 47.3051 30.5263 47.3043 31.5789 47.286V50.4065H28.4212V47.2869ZM37.6841 46.9448C38.7711 46.8377 39.8243 46.7068 40.8418 46.5512V50.4062H37.6841V46.9448ZM43.0356 34.1582H37.9685V30.5885C39.8625 30.3571 41.5435 30.0462 43.0356 29.6807V34.1582ZM28.7056 34.1582V31.0261C29.5685 31.0402 30.4315 31.0402 31.2944 31.0261V34.1582H28.7056ZM23.7897 30.7741C24.7879 30.8638 25.8395 30.9324 26.9473 30.9769V34.1583H23.7897V30.7741ZM33.0527 30.9769C34.1605 30.9324 35.2121 30.8638 36.2103 30.7741V34.1582H33.0527V30.9769ZM39.7903 20.1459H33.3371V16.7861C35.8343 16.6347 37.9682 16.3153 39.7903 15.8851V20.1459ZM31.5789 16.8625V20.1459H28.4212V16.8627C29.4734 16.8911 30.5264 16.8909 31.5789 16.8625ZM26.6628 16.7858V20.1459H20.2096V15.8849C22.0316 16.3151 24.1654 16.6345 26.6628 16.7858ZM8.35836 23.4923C12.2563 24.1356 17.0293 23.5196 19.5943 21.9041H40.4059C42.9708 23.5195 47.7431 24.1356 51.6411 23.4923C51.0369 24.1144 50.1912 24.8148 49.0525 25.4891C39.8976 30.6419 20.1173 30.6481 10.9478 25.4891C9.80839 24.8146 8.96228 24.1137 8.35836 23.4923ZM22.0314 30.5887V34.1583H16.726V29.6216C18.2768 30.0126 20.0357 30.3447 22.0314 30.5887ZM3.57713 37.7251C7.97059 38.6231 12.9942 37.9428 16.1143 35.9165H43.8857C46.9962 37.9366 51.9981 38.6191 56.3821 37.7334C54.113 40.4776 47.5466 45.5425 30 45.5425C21.789 45.4738 9.49822 44.5537 3.57713 37.7251ZM11.768 44.8224C13.3972 45.3716 15.2634 45.8632 17.4 46.2609V50.4063H11.768V44.8224ZM57.427 58.2417H2.5729V56.0823H41.7209C42.8832 56.0463 42.8824 54.3596 41.7209 54.324H7.28566V52.1647H52.7142V54.324H45.4732C44.3109 54.36 44.3117 56.0467 45.4732 56.0823H57.4271V58.2417H57.427Z" fill="#3C3C3C"/>
</g>
<defs>
<clipPath id="clip0_495_245">
<rect width="60" height="60" fill="white"/>
</clipPath>
</defs>
</svg>
