<svg width="60" height="60" viewBox="0 0 60 60" fill="none" xmlns="http://www.w3.org/2000/svg">
<path d="M19.1467 9.63764H20.2772C20.7626 9.63764 21.1561 9.24424 21.1561 8.75873C21.1561 8.27322 20.7626 7.87982 20.2772 7.87982H19.1467C18.6613 7.87982 18.2678 8.27322 18.2678 8.75873C18.2678 9.24424 18.6615 9.63764 19.1467 9.63764Z" fill="#3C3C3C"/>
<path d="M48.8546 40.8491V13.8631H51.7564C52.4306 14.5664 53.3751 15.0051 54.4199 15.0051C56.4629 15.0051 58.1251 13.3301 58.1251 11.2712C58.1251 9.21236 56.4629 7.53728 54.4199 7.53728C53.3751 7.53728 52.4307 7.97591 51.7565 8.67928H48.8546V4.30489C48.8546 1.93114 46.9388 0 44.5841 0H39.3082C38.8228 0 38.4293 0.393399 38.4293 0.878908C38.4293 1.36442 38.8228 1.75782 39.3082 1.75782H44.5841C45.9696 1.75782 47.0968 2.9004 47.0968 4.30489V40.4877L45.09 42.5148C44.7509 42.8573 44.7509 43.4089 45.09 43.7515L47.0968 45.7786V55.6952C47.0968 56.6475 47.4051 57.5286 47.9265 58.2423H16.3205C14.935 58.2423 13.8078 57.0997 13.8078 55.6952V50.7499H21.408C21.4389 50.7499 21.4695 50.7483 21.4996 50.7451C21.5003 50.7451 21.5009 50.7449 21.5016 50.7449C21.5314 50.7417 21.5607 50.737 21.5895 50.7309C21.5944 50.7299 21.5991 50.7283 21.6039 50.7272C21.6283 50.7217 21.6524 50.7155 21.6761 50.7078C21.685 50.705 21.6937 50.7013 21.7025 50.6981C21.7216 50.6913 21.7405 50.6844 21.7591 50.6763C21.7702 50.6714 21.781 50.6658 21.792 50.6605C21.8076 50.6529 21.8233 50.6453 21.8384 50.6367C21.8502 50.63 21.8617 50.6228 21.8733 50.6155C21.8871 50.6068 21.9009 50.598 21.9142 50.5887C21.9255 50.5808 21.9364 50.5725 21.9473 50.5639C21.9607 50.5534 21.9739 50.5425 21.9868 50.5312C21.9964 50.5228 22.006 50.5142 22.0152 50.5053C22.0295 50.4916 22.0431 50.4773 22.0565 50.4627C22.0616 50.4571 22.0674 50.4521 22.0724 50.4463L22.7988 49.6078H27.2594L31.5235 53.9153C31.6954 54.0888 31.9217 54.1759 32.1481 54.1759C32.3716 54.1759 32.5951 54.0912 32.7664 53.9216C33.1114 53.5801 33.1142 53.0236 32.7727 52.6787L29.7327 49.6079H32.9119L34.9151 51.6314C35.0803 51.7981 35.3051 51.892 35.5398 51.892H40.0619C40.5473 51.892 40.9408 51.4986 40.9408 51.0131C40.9408 50.5276 40.5473 50.1342 40.0619 50.1342H35.9063L33.9032 48.1107C33.7381 47.944 33.5132 47.8501 33.2786 47.8501H24.3213L29.7231 41.6138H34.6608V45.2215C34.6608 46.3808 35.5985 47.3238 36.751 47.3238H37.5585C38.7111 47.3238 39.6487 46.3807 39.6487 45.2215C39.6487 45.0314 39.7978 44.8768 39.9811 44.8768C41.1336 44.8768 42.0712 43.9336 42.0712 42.7743V41.9586C42.0712 40.7993 41.1336 39.8561 39.9811 39.8561H37.0812L38.6813 38.2399C39.1296 38.4745 39.6379 38.6081 40.177 38.6081C41.8592 38.6081 43.2843 37.2849 43.4214 35.5959L43.6135 33.2279C43.6436 32.8566 43.5099 32.493 43.2467 32.2301C42.9848 31.9686 42.6228 31.8364 42.2547 31.8664L39.9106 32.0605C38.2347 32.1991 36.922 33.6346 36.922 35.3287C36.922 35.9539 37.0967 36.5387 37.3994 37.0364L34.6079 39.8561H30.2007V31.3405L33.9973 26.9575L36.3201 29.3037C36.9135 29.9031 37.7032 30.2333 38.5436 30.2333C39.3841 30.2333 40.1737 29.9033 40.7671 29.3037L41.1384 28.9287C41.3013 28.7642 41.3927 28.542 41.3927 28.3104V27.4594H41.7404C42.0784 27.4594 42.3864 27.2656 42.5327 26.9608C43.7342 24.4577 43.3829 21.4529 41.6375 19.3059C41.4706 19.1005 41.2201 18.9812 40.9555 18.9812H40.165V18.1738C40.165 17.9124 40.0486 17.6643 39.8472 17.4974C37.7159 15.7296 34.7326 15.3743 32.2465 16.5917C31.9453 16.7392 31.7542 17.0454 31.7542 17.3809V17.7411H30.9207C30.6861 17.7411 30.4611 17.8349 30.296 18.0017L29.9247 18.3768C28.7056 19.6082 28.7056 21.6119 29.9247 22.8435L32.757 25.7045L28.6574 30.4372C28.519 30.5969 28.4429 30.8012 28.4429 31.0126V40.4072L25.1132 44.251V43.0188V41.8768V38.5325C25.1132 37.3732 24.1756 36.43 23.023 36.43H22.2155C21.063 36.43 20.1253 37.3733 20.1253 38.5325C20.1253 38.7226 19.9763 38.8771 19.793 38.8771C18.6405 38.8771 17.7028 39.8204 17.7028 40.9796V41.7954C17.7028 42.9547 18.6405 43.8977 19.793 43.8977H23.3555V46.2802L21.0066 48.992H13.8079V22.9384L15.8147 20.9113C16.1537 20.5688 16.1537 20.0172 15.8147 19.6746L13.8079 17.6475V4.30489C13.8079 3.35262 13.4996 2.47149 12.9782 1.75782H35.9921C36.4775 1.75782 36.871 1.36442 36.871 0.878908C36.871 0.393399 36.4775 0 35.9921 0H11.7981H9.5372C7.18232 0 5.26665 1.93114 5.26665 4.30489V7.55158C3.36996 7.71259 1.875 9.31889 1.875 11.2712C1.875 13.3301 3.53719 15.0051 5.58024 15.0051C6.62497 15.0051 7.56939 14.5664 8.24368 13.8631H12.0499V18.0091C12.0499 18.2406 12.1413 18.4628 12.3042 18.6273L13.9532 20.293L12.3042 21.9588C12.1413 22.1233 12.0499 22.3456 12.0499 22.577V55.6951C12.0499 58.0689 13.9657 60 16.3205 60H49.1063H51.3674C53.7221 60 55.6379 58.0689 55.6379 55.6951V50.4419C55.6379 49.3276 54.7365 48.421 53.6285 48.421H48.8547V45.417C48.8547 45.1855 48.7633 44.9633 48.6004 44.7988L46.9515 43.1331L48.6004 41.4673C48.7632 41.3028 48.8546 41.0806 48.8546 40.8491ZM54.4199 9.29498C55.4937 9.29498 56.3673 10.1814 56.3673 11.2711C56.3673 12.3607 55.4937 13.2471 54.4199 13.2471C53.3461 13.2471 52.4724 12.3607 52.4724 11.2711C52.4724 10.1815 53.3461 9.29498 54.4199 9.29498ZM48.8546 10.4371H50.809C50.7479 10.7056 50.7146 10.9845 50.7146 11.2712C50.7146 11.558 50.7479 11.8369 50.809 12.1053H48.8546V10.4371ZM40.0556 33.8122L41.8145 33.6665L41.6695 35.4535C41.606 36.2367 40.9504 36.85 40.1772 36.85C39.3516 36.85 38.6799 36.1675 38.6799 35.3286C38.6797 34.542 39.284 33.8759 40.0556 33.8122ZM36.4188 41.6137H39.9813C40.1645 41.6138 40.3135 41.7684 40.3135 41.9585V42.7742C40.3135 42.9643 40.1645 43.1189 39.9812 43.1189C38.8286 43.1189 37.891 44.0621 37.891 45.2213C37.891 45.4113 37.7419 45.5659 37.5587 45.5659H36.7511C36.5678 45.5659 36.4188 45.4113 36.4188 45.2213V41.6137ZM31.1739 21.607C30.6298 21.0572 30.6298 20.163 31.1739 19.6134L31.2872 19.4988H32.0929L32.9852 21.0486C33.1478 21.331 33.4435 21.4891 33.7476 21.4891C33.8964 21.4891 34.0471 21.4513 34.1853 21.3718C34.606 21.1295 34.7506 20.5922 34.5085 20.1715L33.5118 18.4404V17.9595C35.1444 17.3564 36.9826 17.5967 38.407 18.6065V19.4988L36.3198 21.6071C35.9783 21.952 35.9811 22.5085 36.3261 22.85C36.4974 23.0195 36.7209 23.1043 36.9444 23.1043C37.1708 23.1043 37.3971 23.0173 37.569 22.8436L39.6525 20.7391H40.5171C41.5189 22.1831 41.7567 24.0466 41.157 25.7016H40.6748L38.9929 24.7001C38.576 24.452 38.0366 24.5887 37.7881 25.0056C37.5398 25.4227 37.6766 25.9621 38.0936 26.2104L39.6345 27.1279V27.9488L39.5176 28.067C39.2568 28.3304 38.9109 28.4753 38.5434 28.4753C38.1759 28.4753 37.8298 28.3304 37.5692 28.067L31.1739 21.607ZM23.3552 41.877V42.1401H19.7928V42.14C19.6095 42.14 19.4604 41.9854 19.4604 41.7955V40.9797C19.4604 40.7896 19.6095 40.6351 19.7928 40.6351C20.9453 40.6351 21.8829 39.6918 21.8829 38.5326C21.8829 38.3425 22.032 38.188 22.2153 38.188H23.0228C23.2061 38.188 23.3552 38.3425 23.3552 38.5326V41.877ZM5.58012 13.2473C4.50633 13.2473 3.6327 12.3608 3.6327 11.2712C3.6327 10.1815 4.50633 9.2951 5.58012 9.2951C6.65392 9.2951 7.52755 10.1815 7.52755 11.2712C7.52767 12.3608 6.65403 13.2473 5.58012 13.2473ZM12.0499 12.1053H9.19115C9.2522 11.8369 9.28548 11.558 9.28548 11.2712C9.28548 10.9845 9.2522 10.7055 9.19115 10.4371H12.0499V12.1053ZM12.0499 8.67916H8.24368C7.89997 8.32056 7.48642 8.03029 7.02458 7.83259V4.30489C7.02446 2.9004 8.15158 1.75782 9.5372 1.75782C10.9227 1.75782 12.0499 2.9004 12.0499 4.30489V8.67916ZM48.8545 50.1788H53.6284C53.7671 50.1788 53.88 50.2969 53.88 50.4419V55.6951C53.88 57.0996 52.7528 58.2422 51.3672 58.2422C49.9817 58.2422 48.8545 57.0996 48.8545 55.6951V50.1788Z" fill="#3C3C3C"/>
<path d="M25.3647 4.45386H24.2342C23.7488 4.45386 23.3553 4.84726 23.3553 5.33277C23.3553 5.81827 23.7488 6.21167 24.2342 6.21167H25.3647C25.8501 6.21167 26.2436 5.81827 26.2436 5.33277C26.2436 4.84726 25.8502 4.45386 25.3647 4.45386Z" fill="#3C3C3C"/>
<path d="M42.0713 15.0968V14.9825C42.0713 14.497 41.6778 14.1036 41.1924 14.1036C40.707 14.1036 40.3135 14.497 40.3135 14.9825V15.0968C40.3135 15.5823 40.707 15.9757 41.1924 15.9757C41.6778 15.9757 42.0713 15.5823 42.0713 15.0968Z" fill="#3C3C3C"/>
<path d="M25.3647 7.87982H24.2342C23.7488 7.87982 23.3553 8.27322 23.3553 8.75873C23.3553 9.24424 23.7488 9.63764 24.2342 9.63764H25.3647C25.8501 9.63764 26.2436 9.24424 26.2436 8.75873C26.2436 8.27334 25.8502 7.87982 25.3647 7.87982Z" fill="#3C3C3C"/>
<path d="M41.4441 53.297V53.4113C41.4441 53.8968 41.8376 54.2902 42.323 54.2902C42.8084 54.2902 43.2019 53.8968 43.2019 53.4113V53.297C43.2019 52.8115 42.8084 52.4181 42.323 52.4181C41.8376 52.4181 41.4441 52.8115 41.4441 53.297Z" fill="#3C3C3C"/>
<path d="M27.3742 52.1548C27.3742 51.6693 26.9807 51.2759 26.4953 51.2759C26.0099 51.2759 25.6164 51.6693 25.6164 52.1548V52.2691C25.6164 52.7546 26.0099 53.148 26.4953 53.148C26.9807 53.148 27.3742 52.7546 27.3742 52.2691V52.1548Z" fill="#3C3C3C"/>
<path d="M26.4953 53.5601C26.0099 53.5601 25.6164 53.9535 25.6164 54.439V54.5532C25.6164 55.0387 26.0099 55.4321 26.4953 55.4321C26.9807 55.4321 27.3742 55.0387 27.3742 54.5532V54.439C27.3742 53.9535 26.9806 53.5601 26.4953 53.5601Z" fill="#3C3C3C"/>
<path d="M19.1467 19.9157H20.2772C20.7626 19.9157 21.1561 19.5223 21.1561 19.0368C21.1561 18.5513 20.7626 18.1579 20.2772 18.1579H19.1467C18.6613 18.1579 18.2678 18.5513 18.2678 19.0368C18.2678 19.5223 18.6615 19.9157 19.1467 19.9157Z" fill="#3C3C3C"/>
<path d="M19.1467 6.21167H20.2772C20.7626 6.21167 21.1561 5.81827 21.1561 5.33277C21.1561 4.84726 20.7626 4.45386 20.2772 4.45386H19.1467C18.6613 4.45386 18.2678 4.84726 18.2678 5.33277C18.2678 5.81816 18.6615 6.21167 19.1467 6.21167Z" fill="#3C3C3C"/>
<path d="M19.1467 13.0637H20.2772C20.7626 13.0637 21.1561 12.6703 21.1561 12.1848C21.1561 11.6993 20.7626 11.3059 20.2772 11.3059H19.1467C18.6613 11.3059 18.2678 11.6993 18.2678 12.1848C18.2678 12.6702 18.6615 13.0637 19.1467 13.0637Z" fill="#3C3C3C"/>
<path d="M19.1467 23.3418H20.2772C20.7626 23.3418 21.1561 22.9484 21.1561 22.4629C21.1561 21.9774 20.7626 21.584 20.2772 21.584H19.1467C18.6613 21.584 18.2678 21.9774 18.2678 22.4629C18.2678 22.9483 18.6615 23.3418 19.1467 23.3418Z" fill="#3C3C3C"/>
<path d="M24.2343 13.0637H25.3648C25.8502 13.0637 26.2437 12.6703 26.2437 12.1848C26.2437 11.6993 25.8502 11.3059 25.3648 11.3059H24.2343C23.7489 11.3059 23.3554 11.6993 23.3554 12.1848C23.3554 12.6702 23.7488 13.0637 24.2343 13.0637Z" fill="#3C3C3C"/>
<path d="M17.1374 28.1728C17.1374 29.917 18.546 31.3357 20.2773 31.3357C22.0087 31.3357 23.4172 29.917 23.4172 28.1728C23.4172 26.4287 22.0087 25.0099 20.2773 25.0099C18.546 25.0099 17.1374 26.4287 17.1374 28.1728ZM20.2773 26.7678C21.0394 26.7678 21.6594 27.3981 21.6594 28.1728C21.6594 28.9476 21.0394 29.5779 20.2773 29.5779C19.5152 29.5779 18.8952 28.9476 18.8952 28.1728C18.8952 27.3981 19.5152 26.7678 20.2773 26.7678Z" fill="#3C3C3C"/>
</svg>
