<svg width="60" height="60" viewBox="0 0 60 60" fill="none" xmlns="http://www.w3.org/2000/svg">
<g clip-path="url(#clip0_495_231)">
<path d="M43.0129 3.30442C43.8843 4.17583 44.3642 5.33435 44.3642 6.56669C44.3642 7.79903 43.8844 8.95755 43.0129 9.82896L42.8178 10.0242C41.6143 11.2275 40.9516 12.8274 40.9516 14.5293V15.667C40.9516 16.1524 41.345 16.5459 41.8305 16.5459C42.316 16.5459 42.7094 16.1524 42.7094 15.667V14.5293C42.7094 13.297 43.1891 12.1385 44.0607 11.2671L44.2558 11.0718C45.4593 9.86857 46.122 8.2686 46.122 6.56669C46.122 4.86489 45.4593 3.26493 44.2559 2.06142L42.4519 0.257432C42.1087 -0.0858105 41.5523 -0.0858105 41.2089 0.257432C40.8657 0.600557 40.8657 1.15708 41.2089 1.50032L43.0129 3.30442Z" fill="#3C3C3C"/>
<path d="M45.2429 16.546C45.7284 16.546 46.1218 16.1524 46.1218 15.667C46.1218 14.4347 46.6016 13.2761 47.473 12.4048L47.6683 12.2094C48.8717 11.006 49.5344 9.40607 49.5344 7.70415V5.42908C49.5344 4.94369 49.141 4.55017 48.6555 4.55017C48.17 4.55017 47.7766 4.94369 47.7766 5.42908V7.70404C47.7766 8.93638 47.2969 10.095 46.4255 10.9663L46.2301 11.1617C45.0267 12.3651 44.364 13.965 44.364 15.6669C44.364 16.1523 44.7574 16.546 45.2429 16.546Z" fill="#3C3C3C"/>
<path d="M42.5129 32.4715C44.2521 32.4715 45.6669 31.0566 45.6669 29.3175C45.6669 27.5784 44.2521 26.1635 42.5129 26.1635C40.7738 26.1635 39.3589 27.5784 39.3589 29.3175C39.3589 31.0566 40.7738 32.4715 42.5129 32.4715ZM42.5129 27.9213C43.2827 27.9213 43.9091 28.5477 43.9091 29.3175C43.9091 30.0873 43.2827 30.7137 42.5129 30.7137C41.7431 30.7137 41.1168 30.0873 41.1168 29.3175C41.1168 28.5477 41.743 27.9213 42.5129 27.9213Z" fill="#3C3C3C"/>
<path d="M57.9835 18.2006H54.6483C54.1628 18.2006 53.7694 18.5941 53.7694 19.0795C53.7694 19.5649 54.1628 19.9584 54.6483 19.9584H57.9835C58.1261 19.9584 58.2421 20.0745 58.2421 20.2171V22.7508H26.7837V20.2171C26.7837 20.0745 26.8997 19.9584 27.0423 19.9584H51.1793C51.6648 19.9584 52.0582 19.5649 52.0582 19.0795C52.0582 18.5941 51.6648 18.2006 51.1793 18.2006H27.0423C25.9305 18.2006 25.0259 19.1052 25.0259 20.2171V30.5564C21.2457 30.9162 17.378 32.7825 14.3137 35.847C13.4056 36.7549 12.5902 37.7459 11.8898 38.792C11.6198 39.1953 11.7278 39.7413 12.1312 40.0113C12.5345 40.2814 13.0804 40.1733 13.3505 39.7699C13.9873 38.8187 14.7296 37.9171 15.5567 37.09C19.1086 33.5381 23.8104 31.7613 27.9698 32.3624C28.5706 36.5221 26.794 41.2236 23.2422 44.7755C20.011 48.0067 15.8282 49.768 11.9677 49.6073L22.1123 39.4628C22.4555 39.1195 22.4555 38.563 22.1123 38.2199C21.769 37.8766 21.2125 37.8766 20.8694 38.2199L10.7301 48.3593C10.6552 46.3823 11.0802 44.2686 11.9777 42.2514C12.175 41.8079 11.9753 41.2884 11.5319 41.0911C11.0886 40.8937 10.5691 41.0934 10.3716 41.5369C9.13223 44.3228 8.69547 47.2956 9.12344 49.9659L7.40723 51.6821C5.73895 51.3566 4.14379 50.7122 2.70321 49.7693L1.36047 48.8904C0.954534 48.6245 0.409612 48.7383 0.143714 49.1445C-0.122185 49.5506 -0.00839549 50.0953 0.397776 50.3612L1.74051 51.2401C4.18598 52.8407 7.02344 53.6868 9.9461 53.6868H12.3475C15.1666 57.5923 20.3478 60 26.0027 60C31.8446 60 37.1812 57.4304 39.93 53.2942C40.0011 53.1874 40.0455 53.0688 40.065 52.9472H45.4706C53.4821 52.9472 59.9999 46.4293 59.9999 38.4178V20.2171C59.9999 19.1053 59.0954 18.2006 57.9835 18.2006ZM12.3486 51.9288H9.94586C9.84766 51.9288 9.74969 51.9257 9.6516 51.9234L10.3659 51.2092C11.0473 51.3192 11.7409 51.3743 12.4416 51.3743C12.5532 51.3743 12.665 51.3722 12.7769 51.3695C12.6279 51.5529 12.4853 51.7396 12.3486 51.9288ZM26.1773 44.0887C26.4027 44.6204 26.6587 45.1382 26.9465 45.6394C26.6335 45.6245 26.3189 45.6155 26.0027 45.6155C25.615 45.6155 25.2283 45.6281 24.8429 45.6506C25.3196 45.1487 25.7642 44.6265 26.1773 44.0887ZM26.0027 58.2422C21.4332 58.2422 17.2301 56.53 14.6138 53.6866H28.9604C29.4457 53.6866 29.8393 53.2931 29.8393 52.8077C29.8393 52.3223 29.4457 51.9288 28.9604 51.9288H14.6166C14.8711 51.6536 15.1418 51.3871 15.4282 51.1309C15.4606 51.102 15.4893 51.0707 15.5163 51.0384C17.9659 50.5109 20.3944 49.372 22.5616 47.7063C23.6804 47.4858 24.8375 47.3733 26.0027 47.3733C31.0257 47.3733 35.6065 49.4415 38.123 52.8077C35.6065 56.1738 31.0257 58.2422 26.0027 58.2422ZM58.2421 38.4178C58.2421 45.4601 52.5127 51.1894 45.4706 51.1894H39.0813C36.7634 48.4323 33.2072 46.5363 29.1889 45.8748C28.4029 44.7846 27.798 43.5881 27.39 42.3124C28.6205 40.2697 29.4127 38.0701 29.7085 35.8841H58.2421V38.4178ZM58.2421 34.1262H29.8388C29.8489 33.212 29.7689 32.3082 29.5916 31.4284C29.5218 31.0815 29.2506 30.8103 28.9036 30.7404C28.2097 30.6006 27.5008 30.5225 26.7837 30.4998V24.5086H58.2421V34.1262Z" fill="#3C3C3C"/>
<path d="M51.6133 32.4715C53.3525 32.4715 54.7673 31.0566 54.7673 29.3175C54.7673 27.5784 53.3525 26.1635 51.6133 26.1635C49.8741 26.1635 48.4593 27.5784 48.4593 29.3175C48.4593 31.0566 49.8741 32.4715 51.6133 32.4715ZM51.6133 27.9213C52.3831 27.9213 53.0094 28.5477 53.0094 29.3175C53.0094 30.0873 52.3831 30.7137 51.6133 30.7137C50.8435 30.7137 50.2171 30.0873 50.2171 29.3175C50.2171 28.5477 50.8434 27.9213 51.6133 27.9213Z" fill="#3C3C3C"/>
<path d="M33.4127 32.4715C35.1518 32.4715 36.5666 31.0566 36.5666 29.3175C36.5666 27.5784 35.1518 26.1635 33.4127 26.1635C31.6735 26.1635 30.2587 27.5784 30.2587 29.3175C30.2587 31.0566 31.6735 32.4715 33.4127 32.4715ZM33.4127 27.9213C34.1825 27.9213 34.8088 28.5477 34.8088 29.3175C34.8088 30.0873 34.1825 30.7137 33.4127 30.7137C32.6428 30.7137 32.0165 30.0873 32.0165 29.3175C32.0165 28.5477 32.6427 27.9213 33.4127 27.9213Z" fill="#3C3C3C"/>
</g>
<defs>
<clipPath id="clip0_495_231">
<rect width="60" height="60" fill="white"/>
</clipPath>
</defs>
</svg>
