<svg width="60" height="60" viewBox="0 0 60 60" fill="none" xmlns="http://www.w3.org/2000/svg">
<g clip-path="url(#clip0_495_218)">
<path d="M37.81 11.6215V8.76208C37.81 7.18826 36.5211 5.90271 34.9432 5.90271H33.2988C31.721 5.90271 30.4321 7.18826 30.4321 8.76208V11.6215" stroke="#3C3C3C" stroke-width="2" stroke-miterlimit="10" stroke-linecap="round" stroke-linejoin="round"/>
<path d="M51.5822 21.9587H54.4224C61.6872 21.9587 60.3651 35.437 51.5822 36.1427" stroke="#3C3C3C" stroke-width="2" stroke-miterlimit="10" stroke-linecap="round" stroke-linejoin="round"/>
<path d="M42.6797 17.3434V21.9587" stroke="#3C3C3C" stroke-width="2" stroke-miterlimit="10" stroke-linecap="round" stroke-linejoin="round"/>
<path d="M41.3211 21.9587H44.0418C44.6496 21.9587 45.1513 22.4557 45.1513 23.0653V27.1074C45.1513 27.717 44.6497 28.214 44.0418 28.214H41.3211C40.7099 28.214 40.2116 27.717 40.2116 27.1074V23.0653C40.2116 22.4557 40.7099 21.9587 41.3211 21.9587Z" stroke="#3C3C3C" stroke-width="2" stroke-miterlimit="10" stroke-linecap="round" stroke-linejoin="round"/>
<path d="M36.4944 17.3434H46.9582C49.4994 17.3434 51.5822 19.4208 51.5822 21.9587V28.7344M51.5822 32.9753V40.4797C51.5822 43.0176 49.4994 45.0917 46.9582 45.0917H21.2838C18.7426 45.0917 16.6598 43.0176 16.6598 40.4797V36.358H14.0788C11.1622 36.358 9.75375 33.3296 8.02641 31.07L2.67832 24.0824C1.34954 22.3462 -0.288043 20.8785 2.08372 20.6399C5.60485 20.2887 6.9136 21.2164 8.37188 22.3959L13.8595 26.8489C15.1484 27.8926 16.6598 27.3824 16.6598 25.8218V21.9586C16.6598 19.4206 18.7426 17.3433 21.2838 17.3433H32.2425" stroke="#3C3C3C" stroke-width="2" stroke-miterlimit="10" stroke-linecap="round" stroke-linejoin="round"/>
<path d="M37.2353 41.3909L36.129 45.0918" stroke="#3C3C3C" stroke-width="2" stroke-miterlimit="10" stroke-linecap="round" stroke-linejoin="round"/>
<path d="M39.3114 45.0919C39.9625 44.4358 40.5073 43.5612 40.8394 42.534C41.6799 39.9529 41.5271 36.4939 39.7067 34.781C39.4476 34.5358 39.4742 34.5458 39.122 34.5921C36.6373 34.9168 34.4848 37.627 33.6443 40.2081C33.0464 42.0535 33.2789 43.9023 34.1227 45.0917H39.3114V45.0919Z" stroke="#3C3C3C" stroke-width="2" stroke-miterlimit="10" stroke-linecap="round" stroke-linejoin="round"/>
<path d="M29.7246 45.0918C29.253 44.6213 28.8642 43.9918 28.6251 43.2529C28.0205 41.3975 28.1301 38.9093 29.4389 37.6768C29.6249 37.5012 29.605 37.5078 29.8575 37.541C31.3889 37.7431 32.7475 39.2042 33.485 40.788C33.1661 42.1497 33.2956 43.4784 33.7772 44.4989C33.6876 44.7143 33.5813 44.913 33.455 45.0919H29.7246V45.0918Z" stroke="#3C3C3C" stroke-width="2" stroke-miterlimit="10" stroke-linecap="round" stroke-linejoin="round"/>
<path d="M15.6533 45.0919H52.5887C53.5188 45.0919 54.2795 45.8506 54.2795 46.7783V49.5946H57.7442C58.1693 49.5946 58.5182 49.9425 58.5182 50.3666V53.3219C58.5182 53.7493 58.1694 54.0972 57.7442 54.0972H10.4979C10.0727 54.0972 9.72388 53.7493 9.72388 53.3219V50.3666C9.72388 49.9425 10.0726 49.5946 10.4979 49.5946H13.9625V46.7783C13.9625 45.8505 14.7232 45.0919 15.6533 45.0919Z" stroke="#3C3C3C" stroke-width="2" stroke-miterlimit="10" stroke-linecap="round" stroke-linejoin="round"/>
<path d="M13.9625 49.5945H54.2795" stroke="#3C3C3C" stroke-width="2" stroke-miterlimit="10" stroke-linecap="round" stroke-linejoin="round"/>
<path d="M46.9582 17.3434V14.484C46.9582 12.9102 45.666 11.6213 44.0882 11.6213H24.1539C22.576 11.6213 21.2838 12.9102 21.2838 14.484V17.3434" stroke="#3C3C3C" stroke-width="2" stroke-miterlimit="10" stroke-linecap="round" stroke-linejoin="round"/>
</g>
<defs>
<clipPath id="clip0_495_218">
<rect width="60" height="60" fill="white"/>
</clipPath>
</defs>
</svg>
