<svg width="60" height="60" viewBox="0 0 60 60" fill="none" xmlns="http://www.w3.org/2000/svg">
<path d="M40.52 14.6299V11.7994C40.52 11.0011 39.8743 10.3516 39.0806 10.3516H31.9L33.2515 7.76027C34.2524 5.84109 34.0828 3.23332 32.8484 1.55953C32.1171 0.568477 31.0791 0 30 0C28.9209 0 27.8829 0.568477 27.1519 1.55953C25.9173 3.23332 25.7477 5.84121 26.7487 7.76027L28.1003 10.3516H20.9196C20.1259 10.3516 19.4802 11.0011 19.4802 11.7994V14.6299C12.6319 14.9191 7.14844 20.6562 7.14844 27.6681C7.14844 29.9466 7.7366 32.1899 8.8493 34.1554C9.08859 34.5778 9.62473 34.7264 10.0472 34.4872C10.4695 34.248 10.6182 33.7118 10.3791 33.2893C9.41555 31.5874 8.90625 29.6436 8.90625 27.6681C8.90625 21.4412 13.893 16.3753 20.0225 16.3753H21.9836C18.1439 18.6366 15.5563 22.8516 15.5563 27.6681C15.5563 32.4846 18.1438 36.6996 21.9836 38.9609H20.0225C17.0603 38.9609 14.2734 37.791 12.1753 35.6666C11.8343 35.3214 11.2778 35.3177 10.9324 35.659C10.5871 36.0001 10.5837 36.5565 10.9248 36.9019C13.2273 39.2331 16.2478 40.5715 19.4801 40.7065V43.5368C19.4801 44.3351 20.1258 44.9845 20.9195 44.9845H29.1211V49.0937C28.4505 49.3784 27.9299 49.9812 27.7485 50.7359L26.0957 57.6122C25.9377 58.2693 26.2478 58.9418 26.8501 59.2474C27.8341 59.7468 28.894 60 30 60C31.106 60 32.1659 59.7468 33.1501 59.2474C33.7522 58.9418 34.0624 58.2694 33.9045 57.6122L32.2413 50.6931C32.0634 49.953 31.5405 49.3738 30.879 49.0958V44.9845H39.0806C39.8743 44.9845 40.52 44.3351 40.52 43.5368V40.7062C47.368 40.4169 52.8516 34.6799 52.8516 27.6681C52.8516 20.6563 47.368 14.9193 40.52 14.6299ZM28.5666 2.60285C28.9684 2.05793 29.4776 1.75781 30 1.75781C30.5224 1.75781 31.0316 2.05793 31.4336 2.60285C32.2768 3.74613 32.3882 5.61387 31.6928 6.94734L30 10.1931L28.3072 6.94746C27.6118 5.61398 27.7232 3.74625 28.5666 2.60285ZM21.2378 14.6174V12.1095H38.7621V14.6174H21.2378ZM32.1377 57.7838C31.7331 57.9666 31.3121 58.0941 30.8789 58.1677V55.4809C30.8789 54.9955 30.4855 54.602 30 54.602C29.5146 54.602 29.1211 54.9955 29.1211 55.4809V58.1677C28.6877 58.0941 28.2668 57.9666 27.8621 57.7838L29.4575 51.1466C29.5186 50.8923 29.718 50.6985 29.9425 50.6752C30.2182 50.6467 30.4655 50.8268 30.5321 51.1038L32.1377 57.7838ZM38.7621 43.2266H21.2378V40.7187H38.7621V43.2266ZM39.9775 38.9609H38.0164C41.8562 36.6996 44.4437 32.4846 44.4437 27.6681C44.4437 25.8379 44.0769 24.0671 43.3536 22.405C43.1599 21.9599 42.6417 21.7559 42.1971 21.9498C41.7519 22.1435 41.5481 22.6613 41.7418 23.1064C42.3683 24.546 42.6859 26.0807 42.6859 27.6681C42.6859 33.895 37.6991 38.9609 31.5695 38.9609H28.4305C22.3009 38.9609 17.3142 33.895 17.3142 27.6681C17.3142 21.4412 22.301 16.3753 28.4305 16.3753H31.5695C34.8969 16.3753 38.0222 17.8716 40.1439 20.4804C40.3175 20.694 40.5709 20.8048 40.8263 20.8048C41.0211 20.8048 41.2173 20.7403 41.3803 20.6077C41.7568 20.3014 41.8138 19.7479 41.5076 19.3712C40.5171 18.1534 39.337 17.1454 38.0287 16.3753H39.9776C46.1072 16.3753 51.0939 21.4412 51.0939 27.6681C51.0939 33.895 46.107 38.9609 39.9775 38.9609Z" fill="#3C3C3C"/>
</svg>
