<svg width="60" height="60" viewBox="0 0 60 60" fill="none" xmlns="http://www.w3.org/2000/svg">
<g clip-path="url(#clip0_495_214)">
<path d="M56.1615 23.4802C55.9395 23.2611 55.6449 23.1382 55.3345 23.1446C49.1455 23.1963 42.961 25.8969 38.3663 30.5537C33.8209 35.1605 31.2231 41.2649 31.1864 47.3789L29.8549 48.7104V37.4629C34.0965 33.1949 36.6845 27.372 37.1462 21.0405C37.1815 20.5564 36.8176 20.1354 36.3334 20.1001C35.8513 20.0648 35.4283 20.4287 35.393 20.9128C35.0094 26.1743 33.06 31.0528 29.8549 34.8612V13.0139C29.8549 12.5285 29.4614 12.135 28.976 12.135C28.4906 12.135 28.0971 12.5285 28.0971 13.0139V34.6154C24.5492 30.3754 22.5281 24.7767 22.4888 18.9097C22.4459 12.5298 24.7627 6.40453 28.8629 2.00613C32.6251 5.92992 34.9346 11.2104 35.3833 16.9437C35.4211 17.4275 35.8462 17.7893 36.3281 17.7513C36.8121 17.7135 37.1738 17.2904 37.1359 16.8064C36.6381 10.4488 33.9947 4.60195 29.6923 0.342891C29.4667 0.119648 29.1635 0.000585937 28.8494 0C28.5314 0.00222656 28.2338 0.127969 28.0112 0.354258C23.3373 5.10703 20.6838 11.8745 20.7311 18.9214C20.7779 25.9027 23.4564 32.5397 28.0972 37.2252V42.1716L22.6885 36.7628C22.6401 32.1874 20.6524 27.6349 17.2075 24.2359C13.7819 20.856 9.21096 18.922 4.65471 18.922C4.62764 18.922 4.60045 18.922 4.57326 18.9221C4.2824 18.9237 4.00947 19.0386 3.80498 19.2459C3.60037 19.4534 3.48904 19.7277 3.49162 20.0184C3.52994 24.6015 5.52822 29.1802 8.97435 32.5802C12.3586 35.9194 16.8367 37.8374 21.3314 37.8915L27.9462 44.5063C27.9928 44.5529 28.0438 44.5928 28.0972 44.6268V56.9991L26.5068 55.4086C26.4704 51.5688 25.1282 47.6927 22.7113 44.4667C22.4203 44.0783 21.8694 43.9992 21.4808 44.2903C21.0924 44.5814 21.0134 45.1323 21.3045 45.5208C23.0952 47.9111 24.2359 50.6885 24.6126 53.5146L14.0984 43.0004C13.7551 42.6572 13.1986 42.6572 12.8555 43.0004C12.5122 43.3437 12.5122 43.9002 12.8555 44.2433L23.2467 54.6346C19.6238 54.148 16.1145 52.4125 13.3554 49.6902C10.2279 46.6045 8.3467 42.5179 8.12955 38.3849C11.9033 38.5289 15.6101 40.0308 18.6338 42.6552C19.0003 42.9734 19.5556 42.9341 19.8736 42.5675C20.1918 42.201 20.1525 41.6459 19.786 41.3277C16.2826 38.2869 11.9347 36.6157 7.53283 36.6157C7.50365 36.6157 7.47389 36.6158 7.44459 36.6159C7.15068 36.6173 6.87506 36.7334 6.66822 36.9429C6.46139 37.1523 6.34877 37.4296 6.35111 37.7238C6.39143 42.546 8.49436 47.3637 12.1207 50.9416C15.687 54.4603 20.407 56.4793 25.1428 56.5309L28.3544 59.7425C28.5134 59.9017 28.7332 60.0001 28.976 60.0001C29.4614 60.0001 29.8549 59.6066 29.8549 59.1212V51.1963L32.2735 48.7778C37.6889 48.7542 43.0735 46.7388 47.4576 43.0881C47.8306 42.7775 47.8811 42.2234 47.5705 41.8502C47.2599 41.4771 46.7057 41.4267 46.3327 41.7373C42.7661 44.7073 38.4955 46.5111 34.1242 46.9271L48.3 32.7512C48.6433 32.408 48.6433 31.8514 48.3 31.5083C47.9567 31.1651 47.4003 31.1651 47.057 31.5083L33.041 45.5242C33.531 40.5023 35.8571 35.5996 39.6176 31.7883C43.7376 27.6125 49.2203 25.1292 54.7446 24.9165C54.6218 29.958 52.6507 34.9245 49.1565 38.9632C48.839 39.3304 48.8792 39.8854 49.2462 40.2029C49.6136 40.5205 50.1682 40.4804 50.4859 40.1133C54.3982 35.5911 56.537 29.9762 56.5083 24.3027C56.5067 23.9913 56.3836 23.6992 56.1615 23.4802ZM10.2088 31.3291C7.26529 28.4249 5.48943 24.5823 5.27146 20.6931C9.16314 20.8589 13.0293 22.583 15.9728 25.4873C18.6028 28.0822 20.2936 31.41 20.7839 34.8585L10.9133 24.9879C10.5701 24.6446 10.0136 24.6446 9.67045 24.9879C9.32721 25.3311 9.32721 25.8877 9.67045 26.2308L19.4247 35.985C16.0478 35.5007 12.7831 33.8691 10.2088 31.3291Z" fill="#3C3C3C"/>
</g>
<defs>
<clipPath id="clip0_495_214">
<rect width="60" height="60" fill="white"/>
</clipPath>
</defs>
</svg>
